<svg version="1.1" xmlns="http://www.w3.org/2000/svg" viewBox="0 0 6425 2420" width="6425" height="2420">
  <!-- svg-source:excalidraw -->
  
  <defs>
    <style class="style-fonts">
      @font-face {
        font-family: "Virgil";
        src: url("https://excalidraw.com/Virgil.woff2");
      }
      @font-face {
        font-family: "Cascadia";
        src: url("https://excalidraw.com/Cascadia.woff2");
      }
      @font-face {
        font-family: "Assistant";
        src: url("https://excalidraw.com/Assistant-Regular.woff2");
      }
    </style>
    
  </defs>
  <rect x="0" y="0" width="6425" height="2420" fill="#ffffff"></rect><g transform="translate(265 10) rotate(0 265.37493896484375 31.25)"><text x="0" y="0" font-family="Virgil, Segoe UI Emoji" font-size="50px" fill="#000000" text-anchor="start" style="white-space: pre;" direction="ltr" dominant-baseline="text-before-edge">Design a Web Crawler</text></g><g transform="translate(265 110) rotate(0 891.9447021484375 56.25)"><text x="0" y="0" font-family="Virgil, Segoe UI Emoji" font-size="30px" fill="#000000" text-anchor="start" style="white-space: pre;" direction="ltr" dominant-baseline="text-before-edge">A web crawler is a program that automatically traverses the web by downloading web pages and following links from one</text><text x="0" y="37.5" font-family="Virgil, Segoe UI Emoji" font-size="30px" fill="#000000" text-anchor="start" style="white-space: pre;" direction="ltr" dominant-baseline="text-before-edge">page to another. It is used to index the web for search engines, collect data for research, or monitor websites</text><text x="0" y="75" font-family="Virgil, Segoe UI Emoji" font-size="30px" fill="#000000" text-anchor="start" style="white-space: pre;" direction="ltr" dominant-baseline="text-before-edge">for changes.</text></g><g stroke-linecap="round" transform="translate(265 310) rotate(0 625 350)"><path d="M32 0 C475.41 -4.07, 919.03 -4.1, 1218 0 M32 0 C353.02 -0.72, 673.78 -0.6, 1218 0 M1218 0 C1238.05 -0.42, 1250.7 11.73, 1250 32 M1218 0 C1240.86 -2.12, 1248.74 11.46, 1250 32 M1250 32 C1252.82 254.9, 1252.18 479.11, 1250 668 M1250 32 C1249.55 264.26, 1249.74 496.03, 1250 668 M1250 668 C1249.3 690.97, 1240.93 698.45, 1218 700 M1250 668 C1251.14 687.61, 1240.27 701.7, 1218 700 M1218 700 C774.21 704.11, 330.99 704.91, 32 700 M1218 700 C929.97 700.57, 641.83 700.04, 32 700 M32 700 C9.6 699.31, 1.04 689.79, 0 668 M32 700 C12.34 700, 0.53 687.63, 0 668 M0 668 C-0.07 439.06, -0.4 208.41, 0 32 M0 668 C1.8 530.84, 1.18 393.25, 0 32 M0 32 C1.13 9.65, 10.04 -1.29, 32 0 M0 32 C1.38 9.75, 12.72 -1.11, 32 0" stroke="#000000" stroke-width="1" fill="none"></path></g><g stroke-linecap="round"><g transform="translate(65 380) rotate(0 80.75 -16.5)"><path d="M-0.69 1.12 C9.6 -4.74, 35.83 -31.51, 62.83 -33.99 C89.83 -36.48, 144.72 -17.05, 161.31 -13.78 M1.15 0.66 C11.22 -4.57, 35.51 -30.79, 62.05 -32.98 C88.6 -35.17, 143.61 -15.72, 160.45 -12.47" stroke="#B8B8B8" stroke-width="1" fill="none"></path></g><g transform="translate(65 380) rotate(0 80.75 -16.5)"><path d="M158.56 -13.82 L146.5 -9.22 L148.76 -21.42 L160.35 -11.76" stroke="none" stroke-width="0" fill="#B8B8B8" fill-rule="evenodd"></path><path d="M160.45 -12.47 C156.1 -11.11, 147.69 -10.73, 145.68 -9.83 M160.45 -12.47 C155.38 -12.08, 151.56 -11.65, 145.68 -9.83 M145.68 -9.83 C145.51 -13.31, 146.46 -16.34, 148.93 -22.08 M145.68 -9.83 C147.48 -14.56, 148.86 -19.04, 148.93 -22.08 M148.93 -22.08 C152.26 -19.28, 158.84 -14.09, 160.45 -12.47 M148.93 -22.08 C153.02 -19.22, 157.26 -15.99, 160.45 -12.47 M160.45 -12.47 C160.45 -12.47, 160.45 -12.47, 160.45 -12.47 M160.45 -12.47 C160.45 -12.47, 160.45 -12.47, 160.45 -12.47" stroke="#B8B8B8" stroke-width="1" fill="none"></path></g></g><mask></mask><g transform="translate(10 391) rotate(0 38.38996887207031 12.5)"><text x="0" y="0" font-family="Virgil, Segoe UI Emoji" font-size="20px" fill="#B8B8B8" text-anchor="start" style="white-space: pre;" direction="ltr" dominant-baseline="text-before-edge">Example</text></g><g transform="translate(10 425) rotate(0 133.0479278564453 130)"><text x="0" y="0" font-family="Virgil, Segoe UI Emoji" font-size="16px" fill="#B8B8B8" text-anchor="start" style="white-space: pre;" direction="ltr" dominant-baseline="text-before-edge">Functional Requirements:</text><text x="0" y="20" font-family="Virgil, Segoe UI Emoji" font-size="16px" fill="#B8B8B8" text-anchor="start" style="white-space: pre;" direction="ltr" dominant-baseline="text-before-edge">- User can create tweets</text><text x="0" y="40" font-family="Virgil, Segoe UI Emoji" font-size="16px" fill="#B8B8B8" text-anchor="start" style="white-space: pre;" direction="ltr" dominant-baseline="text-before-edge">- User can view tweets</text><text x="0" y="60" font-family="Virgil, Segoe UI Emoji" font-size="16px" fill="#B8B8B8" text-anchor="start" style="white-space: pre;" direction="ltr" dominant-baseline="text-before-edge">- User can delete tweets</text><text x="0" y="80" font-family="Virgil, Segoe UI Emoji" font-size="16px" fill="#B8B8B8" text-anchor="start" style="white-space: pre;" direction="ltr" dominant-baseline="text-before-edge">- ...</text><text x="0" y="100" font-family="Virgil, Segoe UI Emoji" font-size="16px" fill="#B8B8B8" text-anchor="start" style="white-space: pre;" direction="ltr" dominant-baseline="text-before-edge"></text><text x="0" y="120" font-family="Virgil, Segoe UI Emoji" font-size="16px" fill="#B8B8B8" text-anchor="start" style="white-space: pre;" direction="ltr" dominant-baseline="text-before-edge">System Scale:</text><text x="0" y="140" font-family="Virgil, Segoe UI Emoji" font-size="16px" fill="#B8B8B8" text-anchor="start" style="white-space: pre;" direction="ltr" dominant-baseline="text-before-edge">100M DAU, 500M tweets per day</text><text x="0" y="160" font-family="Virgil, Segoe UI Emoji" font-size="16px" fill="#B8B8B8" text-anchor="start" style="white-space: pre;" direction="ltr" dominant-baseline="text-before-edge"></text><text x="0" y="180" font-family="Virgil, Segoe UI Emoji" font-size="16px" fill="#B8B8B8" text-anchor="start" style="white-space: pre;" direction="ltr" dominant-baseline="text-before-edge">Non-Functional Requirements:</text><text x="0" y="200" font-family="Virgil, Segoe UI Emoji" font-size="16px" fill="#B8B8B8" text-anchor="start" style="white-space: pre;" direction="ltr" dominant-baseline="text-before-edge">- Availability &gt; consistency</text><text x="0" y="220" font-family="Virgil, Segoe UI Emoji" font-size="16px" fill="#B8B8B8" text-anchor="start" style="white-space: pre;" direction="ltr" dominant-baseline="text-before-edge">- Low latency feed gen</text><text x="0" y="240" font-family="Virgil, Segoe UI Emoji" font-size="16px" fill="#B8B8B8" text-anchor="start" style="white-space: pre;" direction="ltr" dominant-baseline="text-before-edge">- ...</text></g><g transform="translate(315 350) rotate(0 94.3499526977539 18.75)"><text x="0" y="0" font-family="Virgil, Segoe UI Emoji" font-size="30px" fill="#000000" text-anchor="start" style="white-space: pre;" direction="ltr" dominant-baseline="text-before-edge">Requirements</text></g><g transform="translate(315 410) rotate(0 116.35990142822266 12.5)"><text x="0" y="0" font-family="Virgil, Segoe UI Emoji" font-size="20px" fill="#000000" text-anchor="start" style="white-space: pre;" direction="ltr" dominant-baseline="text-before-edge">Functional Requirements</text></g><g transform="translate(315 450) rotate(0 420.4496765136719 25)"><text x="0" y="0" font-family="Virgil, Segoe UI Emoji" font-size="20px" fill="#000000" text-anchor="start" style="white-space: pre;" direction="ltr" dominant-baseline="text-before-edge">1. Crawl the web starting from a given set of seed URLs.</text><text x="0" y="25" font-family="Virgil, Segoe UI Emoji" font-size="20px" fill="#000000" text-anchor="start" style="white-space: pre;" direction="ltr" dominant-baseline="text-before-edge">2. Extract text data from each web page and store the text for later processing.</text></g><g transform="translate(315 550) rotate(0 64.51994323730469 12.5)"><text x="0" y="0" font-family="Virgil, Segoe UI Emoji" font-size="20px" fill="#000000" text-anchor="start" style="white-space: pre;" direction="ltr" dominant-baseline="text-before-edge">System Scale</text></g><g transform="translate(315 580) rotate(0 161.7698974609375 12.5)"><text x="0" y="0" font-family="Virgil, Segoe UI Emoji" font-size="20px" fill="#000000" text-anchor="start" style="white-space: pre;" direction="ltr" dominant-baseline="text-before-edge">- Crawl 10B web pages in 5 days</text></g><g transform="translate(315 660) rotate(0 137.119873046875 12.5)"><text x="0" y="0" font-family="Virgil, Segoe UI Emoji" font-size="20px" fill="#000000" text-anchor="start" style="white-space: pre;" direction="ltr" dominant-baseline="text-before-edge">Non-Functional Requirements</text></g><g transform="translate(339.7852772182661 698.109423269455) rotate(0 559.6596069335938 37.5)"><text x="0" y="0" font-family="Virgil, Segoe UI Emoji" font-size="20px" fill="#1e1e1e" text-anchor="start" style="white-space: pre;" direction="ltr" dominant-baseline="text-before-edge">1. polite - respect any robots.txt</text><text x="0" y="25" font-family="Virgil, Segoe UI Emoji" font-size="20px" fill="#1e1e1e" text-anchor="start" style="white-space: pre;" direction="ltr" dominant-baseline="text-before-edge">2. scalable - should be able to handle the 10B pages in a day</text><text x="0" y="50" font-family="Virgil, Segoe UI Emoji" font-size="20px" fill="#1e1e1e" text-anchor="start" style="white-space: pre;" direction="ltr" dominant-baseline="text-before-edge">3. fault tolerant - Be able to handle large number of failures when fetching pages, be able to resume if needed</text></g><g stroke-linecap="round" transform="translate(265 1060) rotate(0 625 200)"><path d="M32 0 C324.05 -3.99, 616.39 -4.64, 1218 0 M32 0 C471.86 -1.33, 911.68 -1.54, 1218 0 M1218 0 C1238.89 0.61, 1248.38 12.61, 1250 32 M1218 0 C1240.68 0.85, 1251.58 9.64, 1250 32 M1250 32 C1249.26 162.52, 1250.58 291.91, 1250 368 M1250 32 C1252.48 125.49, 1251.64 219.55, 1250 368 M1250 368 C1249.39 388.4, 1237.47 399.04, 1218 400 M1250 368 C1250.4 388.29, 1240.17 400.73, 1218 400 M1218 400 C914.86 400.61, 611.29 401.1, 32 400 M1218 400 C774.77 401.15, 331.44 400.65, 32 400 M32 400 C11.19 401.21, -1.96 390.45, 0 368 M32 400 C12.31 401.11, 1.48 390.34, 0 368 M0 368 C-2.47 245.89, -2.89 126.3, 0 32 M0 368 C-0.12 253.34, 0.3 138.43, 0 32 M0 32 C-0.19 10.51, 10.06 0.54, 32 0 M0 32 C-1.07 10.04, 10.58 -1.42, 32 0" stroke="#000000" stroke-width="1" fill="none"></path></g><g stroke-linecap="round"><g transform="translate(65 1100) rotate(0 80.75 -16.5)"><path d="M0.96 0.12 C11.38 -5.41, 36.07 -31.03, 62.68 -33.52 C89.29 -36.01, 144.04 -18, 160.61 -14.82 M0 -0.87 C10.26 -6.2, 34.65 -30.06, 61.82 -32.26 C88.99 -34.46, 146.22 -17.15, 163.04 -14.06" stroke="#B8B8B8" stroke-width="1" fill="none"></path></g><g transform="translate(65 1100) rotate(0 80.75 -16.5)"><path d="M164.73 -15.02 L148.5 -11.59 L152.2 -25.11 L162.74 -14.04" stroke="none" stroke-width="0" fill="#B8B8B8" fill-rule="evenodd"></path><path d="M163.04 -14.06 C158.59 -12.77, 153.2 -13.15, 148.35 -11.02 M163.04 -14.06 C159.72 -12.82, 156.65 -13.15, 148.35 -11.02 M148.35 -11.02 C148.89 -17.06, 149.68 -21.89, 151.27 -23.36 M148.35 -11.02 C148.43 -13.57, 149.8 -16.92, 151.27 -23.36 M151.27 -23.36 C155.38 -20.26, 159.08 -16.65, 163.04 -14.06 M151.27 -23.36 C155.91 -19.5, 159.03 -17.42, 163.04 -14.06 M163.04 -14.06 C163.04 -14.06, 163.04 -14.06, 163.04 -14.06 M163.04 -14.06 C163.04 -14.06, 163.04 -14.06, 163.04 -14.06" stroke="#B8B8B8" stroke-width="1" fill="none"></path></g></g><mask></mask><g transform="translate(10 1111) rotate(0 38.38996887207031 12.5)"><text x="0" y="0" font-family="Virgil, Segoe UI Emoji" font-size="20px" fill="#B8B8B8" text-anchor="start" style="white-space: pre;" direction="ltr" dominant-baseline="text-before-edge">Example</text></g><g transform="translate(10 1145) rotate(0 51.791969299316406 50)"><text x="0" y="0" font-family="Virgil, Segoe UI Emoji" font-size="16px" fill="#B8B8B8" text-anchor="start" style="white-space: pre;" direction="ltr" dominant-baseline="text-before-edge">Core Entities</text><text x="0" y="20" font-family="Virgil, Segoe UI Emoji" font-size="16px" fill="#B8B8B8" text-anchor="start" style="white-space: pre;" direction="ltr" dominant-baseline="text-before-edge">- User</text><text x="0" y="40" font-family="Virgil, Segoe UI Emoji" font-size="16px" fill="#B8B8B8" text-anchor="start" style="white-space: pre;" direction="ltr" dominant-baseline="text-before-edge">- Tweet</text><text x="0" y="60" font-family="Virgil, Segoe UI Emoji" font-size="16px" fill="#B8B8B8" text-anchor="start" style="white-space: pre;" direction="ltr" dominant-baseline="text-before-edge">- Follow</text><text x="0" y="80" font-family="Virgil, Segoe UI Emoji" font-size="16px" fill="#B8B8B8" text-anchor="start" style="white-space: pre;" direction="ltr" dominant-baseline="text-before-edge">        </text></g><g transform="translate(315 1110) rotate(0 97.10995483398438 18.75)"><text x="0" y="0" font-family="Virgil, Segoe UI Emoji" font-size="30px" fill="#000000" text-anchor="start" style="white-space: pre;" direction="ltr" dominant-baseline="text-before-edge">Core Entities</text></g><g transform="translate(329.92122587570964 1167.4856720717046) rotate(0 84.98993682861328 37.5)"><text x="0" y="0" font-family="Virgil, Segoe UI Emoji" font-size="20px" fill="#1e1e1e" text-anchor="start" style="white-space: pre;" direction="ltr" dominant-baseline="text-before-edge">- url</text><text x="0" y="25" font-family="Virgil, Segoe UI Emoji" font-size="20px" fill="#1e1e1e" text-anchor="start" style="white-space: pre;" direction="ltr" dominant-baseline="text-before-edge">- webpage</text><text x="0" y="50" font-family="Virgil, Segoe UI Emoji" font-size="20px" fill="#1e1e1e" text-anchor="start" style="white-space: pre;" direction="ltr" dominant-baseline="text-before-edge">- page metadata</text></g><g stroke-linecap="round" transform="translate(265 1510) rotate(0 625 175)"><path d="M32 0 C389.21 -0.38, 747.49 -0.44, 1218 0 M32 0 C317.72 4.25, 603.52 3.57, 1218 0 M1218 0 C1237.57 -0.03, 1249.87 11.44, 1250 32 M1218 0 C1239.66 1.16, 1249.72 10.26, 1250 32 M1250 32 C1248.8 111.99, 1250.27 192.46, 1250 318 M1250 32 C1250.61 126.35, 1250.73 220.01, 1250 318 M1250 318 C1251.57 338.53, 1238.18 348.81, 1218 350 M1250 318 C1248.97 339.35, 1237.48 349.66, 1218 350 M1218 350 C801.39 347.5, 383.43 348.62, 32 350 M1218 350 C947.11 353.84, 676.57 354.2, 32 350 M32 350 C9.38 351.95, -0.59 340.25, 0 318 M32 350 C8.49 350.07, -0.32 337.11, 0 318 M0 318 C1.27 252.28, 2.1 185.45, 0 32 M0 318 C0.13 235.47, -0.6 151.72, 0 32 M0 32 C-1.28 11.57, 8.95 -1.48, 32 0 M0 32 C-0.65 11.31, 9.47 1.69, 32 0" stroke="#000000" stroke-width="1" fill="none"></path></g><g stroke-linecap="round"><g transform="translate(65 1545) rotate(0 80.75 -16.5)"><path d="M-0.66 -0.56 C9.61 -6.09, 35.55 -31.14, 62.54 -33.26 C89.54 -35.38, 144.96 -16.53, 161.32 -13.26 M1.2 1.76 C11.22 -3.58, 35.07 -29.01, 61.62 -31.86 C88.16 -34.71, 143.97 -18.58, 160.47 -15.34" stroke="#B8B8B8" stroke-width="1" fill="none"></path></g><g transform="translate(65 1545) rotate(0 80.75 -16.5)"><path d="M159.43 -16.02 L145.88 -12.08 L146.74 -23.83 L160.87 -16.1" stroke="none" stroke-width="0" fill="#B8B8B8" fill-rule="evenodd"></path><path d="M160.47 -15.34 C154.2 -14.2, 149 -13.31, 145.78 -12.27 M160.47 -15.34 C155.95 -13.69, 151.04 -13, 145.78 -12.27 M145.78 -12.27 C147.5 -15.04, 147.71 -20.43, 148.68 -24.61 M145.78 -12.27 C146.45 -14.18, 146.69 -17.39, 148.68 -24.61 M148.68 -24.61 C152.21 -21.01, 157.78 -18.51, 160.47 -15.34 M148.68 -24.61 C152.74 -22.62, 155.74 -18.51, 160.47 -15.34 M160.47 -15.34 C160.47 -15.34, 160.47 -15.34, 160.47 -15.34 M160.47 -15.34 C160.47 -15.34, 160.47 -15.34, 160.47 -15.34" stroke="#B8B8B8" stroke-width="1" fill="none"></path></g></g><mask></mask><g transform="translate(10 1556) rotate(0 38.38996887207031 12.5)"><text x="0" y="0" font-family="Virgil, Segoe UI Emoji" font-size="20px" fill="#B8B8B8" text-anchor="start" style="white-space: pre;" direction="ltr" dominant-baseline="text-before-edge">Example</text></g><g transform="translate(10 1590) rotate(0 140.055908203125 20)"><text x="0" y="0" font-family="Virgil, Segoe UI Emoji" font-size="16px" fill="#B8B8B8" text-anchor="start" style="white-space: pre;" direction="ltr" dominant-baseline="text-before-edge">Input: the input to your system</text><text x="0" y="20" font-family="Virgil, Segoe UI Emoji" font-size="16px" fill="#B8B8B8" text-anchor="start" style="white-space: pre;" direction="ltr" dominant-baseline="text-before-edge">Output: the output of your system</text></g><g transform="translate(315 1560) rotate(0 129.31494140625 18.75)"><text x="0" y="0" font-family="Virgil, Segoe UI Emoji" font-size="30px" fill="#000000" text-anchor="start" style="white-space: pre;" direction="ltr" dominant-baseline="text-before-edge">System Interface</text></g><g transform="translate(317.9670204680341 1620.4834292078992) rotate(0 360.189697265625 25)"><text x="0" y="0" font-family="Virgil, Segoe UI Emoji" font-size="20px" fill="#1e1e1e" text-anchor="start" style="white-space: pre;" direction="ltr" dominant-baseline="text-before-edge">- input: list of seed URLs</text><text x="0" y="25" font-family="Virgil, Segoe UI Emoji" font-size="20px" fill="#1e1e1e" text-anchor="start" style="white-space: pre;" direction="ltr" dominant-baseline="text-before-edge">- output: store parsed text content from webpages for later processing</text></g><g stroke-linecap="round" transform="translate(265 1910) rotate(0 625 250)"><path d="M32 0 C417.64 2.3, 802.72 1.71, 1218 0 M32 0 C316.54 2.6, 601.76 3.13, 1218 0 M1218 0 C1237.35 1.44, 1251.66 8.85, 1250 32 M1218 0 C1239.13 -2.29, 1249.58 11.8, 1250 32 M1250 32 C1250.97 153.78, 1251.19 277.43, 1250 468 M1250 32 C1251.36 140.06, 1250.83 247.8, 1250 468 M1250 468 C1249.8 487.91, 1239.79 499.13, 1218 500 M1250 468 C1251.38 489.42, 1240.83 500.57, 1218 500 M1218 500 C911.58 499.49, 604.9 498.63, 32 500 M1218 500 C860.29 499.99, 501.71 500.04, 32 500 M32 500 C9.35 498.76, -0.28 488.87, 0 468 M32 500 C8.51 500.81, -1.65 488.28, 0 468 M0 468 C-2.24 325.73, -2.54 181.57, 0 32 M0 468 C1.26 350.28, 1.66 232.89, 0 32 M0 32 C-1.92 9.67, 11.09 0.99, 32 0 M0 32 C-1.26 11, 11.56 -2.08, 32 0" stroke="#000000" stroke-width="1" fill="none"></path></g><g stroke-linecap="round"><g transform="translate(65 1960) rotate(0 80.75 -16.5)"><path d="M1.16 0.33 C11.45 -5.22, 35.26 -31.46, 62.15 -33.94 C89.04 -36.42, 146.02 -18.11, 162.51 -14.56 M0.31 -0.55 C10.38 -5.92, 34.03 -30.7, 61.02 -32.89 C88.02 -35.08, 145.59 -16.71, 162.27 -13.66" stroke="#B8B8B8" stroke-width="1" fill="none"></path></g><g transform="translate(65 1960) rotate(0 80.75 -16.5)"><path d="M161.71 -12.58 L147.74 -9.88 L152.05 -21.26 L160.98 -13.12" stroke="none" stroke-width="0" fill="#B8B8B8" fill-rule="evenodd"></path><path d="M162.27 -13.66 C157.79 -12.99, 151.34 -10.33, 147.56 -10.74 M162.27 -13.66 C159.37 -13.36, 155.77 -11.91, 147.56 -10.74 M147.56 -10.74 C148.77 -14.24, 149.8 -17.01, 150.57 -23.06 M147.56 -10.74 C148.33 -13.38, 148.93 -16.64, 150.57 -23.06 M150.57 -23.06 C151.91 -20.14, 154.54 -19.85, 162.27 -13.66 M150.57 -23.06 C155.2 -19.69, 159.13 -15.6, 162.27 -13.66 M162.27 -13.66 C162.27 -13.66, 162.27 -13.66, 162.27 -13.66 M162.27 -13.66 C162.27 -13.66, 162.27 -13.66, 162.27 -13.66" stroke="#B8B8B8" stroke-width="1" fill="none"></path></g></g><mask></mask><g transform="translate(10 1971) rotate(0 110 13.75)"><text x="0" y="0" font-family="Virgil, Segoe UI Emoji" font-size="20px" fill="#B8B8B8" text-anchor="start" style="white-space: pre;" direction="ltr" dominant-baseline="text-before-edge">Example</text></g><g transform="translate(10 2005) rotate(0 110 40)"><text x="0" y="0" font-family="Virgil, Segoe UI Emoji" font-size="16px" fill="#B8B8B8" text-anchor="start" style="white-space: pre;" direction="ltr" dominant-baseline="text-before-edge">1. Data enters the system by X</text><text x="0" y="20" font-family="Virgil, Segoe UI Emoji" font-size="16px" fill="#B8B8B8" text-anchor="start" style="white-space: pre;" direction="ltr" dominant-baseline="text-before-edge">2. Data is processed by Z</text><text x="0" y="40" font-family="Virgil, Segoe UI Emoji" font-size="16px" fill="#B8B8B8" text-anchor="start" style="white-space: pre;" direction="ltr" dominant-baseline="text-before-edge">...</text><text x="0" y="60" font-family="Virgil, Segoe UI Emoji" font-size="16px" fill="#B8B8B8" text-anchor="start" style="white-space: pre;" direction="ltr" dominant-baseline="text-before-edge">N. Data is stored in W</text></g><g transform="translate(315 1960) rotate(0 500 25)"><text x="0" y="0" font-family="Virgil, Segoe UI Emoji" font-size="30px" fill="#000000" text-anchor="start" style="white-space: pre;" direction="ltr" dominant-baseline="text-before-edge">Data Flow</text></g><g transform="translate(328.7039320871794 2017.5766267419663) rotate(0 472.5396423339844 87.5)"><text x="0" y="0" font-family="Virgil, Segoe UI Emoji" font-size="20px" fill="#1e1e1e" text-anchor="start" style="white-space: pre;" direction="ltr" dominant-baseline="text-before-edge">1. list of URLs are fed into the URL frontier</text><text x="0" y="25" font-family="Virgil, Segoe UI Emoji" font-size="20px" fill="#1e1e1e" text-anchor="start" style="white-space: pre;" direction="ltr" dominant-baseline="text-before-edge">2. Resolve DNS for the given url to scrape</text><text x="0" y="50" font-family="Virgil, Segoe UI Emoji" font-size="20px" fill="#1e1e1e" text-anchor="start" style="white-space: pre;" direction="ltr" dominant-baseline="text-before-edge">3. Webpage is fetched for a given url.</text><text x="0" y="75" font-family="Virgil, Segoe UI Emoji" font-size="20px" fill="#1e1e1e" text-anchor="start" style="white-space: pre;" direction="ltr" dominant-baseline="text-before-edge">4. Text is extracted from the webpage</text><text x="0" y="100" font-family="Virgil, Segoe UI Emoji" font-size="20px" fill="#1e1e1e" text-anchor="start" style="white-space: pre;" direction="ltr" dominant-baseline="text-before-edge">5. Webpage content is stored in a DB.</text><text x="0" y="125" font-family="Virgil, Segoe UI Emoji" font-size="20px" fill="#1e1e1e" text-anchor="start" style="white-space: pre;" direction="ltr" dominant-baseline="text-before-edge">6. Additional URL links are extracted from the webpage and added back to the URL frontiner.</text><text x="0" y="150" font-family="Virgil, Segoe UI Emoji" font-size="20px" fill="#1e1e1e" text-anchor="start" style="white-space: pre;" direction="ltr" dominant-baseline="text-before-edge">7. Repeat 1-5</text></g><g stroke-linecap="round" transform="translate(1565 310) rotate(0 1750 1050)"><path d="M32 0 C1039.84 -6.19, 2047.05 -6.7, 3468 0 M32 0 C1172.84 1.47, 2313.48 1.93, 3468 0 M3468 0 C3490.31 0.8, 3500.14 9.56, 3500 32 M3468 0 C3490.3 -0.32, 3499.46 9.62, 3500 32 M3500 32 C3502.1 652.29, 3502.3 1271.68, 3500 2068 M3500 32 C3493.18 470.14, 3493.7 907.64, 3500 2068 M3500 2068 C3498.7 2089.85, 3489.67 2101.93, 3468 2100 M3500 2068 C3501.73 2088.19, 3487.19 2098.22, 3468 2100 M3468 2100 C2643.41 2103.1, 1819.22 2102.59, 32 2100 M3468 2100 C2624.51 2093.02, 1781.32 2093.23, 32 2100 M32 2100 C11.91 2099.91, -0.03 2090.17, 0 2068 M32 2100 C9.57 2101.9, -0.43 2087.3, 0 2068 M0 2068 C1.43 1384.04, 1.78 699.84, 0 32 M0 2068 C4.97 1386.55, 4.52 706.13, 0 32 M0 32 C1.25 8.78, 9.62 -1.16, 32 0 M0 32 C-0.12 10.38, 10.89 0.14, 32 0" stroke="#299a8d" stroke-width="10" fill="none"></path></g><g transform="translate(1615 360) rotate(0 500 25)"><text x="0" y="0" font-family="Virgil, Segoe UI Emoji" font-size="30px" fill="#000000" text-anchor="start" style="white-space: pre;" direction="ltr" dominant-baseline="text-before-edge">High-Level Design</text></g><g stroke-linecap="round"><g transform="translate(5415 520) rotate(0 -140 -30)"><path d="M1.11 1.19 C-15.47 -8.73, -52.92 -55.23, -99.76 -59.43 C-146.61 -63.63, -249.85 -29.69, -279.95 -24.03 M0.24 0.77 C-16.46 -9.52, -53.77 -56.82, -100.59 -61.26 C-147.41 -65.69, -250.74 -31.98, -280.69 -25.86" stroke="#B8B8B8" stroke-width="1" fill="none"></path></g><g transform="translate(5415 520) rotate(0 -140 -30)"><path d="M-281.19 -26.66 L-269.59 -35.36 L-264.98 -24.32 L-280.09 -26.12" stroke="none" stroke-width="0" fill="#B8B8B8" fill-rule="evenodd"></path><path d="M-280.69 -25.86 C-275.97 -28.33, -273.53 -31.22, -269.11 -35.4 M-280.69 -25.86 C-276.52 -29.37, -271.17 -33.21, -269.11 -35.4 M-269.11 -35.4 C-268.18 -32.4, -266.62 -28.5, -265.94 -23.12 M-269.11 -35.4 C-268.77 -31.48, -267.28 -27.97, -265.94 -23.12 M-265.94 -23.12 C-269.58 -24.39, -274.21 -25.76, -280.69 -25.86 M-265.94 -23.12 C-269.32 -23.22, -273.79 -24.34, -280.69 -25.86 M-280.69 -25.86 C-280.69 -25.86, -280.69 -25.86, -280.69 -25.86 M-280.69 -25.86 C-280.69 -25.86, -280.69 -25.86, -280.69 -25.86" stroke="#B8B8B8" stroke-width="1" fill="none"></path></g></g><mask></mask><g transform="translate(5415 540) rotate(0 500 25)"><text x="0" y="0" font-family="Virgil, Segoe UI Emoji" font-size="20px" fill="#B8B8B8" text-anchor="start" style="white-space: pre;" direction="ltr" dominant-baseline="text-before-edge">Simple Example</text></g><g stroke-linecap="round" transform="translate(5415 570) rotate(0 50 50)"><path d="M25 0 C36.93 1.67, 48.14 0.98, 75 0 M25 0 C40.61 0.22, 57.32 1.06, 75 0 M75 0 C89.98 0.22, 99.68 6.77, 100 25 M75 0 C93.15 -2.01, 101.91 8.16, 100 25 M100 25 C101.86 35.94, 98.15 48.35, 100 75 M100 25 C99.84 37.63, 99.75 49.04, 100 75 M100 75 C101.39 92.98, 91.5 101.31, 75 100 M100 75 C100.88 91.81, 93.89 98.43, 75 100 M75 100 C60.9 102.19, 46.18 100.38, 25 100 M75 100 C62.86 99.73, 51.73 100.87, 25 100 M25 100 C9.12 99.61, 0.09 90.41, 0 75 M25 100 C10.54 98.52, 0.58 90.46, 0 75 M0 75 C-1.31 64, 1.13 52.83, 0 25 M0 75 C-0.32 59.35, -1.06 43.55, 0 25 M0 25 C-1.11 6.34, 6.65 0.29, 25 0 M0 25 C1.44 8.59, 10.1 -0.54, 25 0" stroke="#B8B8B8" stroke-width="1" fill="none"></path></g><g transform="translate(5445 612) rotate(0 10 10)"><text x="0" y="0" font-family="Virgil, Segoe UI Emoji" font-size="16px" fill="#B8B8B8" text-anchor="start" style="white-space: pre;" direction="ltr" dominant-baseline="text-before-edge">Client</text></g><g stroke-linecap="round"><g transform="translate(5525 620) rotate(0 25 0)"><path d="M0.96 -0.91 C9.16 -1.04, 41.67 -0.03, 49.71 0.21 M0 1.23 C7.97 0.62, 40 -1.34, 48.6 -1.8" stroke="#B8B8B8" stroke-width="1" fill="none"></path></g><g transform="translate(5525 620) rotate(0 25 0)"><path d="M25.65 8.1 C31.94 4.03, 41.68 -0.26, 48.6 -1.8 M25.65 8.1 C32.58 5.45, 41.24 1.53, 48.6 -1.8" stroke="#B8B8B8" stroke-width="1" fill="none"></path></g><g transform="translate(5525 620) rotate(0 25 0)"><path d="M24.65 -8.97 C31.43 -7.19, 41.51 -5.61, 48.6 -1.8 M24.65 -8.97 C31.94 -5.79, 40.94 -3.86, 48.6 -1.8" stroke="#B8B8B8" stroke-width="1" fill="none"></path></g></g><mask></mask><g stroke-linecap="round" transform="translate(5585 520) rotate(0 50 100)"><path d="M25 0 C43.28 1.93, 63.48 0.74, 75 0 M25 0 C39.33 -0.18, 51.53 -0.64, 75 0 M75 0 C91.66 -0.93, 99.15 8.82, 100 25 M75 0 C92.25 -1.2, 100.74 8.91, 100 25 M100 25 C96.6 77.41, 99.98 125.56, 100 175 M100 25 C100 84.94, 99.89 144, 100 175 M100 175 C101.87 191.57, 91.19 199.34, 75 200 M100 175 C100.54 193.67, 93.88 198.83, 75 200 M75 200 C55.61 199.1, 36.93 201.7, 25 200 M75 200 C55.87 199.65, 37.19 200.16, 25 200 M25 200 C8.04 198.26, -1.6 191.88, 0 175 M25 200 C7.9 201.98, 1.18 193.69, 0 175 M0 175 C0.68 114.38, 1.96 56.11, 0 25 M0 175 C1.33 142.39, 0.93 108.69, 0 25 M0 25 C-0.15 8.93, 9.61 -1.3, 25 0 M0 25 C-1.7 6.88, 7.77 2.22, 25 0" stroke="#B8B8B8" stroke-width="1" fill="none"></path></g><g transform="translate(5605 612) rotate(0 10 10)"><text x="0" y="0" font-family="Virgil, Segoe UI Emoji" font-size="16px" fill="#B8B8B8" text-anchor="start" style="white-space: pre;" direction="ltr" dominant-baseline="text-before-edge">Server</text></g><g stroke-linecap="round"><g transform="translate(5695 620) rotate(0 25 0)"><path d="M-0.18 -1.07 C8.05 -1.17, 40.37 0.08, 48.87 0.28 M-1.73 0.98 C6.89 0.42, 42.28 -1.78, 50.98 -1.7" stroke="#B8B8B8" stroke-width="1" fill="none"></path></g><g transform="translate(5695 620) rotate(0 25 0)"><path d="M27.78 7.6 C31.93 3.34, 40.18 4.17, 50.98 -1.7 M27.78 7.6 C35.65 5.08, 42.48 2.53, 50.98 -1.7" stroke="#B8B8B8" stroke-width="1" fill="none"></path></g><g transform="translate(5695 620) rotate(0 25 0)"><path d="M27.23 -9.49 C31.64 -9.33, 40.04 -4.08, 50.98 -1.7 M27.23 -9.49 C35.39 -6.76, 42.39 -4.05, 50.98 -1.7" stroke="#B8B8B8" stroke-width="1" fill="none"></path></g></g><mask></mask><g stroke-linecap="round" transform="translate(5755 570) rotate(0 50 50)"><path d="M25 0 C43.54 -0.62, 58.99 -0.81, 75 0 M25 0 C36.37 -0.42, 48.8 0.18, 75 0 M75 0 C93.58 1.29, 101.86 10.3, 100 25 M75 0 C90.4 -1.51, 99.79 6.47, 100 25 M100 25 C97.74 45.67, 101.4 62.17, 100 75 M100 25 C99.68 43.2, 100.18 60.75, 100 75 M100 75 C101.89 90.04, 90.92 98.96, 75 100 M100 75 C100.57 90.75, 93.44 100.03, 75 100 M75 100 C58.76 98.59, 42.65 101.74, 25 100 M75 100 C59.63 100.77, 44.29 100.76, 25 100 M25 100 C7.73 100.24, 1.95 90.93, 0 75 M25 100 C10.5 101.41, 1.73 91.4, 0 75 M0 75 C-0.62 58.95, 0.15 41.51, 0 25 M0 75 C-0.47 64.34, 0.94 53.1, 0 25 M0 25 C-0.69 10.28, 9.72 1.49, 25 0 M0 25 C-1.36 9.67, 10.09 -2.19, 25 0" stroke="#B8B8B8" stroke-width="1" fill="none"></path></g><g transform="translate(5785 612) rotate(0 10 10)"><text x="0" y="0" font-family="Virgil, Segoe UI Emoji" font-size="16px" fill="#B8B8B8" text-anchor="start" style="white-space: pre;" direction="ltr" dominant-baseline="text-before-edge">DB</text></g><g stroke-linecap="round" transform="translate(2239.552928865122 1141.6732055981586) rotate(0 341.6132032748958 45.66217017713154)"><path d="M22.83 0 C196.63 -2.31, 371.71 -3.08, 660.4 0 M22.83 0 C174.55 2.55, 326.47 2.57, 660.4 0 M660.4 0 C676.41 1.48, 681.89 7.11, 683.23 22.83 M660.4 0 C677.73 -2.12, 683.84 8.11, 683.23 22.83 M683.23 22.83 C681.79 37.73, 684.04 52.57, 683.23 68.49 M683.23 22.83 C683.55 38.06, 682.59 54.04, 683.23 68.49 M683.23 68.49 C684.48 82.12, 675.12 90.94, 660.4 91.32 M683.23 68.49 C681.09 82.25, 674.15 89.07, 660.4 91.32 M660.4 91.32 C477.39 89.51, 294.83 88.8, 22.83 91.32 M660.4 91.32 C465.11 90.81, 270.64 90.76, 22.83 91.32 M22.83 91.32 C5.9 93.07, -1.61 85.37, 0 68.49 M22.83 91.32 C5.32 90.09, 1.24 84.99, 0 68.49 M0 68.49 C0.67 55.43, -1.58 42.99, 0 22.83 M0 68.49 C-0.22 58.69, 0.9 48.26, 0 22.83 M0 22.83 C-0.9 5.88, 8.91 1.04, 22.83 0 M0 22.83 C2.12 5.46, 7.78 -1.97, 22.83 0" stroke="#1e1e1e" stroke-width="2" fill="none"></path></g><g transform="translate(2402.1354706652965 1167.9789257223922) rotate(0 94.50993347167969 12.5)"><text x="0" y="0" font-family="Virgil, Segoe UI Emoji" font-size="20px" fill="#1e1e1e" text-anchor="start" style="white-space: pre;" direction="ltr" dominant-baseline="text-before-edge">URL Frontier (SQS)</text></g><g transform="translate(2270.449492935564 1039.689405904405) rotate(0 58.349975585937386 12.5)"><text x="0" y="0" font-family="Virgil, Segoe UI Emoji" font-size="20px" fill="#1e1e1e" text-anchor="start" style="white-space: pre;" direction="ltr" dominant-baseline="text-before-edge">SEED URLS</text></g><g stroke-linecap="round"><g transform="translate(2365.9857577864436 1062.3166243467533) rotate(0 19.37951014795408 32.73890750298813)"><path d="M0.28 0.95 C6.56 11.96, 32.37 55.1, 38.7 65.96 M-1.02 0.41 C4.99 11.05, 31.35 53.47, 37.72 64.09" stroke="#1e1e1e" stroke-width="2" fill="none"></path></g><g transform="translate(2365.9857577864436 1062.3166243467533) rotate(0 19.37951014795408 32.73890750298813)"><path d="M18.17 48.51 C27.37 54.43, 34.19 59.75, 37.72 64.09 M18.17 48.51 C25.41 53.49, 32.28 60.42, 37.72 64.09" stroke="#1e1e1e" stroke-width="2" fill="none"></path></g><g transform="translate(2365.9857577864436 1062.3166243467533) rotate(0 19.37951014795408 32.73890750298813)"><path d="M32.76 39.59 C36.27 49.02, 37.42 57.81, 37.72 64.09 M32.76 39.59 C34.88 47.74, 36.58 57.84, 37.72 64.09" stroke="#1e1e1e" stroke-width="2" fill="none"></path></g></g><mask></mask><g stroke-linecap="round" transform="translate(3434.9595275855427 987.2620299333666) rotate(0 171.17276988550884 139.38540737815163)"><path d="M32 0 C132.62 1.52, 231.88 1.2, 310.35 0 M32 0 C89.57 -1.49, 147.19 -0.43, 310.35 0 M310.35 0 C330.83 1.61, 342.23 9.81, 342.35 32 M310.35 0 C331.35 -2.21, 343.13 9.71, 342.35 32 M342.35 32 C343.38 78.24, 340.2 125.71, 342.35 246.77 M342.35 32 C341.21 87.49, 341.21 144.36, 342.35 246.77 M342.35 246.77 C340.63 269.52, 330.1 278.15, 310.35 278.77 M342.35 246.77 C344.47 265.94, 330.02 277.67, 310.35 278.77 M310.35 278.77 C207.4 279.72, 105.49 277.91, 32 278.77 M310.35 278.77 C252.85 279.92, 194.45 278.81, 32 278.77 M32 278.77 C9.82 277.6, -1.3 267.39, 0 246.77 M32 278.77 C11.4 280.11, 2.27 268.71, 0 246.77 M0 246.77 C-0.19 161.97, 0.56 81.25, 0 32 M0 246.77 C0.71 198.28, 0.49 150.82, 0 32 M0 32 C-1.05 10.96, 10.97 0.29, 32 0 M0 32 C2.01 9.53, 11.08 -1.07, 32 0" stroke="#1e1e1e" stroke-width="2" fill="none"></path></g><g transform="translate(3569.8141883320664 1073.3561722951617) rotate(0 35.89997100830078 12.5)"><text x="0" y="0" font-family="Virgil, Segoe UI Emoji" font-size="20px" fill="#1e1e1e" text-anchor="start" style="white-space: pre;" direction="ltr" dominant-baseline="text-before-edge">Crawler</text></g><g stroke-linecap="round" transform="translate(3265.736207346803 588.8790052964208) rotate(0 74.337277468911 65.99688948120792)"><path d="M93.75 16.5 C106.49 26.54, 120 38.33, 129.92 49.5 M93.75 16.5 C104.64 26.29, 116.69 37.14, 129.92 49.5 M129.92 49.5 C149.8 65.09, 146.68 65.8, 129.92 82.5 M129.92 49.5 C149.91 68, 150.25 68.05, 129.92 82.5 M129.92 82.5 C118.47 90.5, 110.44 103.24, 93.75 115.49 M129.92 82.5 C117.21 94.94, 104.3 104.93, 93.75 115.49 M93.75 115.49 C73.11 130.02, 73.08 129.99, 56.25 115.49 M93.75 115.49 C74.63 133.16, 77.27 133.82, 56.25 115.49 M56.25 115.49 C44.64 106.15, 30.63 91.76, 18.75 82.5 M56.25 115.49 C42.58 103.2, 27.63 90.52, 18.75 82.5 M18.75 82.5 C-1.62 66.14, -1.38 64.16, 18.75 49.5 M18.75 82.5 C1.75 64.46, -0.88 68, 18.75 49.5 M18.75 49.5 C25.62 41.62, 35.48 36.57, 56.25 16.5 M18.75 49.5 C28.4 42.2, 36.47 33.16, 56.25 16.5 M56.25 16.5 C76.78 -0.8, 76.42 -1.5, 93.75 16.5 M56.25 16.5 C75.04 -1.53, 77.21 -0.8, 93.75 16.5" stroke="#1e1e1e" stroke-width="2" fill="none"></path></g><g transform="translate(3319.584861645223 642.3774500370248) rotate(0 20.319984436035156 12.5)"><text x="20.319984436035156" y="0" font-family="Virgil, Segoe UI Emoji" font-size="20px" fill="#1e1e1e" text-anchor="middle" style="white-space: pre;" direction="ltr" dominant-baseline="text-before-edge">DNS</text></g><g stroke-linecap="round" transform="translate(3679.855672537886 517.8773906738314) rotate(0 93.33455435825704 93.66196628339429)"><path d="M117.5 23.5 C131.64 37.7, 143.84 50.03, 163.17 70.5 M117.5 23.5 C131.89 38.58, 147.01 54.75, 163.17 70.5 M163.17 70.5 C186.05 93.35, 186.61 94.41, 163.17 117.5 M163.17 70.5 C186.82 96.02, 184.98 94.68, 163.17 117.5 M163.17 117.5 C144.68 136.33, 125.61 152.28, 117.5 163.82 M163.17 117.5 C148.7 131.64, 132.26 148.52, 117.5 163.82 M117.5 163.82 C94.84 188.48, 93.04 188.92, 70.5 163.82 M117.5 163.82 C93.04 187.22, 94.65 185.25, 70.5 163.82 M70.5 163.82 C52.23 143.97, 32.76 128.46, 23.5 117.5 M70.5 163.82 C51.99 145.14, 33.32 127.69, 23.5 117.5 M23.5 117.5 C-1.76 93.22, -0.12 92.07, 23.5 70.5 M23.5 117.5 C-0.49 96.03, -1.7 95.41, 23.5 70.5 M23.5 70.5 C32.37 61.42, 43.16 51.44, 70.5 23.5 M23.5 70.5 C40.94 52.41, 56.61 35.49, 70.5 23.5 M70.5 23.5 C93.96 0.37, 93.53 -1.61, 117.5 23.5 M70.5 23.5 C94.95 -1.25, 96.23 -0.45, 117.5 23.5" stroke="#1e1e1e" stroke-width="2" fill="none"></path></g><g transform="translate(3734.3029866432844 599.2083738155286) rotate(0 38.71996307373047 12.5)"><text x="38.71996307373047" y="0" font-family="Virgil, Segoe UI Emoji" font-size="20px" fill="#1e1e1e" text-anchor="middle" style="white-space: pre;" direction="ltr" dominant-baseline="text-before-edge">webpage</text></g><g stroke-linecap="round"><g transform="translate(3453.4934068220437 968.273112472587) rotate(0 -47.701209574298446 -123.89464186691902)"><path d="M-1.08 -0.88 C-17.13 -42.25, -80.28 -206, -95.93 -247.15 M0.55 1.27 C-15.73 -39.93, -81.14 -207.65, -97.15 -248.94" stroke="#1e1e1e" stroke-width="2" fill="none"></path></g><g transform="translate(3453.4934068220437 968.273112472587) rotate(0 -47.701209574298446 -123.89464186691902)"><path d="M-17.52 -19.72 C-13.43 -14.28, -5.52 -6.5, -1.08 -0.88 M-17.52 -19.72 C-12.46 -14.48, -7.56 -7.77, -1.08 -0.88" stroke="#1e1e1e" stroke-width="2" fill="none"></path></g><g transform="translate(3453.4934068220437 968.273112472587) rotate(0 -47.701209574298446 -123.89464186691902)"><path d="M-1.56 -25.87 C-2.65 -18.56, 0.03 -8.77, -1.08 -0.88 M-1.56 -25.87 C-1.29 -18.76, -1.16 -10.22, -1.08 -0.88" stroke="#1e1e1e" stroke-width="2" fill="none"></path></g><g transform="translate(3453.4934068220437 968.273112472587) rotate(0 -47.701209574298446 -123.89464186691902)"><path d="M-80.66 -230.15 C-87.7 -237.33, -90.57 -241.88, -97.15 -248.94 M-80.66 -230.15 C-85.35 -236.09, -90.29 -240.63, -97.15 -248.94" stroke="#1e1e1e" stroke-width="2" fill="none"></path></g><g transform="translate(3453.4934068220437 968.273112472587) rotate(0 -47.701209574298446 -123.89464186691902)"><path d="M-96.6 -223.95 C-98.47 -233.01, -96.12 -239.59, -97.15 -248.94 M-96.6 -223.95 C-96.51 -231.77, -96.69 -238.17, -97.15 -248.94" stroke="#1e1e1e" stroke-width="2" fill="none"></path></g></g><mask></mask><g stroke-linecap="round"><g transform="translate(3686.4629928917807 963.7828917849923) rotate(0 30.38038021140619 -139.393780819274)"><path d="M0.59 0.67 C10.54 -45.47, 50.83 -231.15, 60.8 -277.73 M-0.55 -0.02 C9.14 -46.4, 49.87 -233.05, 59.88 -279.3" stroke="#1e1e1e" stroke-width="2" fill="none"></path></g><g transform="translate(3686.4629928917807 963.7828917849923) rotate(0 30.38038021140619 -139.393780819274)"><path d="M-2.79 -24.1 C-0.51 -14.3, 1.46 -5.2, 0.59 0.67 M-2.79 -24.1 C-2.74 -17.35, -1.39 -10.11, 0.59 0.67" stroke="#1e1e1e" stroke-width="2" fill="none"></path></g><g transform="translate(3686.4629928917807 963.7828917849923) rotate(0 30.38038021140619 -139.393780819274)"><path d="M13.92 -20.48 C9.65 -12.02, 5.05 -4.34, 0.59 0.67 M13.92 -20.48 C9 -14.81, 5.38 -8.64, 0.59 0.67" stroke="#1e1e1e" stroke-width="2" fill="none"></path></g><g transform="translate(3686.4629928917807 963.7828917849923) rotate(0 30.38038021140619 -139.393780819274)"><path d="M63.25 -254.52 C63.22 -264.18, 62.54 -274.57, 59.88 -279.3 M63.25 -254.52 C61.41 -262.53, 60.76 -270.05, 59.88 -279.3" stroke="#1e1e1e" stroke-width="2" fill="none"></path></g><g transform="translate(3686.4629928917807 963.7828917849923) rotate(0 30.38038021140619 -139.393780819274)"><path d="M46.53 -258.15 C53.06 -266.47, 58.95 -275.42, 59.88 -279.3 M46.53 -258.15 C49.67 -265.09, 53.99 -271.52, 59.88 -279.3" stroke="#1e1e1e" stroke-width="2" fill="none"></path></g></g><mask></mask><g stroke-linecap="round"><g transform="translate(2934.9861576195763 1173.9910832741762) rotate(0 240.00524984448793 -10.716564250225474)"><path d="M0.98 1.09 C80.8 -2.54, 399.07 -18.56, 479.06 -22.12 M0.04 0.62 C80.22 -2.84, 401.17 -17.17, 481.28 -20.94" stroke="#1e1e1e" stroke-width="2" fill="none"></path></g><g transform="translate(2934.9861576195763 1173.9910832741762) rotate(0 240.00524984448793 -10.716564250225474)"><path d="M458.2 -11.33 C467.21 -16.09, 471.42 -15.97, 481.28 -20.94 M458.2 -11.33 C467.11 -15.4, 475.65 -19.73, 481.28 -20.94" stroke="#1e1e1e" stroke-width="2" fill="none"></path></g><g transform="translate(2934.9861576195763 1173.9910832741762) rotate(0 240.00524984448793 -10.716564250225474)"><path d="M457.42 -28.41 C466.63 -27.87, 471.08 -22.44, 481.28 -20.94 M457.42 -28.41 C466.76 -25.72, 475.61 -23.29, 481.28 -20.94" stroke="#1e1e1e" stroke-width="2" fill="none"></path></g></g><mask></mask><g stroke-linecap="round" transform="translate(4170.648610062202 1042.7014744620249) rotate(0 142.39218476526662 130.0440778743813)"><path d="M83.75 12.13 C96.22 4.7, 114.3 1.7, 129.83 0.39 C145.36 -0.93, 162.12 0.93, 176.93 4.24 C191.75 7.56, 205.81 12.75, 218.74 20.28 C231.68 27.8, 244.75 38.15, 254.53 49.39 C264.32 60.63, 272.26 74.5, 277.46 87.71 C282.67 100.91, 285.87 114.58, 285.76 128.62 C285.64 142.67, 281.75 158.7, 276.75 171.98 C271.76 185.26, 264.93 197.29, 255.79 208.28 C246.64 219.26, 234.8 230.06, 221.88 237.87 C208.95 245.69, 193.27 251.54, 178.25 255.16 C163.22 258.79, 146.93 260.53, 131.72 259.64 C116.5 258.74, 101.29 255.41, 86.97 249.8 C72.64 244.18, 57.39 235.28, 45.78 225.93 C34.16 216.59, 24.7 205.93, 17.28 193.71 C9.86 181.49, 3.71 166.69, 1.27 152.63 C-1.17 138.57, 0.03 123.13, 2.65 109.33 C5.28 95.54, 9.88 82.27, 17.02 69.86 C24.15 57.45, 33.01 45, 45.46 34.88 C57.91 24.76, 82.73 13.51, 91.71 9.16 C100.68 4.81, 98.64 6.93, 99.29 8.78 M126.57 0.43 C140.94 -3.44, 158.3 -0.82, 173.3 2.18 C188.3 5.19, 203.28 11.15, 216.58 18.47 C229.89 25.79, 243.15 35.26, 253.14 46.1 C263.13 56.95, 271.03 70.41, 276.53 83.53 C282.04 96.65, 285.66 110.86, 286.19 124.8 C286.72 138.75, 284.31 153.77, 279.72 167.19 C275.13 180.62, 268.04 193.89, 258.65 205.35 C249.26 216.82, 236.22 227.73, 223.36 236.01 C210.5 244.29, 196.46 251.2, 181.49 255.04 C166.52 258.88, 148.79 259.69, 133.56 259.05 C118.32 258.41, 104.33 256.46, 90.09 251.2 C75.85 245.95, 59.76 236.98, 48.12 227.5 C36.48 218.02, 27.89 206.52, 20.25 194.32 C12.61 182.13, 5.25 168.09, 2.25 154.33 C-0.74 140.57, 0.19 125.29, 2.28 111.76 C4.38 98.23, 7.83 85.53, 14.79 73.13 C21.76 60.74, 32.95 47.65, 44.06 37.41 C55.17 27.17, 67.75 17.68, 81.46 11.68 C95.17 5.69, 118.9 2.93, 126.33 1.46 C133.76 0, 125.62 0.93, 126.05 2.89" stroke="#1e1e1e" stroke-width="2" fill="none"></path></g><g transform="translate(4277.099335376328 1113.688318621826) rotate(0 50.76996612548851 12.5)"><text x="0" y="0" font-family="Virgil, Segoe UI Emoji" font-size="20px" fill="#1e1e1e" text-anchor="start" style="white-space: pre;" direction="ltr" dominant-baseline="text-before-edge">DynamoDB</text></g><g stroke-linecap="round"><g transform="translate(3789.826691483182 1047.152307248851) rotate(0 185.4480837926949 52.45237510448351)"><path d="M-0.92 -0.35 C60.74 17.06, 308.02 87.42, 369.87 104.81 M0.8 -1.57 C62.82 15.99, 310.67 88.56, 372.05 106.29" stroke="#1e1e1e" stroke-width="2" fill="none"></path></g><g transform="translate(3789.826691483182 1047.152307248851) rotate(0 185.4480837926949 52.45237510448351)"><path d="M347.1 107.94 C353.9 105.94, 361.7 105.99, 372.05 106.29 M347.1 107.94 C352.39 106.95, 358.5 107.5, 372.05 106.29" stroke="#1e1e1e" stroke-width="2" fill="none"></path></g><g transform="translate(3789.826691483182 1047.152307248851) rotate(0 185.4480837926949 52.45237510448351)"><path d="M351.88 91.52 C357.32 94.34, 363.7 99.26, 372.05 106.29 M351.88 91.52 C356.03 94.23, 361.07 98.45, 372.05 106.29" stroke="#1e1e1e" stroke-width="2" fill="none"></path></g></g><mask></mask><g stroke-linecap="round" transform="translate(4224.211231619589 679.4662535760838) rotate(0 136.7252505422166 112.13242999996345)"><path d="M141.37 0.92 C156.11 -0.55, 172.64 2.57, 187 7.26 C201.36 11.95, 215.81 20.32, 227.52 29.06 C239.22 37.8, 249.85 48.32, 257.23 59.7 C264.61 71.08, 269.59 84.61, 271.78 97.33 C273.96 110.05, 273.52 123.57, 270.33 136.02 C267.14 148.48, 260.9 161.2, 252.61 172.05 C244.33 182.91, 232.87 193.36, 220.64 201.15 C208.41 208.93, 194.12 214.75, 179.25 218.76 C164.38 222.77, 146.88 225.72, 131.41 225.2 C115.93 224.67, 100.82 220.68, 86.41 215.6 C72 210.53, 56.81 203.25, 44.94 194.76 C33.08 186.28, 22.35 175.98, 15.22 164.71 C8.09 153.43, 4.08 139.8, 2.16 127.11 C0.25 114.43, 0.68 100.97, 3.76 88.61 C6.83 76.24, 12.44 63.68, 20.61 52.92 C28.78 42.16, 40.58 31.8, 52.77 24.05 C64.96 16.31, 77.34 10.32, 93.77 6.46 C110.2 2.6, 140.25 1.31, 151.34 0.88 C162.44 0.46, 160.81 2.2, 160.35 3.92 M139.28 -1.25 C154.14 -2.77, 170.43 3.01, 184.82 7.97 C199.22 12.93, 213.8 20.42, 225.65 28.5 C237.5 36.57, 248.15 45.73, 255.94 56.39 C263.72 67.06, 269.59 79.89, 272.36 92.46 C275.13 105.04, 275.46 118.88, 272.57 131.83 C269.68 144.78, 263.28 158.9, 255.03 170.17 C246.78 181.44, 235.37 191.62, 223.08 199.44 C210.78 207.25, 195.78 212.87, 181.26 217.06 C166.74 221.25, 151.44 224.32, 135.96 224.56 C120.48 224.79, 103.21 222.96, 88.37 218.48 C73.53 214, 58.79 206.45, 46.91 197.68 C35.02 188.91, 24.56 177.23, 17.08 165.86 C9.6 154.5, 4.6 141.97, 2 129.5 C-0.59 117.03, -1.32 103.36, 1.52 91.03 C4.36 78.7, 11.1 66.23, 19.05 55.52 C26.99 44.81, 37.19 35.2, 49.19 26.76 C61.19 18.33, 76.03 9.25, 91.02 4.91 C106.01 0.57, 131.2 1.28, 139.14 0.72 C147.08 0.16, 138.97 -0.47, 138.65 1.53" stroke="#1e1e1e" stroke-width="2" fill="none"></path></g><g transform="translate(4318.057828687835 725.673184664982) rotate(0 64.23994445800781 37.5)"><text x="0" y="0" font-family="Virgil, Segoe UI Emoji" font-size="20px" fill="#1e1e1e" text-anchor="start" style="white-space: pre;" direction="ltr" dominant-baseline="text-before-edge">S3</text><text x="0" y="25" font-family="Virgil, Segoe UI Emoji" font-size="20px" fill="#1e1e1e" text-anchor="start" style="white-space: pre;" direction="ltr" dominant-baseline="text-before-edge">Blob Storage</text><text x="0" y="50" font-family="Virgil, Segoe UI Emoji" font-size="20px" fill="#1e1e1e" text-anchor="start" style="white-space: pre;" direction="ltr" dominant-baseline="text-before-edge">Text Data</text></g><g stroke-linecap="round"><g transform="translate(3786.409791091521 984.4861571263685) rotate(0 219.69340176699757 -87.57653561468055)"><path d="M-0.5 0.91 C72.44 -28.42, 365.31 -145.6, 438.56 -175.03 M1.43 0.34 C74.68 -28.86, 368.07 -144.27, 440.84 -173.42" stroke="#1e1e1e" stroke-width="2" fill="none"></path></g><g transform="translate(3786.409791091521 984.4861571263685) rotate(0 219.69340176699757 -87.57653561468055)"><path d="M422.16 -156.81 C430.55 -164.33, 436.26 -169.77, 440.84 -173.42 M422.16 -156.81 C427.45 -161.17, 431.22 -164.52, 440.84 -173.42" stroke="#1e1e1e" stroke-width="2" fill="none"></path></g><g transform="translate(3786.409791091521 984.4861571263685) rotate(0 219.69340176699757 -87.57653561468055)"><path d="M415.85 -172.71 C426.74 -174.24, 434.81 -173.71, 440.84 -173.42 M415.85 -172.71 C422.72 -172.86, 428.13 -172.05, 440.84 -173.42" stroke="#1e1e1e" stroke-width="2" fill="none"></path></g></g><mask></mask><g transform="translate(4479.902712945082 1078.5740050868208) rotate(0 100.27992248535156 100)"><text x="0" y="0" font-family="Virgil, Segoe UI Emoji" font-size="20px" fill="#1e1e1e" text-anchor="start" style="white-space: pre;" direction="ltr" dominant-baseline="text-before-edge">URL</text><text x="0" y="25" font-family="Virgil, Segoe UI Emoji" font-size="20px" fill="#1e1e1e" text-anchor="start" style="white-space: pre;" direction="ltr" dominant-baseline="text-before-edge">- id</text><text x="0" y="50" font-family="Virgil, Segoe UI Emoji" font-size="20px" fill="#1e1e1e" text-anchor="start" style="white-space: pre;" direction="ltr" dominant-baseline="text-before-edge">- s3Link</text><text x="0" y="75" font-family="Virgil, Segoe UI Emoji" font-size="20px" fill="#1e1e1e" text-anchor="start" style="white-space: pre;" direction="ltr" dominant-baseline="text-before-edge">- fullURL</text><text x="0" y="100" font-family="Virgil, Segoe UI Emoji" font-size="20px" fill="#1e1e1e" text-anchor="start" style="white-space: pre;" direction="ltr" dominant-baseline="text-before-edge">- crawlTimestamp</text><text x="0" y="125" font-family="Virgil, Segoe UI Emoji" font-size="20px" fill="#1e1e1e" text-anchor="start" style="white-space: pre;" direction="ltr" dominant-baseline="text-before-edge">- status</text><text x="0" y="150" font-family="Virgil, Segoe UI Emoji" font-size="20px" fill="#1e1e1e" text-anchor="start" style="white-space: pre;" direction="ltr" dominant-baseline="text-before-edge">- contentHash (GSI)</text><text x="0" y="175" font-family="Virgil, Segoe UI Emoji" font-size="20px" fill="#1e1e1e" text-anchor="start" style="white-space: pre;" direction="ltr" dominant-baseline="text-before-edge">- depth</text></g><g transform="translate(2941.721488650957 1437.7325782432351) rotate(0 46.0899658203125 12.5)"><text x="0" y="0" font-family="Virgil, Segoe UI Emoji" font-size="20px" fill="#1e1e1e" text-anchor="start" style="white-space: pre;" direction="ltr" dominant-baseline="text-before-edge">Add Links</text></g><g stroke-linecap="round" transform="translate(2697.3884932095416 1235.2246099302392) rotate(0 121.17687671390104 33.59787935542272)"><path d="M16.8 0 C68.07 0.96, 119.16 1.71, 225.55 0 M16.8 0 C60.62 -0.45, 104.89 0.21, 225.55 0 M225.55 0 C237.06 -1.42, 241.74 6.04, 242.35 16.8 M225.55 0 C234.79 -0.78, 242.52 6.42, 242.35 16.8 M242.35 16.8 C242.71 26.27, 243.66 35.88, 242.35 50.4 M242.35 16.8 C243.22 26.29, 243.38 35.86, 242.35 50.4 M242.35 50.4 C243.19 62.25, 237.12 67.69, 225.55 67.2 M242.35 50.4 C242.3 59.34, 235.73 66.29, 225.55 67.2 M225.55 67.2 C156.73 66.69, 89.11 65.11, 16.8 67.2 M225.55 67.2 C148.03 69.59, 71.49 68.37, 16.8 67.2 M16.8 67.2 C5.76 69.16, 0.72 62.22, 0 50.4 M16.8 67.2 C7.28 64.97, -2.08 61.31, 0 50.4 M0 50.4 C-0.91 41.28, 1.26 30.54, 0 16.8 M0 50.4 C-0.73 43.91, 0.57 37.29, 0 16.8 M0 16.8 C-0.36 4.93, 4.64 0.53, 16.8 0 M0 16.8 C-0.11 7.54, 5.97 0.99, 16.8 0" stroke="#1e1e1e" stroke-width="2" fill="none"></path></g><g transform="translate(2762.2160543866885 1262.1068522046544) rotate(0 20.839988708496094 12.5)"><text x="0" y="0" font-family="Virgil, Segoe UI Emoji" font-size="20px" fill="#1e1e1e" text-anchor="start" style="white-space: pre;" direction="ltr" dominant-baseline="text-before-edge">DLQ</text></g><g stroke-linecap="round" transform="translate(3840.8783343665723 698.5152270851887) rotate(0 67.73734234641051 59.76375418461282)"><path d="M87.47 2.04 C97.47 3.61, 108.74 10.35, 116.4 17.05 C124.07 23.75, 130.59 33.22, 133.44 42.25 C136.28 51.28, 135.46 62.16, 133.47 71.26 C131.47 80.35, 127.82 89.51, 121.45 96.84 C115.08 104.17, 105.06 111.5, 95.25 115.25 C85.43 118.99, 73.04 120.16, 62.58 119.32 C52.11 118.47, 41.35 114.85, 32.45 110.2 C23.55 105.54, 14.68 99.25, 9.19 91.4 C3.7 83.55, 0.2 72.52, -0.47 63.11 C-1.15 53.7, 0.57 43.25, 5.11 34.93 C9.65 26.61, 18.2 18.8, 26.76 13.2 C35.31 7.6, 46 2.85, 56.45 1.32 C66.89 -0.22, 83.44 3.43, 89.42 4.01 C95.39 4.59, 92.49 4.1, 92.3 4.79 M88.82 2.8 C98.41 4.33, 108.47 10.77, 115.64 17.31 C122.81 23.86, 128.56 33.38, 131.85 42.07 C135.14 50.76, 137.26 60.17, 135.39 69.46 C133.52 78.76, 127.17 90.57, 120.65 97.84 C114.13 105.12, 105.61 109.48, 96.26 113.12 C86.92 116.76, 75.29 120.3, 64.59 119.68 C53.88 119.07, 41.36 114.11, 32.02 109.43 C22.67 104.75, 13.91 99.27, 8.5 91.61 C3.09 83.94, -0.07 72.76, -0.42 63.43 C-0.78 54.1, 2.17 43.85, 6.35 35.62 C10.53 27.39, 16.45 19.84, 24.65 14.04 C32.84 8.23, 44.97 2.6, 55.51 0.77 C66.05 -1.05, 82.43 2.6, 87.89 3.08 C93.35 3.55, 88.38 2.74, 88.26 3.63" stroke="#1e1e1e" stroke-width="2" fill="none"></path></g><g transform="translate(3883.158167929871 746.0196254166959) rotate(0 25.559974670410156 12.5)"><text x="25.559974670410156" y="0" font-family="Virgil, Segoe UI Emoji" font-size="20px" fill="#1e1e1e" text-anchor="middle" style="white-space: pre;" direction="ltr" dominant-baseline="text-before-edge">Redis</text></g><g transform="translate(3985.9636668468765 703.3303979541225) rotate(0 99.88992309570312 12.5)"><text x="0" y="0" font-family="Virgil, Segoe UI Emoji" font-size="20px" fill="#1e1e1e" text-anchor="start" style="white-space: pre;" direction="ltr" dominant-baseline="text-before-edge">Domain Rate Limiter</text></g><g transform="translate(4412.67248982105 1316.2209043728033) rotate(0 84.85992431640625 75)"><text x="0" y="0" font-family="Virgil, Segoe UI Emoji" font-size="20px" fill="#1e1e1e" text-anchor="start" style="white-space: pre;" direction="ltr" dominant-baseline="text-before-edge">Domain</text><text x="0" y="25" font-family="Virgil, Segoe UI Emoji" font-size="20px" fill="#1e1e1e" text-anchor="start" style="white-space: pre;" direction="ltr" dominant-baseline="text-before-edge">- name</text><text x="0" y="50" font-family="Virgil, Segoe UI Emoji" font-size="20px" fill="#1e1e1e" text-anchor="start" style="white-space: pre;" direction="ltr" dominant-baseline="text-before-edge">- disallow</text><text x="0" y="75" font-family="Virgil, Segoe UI Emoji" font-size="20px" fill="#1e1e1e" text-anchor="start" style="white-space: pre;" direction="ltr" dominant-baseline="text-before-edge">- crawlDelay</text><text x="0" y="100" font-family="Virgil, Segoe UI Emoji" font-size="20px" fill="#1e1e1e" text-anchor="start" style="white-space: pre;" direction="ltr" dominant-baseline="text-before-edge">- crawlTimestamp</text><text x="0" y="125" font-family="Virgil, Segoe UI Emoji" font-size="20px" fill="#1e1e1e" text-anchor="start" style="white-space: pre;" direction="ltr" dominant-baseline="text-before-edge">- updatedAt</text></g><g stroke-linecap="round"><g transform="translate(3724.487087596027 960.1345874763219) rotate(0 64.71678270623579 -75.20627302961327)"><path d="M0.6 -1.14 C22.49 -26.02, 109.18 -124.43, 130.59 -149.35 M-0.54 0.87 C21.36 -24.32, 108.81 -125.86, 130.24 -150.92" stroke="#1e1e1e" stroke-width="2" fill="none"></path></g><g transform="translate(3724.487087596027 960.1345874763219) rotate(0 64.71678270623579 -75.20627302961327)"><path d="M9.69 -24.43 C5.63 -16.98, 7.16 -14.08, 0.6 -1.14 M9.69 -24.43 C8.14 -18.25, 4.46 -12.15, 0.6 -1.14" stroke="#1e1e1e" stroke-width="2" fill="none"></path></g><g transform="translate(3724.487087596027 960.1345874763219) rotate(0 64.71678270623579 -75.20627302961327)"><path d="M22.53 -13.14 C15.46 -8.29, 13.96 -8.04, 0.6 -1.14 M22.53 -13.14 C17.32 -10.19, 10.07 -7.22, 0.6 -1.14" stroke="#1e1e1e" stroke-width="2" fill="none"></path></g><g transform="translate(3724.487087596027 960.1345874763219) rotate(0 64.71678270623579 -75.20627302961327)"><path d="M121.42 -127.53 C121.61 -131.16, 127.36 -139.26, 130.24 -150.92 M121.42 -127.53 C124.46 -134.18, 125.75 -141.05, 130.24 -150.92" stroke="#1e1e1e" stroke-width="2" fill="none"></path></g><g transform="translate(3724.487087596027 960.1345874763219) rotate(0 64.71678270623579 -75.20627302961327)"><path d="M108.45 -138.67 C111.69 -139.74, 120.49 -145.22, 130.24 -150.92 M108.45 -138.67 C115.18 -142.13, 120.08 -145.9, 130.24 -150.92" stroke="#1e1e1e" stroke-width="2" fill="none"></path></g></g><mask></mask><g stroke-linecap="round" transform="translate(4587.1067318613905 659.2947248950808) rotate(0 92.13814687241756 78.19236825661551)"><path d="M32 0 C68.85 1.97, 106.18 -0.83, 152.28 0 M32 0 C73.38 1.68, 116.19 0.94, 152.28 0 M152.28 0 C175.6 0.8, 184.41 9.83, 184.28 32 M152.28 0 C172.24 1.5, 185.24 10.64, 184.28 32 M184.28 32 C183.92 51.01, 184.22 70.09, 184.28 124.38 M184.28 32 C184.17 58.09, 183.3 85.29, 184.28 124.38 M184.28 124.38 C185.76 147.45, 174.86 155.73, 152.28 156.38 M184.28 124.38 C182.47 146.2, 172.94 158.68, 152.28 156.38 M152.28 156.38 C106.85 157.67, 64.96 156.86, 32 156.38 M152.28 156.38 C116.63 157.18, 78.34 156.46, 32 156.38 M32 156.38 C9.03 154.71, 0.8 146.5, 0 124.38 M32 156.38 C8.91 154.93, -0.81 144.04, 0 124.38 M0 124.38 C0.76 89.62, -0.42 51.46, 0 32 M0 124.38 C-0.55 90.14, 0.5 55.19, 0 32 M0 32 C-0.44 8.9, 11.29 -0.67, 32 0 M0 32 C-1.15 12.94, 10.71 1.07, 32 0" stroke="#1e1e1e" stroke-width="2" fill="none"></path></g><g transform="translate(4627.247926231958 704.2904780353515) rotate(0 39.84996795654297 25)"><text x="0" y="0" font-family="Virgil, Segoe UI Emoji" font-size="20px" fill="#1e1e1e" text-anchor="start" style="white-space: pre;" direction="ltr" dominant-baseline="text-before-edge">Robots</text><text x="0" y="25" font-family="Virgil, Segoe UI Emoji" font-size="20px" fill="#1e1e1e" text-anchor="start" style="white-space: pre;" direction="ltr" dominant-baseline="text-before-edge">Updater</text></g><g stroke-linecap="round"><g transform="translate(4626.420780315822 814.5470592612212) rotate(0 -117.42517916571342 115.25145939205902)"><path d="M-0.99 0.71 C-40.25 39.08, -196.98 191.38, -236.02 229.64 M0.69 0.04 C-38.18 38.59, -194.44 192.15, -233.93 230.72" stroke="#1e1e1e" stroke-width="2" fill="none"></path></g><g transform="translate(4626.420780315822 814.5470592612212) rotate(0 -117.42517916571342 115.25145939205902)"><path d="M-11.86 23.23 C-7.75 15.54, -7.58 11.01, -0.99 0.71 M-11.86 23.23 C-9.13 16.9, -6.11 9.63, -0.99 0.71" stroke="#1e1e1e" stroke-width="2" fill="none"></path></g><g transform="translate(4626.420780315822 814.5470592612212) rotate(0 -117.42517916571342 115.25145939205902)"><path d="M-23.79 10.98 C-16.66 6.56, -13.4 5.19, -0.99 0.71 M-23.79 10.98 C-17.73 8.01, -11.35 4.18, -0.99 0.71" stroke="#1e1e1e" stroke-width="2" fill="none"></path></g><g transform="translate(4626.420780315822 814.5470592612212) rotate(0 -117.42517916571342 115.25145939205902)"><path d="M-223.14 208.17 C-224.84 211.95, -230.27 219.07, -233.93 230.72 M-223.14 208.17 C-226.53 214.62, -229.59 220, -233.93 230.72" stroke="#1e1e1e" stroke-width="2" fill="none"></path></g><g transform="translate(4626.420780315822 814.5470592612212) rotate(0 -117.42517916571342 115.25145939205902)"><path d="M-211.17 220.38 C-215.91 220.91, -224.43 224.87, -233.93 230.72 M-211.17 220.38 C-217.91 223.48, -224.33 225.43, -233.93 230.72" stroke="#1e1e1e" stroke-width="2" fill="none"></path></g></g><mask></mask><g stroke-linecap="round"><g transform="translate(4571.011850909913 648.1577959528231) rotate(0 -348.17181058583583 -17.510383635340077)"><path d="M0.62 0.4 C-115.38 -5.38, -579.56 -28.32, -695.86 -34.42 M-0.52 -0.44 C-116.64 -6.59, -580.85 -30.39, -696.56 -36.23" stroke="#1e1e1e" stroke-width="2" fill="none"></path></g><g transform="translate(4571.011850909913 648.1577959528231) rotate(0 -348.17181058583583 -17.510383635340077)"><path d="M-23.27 7.77 C-15.24 6.17, -7.51 1.62, 0.62 0.4 M-23.27 7.77 C-19 6.25, -14.3 5.45, 0.62 0.4" stroke="#1e1e1e" stroke-width="2" fill="none"></path></g><g transform="translate(4571.011850909913 648.1577959528231) rotate(0 -348.17181058583583 -17.510383635340077)"><path d="M-22.42 -9.31 C-14.62 -5.63, -7.15 -4.89, 0.62 0.4 M-22.42 -9.31 C-18.36 -7.39, -13.83 -4.74, 0.62 0.4" stroke="#1e1e1e" stroke-width="2" fill="none"></path></g><g transform="translate(4571.011850909913 648.1577959528231) rotate(0 -348.17181058583583 -17.510383635340077)"><path d="M-672.66 -43.57 C-679.38 -40.38, -686.43 -40.37, -696.56 -36.23 M-672.66 -43.57 C-678.07 -42.44, -683.02 -40.27, -696.56 -36.23" stroke="#1e1e1e" stroke-width="2" fill="none"></path></g><g transform="translate(4571.011850909913 648.1577959528231) rotate(0 -348.17181058583583 -17.510383635340077)"><path d="M-673.53 -26.5 C-680.01 -28.59, -686.8 -33.86, -696.56 -36.23 M-673.53 -26.5 C-678.73 -28.8, -683.5 -30.08, -696.56 -36.23" stroke="#1e1e1e" stroke-width="2" fill="none"></path></g></g><mask></mask><g stroke-linecap="round" transform="translate(4607.110861964127 507.1983460780063) rotate(0 90.50601073432836 25.023625706907325)"><path d="M12.51 0 C64.44 -0.41, 120.01 0.64, 168.5 0 M12.51 0 C47.05 0.37, 82.98 1.29, 168.5 0 M168.5 0 C177.24 -1.67, 182.9 3.47, 181.01 12.51 M168.5 0 C174.96 2.07, 179.78 3.85, 181.01 12.51 M181.01 12.51 C179.5 22.02, 181.72 31.45, 181.01 37.54 M181.01 12.51 C180.6 17.77, 180.04 22.31, 181.01 37.54 M181.01 37.54 C182.97 43.99, 177.74 49.17, 168.5 50.05 M181.01 37.54 C182.61 43.73, 175.29 49.77, 168.5 50.05 M168.5 50.05 C117.04 50.9, 69.04 50.15, 12.51 50.05 M168.5 50.05 C130.75 48.61, 92.41 48.64, 12.51 50.05 M12.51 50.05 C5.91 50.27, 0.5 45.58, 0 37.54 M12.51 50.05 C2.43 48.69, 1.14 45.84, 0 37.54 M0 37.54 C0.76 31.76, 0.7 23.21, 0 12.51 M0 37.54 C-1.12 29.84, -0.14 22.28, 0 12.51 M0 12.51 C-0.63 4.51, 5.43 -0.13, 12.51 0 M0 12.51 C0.58 5.92, 2.32 -1.71, 12.51 0" stroke="#1e1e1e" stroke-width="2" fill="none"></path></g><g transform="translate(4676.666891009003 519.7219717849136) rotate(0 20.949981689453125 12.5)"><text x="20.949981689453125" y="0" font-family="Virgil, Segoe UI Emoji" font-size="20px" fill="#1e1e1e" text-anchor="middle" style="white-space: pre;" direction="ltr" dominant-baseline="text-before-edge">Cron</text></g><g stroke-linecap="round"><g transform="translate(4705.7677064137115 559.7861170913811) rotate(0 -1.393346989681504 49.335807456185876)"><path d="M-0.68 0.7 C-1.2 17.08, -1.96 82.14, -2.41 98.47 M1.16 0.03 C0.45 16.58, -2.23 83.23, -3.16 99.9" stroke="#1e1e1e" stroke-width="2" fill="none"></path></g><g transform="translate(4705.7677064137115 559.7861170913811) rotate(0 -1.393346989681504 49.335807456185876)"><path d="M-10.6 76.03 C-6.72 85.26, -5.57 92.21, -3.16 99.9 M-10.6 76.03 C-7.55 82.95, -5.83 90.36, -3.16 99.9" stroke="#1e1e1e" stroke-width="2" fill="none"></path></g><g transform="translate(4705.7677064137115 559.7861170913811) rotate(0 -1.393346989681504 49.335807456185876)"><path d="M6.48 76.83 C4.23 85.67, -0.73 92.34, -3.16 99.9 M6.48 76.83 C4.38 83.6, 0.95 90.77, -3.16 99.9" stroke="#1e1e1e" stroke-width="2" fill="none"></path></g></g><mask></mask><g stroke-linecap="round" transform="translate(3563.474272742512 1682.882872625592) rotate(0 271.6878925250487 38.75523261228159)"><path d="M19.38 0 C179.77 1.2, 340.7 1.68, 524 0 M19.38 0 C124.77 -1.31, 230.06 -0.57, 524 0 M524 0 C538.09 1.34, 541.76 7.42, 543.38 19.38 M524 0 C538.91 -0.74, 544.04 5.61, 543.38 19.38 M543.38 19.38 C545.04 33.22, 543.3 44.49, 543.38 58.13 M543.38 19.38 C543.02 32.01, 542.48 43.68, 543.38 58.13 M543.38 58.13 C541.88 71.07, 538.16 78.7, 524 77.51 M543.38 58.13 C543.2 72.75, 537.21 76.22, 524 77.51 M524 77.51 C418.43 76.26, 313.57 75.39, 19.38 77.51 M524 77.51 C348.99 78.5, 174.02 78.88, 19.38 77.51 M19.38 77.51 C6.1 76.18, 1.25 70.25, 0 58.13 M19.38 77.51 C6.91 78.11, 1.73 72.19, 0 58.13 M0 58.13 C2.16 48.6, -0.7 42.23, 0 19.38 M0 58.13 C-0.63 42.3, -0.1 27.34, 0 19.38 M0 19.38 C-0.37 4.81, 7.79 -0.76, 19.38 0 M0 19.38 C1.71 8.36, 5.29 -0.8, 19.38 0" stroke="#1e1e1e" stroke-width="2" fill="none"></path></g><g transform="translate(3754.2938815024936 1723.4474869294213) rotate(0 62.82994079589844 12.5)"><text x="0" y="0" font-family="Virgil, Segoe UI Emoji" font-size="20px" fill="#1e1e1e" text-anchor="start" style="white-space: pre;" direction="ltr" dominant-baseline="text-before-edge">Parse Queue</text></g><g stroke-linecap="round"><g transform="translate(3529.408662065465 1293.8879646371352) rotate(0 45.69242663511136 188.2347777720572)"><path d="M-1.17 1.19 C14.28 63.8, 76.5 313.08, 91.74 375.57 M0.42 0.77 C15.82 63.51, 75.63 313.89, 90.97 376.63" stroke="#1e1e1e" stroke-width="2" fill="none"></path></g><g transform="translate(3529.408662065465 1293.8879646371352) rotate(0 45.69242663511136 188.2347777720572)"><path d="M77.15 355.8 C82.17 361.12, 81.73 363.19, 90.97 376.63 M77.15 355.8 C80.26 361.99, 84 367.75, 90.97 376.63" stroke="#1e1e1e" stroke-width="2" fill="none"></path></g><g transform="translate(3529.408662065465 1293.8879646371352) rotate(0 45.69242663511136 188.2347777720572)"><path d="M93.77 351.79 C95.12 357.83, 91.02 360.78, 90.97 376.63 M93.77 351.79 C92.44 358.92, 91.72 365.76, 90.97 376.63" stroke="#1e1e1e" stroke-width="2" fill="none"></path></g></g><mask></mask><g stroke-linecap="round" transform="translate(4298.875921013622 1634.036952185213) rotate(0 134.7115441154333 114.28153233563785)"><path d="M32 0 C102.93 0.3, 172.71 2.29, 237.42 0 M32 0 C81.8 0.6, 132.8 1.09, 237.42 0 M237.42 0 C258.63 -1.41, 269.92 10.66, 269.42 32 M237.42 0 C256.71 0.8, 271.18 10.99, 269.42 32 M269.42 32 C269.93 66.99, 268.67 104.65, 269.42 196.56 M269.42 32 C268.94 94.67, 269.2 158.88, 269.42 196.56 M269.42 196.56 C271.41 218.44, 260.68 227.36, 237.42 228.56 M269.42 196.56 C267.77 217.22, 258.34 228.95, 237.42 228.56 M237.42 228.56 C177.94 227.75, 122.4 228.55, 32 228.56 M237.42 228.56 C172.14 226.6, 105.16 226.6, 32 228.56 M32 228.56 C8.99 227.07, -0.85 217.05, 0 196.56 M32 228.56 C12.5 227.5, 2.02 216.22, 0 196.56 M0 196.56 C-0.97 149.99, 0.11 101.77, 0 32 M0 196.56 C1.68 137.55, 1.17 80.63, 0 32 M0 32 C-0.81 8.83, 12.33 1.93, 32 0 M0 32 C1.98 11.91, 9.33 0.17, 32 0" stroke="#1e1e1e" stroke-width="2" fill="none"></path></g><g transform="translate(4374.416991199767 1724.7078997540088) rotate(0 38.2099609375 12.5)"><text x="0" y="0" font-family="Virgil, Segoe UI Emoji" font-size="20px" fill="#1e1e1e" text-anchor="start" style="white-space: pre;" direction="ltr" dominant-baseline="text-before-edge">Parsers</text></g><g stroke-linecap="round"><g transform="translate(4105.190842472741 1717.4851434506086) rotate(0 90.80880522148504 0.8862277672883465)"><path d="M0.52 -0.17 C30.76 -0.11, 150.66 0.81, 180.99 1.16 M-0.67 -1.31 C30 -1.16, 152.89 1.6, 183.37 2.38" stroke="#1e1e1e" stroke-width="2" fill="none"></path></g><g transform="translate(4105.190842472741 1717.4851434506086) rotate(0 90.80880522148504 0.8862277672883465)"><path d="M159.68 10.38 C165.58 7.12, 171.08 7.49, 183.37 2.38 M159.68 10.38 C166.51 6.78, 175.09 6.17, 183.37 2.38" stroke="#1e1e1e" stroke-width="2" fill="none"></path></g><g transform="translate(4105.190842472741 1717.4851434506086) rotate(0 90.80880522148504 0.8862277672883465)"><path d="M160.08 -6.72 C165.98 -5.48, 171.38 -0.6, 183.37 2.38 M160.08 -6.72 C166.66 -4.93, 175.12 -0.16, 183.37 2.38" stroke="#1e1e1e" stroke-width="2" fill="none"></path></g></g><mask></mask><g stroke-linecap="round"><g transform="translate(4337.407134940284 1612.4622295393365) rotate(0 -8.288691367944693 -144.2680335393602)"><path d="M0.26 -1.08 C-2.28 -49.48, -13.32 -241.62, -16.2 -289.46 M-1.06 0.97 C-3.64 -47.39, -14.12 -239.87, -16.95 -288.41" stroke="#1e1e1e" stroke-width="2" fill="none"></path></g><g transform="translate(4337.407134940284 1612.4622295393365) rotate(0 -8.288691367944693 -144.2680335393602)"><path d="M-9.6 -24.05 C-9.05 -18.39, -6.62 -14.72, 0.26 -1.08 M-9.6 -24.05 C-5.75 -16.43, -2.19 -8.02, 0.26 -1.08" stroke="#1e1e1e" stroke-width="2" fill="none"></path></g><g transform="translate(4337.407134940284 1612.4622295393365) rotate(0 -8.288691367944693 -144.2680335393602)"><path d="M7.47 -25.02 C4.27 -19.11, 2.94 -15.23, 0.26 -1.08 M7.47 -25.02 C5.62 -17.21, 3.47 -8.48, 0.26 -1.08" stroke="#1e1e1e" stroke-width="2" fill="none"></path></g><g transform="translate(4337.407134940284 1612.4622295393365) rotate(0 -8.288691367944693 -144.2680335393602)"><path d="M-7.1 -265.43 C-11.25 -269.84, -13.16 -276.29, -16.95 -288.41 M-7.1 -265.43 C-9.81 -273.33, -12.85 -280.28, -16.95 -288.41" stroke="#1e1e1e" stroke-width="2" fill="none"></path></g><g transform="translate(4337.407134940284 1612.4622295393365) rotate(0 -8.288691367944693 -144.2680335393602)"><path d="M-24.17 -264.48 C-24.57 -269.13, -22.73 -275.79, -16.95 -288.41 M-24.17 -264.48 C-21.18 -272.55, -18.51 -279.83, -16.95 -288.41" stroke="#1e1e1e" stroke-width="2" fill="none"></path></g></g><mask></mask><g transform="translate(3752.334333439265 1774.8043860437842) rotate(0 71.15995025634766 12.5)"><text x="0" y="0" font-family="Virgil, Segoe UI Emoji" font-size="20px" fill="#1e1e1e" text-anchor="start" style="white-space: pre;" direction="ltr" dominant-baseline="text-before-edge">- metadataID</text></g><g stroke-linecap="round"><g transform="translate(4581.129617919784 1619.6849858427372) rotate(0 19.556092731497756 -378.7245128631037)"><path d="M0.3 -0.75 C22.99 -67.57, 151.43 -274.05, 135.49 -400.13 C119.55 -526.2, -56.86 -697.77, -95.34 -757.21 M-1 1.47 C21.58 -65.23, 150.26 -272.5, 134.5 -398.71 C118.75 -524.91, -56.73 -695.72, -95.52 -755.76" stroke="#1e1e1e" stroke-width="2" fill="none"></path></g><g transform="translate(4581.129617919784 1619.6849858427372) rotate(0 19.556092731497756 -378.7245128631037)"><path d="M1.82 -25.7 C0.35 -19.7, 0.85 -11.54, 0.3 -0.75 M1.82 -25.7 C1.99 -18.19, 0.96 -9.94, 0.3 -0.75" stroke="#1e1e1e" stroke-width="2" fill="none"></path></g><g transform="translate(4581.129617919784 1619.6849858427372) rotate(0 19.556092731497756 -378.7245128631037)"><path d="M17.5 -18.89 C12.14 -14.52, 8.78 -8.05, 0.3 -0.75 M17.5 -18.89 C12.59 -13.46, 6.54 -7.4, 0.3 -0.75" stroke="#1e1e1e" stroke-width="2" fill="none"></path></g><g transform="translate(4581.129617919784 1619.6849858427372) rotate(0 19.556092731497756 -378.7245128631037)"><path d="M-74.16 -742.76 C-80.75 -746.05, -85.13 -747.23, -95.52 -755.76 M-74.16 -742.76 C-80.69 -747.28, -88.07 -751.19, -95.52 -755.76" stroke="#1e1e1e" stroke-width="2" fill="none"></path></g><g transform="translate(4581.129617919784 1619.6849858427372) rotate(0 19.556092731497756 -378.7245128631037)"><path d="M-87.52 -732.08 C-90.89 -738.02, -91.98 -741.84, -95.52 -755.76 M-87.52 -732.08 C-89.86 -740.1, -92.96 -747.43, -95.52 -755.76" stroke="#1e1e1e" stroke-width="2" fill="none"></path></g></g><mask></mask><g stroke-linecap="round"><g transform="translate(4331.848517444345 1867.1000845192757) rotate(0 -863.9416006848994 -238.89746513537762)"><path d="M-0.95 0.28 C-190.63 26.94, -849.76 265.7, -1137.62 159.34 C-1425.48 52.99, -1629.55 -505.2, -1728.11 -637.86 M0.76 -0.62 C-189.12 25.73, -850.24 263.54, -1138.53 157.45 C-1426.82 51.37, -1630.54 -505, -1729 -637.15" stroke="#1e1e1e" stroke-width="2" fill="none"></path></g><g transform="translate(4331.848517444345 1867.1000845192757) rotate(0 -863.9416006848994 -238.89746513537762)"><path d="M-1710.12 -620.76 C-1715.97 -626.34, -1722.09 -632.41, -1729 -637.15 M-1710.12 -620.76 C-1714.69 -624.33, -1718.17 -627.92, -1729 -637.15" stroke="#1e1e1e" stroke-width="2" fill="none"></path></g><g transform="translate(4331.848517444345 1867.1000845192757) rotate(0 -863.9416006848994 -238.89746513537762)"><path d="M-1725.07 -612.46 C-1725.81 -620.74, -1726.86 -629.62, -1729 -637.15 M-1725.07 -612.46 C-1726.53 -617.72, -1726.98 -623, -1729 -637.15" stroke="#1e1e1e" stroke-width="2" fill="none"></path></g></g><mask></mask><g transform="translate(3359.592651390216 2091.606195411409) rotate(0 41.01996612548828 12.5)"><text x="0" y="0" font-family="Virgil, Segoe UI Emoji" font-size="20px" fill="#1e1e1e" text-anchor="start" style="white-space: pre;" direction="ltr" dominant-baseline="text-before-edge">new links</text></g></svg>