<svg version="1.1" xmlns="http://www.w3.org/2000/svg" viewBox="0 0 6425 2420" width="6425" height="2420">
  <!-- svg-source:excalidraw -->
  
  <defs>
    <style class="style-fonts">
      @font-face {
        font-family: "Virgil";
        src: url("https://excalidraw.com/Virgil.woff2");
      }
      @font-face {
        font-family: "Cascadia";
        src: url("https://excalidraw.com/Cascadia.woff2");
      }
      @font-face {
        font-family: "Assistant";
        src: url("https://excalidraw.com/Assistant-Regular.woff2");
      }
    </style>
    
  </defs>
  <rect x="0" y="0" width="6425" height="2420" fill="#ffffff"></rect><g transform="translate(265 10) rotate(0 203.22496032714844 31.25)"><text x="0" y="0" font-family="Virgil, Segoe UI Emoji" font-size="50px" fill="#000000" text-anchor="start" style="white-space: pre;" direction="ltr" dominant-baseline="text-before-edge">Design LeetCode</text></g><g transform="translate(265 110) rotate(0 1000.964599609375 56.25)"><text x="0" y="0" font-family="Virgil, Segoe UI Emoji" font-size="30px" fill="#000000" text-anchor="start" style="white-space: pre;" direction="ltr" dominant-baseline="text-before-edge">LeetCode is a platform that helps software engineers prepare for coding interviews. It offers a collection of practice coding problems</text><text x="0" y="37.5" font-family="Virgil, Segoe UI Emoji" font-size="30px" fill="#000000" text-anchor="start" style="white-space: pre;" direction="ltr" dominant-baseline="text-before-edge">for users to solve and get feedback on their solutions. They also host competitions where users can compete to solve</text><text x="0" y="75" font-family="Virgil, Segoe UI Emoji" font-size="30px" fill="#000000" text-anchor="start" style="white-space: pre;" direction="ltr" dominant-baseline="text-before-edge">as many questions as possible in a set amount of time.</text></g><g stroke-linecap="round" transform="translate(265 310) rotate(0 625 350)"><path d="M32 0 C372.87 2.22, 714.63 2.04, 1218 0 M32 0 C279.53 -3.4, 526.69 -3.37, 1218 0 M1218 0 C1238.81 1.73, 1250.13 9.18, 1250 32 M1218 0 C1238.57 -1.59, 1250.58 10.51, 1250 32 M1250 32 C1251.55 252.62, 1251.68 471.39, 1250 668 M1250 32 C1249.31 178.49, 1248.98 325.06, 1250 668 M1250 668 C1251.32 689.02, 1239.7 700.35, 1218 700 M1250 668 C1251.83 691.52, 1239.46 702.3, 1218 700 M1218 700 C960.34 700.68, 703.25 700.5, 32 700 M1218 700 C895.69 702.91, 573.25 702.75, 32 700 M32 700 C9.13 698.04, 0.72 689.54, 0 668 M32 700 C9.05 698.69, 0.83 687.81, 0 668 M0 668 C1.69 525.91, 2.99 384.23, 0 32 M0 668 C1.69 472.24, 2.3 276.78, 0 32 M0 32 C-1.07 10.7, 9.56 0.92, 32 0 M0 32 C-0.37 11.8, 9.8 1.27, 32 0" stroke="#000000" stroke-width="1" fill="none"></path></g><g stroke-linecap="round"><g transform="translate(65 380) rotate(0 80.75 -16.5)"><path d="M0.29 0.48 C10.61 -5.04, 35.79 -30.1, 62.8 -32.5 C89.82 -34.91, 145.88 -16.94, 162.38 -13.97 M-1.02 -0.32 C9.09 -6.25, 34.83 -32.29, 62.01 -34.37 C89.2 -36.44, 145.37 -16.16, 162.08 -12.77" stroke="#B8B8B8" stroke-width="1" fill="none"></path></g><g transform="translate(65 380) rotate(0 80.75 -16.5)"><path d="M163.13 -14.23 L148.18 -10.65 L152.3 -20.99 L163.34 -10.93" stroke="none" stroke-width="0" fill="#B8B8B8" fill-rule="evenodd"></path><path d="M162.08 -12.77 C157.15 -11.42, 151.63 -9.75, 147.29 -10.26 M162.08 -12.77 C157.84 -12.7, 153.57 -11.05, 147.29 -10.26 M147.29 -10.26 C148.95 -13.91, 147.49 -16.32, 150.65 -22.49 M147.29 -10.26 C148.53 -13.53, 149.11 -16.82, 150.65 -22.49 M150.65 -22.49 C154.7 -19.73, 157.93 -16.84, 162.08 -12.77 M150.65 -22.49 C152.98 -19.68, 155.91 -18.03, 162.08 -12.77 M162.08 -12.77 C162.08 -12.77, 162.08 -12.77, 162.08 -12.77 M162.08 -12.77 C162.08 -12.77, 162.08 -12.77, 162.08 -12.77" stroke="#B8B8B8" stroke-width="1" fill="none"></path></g></g><mask></mask><g transform="translate(10 391) rotate(0 38.38996887207031 12.5)"><text x="0" y="0" font-family="Virgil, Segoe UI Emoji" font-size="20px" fill="#B8B8B8" text-anchor="start" style="white-space: pre;" direction="ltr" dominant-baseline="text-before-edge">Example</text></g><g transform="translate(10 425) rotate(0 133.0479278564453 130)"><text x="0" y="0" font-family="Virgil, Segoe UI Emoji" font-size="16px" fill="#B8B8B8" text-anchor="start" style="white-space: pre;" direction="ltr" dominant-baseline="text-before-edge">Functional Requirements:</text><text x="0" y="20" font-family="Virgil, Segoe UI Emoji" font-size="16px" fill="#B8B8B8" text-anchor="start" style="white-space: pre;" direction="ltr" dominant-baseline="text-before-edge">- User can create tweets</text><text x="0" y="40" font-family="Virgil, Segoe UI Emoji" font-size="16px" fill="#B8B8B8" text-anchor="start" style="white-space: pre;" direction="ltr" dominant-baseline="text-before-edge">- User can view tweets</text><text x="0" y="60" font-family="Virgil, Segoe UI Emoji" font-size="16px" fill="#B8B8B8" text-anchor="start" style="white-space: pre;" direction="ltr" dominant-baseline="text-before-edge">- User can delete tweets</text><text x="0" y="80" font-family="Virgil, Segoe UI Emoji" font-size="16px" fill="#B8B8B8" text-anchor="start" style="white-space: pre;" direction="ltr" dominant-baseline="text-before-edge">- ...</text><text x="0" y="100" font-family="Virgil, Segoe UI Emoji" font-size="16px" fill="#B8B8B8" text-anchor="start" style="white-space: pre;" direction="ltr" dominant-baseline="text-before-edge"></text><text x="0" y="120" font-family="Virgil, Segoe UI Emoji" font-size="16px" fill="#B8B8B8" text-anchor="start" style="white-space: pre;" direction="ltr" dominant-baseline="text-before-edge">System Scale:</text><text x="0" y="140" font-family="Virgil, Segoe UI Emoji" font-size="16px" fill="#B8B8B8" text-anchor="start" style="white-space: pre;" direction="ltr" dominant-baseline="text-before-edge">100M DAU, 500M tweets per day</text><text x="0" y="160" font-family="Virgil, Segoe UI Emoji" font-size="16px" fill="#B8B8B8" text-anchor="start" style="white-space: pre;" direction="ltr" dominant-baseline="text-before-edge"></text><text x="0" y="180" font-family="Virgil, Segoe UI Emoji" font-size="16px" fill="#B8B8B8" text-anchor="start" style="white-space: pre;" direction="ltr" dominant-baseline="text-before-edge">Non-Functional Requirements:</text><text x="0" y="200" font-family="Virgil, Segoe UI Emoji" font-size="16px" fill="#B8B8B8" text-anchor="start" style="white-space: pre;" direction="ltr" dominant-baseline="text-before-edge">- Availability &gt; consistency</text><text x="0" y="220" font-family="Virgil, Segoe UI Emoji" font-size="16px" fill="#B8B8B8" text-anchor="start" style="white-space: pre;" direction="ltr" dominant-baseline="text-before-edge">- Low latency feed gen</text><text x="0" y="240" font-family="Virgil, Segoe UI Emoji" font-size="16px" fill="#B8B8B8" text-anchor="start" style="white-space: pre;" direction="ltr" dominant-baseline="text-before-edge">- ...</text></g><g transform="translate(315 350) rotate(0 94.3499526977539 18.75)"><text x="0" y="0" font-family="Virgil, Segoe UI Emoji" font-size="30px" fill="#000000" text-anchor="start" style="white-space: pre;" direction="ltr" dominant-baseline="text-before-edge">Requirements</text></g><g transform="translate(315 410) rotate(0 116.35990142822266 12.5)"><text x="0" y="0" font-family="Virgil, Segoe UI Emoji" font-size="20px" fill="#000000" text-anchor="start" style="white-space: pre;" direction="ltr" dominant-baseline="text-before-edge">Functional Requirements</text></g><g transform="translate(315 450) rotate(0 495.11962890625 37.5)"><text x="0" y="0" font-family="Virgil, Segoe UI Emoji" font-size="20px" fill="#000000" text-anchor="start" style="white-space: pre;" direction="ltr" dominant-baseline="text-before-edge">1. Users should be able to view a given problem and code a solution in multiple languages</text><text x="0" y="25" font-family="Virgil, Segoe UI Emoji" font-size="20px" fill="#000000" text-anchor="start" style="white-space: pre;" direction="ltr" dominant-baseline="text-before-edge">2. Users should be able to submit their solution and get instant feedback</text><text x="0" y="50" font-family="Virgil, Segoe UI Emoji" font-size="20px" fill="#000000" text-anchor="start" style="white-space: pre;" direction="ltr" dominant-baseline="text-before-edge">3. Users should be able to compete in competitions and view a live leaderboard to see who's winning</text></g><g transform="translate(315 580) rotate(0 64.51994323730469 12.5)"><text x="0" y="0" font-family="Virgil, Segoe UI Emoji" font-size="20px" fill="#000000" text-anchor="start" style="white-space: pre;" direction="ltr" dominant-baseline="text-before-edge">System Scale</text></g><g transform="translate(315 610) rotate(0 258.36981201171875 12.5)"><text x="0" y="0" font-family="Virgil, Segoe UI Emoji" font-size="20px" fill="#000000" text-anchor="start" style="white-space: pre;" direction="ltr" dominant-baseline="text-before-edge">- 300k daily active users, max 100k per competition</text></g><g transform="translate(315 690) rotate(0 137.119873046875 12.5)"><text x="0" y="0" font-family="Virgil, Segoe UI Emoji" font-size="20px" fill="#000000" text-anchor="start" style="white-space: pre;" direction="ltr" dominant-baseline="text-before-edge">Non-Functional Requirements</text></g><g transform="translate(324.1944506644982 736.2022054346248) rotate(0 429.79962158203125 62.5)"><text x="0" y="0" font-family="Virgil, Segoe UI Emoji" font-size="20px" fill="#1e1e1e" text-anchor="start" style="white-space: pre;" direction="ltr" dominant-baseline="text-before-edge">- Favor availability &gt;&gt; consistency</text><text x="0" y="25" font-family="Virgil, Segoe UI Emoji" font-size="20px" fill="#1e1e1e" text-anchor="start" style="white-space: pre;" direction="ltr" dominant-baseline="text-before-edge">- Ensure security, sandbox running code</text><text x="0" y="50" font-family="Virgil, Segoe UI Emoji" font-size="20px" fill="#1e1e1e" text-anchor="start" style="white-space: pre;" direction="ltr" dominant-baseline="text-before-edge">- scalability to be able to handle larger number of concurrent competition users (100k)</text><text x="0" y="75" font-family="Virgil, Segoe UI Emoji" font-size="20px" fill="#1e1e1e" text-anchor="start" style="white-space: pre;" direction="ltr" dominant-baseline="text-before-edge">- Near realtime leaderboard for competition &lt; 200ms latency</text><text x="0" y="100" font-family="Virgil, Segoe UI Emoji" font-size="20px" fill="#1e1e1e" text-anchor="start" style="white-space: pre;" direction="ltr" dominant-baseline="text-before-edge">- low latency submissions results &lt; 5s</text></g><g stroke-linecap="round" transform="translate(265 1060) rotate(0 625 200)"><path d="M32 0 C457.76 0.62, 882.99 0.58, 1218 0 M32 0 C315.24 3.9, 597.93 3.78, 1218 0 M1218 0 C1238.7 -1.99, 1250.3 12.46, 1250 32 M1218 0 C1237.09 1.46, 1249.11 9.49, 1250 32 M1250 32 C1248.8 114.94, 1247.67 199.04, 1250 368 M1250 32 C1250.69 118.59, 1251.86 204.62, 1250 368 M1250 368 C1249.29 388.84, 1239.65 400.9, 1218 400 M1250 368 C1251.17 387.48, 1241.36 398.24, 1218 400 M1218 400 C895.02 403.91, 570.33 404.09, 32 400 M1218 400 C978.26 397.68, 737.83 397.93, 32 400 M32 400 C9.4 401.06, 1.8 390.83, 0 368 M32 400 C10.75 399.61, -1.9 387.43, 0 368 M0 368 C0.31 266.23, -0.75 165.73, 0 32 M0 368 C0 234.01, 0.09 100.11, 0 32 M0 32 C-0.77 8.81, 10.09 -0.12, 32 0 M0 32 C-1.63 10.27, 9.09 -1.31, 32 0" stroke="#000000" stroke-width="1" fill="none"></path></g><g stroke-linecap="round"><g transform="translate(65 1100) rotate(0 80.75 -16.5)"><path d="M-0.06 -0.36 C10.3 -6.17, 35.56 -31.48, 62.39 -33.73 C89.21 -35.97, 144.25 -17.37, 160.88 -13.85 M-1.56 -1.6 C8.62 -6.75, 34.49 -30.74, 61.38 -32.57 C88.27 -34.4, 142.9 -15.59, 159.78 -12.59" stroke="#B8B8B8" stroke-width="1" fill="none"></path></g><g transform="translate(65 1100) rotate(0 80.75 -16.5)"><path d="M158.57 -11.3 L144.63 -11.74 L146.72 -22.8 L159.26 -11.34" stroke="none" stroke-width="0" fill="#B8B8B8" fill-rule="evenodd"></path><path d="M159.78 -12.59 C154.7 -11.85, 149.6 -11.61, 145.05 -9.78 M159.78 -12.59 C155.61 -11.18, 151.61 -11.44, 145.05 -9.78 M145.05 -9.78 C145.17 -13.7, 148.01 -17.1, 148.16 -22.07 M145.05 -9.78 C145.71 -13.37, 145.92 -16.34, 148.16 -22.07 M148.16 -22.07 C150.9 -18.52, 153.49 -16.98, 159.78 -12.59 M148.16 -22.07 C152.1 -19.29, 156.58 -15.51, 159.78 -12.59 M159.78 -12.59 C159.78 -12.59, 159.78 -12.59, 159.78 -12.59 M159.78 -12.59 C159.78 -12.59, 159.78 -12.59, 159.78 -12.59" stroke="#B8B8B8" stroke-width="1" fill="none"></path></g></g><mask></mask><g transform="translate(10 1111) rotate(0 110 13.75)"><text x="0" y="0" font-family="Virgil, Segoe UI Emoji" font-size="20px" fill="#B8B8B8" text-anchor="start" style="white-space: pre;" direction="ltr" dominant-baseline="text-before-edge">Example</text></g><g transform="translate(10 1145) rotate(0 110 50)"><text x="0" y="0" font-family="Virgil, Segoe UI Emoji" font-size="16px" fill="#B8B8B8" text-anchor="start" style="white-space: pre;" direction="ltr" dominant-baseline="text-before-edge">Core Entities</text><text x="0" y="20" font-family="Virgil, Segoe UI Emoji" font-size="16px" fill="#B8B8B8" text-anchor="start" style="white-space: pre;" direction="ltr" dominant-baseline="text-before-edge">- User</text><text x="0" y="40" font-family="Virgil, Segoe UI Emoji" font-size="16px" fill="#B8B8B8" text-anchor="start" style="white-space: pre;" direction="ltr" dominant-baseline="text-before-edge">- Tweet</text><text x="0" y="60" font-family="Virgil, Segoe UI Emoji" font-size="16px" fill="#B8B8B8" text-anchor="start" style="white-space: pre;" direction="ltr" dominant-baseline="text-before-edge">- Follow</text><text x="0" y="80" font-family="Virgil, Segoe UI Emoji" font-size="16px" fill="#B8B8B8" text-anchor="start" style="white-space: pre;" direction="ltr" dominant-baseline="text-before-edge">        </text></g><g transform="translate(315 1110) rotate(0 500 25)"><text x="0" y="0" font-family="Virgil, Segoe UI Emoji" font-size="30px" fill="#000000" text-anchor="start" style="white-space: pre;" direction="ltr" dominant-baseline="text-before-edge">Core Entities</text></g><g transform="translate(322.6174631445284 1165.051084494644) rotate(0 69.97994232177734 62.5)"><text x="0" y="0" font-family="Virgil, Segoe UI Emoji" font-size="20px" fill="#1e1e1e" text-anchor="start" style="white-space: pre;" direction="ltr" dominant-baseline="text-before-edge">- Problem</text><text x="0" y="25" font-family="Virgil, Segoe UI Emoji" font-size="20px" fill="#1e1e1e" text-anchor="start" style="white-space: pre;" direction="ltr" dominant-baseline="text-before-edge">- Leaderboard</text><text x="0" y="50" font-family="Virgil, Segoe UI Emoji" font-size="20px" fill="#1e1e1e" text-anchor="start" style="white-space: pre;" direction="ltr" dominant-baseline="text-before-edge">- Submission</text><text x="0" y="75" font-family="Virgil, Segoe UI Emoji" font-size="20px" fill="#1e1e1e" text-anchor="start" style="white-space: pre;" direction="ltr" dominant-baseline="text-before-edge">- Competition</text><text x="0" y="100" font-family="Virgil, Segoe UI Emoji" font-size="20px" fill="#1e1e1e" text-anchor="start" style="white-space: pre;" direction="ltr" dominant-baseline="text-before-edge">- User</text></g><g stroke-linecap="round" transform="translate(265 1510) rotate(0 625 450)"><path d="M32 0 C377.52 3.07, 723.3 4.07, 1218 0 M32 0 C308.56 -1.64, 584.14 -1.18, 1218 0 M1218 0 C1240.76 0.45, 1248.56 12.21, 1250 32 M1218 0 C1239.48 0.02, 1252.29 9.98, 1250 32 M1250 32 C1250.46 284.47, 1250.03 537.47, 1250 868 M1250 32 C1253.02 206.55, 1252.98 381.02, 1250 868 M1250 868 C1248.25 889.96, 1237.69 898.54, 1218 900 M1250 868 C1250.22 889.99, 1239.17 899.65, 1218 900 M1218 900 C770.19 898.97, 321.94 899.87, 32 900 M1218 900 C885.41 897.76, 553.23 898.04, 32 900 M32 900 C10.77 899.71, 1.29 889.32, 0 868 M32 900 C12.56 900.96, 0.26 890.52, 0 868 M0 868 C-1.22 691.14, -0.69 514.46, 0 32 M0 868 C-0.88 610.24, -1.36 352.05, 0 32 M0 32 C-1.42 12.54, 9.24 0.37, 32 0 M0 32 C-1.25 9.61, 8.7 1.02, 32 0" stroke="#000000" stroke-width="1" fill="none"></path></g><g stroke-linecap="round"><g transform="translate(65 1600) rotate(0 80.75 -16.5)"><path d="M-0.49 0.11 C9.65 -5.45, 35.09 -31.53, 61.89 -33.99 C88.7 -36.46, 143.91 -18.05, 160.35 -14.69 M1.45 -0.89 C11.9 -6.26, 37.42 -30.81, 64.29 -32.98 C91.15 -35.14, 146.64 -17.23, 162.64 -13.87" stroke="#B8B8B8" stroke-width="1" fill="none"></path></g><g transform="translate(65 1600) rotate(0 80.75 -16.5)"><path d="M163.71 -12.04 L149.19 -10.9 L151.99 -22.15 L163.64 -12.45" stroke="none" stroke-width="0" fill="#B8B8B8" fill-rule="evenodd"></path><path d="M162.64 -13.87 C157.04 -13.63, 149.95 -13.26, 147.89 -11.14 M162.64 -13.87 C159.99 -13.93, 155.52 -13.26, 147.89 -11.14 M147.89 -11.14 C148.97 -13.33, 149.74 -15.68, 151.07 -23.42 M147.89 -11.14 C148.81 -14.81, 150.5 -19.24, 151.07 -23.42 M151.07 -23.42 C155.92 -20.34, 159.01 -17.53, 162.64 -13.87 M151.07 -23.42 C153.84 -21.61, 156.04 -19.4, 162.64 -13.87 M162.64 -13.87 C162.64 -13.87, 162.64 -13.87, 162.64 -13.87 M162.64 -13.87 C162.64 -13.87, 162.64 -13.87, 162.64 -13.87" stroke="#B8B8B8" stroke-width="1" fill="none"></path></g></g><mask></mask><g transform="translate(10 1611) rotate(0 110 13.75)"><text x="0" y="0" font-family="Virgil, Segoe UI Emoji" font-size="20px" fill="#B8B8B8" text-anchor="start" style="white-space: pre;" direction="ltr" dominant-baseline="text-before-edge">Example</text></g><g transform="translate(10 1645) rotate(0 110 110)"><text x="0" y="0" font-family="Virgil, Segoe UI Emoji" font-size="16px" fill="#B8B8B8" text-anchor="start" style="white-space: pre;" direction="ltr" dominant-baseline="text-before-edge">GET /feed -&gt; Tweet[]</text><text x="0" y="20" font-family="Virgil, Segoe UI Emoji" font-size="16px" fill="#B8B8B8" text-anchor="start" style="white-space: pre;" direction="ltr" dominant-baseline="text-before-edge"></text><text x="0" y="40" font-family="Virgil, Segoe UI Emoji" font-size="16px" fill="#B8B8B8" text-anchor="start" style="white-space: pre;" direction="ltr" dominant-baseline="text-before-edge">POST /tweet -&gt; Tweet</text><text x="0" y="60" font-family="Virgil, Segoe UI Emoji" font-size="16px" fill="#B8B8B8" text-anchor="start" style="white-space: pre;" direction="ltr" dominant-baseline="text-before-edge">body: {</text><text x="0" y="80" font-family="Virgil, Segoe UI Emoji" font-size="16px" fill="#B8B8B8" text-anchor="start" style="white-space: pre;" direction="ltr" dominant-baseline="text-before-edge">    content: string</text><text x="0" y="100" font-family="Virgil, Segoe UI Emoji" font-size="16px" fill="#B8B8B8" text-anchor="start" style="white-space: pre;" direction="ltr" dominant-baseline="text-before-edge">}</text><text x="0" y="120" font-family="Virgil, Segoe UI Emoji" font-size="16px" fill="#B8B8B8" text-anchor="start" style="white-space: pre;" direction="ltr" dominant-baseline="text-before-edge"></text><text x="0" y="140" font-family="Virgil, Segoe UI Emoji" font-size="16px" fill="#B8B8B8" text-anchor="start" style="white-space: pre;" direction="ltr" dominant-baseline="text-before-edge">POST /follow -&gt; void</text><text x="0" y="160" font-family="Virgil, Segoe UI Emoji" font-size="16px" fill="#B8B8B8" text-anchor="start" style="white-space: pre;" direction="ltr" dominant-baseline="text-before-edge">{</text><text x="0" y="180" font-family="Virgil, Segoe UI Emoji" font-size="16px" fill="#B8B8B8" text-anchor="start" style="white-space: pre;" direction="ltr" dominant-baseline="text-before-edge">    userId: string</text><text x="0" y="200" font-family="Virgil, Segoe UI Emoji" font-size="16px" fill="#B8B8B8" text-anchor="start" style="white-space: pre;" direction="ltr" dominant-baseline="text-before-edge">}</text></g><g transform="translate(315 1560) rotate(0 500 25)"><text x="0" y="0" font-family="Virgil, Segoe UI Emoji" font-size="30px" fill="#000000" text-anchor="start" style="white-space: pre;" direction="ltr" dominant-baseline="text-before-edge">API Routes</text></g><g transform="translate(304.41987201677415 1645.7399289861235) rotate(0 371.5697021484375 162.5)"><text x="0" y="0" font-family="Virgil, Segoe UI Emoji" font-size="20px" fill="#1e1e1e" text-anchor="start" style="white-space: pre;" direction="ltr" dominant-baseline="text-before-edge">Get /problems/:problemId - &gt; Problem</text><text x="0" y="25" font-family="Virgil, Segoe UI Emoji" font-size="20px" fill="#1e1e1e" text-anchor="start" style="white-space: pre;" direction="ltr" dominant-baseline="text-before-edge"></text><text x="0" y="50" font-family="Virgil, Segoe UI Emoji" font-size="20px" fill="#1e1e1e" text-anchor="start" style="white-space: pre;" direction="ltr" dominant-baseline="text-before-edge">Get /problems?difficulty={difficulty}&amp;category={category} -&gt; []Problem</text><text x="0" y="75" font-family="Virgil, Segoe UI Emoji" font-size="20px" fill="#1e1e1e" text-anchor="start" style="white-space: pre;" direction="ltr" dominant-baseline="text-before-edge"></text><text x="0" y="100" font-family="Virgil, Segoe UI Emoji" font-size="20px" fill="#1e1e1e" text-anchor="start" style="white-space: pre;" direction="ltr" dominant-baseline="text-before-edge">POST /problems/:problemId -&gt; Submission</text><text x="0" y="125" font-family="Virgil, Segoe UI Emoji" font-size="20px" fill="#1e1e1e" text-anchor="start" style="white-space: pre;" direction="ltr" dominant-baseline="text-before-edge">body:</text><text x="0" y="150" font-family="Virgil, Segoe UI Emoji" font-size="20px" fill="#1e1e1e" text-anchor="start" style="white-space: pre;" direction="ltr" dominant-baseline="text-before-edge">    {</text><text x="0" y="175" font-family="Virgil, Segoe UI Emoji" font-size="20px" fill="#1e1e1e" text-anchor="start" style="white-space: pre;" direction="ltr" dominant-baseline="text-before-edge">      code,</text><text x="0" y="200" font-family="Virgil, Segoe UI Emoji" font-size="20px" fill="#1e1e1e" text-anchor="start" style="white-space: pre;" direction="ltr" dominant-baseline="text-before-edge">      language,</text><text x="0" y="225" font-family="Virgil, Segoe UI Emoji" font-size="20px" fill="#1e1e1e" text-anchor="start" style="white-space: pre;" direction="ltr" dominant-baseline="text-before-edge">      compeitionID?</text><text x="0" y="250" font-family="Virgil, Segoe UI Emoji" font-size="20px" fill="#1e1e1e" text-anchor="start" style="white-space: pre;" direction="ltr" dominant-baseline="text-before-edge">    }</text><text x="0" y="275" font-family="Virgil, Segoe UI Emoji" font-size="20px" fill="#1e1e1e" text-anchor="start" style="white-space: pre;" direction="ltr" dominant-baseline="text-before-edge"></text><text x="0" y="300" font-family="Virgil, Segoe UI Emoji" font-size="20px" fill="#1e1e1e" text-anchor="start" style="white-space: pre;" direction="ltr" dominant-baseline="text-before-edge">GET /leaderboard/:competitionID?page={page}&amp;limit={limit} -&gt; Leaderboard</text></g><g stroke-linecap="round" transform="translate(1565 310) rotate(0 1750 1050)"><path d="M32 0 C1058.7 -2.06, 2086.19 -1.68, 3468 0 M32 0 C927.85 -6.93, 1824.16 -6.55, 3468 0 M3468 0 C3487.98 -0.52, 3501.81 10.67, 3500 32 M3468 0 C3487.4 1.9, 3498.03 10.44, 3500 32 M3500 32 C3507.62 740.95, 3507.33 1450.75, 3500 2068 M3500 32 C3493.67 792.76, 3493.83 1553.25, 3500 2068 M3500 2068 C3498.9 2087.43, 3491.31 2098.82, 3468 2100 M3500 2068 C3502.3 2088.53, 3490.06 2099.76, 3468 2100 M3468 2100 C2639.79 2094.77, 1811.08 2094.47, 32 2100 M3468 2100 C2574.52 2090.4, 1681.19 2090.61, 32 2100 M32 2100 C11.26 2099.63, 1.52 2090.59, 0 2068 M32 2100 C9.54 2100.09, 1.93 2089.16, 0 2068 M0 2068 C-0.65 1505.72, -1.43 944.71, 0 32 M0 2068 C-6.85 1518.88, -7.19 970.56, 0 32 M0 32 C-0.94 9.37, 12.3 1.06, 32 0 M0 32 C1.77 12.63, 12.59 -1.7, 32 0" stroke="#299a8d" stroke-width="10" fill="none"></path></g><g transform="translate(1615 360) rotate(0 500 25)"><text x="0" y="0" font-family="Virgil, Segoe UI Emoji" font-size="30px" fill="#000000" text-anchor="start" style="white-space: pre;" direction="ltr" dominant-baseline="text-before-edge">High-Level Design</text></g><g stroke-linecap="round"><g transform="translate(5415 520) rotate(0 -140 -30)"><path d="M-0.4 -0.44 C-17.01 -10.41, -53.05 -55.66, -99.47 -59.92 C-145.89 -64.18, -248.92 -31.85, -278.92 -25.99 M1.6 -1.71 C-15.14 -11.47, -53.35 -54.42, -100.14 -58.34 C-146.92 -62.25, -249.33 -30.99, -279.12 -25.2" stroke="#B8B8B8" stroke-width="1" fill="none"></path></g><g transform="translate(5415 520) rotate(0 -140 -30)"><path d="M-278.24 -25.79 L-265.6 -36.38 L-263.33 -22.5 L-278.72 -26.33" stroke="none" stroke-width="0" fill="#B8B8B8" fill-rule="evenodd"></path><path d="M-279.12 -25.2 C-275.95 -27.46, -271.61 -29.73, -267.41 -34.57 M-279.12 -25.2 C-276.97 -26.78, -274.59 -29.67, -267.41 -34.57 M-267.41 -34.57 C-266.81 -31.91, -266.06 -27.76, -264.41 -22.25 M-267.41 -34.57 C-266.95 -31.68, -266.15 -29.04, -264.41 -22.25 M-264.41 -22.25 C-269.8 -22.26, -277.27 -23.22, -279.12 -25.2 M-264.41 -22.25 C-268.16 -23.56, -271.16 -23.3, -279.12 -25.2 M-279.12 -25.2 C-279.12 -25.2, -279.12 -25.2, -279.12 -25.2 M-279.12 -25.2 C-279.12 -25.2, -279.12 -25.2, -279.12 -25.2" stroke="#B8B8B8" stroke-width="1" fill="none"></path></g></g><mask></mask><g transform="translate(5415 540) rotate(0 500 25)"><text x="0" y="0" font-family="Virgil, Segoe UI Emoji" font-size="20px" fill="#B8B8B8" text-anchor="start" style="white-space: pre;" direction="ltr" dominant-baseline="text-before-edge">Simple Example</text></g><g stroke-linecap="round" transform="translate(5415 570) rotate(0 50 50)"><path d="M25 0 C40.69 -0.73, 61.64 0.31, 75 0 M25 0 C42.1 -0.7, 59.07 0.62, 75 0 M75 0 C89.69 -1.71, 98.51 9.69, 100 25 M75 0 C93.59 -1.46, 100.15 9.23, 100 25 M100 25 C98.66 34.93, 98.71 46.75, 100 75 M100 25 C100.17 34.84, 99.37 45.58, 100 75 M100 75 C100.76 89.89, 91.63 101.52, 75 100 M100 75 C101.73 89.46, 93.91 100.82, 75 100 M75 100 C60.18 101.75, 50.07 98.99, 25 100 M75 100 C61.19 99.57, 46.19 98.89, 25 100 M25 100 C7.29 101.84, 0.69 93.29, 0 75 M25 100 C6.8 98.7, 2.23 93.12, 0 75 M0 75 C1.33 59.83, 1.59 41.95, 0 25 M0 75 C0.8 54.73, -0.39 34.67, 0 25 M0 25 C-1.81 8.53, 8.1 0.4, 25 0 M0 25 C2.18 6.38, 9.16 -1.24, 25 0" stroke="#B8B8B8" stroke-width="1" fill="none"></path></g><g transform="translate(5445 612) rotate(0 10 10)"><text x="0" y="0" font-family="Virgil, Segoe UI Emoji" font-size="16px" fill="#B8B8B8" text-anchor="start" style="white-space: pre;" direction="ltr" dominant-baseline="text-before-edge">Client</text></g><g stroke-linecap="round"><g transform="translate(5525 620) rotate(0 25 0)"><path d="M0.33 1.15 C8.68 1.31, 40.97 1.49, 49.21 1.2 M-0.96 0.71 C7.85 0.54, 43.2 -0.24, 51.5 -0.3" stroke="#B8B8B8" stroke-width="1" fill="none"></path></g><g transform="translate(5525 620) rotate(0 25 0)"><path d="M28.15 8.62 C35.31 5.23, 40.65 4.11, 51.5 -0.3 M28.15 8.62 C34.64 7.07, 39.04 4.47, 51.5 -0.3" stroke="#B8B8B8" stroke-width="1" fill="none"></path></g><g transform="translate(5525 620) rotate(0 25 0)"><path d="M27.88 -8.48 C35.13 -8.02, 40.53 -5.29, 51.5 -0.3 M27.88 -8.48 C34.51 -5.78, 38.98 -4.14, 51.5 -0.3" stroke="#B8B8B8" stroke-width="1" fill="none"></path></g></g><mask></mask><g stroke-linecap="round" transform="translate(5585 520) rotate(0 50 100)"><path d="M25 0 C42.11 1.72, 59.9 -0.47, 75 0 M25 0 C35.62 -0.79, 47.12 0.1, 75 0 M75 0 C91.73 0.2, 99.8 8.2, 100 25 M75 0 C91 -0.86, 99.43 6.84, 100 25 M100 25 C99.14 84.69, 97.61 141.39, 100 175 M100 25 C99.13 59.56, 98.32 96.45, 100 175 M100 175 C99.15 190.71, 91.3 199.08, 75 200 M100 175 C100.41 190.27, 89.71 200.15, 75 200 M75 200 C61.16 201.69, 46.18 200.61, 25 200 M75 200 C59.67 200.06, 44.76 200.83, 25 200 M25 200 C8.64 199.28, -1.85 192.17, 0 175 M25 200 C9.18 199.1, 1.6 190.53, 0 175 M0 175 C0.36 138.7, -2.24 105.17, 0 25 M0 175 C-0.23 132.74, -0.65 91.13, 0 25 M0 25 C1.23 9.34, 6.78 0.85, 25 0 M0 25 C1.15 10.51, 6.75 1.54, 25 0" stroke="#B8B8B8" stroke-width="1" fill="none"></path></g><g transform="translate(5605 612) rotate(0 10 10)"><text x="0" y="0" font-family="Virgil, Segoe UI Emoji" font-size="16px" fill="#B8B8B8" text-anchor="start" style="white-space: pre;" direction="ltr" dominant-baseline="text-before-edge">Server</text></g><g stroke-linecap="round"><g transform="translate(5695 620) rotate(0 25 0)"><path d="M-0.96 0.6 C7.34 0.46, 40.59 0.23, 49.11 0.11 M0.74 -0.12 C9.47 -0.14, 43.23 1.49, 51.35 1.71" stroke="#B8B8B8" stroke-width="1" fill="none"></path></g><g transform="translate(5695 620) rotate(0 25 0)"><path d="M27.55 9.35 C34.31 6.18, 39.32 6.07, 51.35 1.71 M27.55 9.35 C35.36 6.21, 40.55 5.87, 51.35 1.71" stroke="#B8B8B8" stroke-width="1" fill="none"></path></g><g transform="translate(5695 620) rotate(0 25 0)"><path d="M28.2 -7.74 C34.95 -6.73, 39.79 -2.66, 51.35 1.71 M28.2 -7.74 C35.81 -5.88, 40.81 -1.22, 51.35 1.71" stroke="#B8B8B8" stroke-width="1" fill="none"></path></g></g><mask></mask><g stroke-linecap="round" transform="translate(5755 570) rotate(0 50 50)"><path d="M25 0 C39.81 -0.12, 54.2 -0.3, 75 0 M25 0 C41.14 -1.1, 55.4 0.19, 75 0 M75 0 C89.92 1.38, 98.27 8.89, 100 25 M75 0 C91.99 -1.09, 101.18 7.19, 100 25 M100 25 C98.1 41.89, 99.61 61.56, 100 75 M100 25 C100.67 38.45, 100.32 53.38, 100 75 M100 75 C99.19 92.61, 90.54 98.06, 75 100 M100 75 C98.83 92.38, 91.26 102.23, 75 100 M75 100 C58.05 100.84, 40.86 101.67, 25 100 M75 100 C61.37 99.63, 48.74 99.34, 25 100 M25 100 C6.92 100.63, 1.92 92.32, 0 75 M25 100 C6.5 100.13, -2.09 90.4, 0 75 M0 75 C1.5 62.23, 0.36 50.7, 0 25 M0 75 C0.2 56.95, 0.12 38.71, 0 25 M0 25 C-0.49 10.29, 8.41 -1.71, 25 0 M0 25 C1.94 9.59, 7.31 0.2, 25 0" stroke="#B8B8B8" stroke-width="1" fill="none"></path></g><g transform="translate(5785 612) rotate(0 10 10)"><text x="0" y="0" font-family="Virgil, Segoe UI Emoji" font-size="16px" fill="#B8B8B8" text-anchor="start" style="white-space: pre;" direction="ltr" dominant-baseline="text-before-edge">DB</text></g><g stroke-linecap="round" transform="translate(1831.0261570068878 894.5988013160561) rotate(0 170.62648644515843 123.41651318703339)"><path d="M32 0 C121.96 0.85, 210.99 1.14, 309.25 0 M32 0 C116.2 -1.2, 200.36 -0.53, 309.25 0 M309.25 0 C332.12 0.89, 341.82 10.47, 341.25 32 M309.25 0 C328.76 -0.51, 343.23 9.67, 341.25 32 M341.25 32 C342.76 100.96, 342.88 170.05, 341.25 214.83 M341.25 32 C343.41 80.96, 341.88 127.47, 341.25 214.83 M341.25 214.83 C340.64 237.04, 331.5 244.88, 309.25 246.83 M341.25 214.83 C342.72 235.58, 332.22 245.65, 309.25 246.83 M309.25 246.83 C203.44 247.3, 100.98 249.47, 32 246.83 M309.25 246.83 C201.82 245.51, 93.8 245.74, 32 246.83 M32 246.83 C10.78 247.03, 0.52 237.97, 0 214.83 M32 246.83 C9.58 248.61, -1.64 234.25, 0 214.83 M0 214.83 C1.34 158.54, 0.45 102.8, 0 32 M0 214.83 C-1.05 151.95, -1.93 87.09, 0 32 M0 32 C1.52 10.81, 11.12 1.68, 32 0 M0 32 C-0.07 10.39, 11.1 0.96, 32 0" stroke="#1e1e1e" stroke-width="2" fill="none"></path></g><g transform="translate(1942.0325355163914 1002.2799762755994) rotate(0 27.049972534179688 12.5)"><text x="0" y="0" font-family="Virgil, Segoe UI Emoji" font-size="20px" fill="#1e1e1e" text-anchor="start" style="white-space: pre;" direction="ltr" dominant-baseline="text-before-edge">Client</text></g><g stroke-linecap="round" transform="translate(2461.930778484483 721.5893062471183) rotate(0 77.6922480138528 265.2640153799055)"><path d="M32 0 C52.51 -0.02, 75.49 -1.96, 123.38 0 M32 0 C62.54 0.4, 94.95 0, 123.38 0 M123.38 0 C143.88 -1.37, 156.11 11.96, 155.38 32 M123.38 0 C144.97 -1.77, 156.43 9.68, 155.38 32 M155.38 32 C153.2 152.15, 153.63 273.44, 155.38 498.53 M155.38 32 C156.38 145.96, 156.42 259.16, 155.38 498.53 M155.38 498.53 C154.74 517.95, 143.31 531.46, 123.38 530.53 M155.38 498.53 C154.98 518.39, 145.1 529.37, 123.38 530.53 M123.38 530.53 C103.69 532.34, 83.32 530.56, 32 530.53 M123.38 530.53 C102.71 530, 79.91 529.62, 32 530.53 M32 530.53 C9.96 530.73, 0.88 518.6, 0 498.53 M32 530.53 C8.59 530.92, -0.91 521.54, 0 498.53 M0 498.53 C0.76 387.46, 0.97 277.89, 0 32 M0 498.53 C-1.57 400.85, -1.45 302.66, 0 32 M0 32 C-0.77 12.38, 12.02 -1.49, 32 0 M0 32 C-1.16 11.02, 12.86 -1.36, 32 0" stroke="#1e1e1e" stroke-width="2" fill="none"></path></g><g transform="translate(2473.2767423377136 978.6593273745295) rotate(0 66.58995819091797 12.5)"><text x="0" y="0" font-family="Virgil, Segoe UI Emoji" font-size="20px" fill="#1e1e1e" text-anchor="start" style="white-space: pre;" direction="ltr" dominant-baseline="text-before-edge">LoadBalancer</text></g><g stroke-linecap="round" transform="translate(2958.2350106304075 783.8963371392372) rotate(0 242.01718328439665 146.58771223583892)"><path d="M32 0 C154.98 -0.45, 277.93 0.54, 452.03 0 M32 0 C121.7 0.59, 211.99 0.08, 452.03 0 M452.03 0 C473.87 0.86, 483.17 12.33, 484.03 32 M452.03 0 C475.39 -2.29, 482.08 11.27, 484.03 32 M484.03 32 C483.17 91.73, 480.96 152.7, 484.03 261.18 M484.03 32 C485.71 97.74, 486.14 164.72, 484.03 261.18 M484.03 261.18 C485.18 282.27, 472.36 292.41, 452.03 293.18 M484.03 261.18 C482.05 282.39, 475.62 293.64, 452.03 293.18 M452.03 293.18 C317.47 293.87, 182.04 292.63, 32 293.18 M452.03 293.18 C360.69 295.03, 269.77 294.5, 32 293.18 M32 293.18 C10.79 291.59, 0.37 282.31, 0 261.18 M32 293.18 C11.85 293.43, 1.93 283.31, 0 261.18 M0 261.18 C0.49 187.94, 2.32 116.74, 0 32 M0 261.18 C0.52 213.86, 1.48 164.74, 0 32 M0 32 C1.84 8.81, 10.37 1.26, 32 0 M0 32 C-1.95 10.13, 12.43 -1.41, 32 0" stroke="#1e1e1e" stroke-width="2" fill="none"></path></g><g transform="translate(3112.306890184527 880.7257446413836) rotate(0 54.46995544433594 12.5)"><text x="0" y="0" font-family="Virgil, Segoe UI Emoji" font-size="20px" fill="#1e1e1e" text-anchor="start" style="white-space: pre;" direction="ltr" dominant-baseline="text-before-edge">API Server</text></g><g stroke-linecap="round" transform="translate(3776.4175897068994 692.2835942488541) rotate(0 207.97929172470572 205.91741348722678)"><path d="M136.75 11.78 C152.3 2.56, 173.37 0.94, 191.96 -0.28 C210.56 -1.49, 230.18 0.95, 248.31 4.5 C266.45 8.06, 284.21 12.87, 300.79 21.04 C317.36 29.21, 333.96 40.99, 347.76 53.54 C361.57 66.09, 373.7 80.47, 383.63 96.32 C393.56 112.17, 402.13 130.76, 407.35 148.64 C412.57 166.53, 414.85 185.2, 414.97 203.65 C415.08 222.09, 412.87 241.35, 408.05 259.32 C403.23 277.29, 395.29 295.57, 386.05 311.49 C376.8 327.41, 365.99 342.11, 352.58 354.83 C339.18 367.54, 322.11 379, 305.61 387.79 C289.11 396.58, 271.94 403.72, 253.57 407.59 C235.21 411.46, 214.24 412.07, 195.42 411.03 C176.6 409.98, 158.33 407.36, 140.65 401.31 C122.98 395.26, 104.77 385.4, 89.35 374.74 C73.92 364.09, 59.97 351.58, 48.1 337.38 C36.24 323.19, 25.93 306.4, 18.14 289.57 C10.34 272.74, 3.96 254.63, 1.33 236.4 C-1.3 218.16, -0.24 198.44, 2.38 180.16 C5 161.89, 10.04 143.78, 17.04 126.75 C24.05 109.72, 33.03 92.44, 44.42 77.99 C55.8 63.55, 68.78 51.49, 85.35 40.09 C101.93 28.69, 132.98 14.38, 143.89 9.6 C154.79 4.82, 149.75 8, 150.81 11.4 M166.88 3.77 C183.55 -3, 205.69 -2.04, 224.62 -0.45 C243.54 1.13, 262.9 6.79, 280.42 13.28 C297.94 19.77, 314.83 27.45, 329.73 38.49 C344.64 49.54, 357.93 65.08, 369.85 79.54 C381.77 93.99, 393.92 108.55, 401.26 125.2 C408.59 141.84, 411.53 160.61, 413.84 179.4 C416.15 198.18, 417.7 219.62, 415.12 237.92 C412.54 256.21, 406.28 272.32, 398.34 289.16 C390.41 306, 379.51 324.6, 367.51 338.94 C355.51 353.29, 341.56 364.74, 326.32 375.24 C311.07 385.73, 293.87 395.72, 276.02 401.92 C258.18 408.13, 237.97 411.87, 219.26 412.46 C200.55 413.05, 181.79 409.5, 163.78 405.47 C145.76 401.45, 127.86 396.98, 111.16 388.32 C94.45 379.66, 77.51 366.22, 63.56 353.5 C49.6 340.78, 36.64 327.99, 27.43 312.02 C18.22 296.05, 12.94 275.81, 8.32 257.7 C3.69 239.6, -0.24 221.66, -0.32 203.4 C-0.41 185.15, 2.45 166.16, 7.8 148.17 C13.15 130.18, 21.82 111.28, 31.8 95.45 C41.78 79.63, 53.73 65.44, 67.69 53.23 C81.65 41.02, 98.71 30.24, 115.56 22.21 C132.4 14.18, 159.93 7.45, 168.75 5.05 C177.57 2.66, 167.77 4.53, 168.47 7.83" stroke="#1e1e1e" stroke-width="2" fill="none"></path></g><g transform="translate(3910.8847253636795 842.2824192518882) rotate(0 50.76996612548828 12.5)"><text x="0" y="0" font-family="Virgil, Segoe UI Emoji" font-size="20px" fill="#1e1e1e" text-anchor="start" style="white-space: pre;" direction="ltr" dominant-baseline="text-before-edge">DynamoDB</text></g><g transform="translate(4249.596111019895 717.0543008340843) rotate(0 158.26986694335938 87.5)"><text x="0" y="0" font-family="Virgil, Segoe UI Emoji" font-size="20px" fill="#1e1e1e" text-anchor="start" style="white-space: pre;" direction="ltr" dominant-baseline="text-before-edge">Problem</text><text x="0" y="25" font-family="Virgil, Segoe UI Emoji" font-size="20px" fill="#1e1e1e" text-anchor="start" style="white-space: pre;" direction="ltr" dominant-baseline="text-before-edge">- id</text><text x="0" y="50" font-family="Virgil, Segoe UI Emoji" font-size="20px" fill="#1e1e1e" text-anchor="start" style="white-space: pre;" direction="ltr" dominant-baseline="text-before-edge">- name</text><text x="0" y="75" font-family="Virgil, Segoe UI Emoji" font-size="20px" fill="#1e1e1e" text-anchor="start" style="white-space: pre;" direction="ltr" dominant-baseline="text-before-edge">- difficulty</text><text x="0" y="100" font-family="Virgil, Segoe UI Emoji" font-size="20px" fill="#1e1e1e" text-anchor="start" style="white-space: pre;" direction="ltr" dominant-baseline="text-before-edge">- category</text><text x="0" y="125" font-family="Virgil, Segoe UI Emoji" font-size="20px" fill="#1e1e1e" text-anchor="start" style="white-space: pre;" direction="ltr" dominant-baseline="text-before-edge">- status (attempted, solved, ..)</text><text x="0" y="150" font-family="Virgil, Segoe UI Emoji" font-size="20px" fill="#1e1e1e" text-anchor="start" style="white-space: pre;" direction="ltr" dominant-baseline="text-before-edge">- description</text></g><g stroke-linecap="round"><g transform="translate(2197.418841642023 989.1658927103165) rotate(0 124.48730697455665 -2.3604562336164463)"><path d="M-0.54 0.92 C40.71 0.28, 206.66 -3.22, 248.38 -4.03 M1.38 0.36 C42.95 -0.61, 209.44 -4.75, 250.78 -5.78" stroke="#1e1e1e" stroke-width="2" fill="none"></path></g><g transform="translate(2197.418841642023 989.1658927103165) rotate(0 124.48730697455665 -2.3604562336164463)"><path d="M22.78 -8.09 C15.57 -5.81, 6.45 -0.12, -0.54 0.92 M22.78 -8.09 C13.97 -5.61, 5.34 -0.86, -0.54 0.92" stroke="#1e1e1e" stroke-width="2" fill="none"></path></g><g transform="translate(2197.418841642023 989.1658927103165) rotate(0 124.48730697455665 -2.3604562336164463)"><path d="M23.12 9.01 C15.81 4.88, 6.56 4.16, -0.54 0.92 M23.12 9.01 C14.18 5.19, 5.43 3.63, -0.54 0.92" stroke="#1e1e1e" stroke-width="2" fill="none"></path></g><g transform="translate(2197.418841642023 989.1658927103165) rotate(0 124.48730697455665 -2.3604562336164463)"><path d="M227.51 3.35 C237.78 -0.96, 246.12 -2.07, 250.78 -5.78 M227.51 3.35 C235.86 -0.46, 244.41 -2.39, 250.78 -5.78" stroke="#1e1e1e" stroke-width="2" fill="none"></path></g><g transform="translate(2197.418841642023 989.1658927103165) rotate(0 124.48730697455665 -2.3604562336164463)"><path d="M227.08 -13.75 C237.49 -11.65, 245.99 -6.35, 250.78 -5.78 M227.08 -13.75 C235.6 -11.25, 244.3 -6.88, 250.78 -5.78" stroke="#1e1e1e" stroke-width="2" fill="none"></path></g></g><mask></mask><g stroke-linecap="round"><g transform="translate(2634.142679690742 1005.5933160449836) rotate(0 159.91386789364265 -36.93635154106482)"><path d="M0.17 0.58 C53.31 -11.81, 265.79 -62.56, 319.04 -74.78 M-1.21 -0.17 C52.3 -12.39, 268 -61.33, 321.34 -73.72" stroke="#1e1e1e" stroke-width="2" fill="none"></path></g><g transform="translate(2634.142679690742 1005.5933160449836) rotate(0 159.91386789364265 -36.93635154106482)"><path d="M21.06 -13.16 C15.34 -10.08, 6.23 -4.68, 0.17 0.58 M21.06 -13.16 C12.4 -7.19, 3.82 -1.83, 0.17 0.58" stroke="#1e1e1e" stroke-width="2" fill="none"></path></g><g transform="translate(2634.142679690742 1005.5933160449836) rotate(0 159.91386789364265 -36.93635154106482)"><path d="M25 3.48 C18.09 1.29, 7.74 1.41, 0.17 0.58 M25 3.48 C14.7 2.93, 4.58 1.75, 0.17 0.58" stroke="#1e1e1e" stroke-width="2" fill="none"></path></g><g transform="translate(2634.142679690742 1005.5933160449836) rotate(0 159.91386789364265 -36.93635154106482)"><path d="M300.35 -60.14 C308.02 -65.79, 312.2 -69.05, 321.34 -73.72 M300.35 -60.14 C308.03 -65.24, 315.93 -70.62, 321.34 -73.72" stroke="#1e1e1e" stroke-width="2" fill="none"></path></g><g transform="translate(2634.142679690742 1005.5933160449836) rotate(0 159.91386789364265 -36.93635154106482)"><path d="M296.53 -76.81 C305.35 -77.17, 310.74 -75.15, 321.34 -73.72 M296.53 -76.81 C305.8 -75.38, 315.2 -74.21, 321.34 -73.72" stroke="#1e1e1e" stroke-width="2" fill="none"></path></g></g><mask></mask><g stroke-linecap="round"><g transform="translate(3464.555689514683 876.1963727754467) rotate(0 152.67194310053037 -10.219254433842991)"><path d="M-0.45 0.99 C50.45 -2.74, 253.86 -18.01, 305 -21.58 M1.51 0.46 C52.27 -3.23, 253.09 -17.38, 303.88 -20.64" stroke="#1e1e1e" stroke-width="2" fill="none"></path></g><g transform="translate(3464.555689514683 876.1963727754467) rotate(0 152.67194310053037 -10.219254433842991)"><path d="M22.34 -9.28 C18.04 -7.22, 8.48 -2.16, -0.45 0.99 M22.34 -9.28 C15.99 -6.55, 8.57 -2.57, -0.45 0.99" stroke="#1e1e1e" stroke-width="2" fill="none"></path></g><g transform="translate(3464.555689514683 876.1963727754467) rotate(0 152.67194310053037 -10.219254433842991)"><path d="M23.61 7.77 C18.86 5.33, 8.96 5.89, -0.45 0.99 M23.61 7.77 C16.93 5.41, 9.13 4.28, -0.45 0.99" stroke="#1e1e1e" stroke-width="2" fill="none"></path></g><g transform="translate(3464.555689514683 876.1963727754467) rotate(0 152.67194310053037 -10.219254433842991)"><path d="M281.02 -10.52 C288.63 -13.67, 291.11 -13.99, 303.88 -20.64 M281.02 -10.52 C288.39 -14.06, 294.64 -16.18, 303.88 -20.64" stroke="#1e1e1e" stroke-width="2" fill="none"></path></g><g transform="translate(3464.555689514683 876.1963727754467) rotate(0 152.67194310053037 -10.219254433842991)"><path d="M279.86 -27.58 C287.89 -26.23, 290.67 -22.04, 303.88 -20.64 M279.86 -27.58 C287.53 -26.02, 294.12 -23.03, 303.88 -20.64" stroke="#1e1e1e" stroke-width="2" fill="none"></path></g></g><mask></mask><g transform="translate(2725.0174279114262 924.8082506749126) rotate(0 63.91992950439453 12.5)"><text x="0" y="0" font-family="Virgil, Segoe UI Emoji" font-size="20px" fill="#1e1e1e" text-anchor="start" style="white-space: pre;" direction="ltr" dominant-baseline="text-before-edge">getProblerm()</text></g><g transform="translate(4255.764845091041 971.3526167898029) rotate(0 92.38990783691406 137.50000000000006)"><text x="0" y="0" font-family="Virgil, Segoe UI Emoji" font-size="20px" fill="#1e1e1e" text-anchor="start" style="white-space: pre;" direction="ltr" dominant-baseline="text-before-edge">Submission</text><text x="0" y="25" font-family="Virgil, Segoe UI Emoji" font-size="20px" fill="#1e1e1e" text-anchor="start" style="white-space: pre;" direction="ltr" dominant-baseline="text-before-edge">- id</text><text x="0" y="50" font-family="Virgil, Segoe UI Emoji" font-size="20px" fill="#1e1e1e" text-anchor="start" style="white-space: pre;" direction="ltr" dominant-baseline="text-before-edge">- problemId</text><text x="0" y="75" font-family="Virgil, Segoe UI Emoji" font-size="20px" fill="#1e1e1e" text-anchor="start" style="white-space: pre;" direction="ltr" dominant-baseline="text-before-edge">- testCaseResults</text><text x="0" y="100" font-family="Virgil, Segoe UI Emoji" font-size="20px" fill="#1e1e1e" text-anchor="start" style="white-space: pre;" direction="ltr" dominant-baseline="text-before-edge">- passed|failed</text><text x="0" y="125" font-family="Virgil, Segoe UI Emoji" font-size="20px" fill="#1e1e1e" text-anchor="start" style="white-space: pre;" direction="ltr" dominant-baseline="text-before-edge">- errors</text><text x="0" y="150" font-family="Virgil, Segoe UI Emoji" font-size="20px" fill="#1e1e1e" text-anchor="start" style="white-space: pre;" direction="ltr" dominant-baseline="text-before-edge">- runtime</text><text x="0" y="175" font-family="Virgil, Segoe UI Emoji" font-size="20px" fill="#1e1e1e" text-anchor="start" style="white-space: pre;" direction="ltr" dominant-baseline="text-before-edge">- memory</text><text x="0" y="200" font-family="Virgil, Segoe UI Emoji" font-size="20px" fill="#1e1e1e" text-anchor="start" style="white-space: pre;" direction="ltr" dominant-baseline="text-before-edge">- timestamp</text><text x="0" y="225" font-family="Virgil, Segoe UI Emoji" font-size="20px" fill="#1e1e1e" text-anchor="start" style="white-space: pre;" direction="ltr" dominant-baseline="text-before-edge">- competitionID</text><text x="0" y="250" font-family="Virgil, Segoe UI Emoji" font-size="20px" fill="#1e1e1e" text-anchor="start" style="white-space: pre;" direction="ltr" dominant-baseline="text-before-edge">- userID </text></g><g stroke-linecap="round" transform="translate(2734.1944761323357 1407.946883255293) rotate(0 534.3616595592766 314.50121700713134)"><path d="M32 0 C273.67 0.65, 514.13 0.73, 1036.72 0 M1036.72 0 C1059.87 -0.31, 1070.46 9.9, 1068.72 32 M1068.72 32 C1069.69 222.32, 1068.89 412.75, 1068.72 597 M1068.72 597 C1068.59 619.08, 1059.05 628.08, 1036.72 629 M1036.72 629 C637.4 627.84, 239.38 628.45, 32 629 M32 629 C11.1 627.82, 0.2 616.67, 0 597 M0 597 C-2.59 403.3, -1.7 210.06, 0 32 M0 32 C-0.91 12.25, 8.96 0.94, 32 0" stroke="#1e1e1e" stroke-width="2.5" fill="none" stroke-dasharray="8 10"></path></g><g stroke-linecap="round" transform="translate(2792.417185379176 1479.5999687812296) rotate(0 118.62560122019408 70.67566510461825)"><path d="M32 0 C78.98 1.24, 123.7 1.88, 205.25 0 M32 0 C92.19 -0.55, 153.45 -1.4, 205.25 0 M205.25 0 C226.79 0.93, 239.13 10.18, 237.25 32 M205.25 0 C226.55 1.7, 236.87 10.94, 237.25 32 M237.25 32 C237.46 60.67, 236.59 93.3, 237.25 109.35 M237.25 32 C237.51 59.48, 237.01 85.56, 237.25 109.35 M237.25 109.35 C239.12 129.42, 225.88 142.36, 205.25 141.35 M237.25 109.35 C235.31 128.51, 225.6 141.78, 205.25 141.35 M205.25 141.35 C148.63 139.56, 88.07 140.81, 32 141.35 M205.25 141.35 C139.41 140.06, 75 139.71, 32 141.35 M32 141.35 C11.03 143.05, 0.63 128.71, 0 109.35 M32 141.35 C11.63 142.23, -1.57 131.58, 0 109.35 M0 109.35 C-0.93 82.04, -0.93 50.89, 0 32 M0 109.35 C-1.53 80.84, -0.59 51.2, 0 32 M0 32 C-1.73 12.13, 10.7 -0.92, 32 0 M0 32 C-0.69 9.19, 12.71 -0.71, 32 0" stroke="#1e1e1e" stroke-width="2" fill="none"></path></g><g stroke-linecap="round" transform="translate(3119.3826253382795 1480.971737499333) rotate(0 118.62560122019408 70.67566510461825)"><path d="M32 0 C90.96 0.59, 150.39 0.3, 205.25 0 M32 0 C77.54 -1.82, 122.1 -1.45, 205.25 0 M205.25 0 C227.2 0.52, 236.45 12.42, 237.25 32 M205.25 0 C225.16 -0.64, 238.9 12.01, 237.25 32 M237.25 32 C238.41 52.66, 238.37 77.01, 237.25 109.35 M237.25 32 C237.42 48.43, 237.09 67.19, 237.25 109.35 M237.25 109.35 C235.94 132, 226.34 141.48, 205.25 141.35 M237.25 109.35 C236.24 128.86, 228.37 140.21, 205.25 141.35 M205.25 141.35 C139.44 140.31, 77.4 142.99, 32 141.35 M205.25 141.35 C144.89 141, 84.17 140.52, 32 141.35 M32 141.35 C12 140.66, 0.86 130.44, 0 109.35 M32 141.35 C11.88 142.42, -0.33 131.36, 0 109.35 M0 109.35 C-0.01 88.01, -0.07 68.64, 0 32 M0 109.35 C-0.55 88.62, 0.89 67.01, 0 32 M0 32 C1.96 12.19, 8.77 -0.1, 32 0 M0 32 C0.53 8.84, 8.62 1.53, 32 0" stroke="#1e1e1e" stroke-width="2" fill="none"></path></g><g stroke-linecap="round" transform="translate(3436.6358301022647 1481.608328321287) rotate(0 118.62560122019408 70.67566510461825)"><path d="M32 0 C94.4 -3.12, 158.29 -0.07, 205.25 0 M32 0 C71.08 -0.65, 111.58 -1.55, 205.25 0 M205.25 0 C225.91 -1.59, 238.11 10.1, 237.25 32 M205.25 0 C224.77 0.52, 239.49 9.26, 237.25 32 M237.25 32 C235.64 62.63, 235.77 90.38, 237.25 109.35 M237.25 32 C237.48 49.56, 237.77 67.13, 237.25 109.35 M237.25 109.35 C239.02 131.19, 225.14 139.98, 205.25 141.35 M237.25 109.35 C239.32 132.77, 227.38 141.42, 205.25 141.35 M205.25 141.35 C151.99 141.78, 102.67 141.21, 32 141.35 M205.25 141.35 C163.79 139.96, 123.54 139.82, 32 141.35 M32 141.35 C11.86 141.1, -0.25 132.22, 0 109.35 M32 141.35 C9.63 140.04, -2.18 132.97, 0 109.35 M0 109.35 C2.12 93.74, -0.3 75.96, 0 32 M0 109.35 C0.76 93.22, 0.25 78.05, 0 32 M0 32 C1 9.5, 12.31 1.49, 32 0 M0 32 C-0.61 9.99, 12.26 -1.41, 32 0" stroke="#1e1e1e" stroke-width="2" fill="none"></path></g><g transform="translate(2857.264946012013 1510.156328235014) rotate(0 66.6799545288086 12.5)"><text x="0" y="0" font-family="Virgil, Segoe UI Emoji" font-size="20px" fill="#1e1e1e" text-anchor="start" style="white-space: pre;" direction="ltr" dominant-baseline="text-before-edge">Java Runtime</text></g><g transform="translate(3180.315070738746 1526.0203968599872) rotate(0 71.38993072509766 12.5)"><text x="0" y="0" font-family="Virgil, Segoe UI Emoji" font-size="20px" fill="#1e1e1e" text-anchor="start" style="white-space: pre;" direction="ltr" dominant-baseline="text-before-edge">Python runtime</text></g><g transform="translate(3529.3245804881626 1533.231337144066) rotate(0 52.429954528808594 25)"><text x="0" y="0" font-family="Virgil, Segoe UI Emoji" font-size="20px" fill="#1e1e1e" text-anchor="start" style="white-space: pre;" direction="ltr" dominant-baseline="text-before-edge">Javascript</text><text x="0" y="25" font-family="Virgil, Segoe UI Emoji" font-size="20px" fill="#1e1e1e" text-anchor="start" style="white-space: pre;" direction="ltr" dominant-baseline="text-before-edge">Runtime</text></g><g transform="translate(3066.3822142502995 1426.5094209396989) rotate(0 183.00985717773438 12.5)"><text x="0" y="0" font-family="Virgil, Segoe UI Emoji" font-size="20px" fill="#1e1e1e" text-anchor="start" style="white-space: pre;" direction="ltr" dominant-baseline="text-before-edge">Isloated Container Sandbox (Docker)</text></g><g stroke-linecap="round"><g transform="translate(3213.524830875187 1074.6662370005233) rotate(0 -117.60874596919712 49.74703763949867)"><path d="M-0.48 -0.13 C-39.91 16.56, -196.86 83.55, -236.16 100.22 M1.47 -1.24 C-37.63 15.1, -194.71 81.97, -233.95 98.47" stroke="#1e1e1e" stroke-width="2" fill="none"></path></g><g transform="translate(3213.524830875187 1074.6662370005233) rotate(0 -117.60874596919712 49.74703763949867)"><path d="M-18.75 16.94 C-12.87 9.74, -5.36 3.79, -0.48 -0.13 M-18.75 16.94 C-12.8 11.21, -6.21 5.91, -0.48 -0.13" stroke="#1e1e1e" stroke-width="2" fill="none"></path></g><g transform="translate(3213.524830875187 1074.6662370005233) rotate(0 -117.60874596919712 49.74703763949867)"><path d="M-25.45 1.21 C-17.33 -0.72, -7.58 -1.41, -0.48 -0.13 M-25.45 1.21 C-17.13 0.79, -8.31 0.75, -0.48 -0.13" stroke="#1e1e1e" stroke-width="2" fill="none"></path></g><g transform="translate(3213.524830875187 1074.6662370005233) rotate(0 -117.60874596919712 49.74703763949867)"><path d="M-215.65 81.44 C-221.96 85.48, -226.65 90.91, -233.95 98.47 M-215.65 81.44 C-221.65 86.82, -227.28 92.91, -233.95 98.47" stroke="#1e1e1e" stroke-width="2" fill="none"></path></g><g transform="translate(3213.524830875187 1074.6662370005233) rotate(0 -117.60874596919712 49.74703763949867)"><path d="M-208.98 97.19 C-217.53 95.94, -224.44 96.12, -233.95 98.47 M-208.98 97.19 C-217.34 97.25, -225.2 98.08, -233.95 98.47" stroke="#1e1e1e" stroke-width="2" fill="none"></path></g></g><mask></mask><g transform="translate(2727.913071119252 997.8528223337927) rotate(0 73.84991455078125 12.5)"><text x="0" y="0" font-family="Virgil, Segoe UI Emoji" font-size="20px" fill="#1e1e1e" text-anchor="start" style="white-space: pre;" direction="ltr" dominant-baseline="text-before-edge">submitProblem()</text></g><g transform="translate(3095.2766773104872 1141.5815094179366) rotate(0 37.88995361328125 12.5)"><text x="0" y="0" font-family="Virgil, Segoe UI Emoji" font-size="20px" fill="#1e1e1e" text-anchor="start" style="white-space: pre;" direction="ltr" dominant-baseline="text-before-edge">submit()</text></g><g transform="translate(4517.212132312771 958.2208185068437) rotate(0 60.589935302734375 62.5)"><text x="0" y="0" font-family="Virgil, Segoe UI Emoji" font-size="20px" fill="#1e1e1e" text-anchor="start" style="white-space: pre;" direction="ltr" dominant-baseline="text-before-edge">Competition</text><text x="0" y="25" font-family="Virgil, Segoe UI Emoji" font-size="20px" fill="#1e1e1e" text-anchor="start" style="white-space: pre;" direction="ltr" dominant-baseline="text-before-edge">- id</text><text x="0" y="50" font-family="Virgil, Segoe UI Emoji" font-size="20px" fill="#1e1e1e" text-anchor="start" style="white-space: pre;" direction="ltr" dominant-baseline="text-before-edge">- startTime</text><text x="0" y="75" font-family="Virgil, Segoe UI Emoji" font-size="20px" fill="#1e1e1e" text-anchor="start" style="white-space: pre;" direction="ltr" dominant-baseline="text-before-edge">- endTime</text><text x="0" y="100" font-family="Virgil, Segoe UI Emoji" font-size="20px" fill="#1e1e1e" text-anchor="start" style="white-space: pre;" direction="ltr" dominant-baseline="text-before-edge">- problemSet</text></g><g transform="translate(2724.89912342239 1033.9300579425746) rotate(0 84.52992248535156 12.5)"><text x="0" y="0" font-family="Virgil, Segoe UI Emoji" font-size="20px" fill="#1e1e1e" text-anchor="start" style="white-space: pre;" direction="ltr" dominant-baseline="text-before-edge">getLeaderboard()</text></g><g transform="translate(3838.3415393964233 1453.3420057624085) rotate(0 267.3997802734375 75)"><text x="0" y="0" font-family="Virgil, Segoe UI Emoji" font-size="20px" fill="#1e1e1e" text-anchor="start" style="white-space: pre;" direction="ltr" dominant-baseline="text-before-edge">Security Considerations</text><text x="0" y="25" font-family="Virgil, Segoe UI Emoji" font-size="20px" fill="#1e1e1e" text-anchor="start" style="white-space: pre;" direction="ltr" dominant-baseline="text-before-edge">- timeouts</text><text x="0" y="50" font-family="Virgil, Segoe UI Emoji" font-size="20px" fill="#1e1e1e" text-anchor="start" style="white-space: pre;" direction="ltr" dominant-baseline="text-before-edge">- read only permissions</text><text x="0" y="75" font-family="Virgil, Segoe UI Emoji" font-size="20px" fill="#1e1e1e" text-anchor="start" style="white-space: pre;" direction="ltr" dominant-baseline="text-before-edge">- setup within own vpc to prevent network traffic out</text><text x="0" y="100" font-family="Virgil, Segoe UI Emoji" font-size="20px" fill="#1e1e1e" text-anchor="start" style="white-space: pre;" direction="ltr" dominant-baseline="text-before-edge">- seccomp to prevent access to system calls</text><text x="0" y="125" font-family="Virgil, Segoe UI Emoji" font-size="20px" fill="#1e1e1e" text-anchor="start" style="white-space: pre;" direction="ltr" dominant-baseline="text-before-edge">- cpu and memory limits</text></g><g stroke-linecap="round" transform="translate(3472.9215069536303 421.8789671429944) rotate(0 123.14088921838857 112.51883616711484)"><path d="M91.16 3.58 C103.28 -1.41, 119.21 -0.6, 133.06 0.56 C146.91 1.73, 161.43 5.26, 174.25 10.56 C187.06 15.86, 199.89 23.17, 209.95 32.36 C220.02 41.56, 228.76 54.12, 234.63 65.73 C240.5 77.33, 243.95 89.46, 245.17 101.97 C246.39 114.48, 245.53 128.26, 241.93 140.78 C238.34 153.29, 231.62 166.55, 223.6 177.06 C215.59 187.56, 205.16 196.49, 193.83 203.81 C182.51 211.13, 169.34 217.58, 155.66 220.96 C141.97 224.34, 125.93 225.09, 111.74 224.09 C97.54 223.09, 83.09 220.33, 70.5 214.96 C57.9 209.59, 46.11 201.06, 36.19 191.9 C26.27 182.73, 16.82 171.45, 10.97 159.95 C5.12 148.45, 2.38 135.71, 1.09 122.89 C-0.2 110.07, -0.43 95.34, 3.22 83.03 C6.87 70.72, 14.9 59.6, 22.97 49.02 C31.04 38.45, 37.36 27.72, 51.64 19.58 C65.91 11.44, 96.26 3.07, 108.62 0.2 C120.97 -2.67, 125.63 0.24, 125.78 2.36 M122.63 -0.64 C136.21 -2.42, 153.17 1.96, 166.35 6.43 C179.53 10.91, 191.16 17.61, 201.71 26.2 C212.27 34.8, 222.41 46.64, 229.68 58.01 C236.95 69.38, 242.82 82.14, 245.33 94.4 C247.83 106.67, 247.5 119.32, 244.7 131.58 C241.89 143.83, 235.52 156.58, 228.5 167.95 C221.48 179.31, 212.97 191.14, 202.57 199.75 C192.17 208.36, 179.24 215.56, 166.1 219.61 C152.96 223.65, 138.18 224.34, 123.75 223.99 C109.32 223.65, 93.05 221.68, 79.54 217.55 C66.04 213.41, 53.38 207.27, 42.73 199.2 C32.08 191.12, 22.32 180.24, 15.64 169.1 C8.96 157.96, 5.05 144.94, 2.63 132.37 C0.22 119.8, -1.24 106.62, 1.15 93.7 C3.54 80.77, 9.88 65.93, 16.97 54.81 C24.06 43.69, 32.96 34.87, 43.7 26.98 C54.45 19.1, 68.28 11.78, 81.44 7.49 C94.6 3.2, 115.71 2.18, 122.65 1.23 C129.59 0.28, 123.16 -0.08, 123.09 1.78" stroke="#1e1e1e" stroke-width="2" fill="none"></path></g><g transform="translate(3559.999244430979 495.72913603673635) rotate(0 60.86994934082031 25)"><text x="0" y="0" font-family="Virgil, Segoe UI Emoji" font-size="20px" fill="#1e1e1e" text-anchor="start" style="white-space: pre;" direction="ltr" dominant-baseline="text-before-edge">Redis</text><text x="0" y="25" font-family="Virgil, Segoe UI Emoji" font-size="20px" fill="#1e1e1e" text-anchor="start" style="white-space: pre;" direction="ltr" dominant-baseline="text-before-edge">Leaderboard</text></g><g stroke-linecap="round"><g transform="translate(3400.890973772199 761.8071989721492) rotate(0 57.76357515843938 -70.08977620653678)"><path d="M-0.38 -0.17 C18.93 -23.7, 95.45 -117.94, 114.84 -141.37 M1.62 -1.3 C21.41 -24.71, 98.22 -117.39, 117.19 -140.46" stroke="#1e1e1e" stroke-width="2" fill="none"></path></g><g transform="translate(3400.890973772199 761.8071989721492) rotate(0 57.76357515843938 -70.08977620653678)"><path d="M7.83 -23.78 C5.73 -19.83, 2.24 -12.83, -0.38 -0.17 M7.83 -23.78 C5.2 -17.73, 3.69 -10.84, -0.38 -0.17" stroke="#1e1e1e" stroke-width="2" fill="none"></path></g><g transform="translate(3400.890973772199 761.8071989721492) rotate(0 57.76357515843938 -70.08977620653678)"><path d="M21.09 -12.98 C16.13 -11.41, 9.76 -6.75, -0.38 -0.17 M21.09 -12.98 C15.07 -9.6, 10.22 -5.43, -0.38 -0.17" stroke="#1e1e1e" stroke-width="2" fill="none"></path></g><g transform="translate(3400.890973772199 761.8071989721492) rotate(0 57.76357515843938 -70.08977620653678)"><path d="M108.82 -116.91 C110.39 -123.14, 110.5 -126.37, 117.19 -140.46 M108.82 -116.91 C110.21 -122.83, 112.88 -127.84, 117.19 -140.46" stroke="#1e1e1e" stroke-width="2" fill="none"></path></g><g transform="translate(3400.890973772199 761.8071989721492) rotate(0 57.76357515843938 -70.08977620653678)"><path d="M95.63 -127.8 C100.05 -131.62, 103.02 -132.49, 117.19 -140.46 M95.63 -127.8 C100.39 -131.02, 106.39 -133.29, 117.19 -140.46" stroke="#1e1e1e" stroke-width="2" fill="none"></path></g></g><mask></mask><g transform="translate(3734.5039993056876 393.3337840028165) rotate(0 49.279945373535156 12.5)"><text x="0" y="0" font-family="Virgil, Segoe UI Emoji" font-size="20px" fill="#1e1e1e" text-anchor="start" style="white-space: pre;" direction="ltr" dominant-baseline="text-before-edge">sortedSet</text></g><g stroke-linecap="round" transform="translate(2721.834473801654 1190.6666052735452) rotate(0 165.03757897830633 47.428833009109326)"><path d="M23.71 0 C118 -0.07, 212.65 -1.09, 306.36 0 M23.71 0 C127.32 0.13, 231.48 0.36, 306.36 0 M306.36 0 C322.89 -0.66, 328.61 8.7, 330.08 23.71 M306.36 0 C322.33 1.62, 331.77 9.21, 330.08 23.71 M330.08 23.71 C329.74 34.72, 330.81 43.03, 330.08 71.14 M330.08 23.71 C330.05 38.08, 330.15 53.25, 330.08 71.14 M330.08 71.14 C329.56 88.88, 323.98 94.58, 306.36 94.86 M330.08 71.14 C328.21 85.15, 324.36 92.91, 306.36 94.86 M306.36 94.86 C223.75 92.43, 141.2 94.38, 23.71 94.86 M306.36 94.86 C205.85 94.84, 105.37 95.77, 23.71 94.86 M23.71 94.86 C8.93 93.17, 0.39 85.69, 0 71.14 M23.71 94.86 C7 95.74, -1.59 86.15, 0 71.14 M0 71.14 C-0.97 53.21, -0.86 34.32, 0 23.71 M0 71.14 C0.01 55.34, 0.39 40.26, 0 23.71 M0 23.71 C1.19 6.39, 7.79 -1.36, 23.71 0 M0 23.71 C2.16 5.77, 8.31 1.06, 23.71 0" stroke="#1e1e1e" stroke-width="2" fill="none"></path></g><g transform="translate(2825.9255235117516 1218.2653525014377) rotate(0 29.34996795654297 12.5)"><text x="0" y="0" font-family="Virgil, Segoe UI Emoji" font-size="20px" fill="#1e1e1e" text-anchor="start" style="white-space: pre;" direction="ltr" dominant-baseline="text-before-edge">Queue</text></g><g stroke-linecap="round" transform="translate(3201.7676180838776 1180.030468354529) rotate(0 119.31571073956889 68.30957532390482)"><path d="M32 0 C98.19 0.72, 165.97 0.14, 206.63 0 M32 0 C67.8 0.58, 102.09 1.21, 206.63 0 M206.63 0 C229.41 -0.48, 237.04 9.91, 238.63 32 M206.63 0 C228.62 -0.96, 238.22 11.92, 238.63 32 M238.63 32 C236.87 59.28, 240.32 89.6, 238.63 104.62 M238.63 32 C239.18 46.15, 238.84 61.44, 238.63 104.62 M238.63 104.62 C239.09 126.22, 227.42 135.74, 206.63 136.62 M238.63 104.62 C237.5 126.97, 230.17 138.23, 206.63 136.62 M206.63 136.62 C152.77 137.42, 96.68 136.21, 32 136.62 M206.63 136.62 C171.52 136.71, 135.19 136.5, 32 136.62 M32 136.62 C11.99 134.95, 0.85 127.21, 0 104.62 M32 136.62 C10.49 136.61, -0.31 124.52, 0 104.62 M0 104.62 C0.61 89.07, 0.05 71.66, 0 32 M0 104.62 C-0.42 86.92, -1.22 70, 0 32 M0 32 C-1.11 10.27, 10.13 -1.89, 32 0 M0 32 C2.06 12.51, 12.46 1.25, 32 0" stroke="#1e1e1e" stroke-width="2" fill="none"></path></g><g transform="translate(3293.1944539200613 1224.0341047287009) rotate(0 48.61994171142578 25)"><text x="0" y="0" font-family="Virgil, Segoe UI Emoji" font-size="20px" fill="#1e1e1e" text-anchor="start" style="white-space: pre;" direction="ltr" dominant-baseline="text-before-edge">Submission</text><text x="0" y="25" font-family="Virgil, Segoe UI Emoji" font-size="20px" fill="#1e1e1e" text-anchor="start" style="white-space: pre;" direction="ltr" dominant-baseline="text-before-edge">Worker</text></g><g stroke-linecap="round"><g transform="translate(3059.0586030242794 1226.7438408823273) rotate(0 69.05320354070045 5.503975513707019)"><path d="M-0.95 -0.21 C22.41 1.91, 116.06 10.2, 139.13 11.96 M0.76 -1.37 C24.14 0.49, 116.11 8.22, 138.72 10.34" stroke="#1e1e1e" stroke-width="2" fill="none"></path></g><g transform="translate(3059.0586030242794 1226.7438408823273) rotate(0 69.05320354070045 5.503975513707019)"><path d="M114.57 16.79 C119.43 17.3, 126.55 13.19, 138.72 10.34 M114.57 16.79 C121.25 16.01, 126.06 12.63, 138.72 10.34" stroke="#1e1e1e" stroke-width="2" fill="none"></path></g><g transform="translate(3059.0586030242794 1226.7438408823273) rotate(0 69.05320354070045 5.503975513707019)"><path d="M116.07 -0.24 C120.51 3.91, 127.3 3.44, 138.72 10.34 M116.07 -0.24 C122.42 3.19, 126.86 4.01, 138.72 10.34" stroke="#1e1e1e" stroke-width="2" fill="none"></path></g></g><mask></mask><g stroke-linecap="round"><g transform="translate(3318.365142349174 1322.1366938747549) rotate(0 -22.0975884877339 38.89119238370188)"><path d="M0.34 -0.4 C-7.19 12.57, -38.08 64.92, -45.36 77.88 M-0.94 -1.66 C-8.11 11.53, -36.14 66.11, -43.26 79.47" stroke="#1e1e1e" stroke-width="2" fill="none"></path></g><g transform="translate(3318.365142349174 1322.1366938747549) rotate(0 -22.0975884877339 38.89119238370188)"><path d="M-39.97 54.69 C-41.57 59.84, -41.69 70.3, -43.26 79.47 M-39.97 54.69 C-41.89 61.81, -40.98 68.21, -43.26 79.47" stroke="#1e1e1e" stroke-width="2" fill="none"></path></g><g transform="translate(3318.365142349174 1322.1366938747549) rotate(0 -22.0975884877339 38.89119238370188)"><path d="M-24.81 62.6 C-30.76 65.54, -35.21 73.72, -43.26 79.47 M-24.81 62.6 C-30.7 67.52, -33.81 71.82, -43.26 79.47" stroke="#1e1e1e" stroke-width="2" fill="none"></path></g></g><mask></mask></svg>