<svg xmlns="http://www.w3.org/2000/svg" xmlns:xlink="http://www.w3.org/1999/xlink" xmlns:lucid="lucid" width="1270.83" height="1039.54"><g transform="translate(-199.5 206.54)" lucid:page-tab-id="0_0"><path d="M0-500h1500v1500H0z" fill="#fff"/><path d="M332.8 360c3.96 0 7.2 3.3 7.2 7.2v69.74c0 4-3.24 7.2-7.2 7.2H227.2c-3.96 0-7.2-3.2-7.2-7.2V367.2c0-3.9 3.24-7.2 7.2-7.2zm1.68 76.94V367.2c0-.95-.72-1.77-1.68-1.77H227.2c-.96 0-1.68.82-1.68 1.77v69.74c0 .94.72 1.77 1.68 1.77h105.6c.96 0 1.68-.82 1.68-1.76zm-8.04-67.38c2.16 0 3.84 1.77 3.84 3.9v57.22c0 2.13-1.68 3.9-3.84 3.9h-93c-2.04 0-3.84-1.77-3.84-3.9v-57.23c0-2.12 1.8-3.9 3.84-3.9zm-91.32 59.6h89.76V375.1h-89.76zm97.68 19.58c3.96 0 7.2 3.3 7.2 7.2v14.86c0 3.9-3.24 7.2-7.2 7.2H227.2c-3.96 0-7.2-3.3-7.2-7.2v-14.87c0-3.9 3.24-7.2 7.2-7.2zm1.68 22.06v-14.87c0-.94-.72-1.77-1.68-1.77H227.2c-.96 0-1.68.83-1.68 1.77v14.87c0 .95.72 1.77 1.68 1.77h105.6c.96 0 1.68-.82 1.68-1.77zm-4.08-10.03v5.3c0 1.2-.96 2.14-2.16 2.14h-29.4c-1.2 0-2.16-.94-2.16-2.12v-5.3c0-1.2.96-2.13 2.16-2.13h29.4c1.2 0 2.16.94 2.16 2.12z" stroke="#000" stroke-opacity="0" fill="#232f3d"/><path d="M220.03 437.7v33.02l7.2 5.33 107.76-.9 5.03-4.2V367.2l-4.68-4.2-29.76-.35-79.7-.1-5.75 4.75z" stroke="#000" stroke-opacity="0" fill-opacity="0"/><use xlink:href="#a" transform="matrix(1,0,0,1,190,487) translate(61.69753086419753 17.77777777777778)"/><path d="M1425.94 340c2.24 0 4.06 1.8 4.06 3.96v112.08c0 2.16-1.82 3.96-4.06 3.96h-61.88c-2.24 0-4.06-1.8-4.06-3.96V343.96c0-2.16 1.82-3.96 4.06-3.96zm-60.48 114.6h59.08V345.4h-59.08zm6.72-96.84v-5.52h45.64v5.52zm0 11.64v-5.52h45.64v5.52zm0 23.88v-5.52h45.64v5.52zm0-11.88V376h45.64v5.4z" stroke="#000" stroke-opacity="0" fill="#232f3d"/><use xlink:href="#b" transform="matrix(1,0,0,1,1330,469) translate(11.358024691358025 17.77777777777778)"/><use xlink:href="#c" transform="matrix(1,0,0,1,1330,469) translate(53.333333333333336 17.77777777777778)"/><path d="M1322.6-60c27.93 0 47.4 8.04 47.4 19.56v80.88c0 5.04-3.42 14.04-26.22 17.88-3.6.6-7.4 1.08-11.3 1.32-1.62.12-3.24.24-4.94.24-1.62.12-3.23.12-4.94.12-1.7 0-3.33 0-5.04-.12-1.62 0-3.23-.12-4.85-.24-3.88-.24-7.68-.72-11.3-1.32-22.98-3.84-26.4-12.84-26.4-17.88v-80.88c0-11.52 19.57-19.56 47.6-19.56zm20.33 112.92c13.48-2.28 21.56-6.96 21.56-12.48v-76.32c-8.28 5.04-23.76 8.28-41.9 8.28-18.15 0-33.92-3.24-42.1-8.4v76.44c0 5.4 8.37 10.2 21.77 12.48 3.4.6 7.12.96 10.92 1.32 1.5.12 3.03.12 4.64.24 3.14.12 6.37.12 9.5 0 1.62-.12 3.14-.12 4.66-.24 3.8-.36 7.4-.72 10.92-1.32zm-20.34-107.4c-23.56 0-38.95 5.88-41.62 12.12l.1-.12c4.37 4.56 19.3 9.36 41.52 9.36 22.23 0 36.86-4.8 41.42-9.24-2.66-6.24-18.06-12.12-41.42-12.12z" stroke="#000" stroke-opacity="0" fill="#232f3d"/><use xlink:href="#d" transform="matrix(1,0,0,1,1245,69) translate(30.679012345679013 17.77777777777778)"/><use xlink:href="#e" transform="matrix(1,0,0,1,1245,69) translate(93.5185185185185 17.77777777777778)"/><path d="M959.78 105.36h75.44c19.78 0 19.78 0 19.78 19.72v75.2c0 19.7 0 19.7-19.78 19.7h-75.44C940 220 940 220 940 200.3v-75.2c0-19.72 0-19.72 19.78-19.72z" fill="#19486f"/><path d="M959.78 100h75.44c19.78 0 19.78 0 19.78 19.72v75.2c0 19.7 0 19.7-19.78 19.7h-75.44c-19.78 0-19.78 0-19.78-19.7v-75.2C940 100 940 100 959.78 100z" fill="#2e73b8"/><path d="M970.33 129.7v.5c0 4.33-1.75 8.66-7.47 8.66-6.12 0-8.02-3.95-8.02-12.57 0-8.63 1.9-12.57 8.05-12.57 6.88 0 7.3 5.07 7.3 7.6v.4h-3.9v-.4c0-2.15-.67-4.8-3.46-4.7-2.8.1-4.15 1.75-4.15 9.56 0 7.78 1.28 9.74 4.14 9.74 3.23 0 3.6-3.6 3.6-5.83v-.4zM977.63 114.18h4.97l6.38 24.18h-4.03l-1.5-5.92h-7.1l-1.56 5.92h-4.06zm5.16 15.14L980 117.4l-2.88 11.92zM1005.6 129.7v.5c0 4.33-1.74 8.66-7.46 8.66-6.12 0-8.02-3.95-8.02-12.57 0-8.63 1.9-12.57 8.05-12.57 6.9 0 7.3 5.07 7.3 7.6v.4h-3.88v-.4c0-2.15-.7-4.8-3.47-4.7-2.8.1-4.16 1.75-4.16 9.56 0 7.78 1.3 9.74 4.16 9.74 3.22 0 3.6-3.6 3.6-5.83v-.4zM1008.35 114.18h3.85v9.7h7.14v-9.7h3.9v24.18h-3.9v-11.24h-7.14v11.24h-3.86zM1027.22 114.18h13v3.24h-9.12v6.7h8.67v3.27h-8.67v7.72h9.5v3.24h-13.38z" fill="#fff"/><use xlink:href="#f" transform="matrix(1,0,0,1,940,220) translate(29.16666666666667 17.77777777777778)"/><use xlink:href="#g" transform="matrix(1,0,0,1,940,220) translate(25.4320987654321 44.44444444444444)"/><path d="M1179.78 585.36h75.44c19.78 0 19.78 0 19.78 19.72v75.2c0 19.7 0 19.7-19.78 19.7h-75.44c-19.78 0-19.78 0-19.78-19.7v-75.2c0-19.72 0-19.72 19.78-19.72z" fill="#19486f"/><path d="M1179.78 580h75.44c19.78 0 19.78 0 19.78 19.72v75.2c0 19.7 0 19.7-19.78 19.7h-75.44c-19.78 0-19.78 0-19.78-19.7v-75.2c0-19.72 0-19.72 19.78-19.72z" fill="#2e73b8"/><path d="M1258.72 616.22v-8.63h-10.9v-10.86h-8.64v10.85h-4.3v-10.86h-8.73v10.85h-4.3v-10.86h-8.72v10.85h-4.3v-10.86h-8.73v10.85h-4.3v-10.86h-8.64v10.85h-10.9v8.62h10.9v4.27h-10.9v8.7h10.9v4.28h-10.9v8.7h10.9v4.28h-10.9v8.72h10.9v4.27h-10.9v8.63h10.9v10.85h8.65v-10.85h4.3v10.85h8.74v-10.85h4.3l-.02 10.85h8.74v-10.85h4.3v10.85h8.73v-10.85h4.28v10.85h8.65v-10.85h10.9v-8.63h-10.9v-4.27h10.9v-8.72h-10.9v-4.27h10.9v-8.72h-10.9v-4.28h10.9v-8.7h-10.9v-4.28h10.9z" fill="#fff"/><path d="M1200.13 618.38h21.53c5.65-.35 10.48 3.9 10.85 9.5 0 .35.05.62 0 .93.25 4.37-2.35 8.15-6.47 9.5v.13c4.32 1.05 5.67 5.53 5.94 9.38.17 2.38.44 7.3 1.96 9.47h-8.3c-1.06-2.18-.92-6.2-1.36-9.27-.6-4-2.17-5.88-6.53-5.88h-8.92v15.15h-8.68zm8.7 17.28h9.8c3.78 0 5.84-1.63 5.84-5.5 0-3.84-2.06-5.32-5.85-5.32h-9.8z" fill="#2e73b8"/><use xlink:href="#h" transform="matrix(1,0,0,1,1160,700) translate(18.05555555555555 17.77777777777778)"/><use xlink:href="#i" transform="matrix(1,0,0,1,1160,700) translate(30.98765432098766 44.44444444444444)"/><path d="M1284.84 144.28c2.88 0 5.16 2.4 5.16 5.16v21.12c0 2.76-2.28 5.16-5.16 5.16h-7.92c-.84 2.64-2.04 4.92-3.36 7.2l5.52 5.52c.96.96 1.56 2.16 1.56 3.6 0 1.32-.6 2.64-1.56 3.6l-13.56 13.44c-1.92 2.04-5.16 2.04-7.2 0l-5.52-5.52c-2.28 1.32-4.44 2.52-7.2 3.36v7.92c0 2.88-2.28 5.16-5.04 5.16h-21.12c-2.76 0-5.04-2.28-5.04-5.16v-7.92c-2.76-.84-5.04-2.04-7.44-3.36l-5.52 5.52c-.96.96-2.16 1.56-3.6 1.56-1.32 0-2.64-.6-3.6-1.56l-13.44-13.56c-2.04-1.92-2.04-5.16 0-7.2l5.52-5.52c-1.32-2.28-2.52-4.44-3.36-7.08h-7.8c-2.88 0-5.16-2.4-5.16-5.16v-21.12c0-2.76 2.28-5.16 5.16-5.16h7.92c.84-2.76 2.04-5.04 3.36-7.32l-5.52-5.52c-.96-.96-1.56-2.28-1.56-3.72 0-1.32.6-2.64 1.56-3.6l13.56-13.44c1.92-2.04 5.16-2.04 7.2 0l5.52 5.52c2.28-1.32 4.44-2.52 7.2-3.36v-7.68c0-2.88 2.28-5.16 5.04-5.16h21.12c2.76 0 5.04 2.28 5.04 5.16v7.8c2.64.96 4.8 2.04 6.96 3.36l5.4-5.4c2.04-2.04 5.4-2.04 7.32 0l13.32 13.44c1.92 2.04 1.92 5.16 0 7.2l-5.52 5.52c1.32 2.28 2.4 4.56 3.36 7.2zm-.24 25.92v-20.4h-10.2c-1.2 0-2.28-.84-2.64-2.04-.96-3.84-2.52-6.36-4.44-9.72-.6-1.08-.36-2.4.48-3.24l6.72-6.84-12.84-12.96-6.72 6.72c-.84.84-2.16 1.08-3.24.36l-.48-.24c-3.24-1.92-5.52-3.24-9-4.2-1.2-.36-2.04-1.44-2.04-2.64v-9.6h-20.4v9.48c0 1.2-.84 2.28-2.04 2.64-3.48.84-5.88 2.28-9.12 4.2l-.48.24c-1.08.6-2.4.48-3.36-.48l-6.72-6.72-13.08 12.96 6.72 6.84c.96.84 1.08 2.16.48 3.24-1.92 3.36-3.48 6.12-4.44 9.96-.36 1.2-1.44 2.04-2.64 2.04h-9.72v20.4h9.6c1.2 0 2.28.84 2.64 2.04.84 3.48 2.28 5.88 4.08 9.12l.36.48c.6 1.08.48 2.4-.48 3.36l-6.72 6.72 12.96 13.08 6.72-6.72c.96-.96 2.28-1.08 3.36-.48 3.36 2.04 6.12 3.48 9.84 4.44 1.2.36 2.04 1.44 2.04 2.64v9.72h20.4v-9.72c0-1.2.84-2.28 2.04-2.64 3.48-.84 5.76-2.16 9-4.08l.6-.36c1.08-.6 2.4-.36 3.24.48l6.84 6.72 13.08-12.96-6.72-6.72c-.96-.96-1.08-2.28-.48-3.36 1.92-3.24 3.48-5.88 4.44-9.72.36-1.2 1.44-2.04 2.64-2.04zm-54.6-36.96c14.76 0 26.76 12 26.76 26.76 0 14.76-12 26.76-26.76 26.76-14.76 0-26.76-12-26.76-26.76 0-14.76 12-26.76 26.76-26.76zm0 48c11.76 0 21.24-9.48 21.24-21.24 0-11.76-9.48-21.24-21.24-21.24-11.76 0-21.24 9.48-21.24 21.24 0 11.76 9.48 21.24 21.24 21.24z" stroke="#000" stroke-opacity="0" fill="#232f3d"/><use xlink:href="#d" transform="matrix(1,0,0,1,1140,229) translate(17.530864197530875 17.77777777777778)"/><use xlink:href="#j" transform="matrix(1,0,0,1,1140,229) translate(80.37037037037038 17.77777777777778)"/><path d="M1230 98.5V6a6 6 0 0 1 6-6h18.38" stroke="#3a414a" stroke-width="3" fill="none"/><path d="M1231.5 100h-3v-1.54h3z" stroke="#3a414a" stroke-width=".05" fill="#3a414a"/><path d="M1270.15 0l-14.27 4.63v-9.27z" stroke="#3a414a" stroke-width="3" fill="#3a414a"/><path d="M1168.5 170h-92.88" stroke="#3a414a" stroke-width="3" fill="none"/><path d="M1170 170.56l.17.94h-1.7v-3h1.53z" stroke="#3a414a" stroke-width=".05" fill="#3a414a"/><path d="M1059.85 170l14.27-4.63v9.26z" stroke="#3a414a" stroke-width="3" fill="#3a414a"/><path d="M860 340.48V176a6 6 0 0 1 6-6h53.38M860 340.44V342" stroke="#3a414a" stroke-width="3" fill="none"/><path d="M935.15 170l-14.27 4.63v-9.26z" stroke="#3a414a" stroke-width="3" fill="#3a414a"/><path d="M918.83 513.94l.06.76.16.7.27.64.37.6.45.54.54.46.6.37.64.27.7.17.75.06h288.16l1.1.1 1.16.26 1.1.45 1 .63.9.76.75.9.62 1 .44 1.08.27 1.15.1 1.1v33.45h-3v-33.32l-.06-.76-.16-.7-.27-.64-.36-.6-.46-.54-.54-.46-.6-.37-.65-.27-.7-.17-.76-.06H923.27l-1.1-.1-1.16-.26-1.07-.45-1-.63-.9-.76-.77-.9-.6-1-.46-1.08-.28-1.15-.1-1.1V471.1h3z" stroke="#3a414a" stroke-width=".05" fill="#3a414a"/><path d="M924.97 475.86H909.7l7.63-12.9z" fill="#3a414a"/><path d="M927.6 477.36h-20.53L917.33 460zm-15.27-3h10l-5-8.47z" stroke="#3a414a" stroke-width=".05" fill="#3a414a"/><path d="M1217.5 575.15l-4.63-14.27h9.27z" fill="#3a414a"/><path d="M1217.5 580l-6.7-20.62h13.4zm-2.57-17.62l2.57 7.9 2.57-7.9zM1026.8 401.5H921.5v-3h105.3zm312.58 0H1131.9v-3h207.48z" stroke="#3a414a" stroke-width=".05" fill="#3a414a"/><path d="M921.54 401.5H920v-3h1.54z" fill="#3a414a"/><path d="M921.56 401.52h-1.58v-3.04h1.58zm-1.53-3v2.96h1.48v-2.96z" stroke="#3a414a" stroke-width=".05" fill="#3a414a"/><path d="M1355.15 400l-14.27 4.63v-9.26z" fill="#3a414a"/><path d="M1360 400l-20.62 6.7v-13.4zm-17.62 2.57l7.9-2.57-7.9-2.57z" stroke="#3a414a" stroke-width=".05" fill="#3a414a"/><use xlink:href="#k" transform="matrix(1,0,0,1,1026.799672713828,384) translate(0 21.333333333333332)"/><path d="M800 660h120v120H800V660z" stroke="#000" stroke-opacity="0" fill="url(#l)"/><path d="M845.55 734.3c-.33-.4-.58-.88-.58-1.35 0-.47.25-.95.58-1.28 2.56-2.57 4.13-6.88 4.13-11.67 0-4.8-1.57-9.1-4.13-11.67-.33-.33-.58-.8-.58-1.28 0-.47.25-.94.58-1.35.75-.67 1.9-.67 2.64 0 5.52 5.46 18.16 5.46 23.7 0 .65-.67 1.9-.67 2.63 0 .33.4.5.88.5 1.35 0 .47-.17.95-.5 1.28-2.64 2.57-4.13 6.88-4.13 11.67 0 4.8 1.5 9.1 4.13 11.67.33.33.5.8.5 1.28 0 .47-.17.94-.5 1.35-.4.33-.9.54-1.32.54-.5 0-.98-.2-1.3-.54-5.54-5.46-18.17-5.46-23.7 0-.75.67-1.9.67-2.65 0zm35.92 6.94c3.3-3.23 5.28-6.47 6.77-10.72l3.55 1.22c-1.67 4.78-3.98 8.42-7.7 12.13-6.68 6.54-15.43 9.85-24.18 9.85s-17.5-3.3-24.2-9.85c-3.46-3.44-5.7-7-7.5-12.13l3.54-1.22c1.66 4.6 3.56 7.7 6.6 10.72 11.9 11.74 31.22 11.74 43.1 0zm-49.7-31.76l-3.56-1.22c1.83-5.05 4.06-8.7 7.53-12.13 13.37-13.15 35-13.15 48.38 0 3.64 3.64 6.03 7.35 7.7 12.13l-3.56 1.22c-1.5-4.25-3.56-7.5-6.77-10.72-11.9-11.74-31.2-11.74-43.1 0-3.05 3.03-4.95 6.13-6.6 10.72zm67.03 16.4c-1.65 1.6-3.8 2.4-5.94 2.4-2.15 0-4.3-.8-5.95-2.4-1.64-1.56-2.46-3.65-2.46-5.88s.82-4.32 2.47-5.87c1.58-1.55 3.73-2.42 5.96-2.42s4.38.88 5.94 2.43c3.3 3.24 3.3 8.5 0 11.74zm-65.7.05c-1.58 1.56-3.73 2.43-5.96 2.43s-4.38-.87-5.94-2.43c-3.3-3.23-3.3-8.5 0-11.8 1.56-1.55 3.7-2.42 5.94-2.42 2.23 0 4.38.88 5.95 2.43 3.3 3.3 3.3 8.57 0 11.8zm20.3-5.93c0 2.76-.42 5.4-1.24 7.76 2.47-.8 5.2-1.22 7.84-1.22 2.72 0 5.45.4 7.93 1.22-.83-2.37-1.32-5-1.32-7.76s.5-5.4 1.33-7.76c-4.96 1.62-10.82 1.62-15.77 0 .82 2.37 1.24 5 1.24 7.76zm-8.67 6.6l-3.14-2.08 1.8-2.7h-5.86v-3.64h5.87l-1.8-2.7 3.13-2.02 3.7 5.53c.42.6.42 1.4 0 2.08zm33.76 0l-3.14-2.08 1.8-2.7h-5.85v-3.64h5.87l-1.8-2.7 3.12-2.1 3.7 5.6c.42.62.42 1.42 0 2.03zm17.66-9.84c-.9-.87-2.06-1.35-3.3-1.35-1.24 0-2.4.5-3.3 1.36-.9.88-1.4 2.03-1.4 3.24 0 1.2.5 2.43 1.4 3.3 1.8 1.76 4.8 1.76 6.6 0 1.82-1.82 1.82-4.78 0-6.54zm-65.72 0c-.9-.87-2.06-1.35-3.3-1.35-1.24 0-2.4.5-3.3 1.36-1.82 1.82-1.82 4.72 0 6.54 1.73 1.76 4.87 1.76 6.6 0 1.82-1.82 1.82-4.72 0-6.54z" stroke="#000" stroke-opacity="0" fill="#fff"/><use xlink:href="#m" transform="matrix(1,0,0,1,770,789) translate(9.845679012345684 17.77777777777778)"/><use xlink:href="#n" transform="matrix(1,0,0,1,770,789) translate(103.48765432098766 17.77777777777778)"/><path d="M861.5 639.38h-3v-33.45h3zm0-65.45h-3v-74.4h3z" stroke="#3a414a" stroke-width=".05" fill="#3a414a"/><path d="M861.5 499.56h-3V498h3z" stroke="#3a414a" stroke-width=".05" fill="#3a414a"/><path d="M860 655.15l-4.63-14.27h9.26z" fill="#3a414a"/><path d="M860 660l-6.7-20.62h13.4zm-2.57-17.62l2.57 7.9 2.57-7.9z" stroke="#3a414a" stroke-width=".05" fill="#3a414a"/><use xlink:href="#o" transform="matrix(1,0,0,1,825.2592592592592,573.9263445382692) translate(0 21.333333333333332)"/><path d="M332.17 511.94l.06.76.16.7.26.64.37.6.46.54.52.46.6.37.66.27.68.17.77.06H539.7v3H336.6l-1.1-.1-1.15-.26-1.1-.45-1-.63-.9-.76-.75-.9-.62-1-.45-1.08-.28-1.15-.08-1.1V498.6h3zm529.33.12l-.1 1.1-.26 1.16-.45 1.1-.63 1-.76.9-.9.75-1 .62-1.08.44-1.15.27-1.1.1H580.42v-3h273.5l.77-.06.7-.17.64-.26.6-.36.54-.46.46-.54.37-.6.27-.65.17-.7.06-.76V461.5h3z" stroke="#3a414a" stroke-width=".05" fill="#3a414a"/><path d="M861.5 461.54h-3V460h3z" fill="#3a414a"/><path d="M861.52 461.56h-3.04v-1.58h3.04zm-3-1.54v1.5h2.96V460z" stroke="#3a414a" stroke-width=".05" fill="#3a414a"/><path d="M335.3 497.12h-9.27l4.64-14.27z" fill="#3a414a"/><path d="M337.37 498.62h-13.4l6.7-20.62zm-9.27-3h5.14l-2.57-7.9z" stroke="#3a414a" stroke-width=".05" fill="#3a414a"/><use xlink:href="#p" transform="matrix(1,0,0,1,539.6891552197795,503.3333333333333) translate(0 19.555555555555557)"/><path d="M800 340h120v120H800V340z" stroke="#000" stroke-opacity="0" fill="url(#q)"/><path d="M844.97 377.43h3.8v3.8h-3.8v18.63c0-.42.25-.9.58-1.24l5.62-5.6 2.64 2.63-4.28 4.3 4.3 4.28-2.65 2.63-5.62-5.6c-.33-.33-.58-.82-.58-1.32v18.7h3.8v3.8h-3.8v16.82c0 .66-.33 1.24-.9 1.65-.25.18-.58.26-1 .26-.24 0-.5-.08-.82-.17l-22.46-11.3c-.67-.33-1.08-.9-1.08-1.65v-54.33c0-.66.33-1.32.9-1.65l22.55-13.1c.58-.33 1.32-.33 1.9 0 .57.33.9 1 .9 1.65zm56.3-3.7v54.32c0 .74-.4 1.32-1.06 1.65L877.76 441c-.33.08-.58.16-.83.16-.4 0-.74-.08-1-.25-.56-.4-.9-.98-.9-1.64v-16.8h-3.8v-3.8h3.8v-18.72c0 .5-.24 1-.57 1.32l-5.62 5.6-2.64-2.63 4.28-4.3-4.3-4.28 2.65-2.63 5.62 5.6c.33.33.58.82.58 1.24v-18.63h-3.8v-3.8h3.8v-16.8c0-.67.33-1.33.9-1.66.58-.33 1.33-.33 1.9 0l22.54 13.1c.58.33.9 1 .9 1.65zm-60-9.9l-18.84 10.97v52.1l18.83 9.3zm56.3 10.97l-18.83-10.97v72.38l18.83-9.3zm-32.04 16.4l-7.5 20.6-3.56-1.23 7.5-20.6zm-13.04-9.97v-3.8h5.6v3.8zm9.4 0v-3.8h5.6v3.8zm-9.4 41.22v-3.8h5.6v3.8zm9.4 0v-3.8h5.6v3.8z" stroke="#000" stroke-opacity="0" fill="#fff"/><path d="M341.53 394.67h437.85" stroke="#3a414a" stroke-width="3" fill="none"/><path d="M341.57 396.17h-1.54v-3h1.54z" stroke="#3a414a" stroke-width=".05" fill="#3a414a"/><path d="M795.15 394.67l-14.27 4.63v-9.27z" stroke="#3a414a" stroke-width="3" fill="#3a414a"/><path d="M430 190h120v120H430V190z" stroke="#000" stroke-opacity="0" fill="url(#r)"/><path d="M521.9 272.5h4.74v3.78h-18.5v1.86c0 7-12.56 13.14-26.9 13.14-14.3 0-26.88-6.13-26.88-13.14v-55.32c0-6.94 11.55-12.18 26.9-12.18 15.34 0 26.9 5.24 26.9 12.18v17.82h-3.74V229.2c-4.6 3.54-13 5.8-23.17 5.8-10.15 0-18.56-2.26-23.16-5.8v13.54c1.38 3.54 10.66 7.25 22.7 7.25h6.96v3.78h-6.94c-9.65 0-18.06-2.18-22.73-5.64v13.8c1.08 3.37 9.78 6.84 22.7 6.84h6.96v3.7h-6.94c-8.63 0-17.76-1.6-22.73-5.07v10.74c0 3.8 9.7 9.35 23.15 9.35s23.17-5.57 23.17-9.36v-1.86h-11.1c-1.03 0-1.9-.8-1.9-1.85v-33.8h3.72v1.86h9.57l2.06 2.1 1.97-2.1h4.53l3.3 2.17-2.05 3.15-2.33-1.54h-1.9l-3.5 3.55-3.6-3.55h-8.03v8.55l11.55 10.9 4.22-4.3 3.5 3.56h5.93l-2.4-2.43 2.62-2.66 6.87 7.03zm-63.8-49.68c0 4.03 9.85 8.46 23.15 8.46 13.23 0 23.17-4.43 23.17-8.46 0-3.95-9.94-8.4-23.17-8.4-13.3 0-23.16 4.45-23.16 8.4zm62.7 19.67h-3.37v-3.72h9.2v9.36H523v-2.42l-4.16 4.92 7.3 7.42-2.63 2.66-7.17-7.18-1.75 2.1h-8.33l-2.2 2.98-3-2.26 3.37-4.43h8.4zm-25.66 30h24.12l-1.32-1.3 2.4-2.42h-7.44l-1.98-2-4.16 4.1-11.62-10.9z" stroke="#000" stroke-opacity="0" fill="#fff"/><use xlink:href="#s" transform="matrix(1,0,0,1,400,319) translate(35.80246913580247 17.77777777777778)"/><use xlink:href="#e" transform="matrix(1,0,0,1,400,319) translate(113.39506172839506 17.77777777777778)"/><path d="M700.94 60c2.24 0 4.06 1.8 4.06 3.96v112.08c0 2.16-1.82 3.96-4.06 3.96h-61.88c-2.24 0-4.06-1.8-4.06-3.96V63.96c0-2.16 1.82-3.96 4.06-3.96zm-60.48 114.6h59.08V65.4h-59.08zm6.72-96.84v-5.52h45.64v5.52zm0 11.64v-5.52h45.64v5.52zm0 23.88v-5.52h45.64v5.52zm0-11.88V96h45.64v5.4z" stroke="#000" stroke-opacity="0" fill="#232f3d"/><use xlink:href="#t" transform="matrix(1,0,0,1,605,189) translate(13.271604938271594 17.77777777777778)"/><use xlink:href="#u" transform="matrix(1,0,0,1,605,189) translate(28.02469135802469 44.44444444444444)"/><path d="M706.5 120h40a6 6 0 0 1 6 6v210.67a6 6 0 0 0 6 6h20.88" stroke="#3a414a" stroke-width="3" fill="none"/><path d="M706.54 121.5H705v-3h1.54z" stroke="#3a414a" stroke-width=".05" fill="#3a414a"/><path d="M795.15 342.67l-14.27 4.63v-9.27z" stroke="#3a414a" stroke-width="3" fill="#3a414a"/><path d="M633.5 120h-35a6 6 0 0 0-6 6v118a6 6 0 0 1-6 6h-15.88" stroke="#3a414a" stroke-width="3" fill="none"/><path d="M635 121.5h-1.54v-3H635z" stroke="#3a414a" stroke-width=".05" fill="#3a414a"/><path d="M554.85 250l14.27-4.64v9.27z" stroke="#3a414a" stroke-width="3" fill="#3a414a"/><path d="M877.2-98.5H751.05l-.76.06-.7.17-.64.27-.6.37-.54.46-.46.53-.37.6-.28.66-.16.68-.06.76V75.4l-.1 1.1-.26 1.15-.45 1.1-.63 1-.76.9-.9.75-1 .62-1.08.45-1.15.28-1.1.08H706.5v-3h32.44l.76-.06.7-.16.64-.26.6-.37.54-.46.46-.52.36-.6.27-.66.17-.68.06-.77V-94.05l.1-1.12.26-1.14.45-1.1.63-1 .76-.9.9-.77 1-.6 1.08-.46 1.15-.28 1.1-.1H877.2zm440.47-2.9l1.15.27 1.1.45 1 .6.9.78.75.9.62 1 .44 1.1.27 1.13.1 1.12v13.44l-3-.02v-13.32l-.06-.76-.16-.7-.27-.64-.36-.6-.46-.53-.54-.46-.6-.37-.65-.27-.7-.17-.76-.06h-307.46v-3h307.58z" stroke="#3a414a" stroke-width=".05" fill="#3a414a"/><path d="M706.54 82.83H705v-3h1.54z" fill="#3a414a"/><path d="M706.56 82.86h-1.6V79.8h1.6zm-1.54-3v2.95h1.5v-2.94z" stroke="#3a414a" stroke-width=".05" fill="#3a414a"/><path d="M1322.5-64.85l-4.63-14.27h9.27z" fill="#3a414a"/><path d="M1322.5-60l-6.7-20.6 13.4-.02zm-2.57-17.6l2.57 7.9 2.57-7.9z" stroke="#3a414a" stroke-width=".05" fill="#3a414a"/><use xlink:href="#v" transform="matrix(1,0,0,1,877.1900303815306,-113.32877747280232) translate(0 17.77777777777778)"/><use xlink:href="#w" transform="matrix(1,0,0,1,877.1900303815306,-113.32877747280232) translate(78.76543209876542 17.77777777777778)"/><path d="M223.72-45H336.4c1.92-.1 3.48 1.36 3.6 3.23v78.54c-.12 1.87-1.68 3.3-3.6 3.23H223.72c-1.92.1-3.6-1.36-3.72-3.23V-41.6c.12-1.95 1.68-3.48 3.6-3.4z" stroke="#000" stroke-opacity="0" fill="url(#x)"/><path d="M304.02-34.55h8.25c.66 0 .98.32.98 1v60.4c0 .68-.32 1-.98 1h-8.25c-.65 0-.98-.32-.98-1v-60.4c0-.68.33-1 .98-1z" stroke="#000" stroke-opacity="0" fill="#fff" fill-opacity=".9"/><path d="M231.93 15.1h54.95c.75 0 1.1.34 1.1 1.05v10.8c0 .72-.36 1.07-1.1 1.07h-54.95c-.74 0-1.08-.35-1.08-1.06v-10.8c0-.72.34-1.06 1.08-1.06z" stroke="#000" stroke-opacity="0" fill="#fff" fill-opacity=".6"/><path d="M319.52-8.96h8.7c.5 0 .75.26.75.74v35.4c0 .5-.25.75-.75.75h-8.7c-.5 0-.76-.26-.76-.74V-8.23c0-.48.25-.74.76-.74z" stroke="#000" stroke-opacity="0" fill="#fff" fill-opacity=".9"/><path d="M280.76-30.72l-14.18 25.3-15-15.34-15.5 20.12 3.6 2.83 12.28-15.87 15.6 15.93L284.8-28.4l-4.04-2.32z" stroke="#000" stroke-opacity="0" fill="#fff"/><path d="M251.76-23.07c3.22 0 5.84 2.63 5.84 5.87 0 3.23-2.62 5.86-5.84 5.86-3.22 0-5.84-2.63-5.84-5.86 0-3.24 2.62-5.87 5.84-5.87zM267.6-8.54c3.22 0 5.84 2.63 5.84 5.87s-2.62 5.87-5.84 5.87c-3.23 0-5.84-2.63-5.84-5.87s2.62-5.87 5.84-5.87zM282.24-34.72c3.22 0 5.84 2.63 5.84 5.87s-2.62 5.87-5.84 5.87c-3.23 0-5.84-2.63-5.84-5.87s2.62-5.87 5.84-5.87zM238.44-6c3.22 0 5.84 2.64 5.84 5.88 0 3.24-2.62 5.87-5.84 5.87-3.22 0-5.84-2.63-5.84-5.87S235.22-6 238.44-6z" stroke="#000" stroke-opacity="0" fill="#fff"/><use xlink:href="#y" transform="matrix(1,0,0,1,190,49) translate(35.74074074074073 17.77777777777778)"/><path d="M545.94-140c2.24 0 4.06 1.8 4.06 3.96v112.08c0 2.16-1.82 3.96-4.06 3.96h-61.88c-2.24 0-4.06-1.8-4.06-3.96v-112.08c0-2.16 1.82-3.96 4.06-3.96zM485.46-25.4h59.08v-109.2h-59.08zm6.72-96.84v-5.52h45.64v5.52zm0 11.64v-5.52h45.64v5.52zm0 23.88v-5.52h45.64v5.52zm0-11.88v-5.4h45.64v5.4z" stroke="#000" stroke-opacity="0" fill="#232f3d"/><use xlink:href="#z" transform="matrix(1,0,0,1,450,-11) translate(36.66666666666667 17.77777777777778)"/><use xlink:href="#u" transform="matrix(1,0,0,1,450,-11) translate(28.02469135802469 44.44444444444444)"/><path d="M670 58.5V-74a6 6 0 0 0-6-6h-93.38" stroke="#3a414a" stroke-width="3" fill="none"/><path d="M671.5 60h-3v-1.54h3z" stroke="#3a414a" stroke-width=".05" fill="#3a414a"/><path d="M554.85-80l14.27-4.64v9.28z" stroke="#3a414a" stroke-width="3" fill="#3a414a"/><path d="M478.5-77.5H416a6 6 0 0 0-6 6v63a6 6 0 0 1-6 6h-43.38" stroke="#3a414a" stroke-width="3" fill="none"/><path d="M480-76h-1.54v-3H480z" stroke="#3a414a" stroke-width=".05" fill="#3a414a"/><path d="M344.85-2.5l14.27-4.63v9.27z" stroke="#3a414a" stroke-width="3" fill="#3a414a"/><path d="M340-181.94v76.5c0 2.3-1.8 4.1-4.08 4.1H304c-.6 0-.96.4-.96 1v12.3c0 1.1-.96 2-2.04 2-.48 0-.84-.1-1.2-.4l-19.2-14.7c-.24-.1-.48-.2-.6-.2h-55.92c-2.28 0-4.08-1.8-4.08-4.1v-76.5c0-2.3 1.8-4.1 4.08-4.1h111.84c2.28 0 4.08 1.8 4.08 4.1z" stroke="#000" stroke-opacity="0" fill="url(#A)"/><path d="M292.55-144.14c-3.02-2.78-6.1-4.63-10.06-5.92v-11.05c3.38.48 6.17 1.47 9.1 3.26.23.13.52.13.8 0 .25-.18.38-.43.38-.74v-8.82c0-.3-.13-.56-.4-.74-3.25-1.55-6.3-2.22-9.9-2.3v-5.17c0-.44-.35-.8-.78-.8h-4.73c-.43 0-.8.36-.8.8v5.36c-3.64.43-6.6 1.85-9.26 4.32-2.66 2.6-3.97 5.74-3.94 9.38-.13 3.45.92 6.4 3.22 9 3.03 2.78 6.08 4.57 10 5.87v10.55c-2.04-.25-3.72-.68-5.66-1.42-2.04-.62-3.65-1.42-5.4-2.65-.12-.12-.25-.18-.45-.18-.43 0-.8.37-.8.8v9.13c0 .3.18.56.44.68 3.9 2.04 7.54 2.96 11.9 3.1v6.16c0 .42.37.8.8.8h4.77c.43 0 .75-.38.75-.8v-6.43c3.8-.37 6.88-1.73 9.67-4.26 2.56-2.52 3.77-5.66 3.64-9.3.1-3.34-1-6.17-3.3-8.64zm-6.94 9.07c.15 1.9-1.24 3.52-3.08 3.76v-7.78c2 1.17 3.06 2.47 3.1 4zm-12.38-21.97c-.13-1.85 1.15-3.45 2.96-3.82v8.14c-1.78-.8-2.86-2.4-2.96-4.32z" stroke="#000" stroke-opacity="0" fill="#f2f2f2"/><use xlink:href="#B" transform="matrix(1,0,0,1,190,-77.03999999999999) translate(35.77160493827161 17.77777777777778)"/><use xlink:href="#C" transform="matrix(1,0,0,1,190,-77.03999999999999) translate(87.56172839506173 17.77777777777778)"/><path d="M478.5-136.04H360.62" stroke="#3a414a" stroke-width="3" fill="none"/><path d="M480-136.04v1.5h-1.54v-3h2.17z" stroke="#3a414a" stroke-width=".05" fill="#3a414a"/><path d="M344.85-136.04l14.27-4.64v9.28z" stroke="#3a414a" stroke-width="3" fill="#3a414a"/><path d="M320 199c57.72-41.5 59.76-65.78 60-73.3.36-10.72-1.08-38.42-29.28-40.6-13.92-1-26.16 7.08-30.72 20.2-4.56-13.23-17.04-21.33-30.96-20.2C261.2 87.3 259.64 115 260 125.7c0 7.52 2.28 31.8 60 73.3" stroke="#000" stroke-opacity="0" fill="url(#D)"/><path d="M380 125.7c.36-10.7-1.08-38.43-29.28-40.6-13.92-1-26.16 7.06-30.72 20.25-4.56-13.3-17.04-21.37-30.96-20.24-27.84 2.17-29.4 29.9-29.04 40.6 0 7.5 1.68 31.47 59.52 72.96" stroke="#000" stroke-opacity="0" fill-opacity="0"/><path d="M379.93 121.5h-28.2c-.44 0-.77.2-1 .5l-8.43 14.84c-.33.53-1.1.65-1.67.35-.1-.13-.22-.25-.33-.36l-12.2-23.35c-.23-.48-.56-.84-1-1.02-1.12-.53-2.45-.06-2.9 1l-11.76 35.1c-.22.6-.9.85-1.44.55-.34-.12-.45-.3-.56-.53l-10-23.35c-.2-.4-.54-.7-1-.9-1.1-.58-2.32-.17-2.87.9l-13.77 24.77c-.22.36-.44.53-.88.53h-13c2.12 3.2 4 5.77 6.33 8.68h11.88c.45.06.78-.18.9-.6l8.54-15.8c.33-.53 1-.7 1.55-.4.22.1.33.23.44.4l11.77 27.38v.02c.22.6.67 1.06 1.22 1.3 1.1.42 2.44-.18 2.78-1.3l12.43-36.9c.22-.52.78-.76 1.33-.58.32.12.44.3.55.6l10.32 19.65c.22.4.55.64.9.88 1 .54 2.32.12 2.87-.9l13.1-22.2c.22-.3.56-.54.9-.54h22.86" stroke="#000" stroke-opacity="0" fill="#fff"/><g><use xlink:href="#E" transform="matrix(1,0,0,1,230,208) translate(26.543209876543216 17.77777777777778)"/><use xlink:href="#C" transform="matrix(1,0,0,1,230,208) translate(96.79012345679013 17.77777777777778)"/></g><path d="M481.22-19.64V136a6 6 0 0 1-6 6h-78.85" stroke="#3a414a" stroke-width="3" fill="none"/><path d="M480-23.86l1.22 2.72 1.5.6v.94h-3v-4.54h.28z" stroke="#3a414a" stroke-width=".05" fill="#3a414a"/><path d="M380.6 142l14.27-4.63v9.26z" stroke="#3a414a" stroke-width="3" fill="#3a414a"/><defs><path fill="#3a414a" d="M212-179c-10-28-35-45-73-45-59 0-87 40-87 99 0 60 29 101 89 101 43 0 62-24 78-52l27 14C228-24 195 4 139 4 59 4 22-46 18-125c-6-104 99-153 187-111 19 9 31 26 39 46" id="F"/><path fill="#3a414a" d="M24 0v-261h32V0H24" id="G"/><path fill="#3a414a" d="M24-231v-30h32v30H24zM24 0v-190h32V0H24" id="H"/><path fill="#3a414a" d="M100-194c63 0 86 42 84 106H49c0 40 14 67 53 68 26 1 43-12 49-29l28 8c-11 28-37 45-77 45C44 4 14-33 15-96c1-61 26-98 85-98zm52 81c6-60-76-77-97-28-3 7-6 17-6 28h103" id="I"/><path fill="#3a414a" d="M117-194c89-4 53 116 60 194h-32v-121c0-31-8-49-39-48C34-167 62-67 57 0H25l-1-190h30c1 10-1 24 2 32 11-22 29-35 61-36" id="J"/><path fill="#3a414a" d="M59-47c-2 24 18 29 38 22v24C64 9 27 4 27-40v-127H5v-23h24l9-43h21v43h35v23H59v120" id="K"/><g id="a"><use transform="matrix(0.06172839506172839,0,0,0.06172839506172839,0,0)" xlink:href="#F"/><use transform="matrix(0.06172839506172839,0,0,0.06172839506172839,15.987654320987653,0)" xlink:href="#G"/><use transform="matrix(0.06172839506172839,0,0,0.06172839506172839,20.864197530864196,0)" xlink:href="#H"/><use transform="matrix(0.06172839506172839,0,0,0.06172839506172839,25.74074074074074,0)" xlink:href="#I"/><use transform="matrix(0.06172839506172839,0,0,0.06172839506172839,38.08641975308642,0)" xlink:href="#J"/><use transform="matrix(0.06172839506172839,0,0,0.06172839506172839,50.432098765432094,0)" xlink:href="#K"/></g><path fill="#3a414a" d="M205 0l-28-72H64L36 0H1l101-248h38L239 0h-34zm-38-99l-47-123c-12 45-31 82-46 123h93" id="L"/><path fill="#3a414a" d="M30-248c87 1 191-15 191 75 0 78-77 80-158 76V0H30v-248zm33 125c57 0 124 11 124-50 0-59-68-47-124-48v98" id="M"/><path fill="#3a414a" d="M33 0v-248h34V0H33" id="N"/><g id="b"><use transform="matrix(0.06172839506172839,0,0,0.06172839506172839,0,0)" xlink:href="#L"/><use transform="matrix(0.06172839506172839,0,0,0.06172839506172839,14.814814814814813,0)" xlink:href="#M"/><use transform="matrix(0.06172839506172839,0,0,0.06172839506172839,29.629629629629626,0)" xlink:href="#N"/></g><path fill="#3a414a" d="M185-189c-5-48-123-54-124 2 14 75 158 14 163 119 3 78-121 87-175 55-17-10-28-26-33-46l33-7c5 56 141 63 141-1 0-78-155-14-162-118-5-82 145-84 179-34 5 7 8 16 11 25" id="O"/><path fill="#3a414a" d="M114-163C36-179 61-72 57 0H25l-1-190h30c1 12-1 29 2 39 6-27 23-49 58-41v29" id="P"/><path fill="#3a414a" d="M108 0H70L1-190h34L89-25l56-165h34" id="Q"/><g id="c"><use transform="matrix(0.06172839506172839,0,0,0.06172839506172839,0,0)" xlink:href="#O"/><use transform="matrix(0.06172839506172839,0,0,0.06172839506172839,14.814814814814813,0)" xlink:href="#I"/><use transform="matrix(0.06172839506172839,0,0,0.06172839506172839,27.160493827160494,0)" xlink:href="#P"/><use transform="matrix(0.06172839506172839,0,0,0.06172839506172839,34.50617283950617,0)" xlink:href="#Q"/><use transform="matrix(0.06172839506172839,0,0,0.06172839506172839,45.61728395061728,0)" xlink:href="#I"/><use transform="matrix(0.06172839506172839,0,0,0.06172839506172839,57.962962962962955,0)" xlink:href="#P"/></g><path fill="#3a414a" d="M233-177c-1 41-23 64-60 70L243 0h-38l-65-103H63V0H30v-248c88 3 205-21 203 71zM63-129c60-2 137 13 137-47 0-61-80-42-137-45v92" id="R"/><path fill="#3a414a" d="M84 4C-5 8 30-112 23-190h32v120c0 31 7 50 39 49 72-2 45-101 50-169h31l1 190h-30c-1-10 1-25-2-33-11 22-28 36-60 37" id="S"/><path fill="#3a414a" d="M135-143c-3-34-86-38-87 0 15 53 115 12 119 90S17 21 10-45l28-5c4 36 97 45 98 0-10-56-113-15-118-90-4-57 82-63 122-42 12 7 21 19 24 35" id="T"/><g id="d"><use transform="matrix(0.06172839506172839,0,0,0.06172839506172839,0,0)" xlink:href="#R"/><use transform="matrix(0.06172839506172839,0,0,0.06172839506172839,15.987654320987653,0)" xlink:href="#S"/><use transform="matrix(0.06172839506172839,0,0,0.06172839506172839,28.333333333333332,0)" xlink:href="#G"/><use transform="matrix(0.06172839506172839,0,0,0.06172839506172839,33.20987654320987,0)" xlink:href="#I"/><use transform="matrix(0.06172839506172839,0,0,0.06172839506172839,45.55555555555555,0)" xlink:href="#T"/></g><path fill="#3a414a" d="M30-248c118-7 216 8 213 122C240-48 200 0 122 0H30v-248zM63-27c89 8 146-16 146-99s-60-101-146-95v194" id="U"/><path fill="#3a414a" d="M160-131c35 5 61 23 61 61C221 17 115-2 30 0v-248c76 3 177-17 177 60 0 33-19 50-47 57zm-97-11c50-1 110 9 110-42 0-47-63-36-110-37v79zm0 115c55-2 124 14 124-45 0-56-70-42-124-44v89" id="V"/><g id="e"><use transform="matrix(0.06172839506172839,0,0,0.06172839506172839,0,0)" xlink:href="#U"/><use transform="matrix(0.06172839506172839,0,0,0.06172839506172839,15.987654320987653,0)" xlink:href="#V"/></g><g id="f"><use transform="matrix(0.06172839506172839,0,0,0.06172839506172839,0,0)" xlink:href="#R"/><use transform="matrix(0.06172839506172839,0,0,0.06172839506172839,15.987654320987653,0)" xlink:href="#S"/><use transform="matrix(0.06172839506172839,0,0,0.06172839506172839,28.333333333333332,0)" xlink:href="#G"/><use transform="matrix(0.06172839506172839,0,0,0.06172839506172839,33.20987654320987,0)" xlink:href="#I"/><use transform="matrix(0.06172839506172839,0,0,0.06172839506172839,45.55555555555555,0)" xlink:href="#T"/></g><path fill="#3a414a" d="M141-36C126-15 110 5 73 4 37 3 15-17 15-53c-1-64 63-63 125-63 3-35-9-54-41-54-24 1-41 7-42 31l-33-3c5-37 33-52 76-52 45 0 72 20 72 64v82c-1 20 7 32 28 27v20c-31 9-61-2-59-35zM48-53c0 20 12 33 32 33 41-3 63-29 60-74-43 2-92-5-92 41" id="W"/><path fill="#3a414a" d="M96-169c-40 0-48 33-48 73s9 75 48 75c24 0 41-14 43-38l32 2c-6 37-31 61-74 61-59 0-76-41-82-99-10-93 101-131 147-64 4 7 5 14 7 22l-32 3c-4-21-16-35-41-35" id="X"/><path fill="#3a414a" d="M106-169C34-169 62-67 57 0H25v-261h32l-1 103c12-21 28-36 61-36 89 0 53 116 60 194h-32v-121c2-32-8-49-39-48" id="Y"/><g id="g"><use transform="matrix(0.06172839506172839,0,0,0.06172839506172839,0,0)" xlink:href="#F"/><use transform="matrix(0.06172839506172839,0,0,0.06172839506172839,15.987654320987653,0)" xlink:href="#W"/><use transform="matrix(0.06172839506172839,0,0,0.06172839506172839,28.333333333333332,0)" xlink:href="#X"/><use transform="matrix(0.06172839506172839,0,0,0.06172839506172839,39.44444444444444,0)" xlink:href="#Y"/><use transform="matrix(0.06172839506172839,0,0,0.06172839506172839,51.79012345679012,0)" xlink:href="#I"/></g><path fill="#3a414a" d="M100-194c62-1 85 37 85 99 1 63-27 99-86 99S16-35 15-95c0-66 28-99 85-99zM99-20c44 1 53-31 53-75 0-43-8-75-51-75s-53 32-53 75 10 74 51 75" id="Z"/><g id="h"><use transform="matrix(0.06172839506172839,0,0,0.06172839506172839,0,0)" xlink:href="#F"/><use transform="matrix(0.06172839506172839,0,0,0.06172839506172839,15.987654320987653,0)" xlink:href="#Z"/><use transform="matrix(0.06172839506172839,0,0,0.06172839506172839,28.333333333333332,0)" xlink:href="#S"/><use transform="matrix(0.06172839506172839,0,0,0.06172839506172839,40.67901234567901,0)" xlink:href="#J"/><use transform="matrix(0.06172839506172839,0,0,0.06172839506172839,53.02469135802469,0)" xlink:href="#K"/><use transform="matrix(0.06172839506172839,0,0,0.06172839506172839,59.19753086419753,0)" xlink:href="#I"/><use transform="matrix(0.06172839506172839,0,0,0.06172839506172839,71.54320987654322,0)" xlink:href="#P"/></g><g id="i"><use transform="matrix(0.06172839506172839,0,0,0.06172839506172839,0,0)" xlink:href="#O"/><use transform="matrix(0.06172839506172839,0,0,0.06172839506172839,14.814814814814813,0)" xlink:href="#K"/><use transform="matrix(0.06172839506172839,0,0,0.06172839506172839,20.98765432098765,0)" xlink:href="#Z"/><use transform="matrix(0.06172839506172839,0,0,0.06172839506172839,33.33333333333333,0)" xlink:href="#P"/><use transform="matrix(0.06172839506172839,0,0,0.06172839506172839,40.679012345679006,0)" xlink:href="#I"/></g><path fill="#3a414a" d="M266 0h-40l-56-210L115 0H75L2-248h35L96-30l15-64 43-154h32l59 218 59-218h35" id="aa"/><path fill="#3a414a" d="M143 0L79-87 56-68V0H24v-261h32v163l83-92h37l-77 82L181 0h-38" id="ab"/><g id="j"><use transform="matrix(0.06172839506172839,0,0,0.06172839506172839,0,0)" xlink:href="#aa"/><use transform="matrix(0.06172839506172839,0,0,0.06172839506172839,20.493827160493826,0)" xlink:href="#Z"/><use transform="matrix(0.06172839506172839,0,0,0.06172839506172839,32.839506172839506,0)" xlink:href="#P"/><use transform="matrix(0.06172839506172839,0,0,0.06172839506172839,40.18518518518518,0)" xlink:href="#ab"/><use transform="matrix(0.06172839506172839,0,0,0.06172839506172839,51.29629629629629,0)" xlink:href="#I"/><use transform="matrix(0.06172839506172839,0,0,0.06172839506172839,63.641975308641975,0)" xlink:href="#P"/><use transform="matrix(0.06172839506172839,0,0,0.06172839506172839,70.98765432098764,0)" xlink:href="#T"/></g><path fill="#54c45e" d="M137-138c1-29-70-34-71-4 15 46 118 7 119 86 1 83-164 76-172 9l43-7c4 19 20 25 44 25 33 8 57-30 24-41C81-84 22-81 20-136c-2-80 154-74 161-7" id="ac"/><path fill="#54c45e" d="M85 4C-2 5 27-109 22-190h50c7 57-23 150 33 157 60-5 35-97 40-157h50l1 190h-47c-2-12 1-28-3-38-12 25-28 42-61 42" id="ad"/><path fill="#54c45e" d="M190-63c-7 42-38 67-86 67-59 0-84-38-90-98-12-110 154-137 174-36l-49 2c-2-19-15-32-35-32-30 0-35 28-38 64-6 74 65 87 74 30" id="ae"/><path fill="#54c45e" d="M185-48c-13 30-37 53-82 52C43 2 14-33 14-96s30-98 90-98c62 0 83 45 84 108H66c0 31 8 55 39 56 18 0 30-7 34-22zm-45-69c5-46-57-63-70-21-2 6-4 13-4 21h74" id="af"/><g id="k"><use transform="matrix(0.07407407407407407,0,0,0.07407407407407407,0,0)" xlink:href="#ac"/><use transform="matrix(0.07407407407407407,0,0,0.07407407407407407,14.814814814814813,0)" xlink:href="#ad"/><use transform="matrix(0.07407407407407407,0,0,0.07407407407407407,31.037037037037035,0)" xlink:href="#ae"/><use transform="matrix(0.07407407407407407,0,0,0.07407407407407407,45.85185185185185,0)" xlink:href="#ae"/><use transform="matrix(0.07407407407407407,0,0,0.07407407407407407,60.66666666666666,0)" xlink:href="#af"/><use transform="matrix(0.07407407407407407,0,0,0.07407407407407407,75.48148148148147,0)" xlink:href="#ac"/><use transform="matrix(0.07407407407407407,0,0,0.07407407407407407,90.29629629629628,0)" xlink:href="#ac"/></g><linearGradient gradientUnits="userSpaceOnUse" id="l" x1="800" y1="780" x2="920" y2="660"><stop offset="0%" stop-color="#b0084d"/><stop offset="100%" stop-color="#ff4f8b"/></linearGradient><path fill="#3a414a" d="M127-220V0H93v-220H8v-28h204v28h-85" id="ag"/><path fill="#3a414a" d="M85-194c31 0 48 13 60 33l-1-100h32l1 261h-30c-2-10 0-23-3-31C134-8 116 4 85 4 32 4 16-35 15-94c0-66 23-100 70-100zm9 24c-40 0-46 34-46 75 0 40 6 74 45 74 42 0 51-32 51-76 0-42-9-74-50-73" id="ah"/><g id="m"><use transform="matrix(0.06172839506172839,0,0,0.06172839506172839,0,0)" xlink:href="#ag"/><use transform="matrix(0.06172839506172839,0,0,0.06172839506172839,13.518518518518517,0)" xlink:href="#Y"/><use transform="matrix(0.06172839506172839,0,0,0.06172839506172839,25.864197530864196,0)" xlink:href="#P"/><use transform="matrix(0.06172839506172839,0,0,0.06172839506172839,33.20987654320987,0)" xlink:href="#Z"/><use transform="matrix(0.06172839506172839,0,0,0.06172839506172839,45.55555555555555,0)" xlink:href="#K"/><use transform="matrix(0.06172839506172839,0,0,0.06172839506172839,51.72839506172839,0)" xlink:href="#K"/><use transform="matrix(0.06172839506172839,0,0,0.06172839506172839,57.901234567901234,0)" xlink:href="#G"/><use transform="matrix(0.06172839506172839,0,0,0.06172839506172839,62.77777777777778,0)" xlink:href="#I"/><use transform="matrix(0.06172839506172839,0,0,0.06172839506172839,75.12345679012346,0)" xlink:href="#ah"/></g><path fill="#3a414a" d="M140-251c81 0 123 46 123 126C263-53 228-8 163 1c7 30 30 48 69 40v23c-55 16-95-15-103-61C56-3 17-48 17-125c0-80 42-126 123-126zm0 227c63 0 89-41 89-101s-29-99-89-99c-61 0-89 39-89 99S79-25 140-24" id="ai"/><g id="n"><use transform="matrix(0.06172839506172839,0,0,0.06172839506172839,0,0)" xlink:href="#ai"/><use transform="matrix(0.06172839506172839,0,0,0.06172839506172839,17.28395061728395,0)" xlink:href="#S"/><use transform="matrix(0.06172839506172839,0,0,0.06172839506172839,29.629629629629626,0)" xlink:href="#I"/><use transform="matrix(0.06172839506172839,0,0,0.06172839506172839,41.9753086419753,0)" xlink:href="#S"/><use transform="matrix(0.06172839506172839,0,0,0.06172839506172839,54.32098765432098,0)" xlink:href="#I"/></g><path fill="#e81313" d="M121-226c-27-7-43 5-38 36h38v33H83V0H34v-157H6v-33h28c-9-59 32-81 87-68v32" id="aj"/><path fill="#e81313" d="M133-34C117-15 103 5 69 4 32 3 11-16 11-54c-1-60 55-63 116-61 1-26-3-47-28-47-18 1-26 9-28 27l-52-2c7-38 36-58 82-57s74 22 75 68l1 82c-1 14 12 18 25 15v27c-30 8-71 5-69-32zm-48 3c29 0 43-24 42-57-32 0-66-3-65 30 0 17 8 27 23 27" id="ak"/><path fill="#e81313" d="M25-224v-37h50v37H25zM25 0v-190h50V0H25" id="al"/><path fill="#e81313" d="M25 0v-261h50V0H25" id="am"/><path fill="#e81313" d="M185-48c-13 30-37 53-82 52C43 2 14-33 14-96s30-98 90-98c62 0 83 45 84 108H66c0 31 8 55 39 56 18 0 30-7 34-22zm-45-69c5-46-57-63-70-21-2 6-4 13-4 21h74" id="an"/><path fill="#e81313" d="M88-194c31-1 46 15 58 34l-1-101h50l1 261h-48c-2-10 0-23-3-31C134-8 116 4 84 4 32 4 16-41 15-95c0-56 19-97 73-99zm17 164c33 0 40-30 41-66 1-37-9-64-41-64s-38 30-39 65c0 43 13 65 39 65" id="ao"/><g id="o"><use transform="matrix(0.07407407407407407,0,0,0.07407407407407407,0,0)" xlink:href="#aj"/><use transform="matrix(0.07407407407407407,0,0,0.07407407407407407,8.814814814814815,0)" xlink:href="#ak"/><use transform="matrix(0.07407407407407407,0,0,0.07407407407407407,23.629629629629623,0)" xlink:href="#al"/><use transform="matrix(0.07407407407407407,0,0,0.07407407407407407,31.03703703703703,0)" xlink:href="#am"/><use transform="matrix(0.07407407407407407,0,0,0.07407407407407407,38.444444444444436,0)" xlink:href="#an"/><use transform="matrix(0.07407407407407407,0,0,0.07407407407407407,53.25925925925926,0)" xlink:href="#ao"/></g><path fill="#e81313" d="M165-50V0h-47v-50H5v-38l105-160h55v161h33v37h-33zm-47-37l2-116L46-87h72" id="ap"/><path fill="#e81313" d="M182-182c0 78-84 86-111 141h115V0H12c-6-101 99-100 120-180 1-22-12-31-33-32-23 0-32 14-35 34l-49-3c5-45 32-70 84-70 51 0 83 22 83 69" id="aq"/><path fill="#e81313" d="M99-251c69 0 84 53 88 123 5 99-61 162-144 118-15-8-21-25-26-45l46-6c4 31 50 33 63 7 7-15 12-36 12-60-9 18-29 28-54 28-48 0-72-32-72-82 0-55 31-83 87-83zm-1 128c24 0 37-16 37-39 0-27-10-51-37-51-25 0-35 19-35 45 0 25 10 45 35 45" id="ar"/><g id="p"><use transform="matrix(0.06790123456790123,0,0,0.06790123456790123,0,0)" xlink:href="#ap"/><use transform="matrix(0.06790123456790123,0,0,0.06790123456790123,13.580246913580247,0)" xlink:href="#aq"/><use transform="matrix(0.06790123456790123,0,0,0.06790123456790123,27.160493827160494,0)" xlink:href="#ar"/></g><linearGradient gradientUnits="userSpaceOnUse" id="q" x1="800" y1="460" x2="920" y2="340"><stop offset="0%" stop-color="#b0084d"/><stop offset="100%" stop-color="#ff4f8b"/></linearGradient><linearGradient gradientUnits="userSpaceOnUse" id="r" x1="430" y1="310" x2="550" y2="190"><stop offset="0%" stop-color="#2e27ad"/><stop offset="100%" stop-color="#527fff"/></linearGradient><path fill="#3a414a" d="M240 0l2-218c-23 76-54 145-80 218h-23L58-218 59 0H30v-248h44l77 211c21-75 51-140 76-211h43V0h-30" id="as"/><g id="s"><use transform="matrix(0.06172839506172839,0,0,0.06172839506172839,0,0)" xlink:href="#as"/><use transform="matrix(0.06172839506172839,0,0,0.06172839506172839,18.456790123456788,0)" xlink:href="#I"/><use transform="matrix(0.06172839506172839,0,0,0.06172839506172839,30.80246913580247,0)" xlink:href="#K"/><use transform="matrix(0.06172839506172839,0,0,0.06172839506172839,36.97530864197531,0)" xlink:href="#P"/><use transform="matrix(0.06172839506172839,0,0,0.06172839506172839,44.32098765432099,0)" xlink:href="#H"/><use transform="matrix(0.06172839506172839,0,0,0.06172839506172839,49.19753086419753,0)" xlink:href="#X"/><use transform="matrix(0.06172839506172839,0,0,0.06172839506172839,60.308641975308646,0)" xlink:href="#T"/></g><path fill="#3a414a" d="M177-190C167-65 218 103 67 71c-23-6-38-20-44-43l32-5c15 47 100 32 89-28v-30C133-14 115 1 83 1 29 1 15-40 15-95c0-56 16-97 71-98 29-1 48 16 59 35 1-10 0-23 2-32h30zM94-22c36 0 50-32 50-73 0-42-14-75-50-75-39 0-46 34-46 75s6 73 46 73" id="at"/><g id="t"><use transform="matrix(0.06172839506172839,0,0,0.06172839506172839,0,0)" xlink:href="#as"/><use transform="matrix(0.06172839506172839,0,0,0.06172839506172839,18.456790123456788,0)" xlink:href="#Z"/><use transform="matrix(0.06172839506172839,0,0,0.06172839506172839,30.80246913580247,0)" xlink:href="#J"/><use transform="matrix(0.06172839506172839,0,0,0.06172839506172839,43.148148148148145,0)" xlink:href="#H"/><use transform="matrix(0.06172839506172839,0,0,0.06172839506172839,48.02469135802469,0)" xlink:href="#K"/><use transform="matrix(0.06172839506172839,0,0,0.06172839506172839,54.19753086419753,0)" xlink:href="#Z"/><use transform="matrix(0.06172839506172839,0,0,0.06172839506172839,66.54320987654322,0)" xlink:href="#P"/><use transform="matrix(0.06172839506172839,0,0,0.06172839506172839,73.8888888888889,0)" xlink:href="#H"/><use transform="matrix(0.06172839506172839,0,0,0.06172839506172839,78.76543209876544,0)" xlink:href="#J"/><use transform="matrix(0.06172839506172839,0,0,0.06172839506172839,91.11111111111113,0)" xlink:href="#at"/></g><g id="u"><use transform="matrix(0.06172839506172839,0,0,0.06172839506172839,0,0)" xlink:href="#O"/><use transform="matrix(0.06172839506172839,0,0,0.06172839506172839,14.814814814814813,0)" xlink:href="#I"/><use transform="matrix(0.06172839506172839,0,0,0.06172839506172839,27.160493827160494,0)" xlink:href="#P"/><use transform="matrix(0.06172839506172839,0,0,0.06172839506172839,34.50617283950617,0)" xlink:href="#Q"/><use transform="matrix(0.06172839506172839,0,0,0.06172839506172839,45.61728395061728,0)" xlink:href="#H"/><use transform="matrix(0.06172839506172839,0,0,0.06172839506172839,50.49382716049382,0)" xlink:href="#X"/><use transform="matrix(0.06172839506172839,0,0,0.06172839506172839,61.60493827160494,0)" xlink:href="#I"/></g><path fill="#333" d="M85 4C-2 5 27-109 22-190h50c7 57-23 150 33 157 60-5 35-97 40-157h50l1 190h-47c-2-12 1-28-3-38-12 25-28 42-61 42" id="au"/><path fill="#333" d="M135-194c53 0 70 44 70 98 0 56-19 98-73 100-31 1-45-17-59-34 3 33 2 69 2 105H25l-1-265h48c2 10 0 23 3 31 11-24 29-35 60-35zM114-30c33 0 39-31 40-66 0-38-9-64-40-64-56 0-55 130 0 130" id="av"/><path fill="#333" d="M88-194c31-1 46 15 58 34l-1-101h50l1 261h-48c-2-10 0-23-3-31C134-8 116 4 84 4 32 4 16-41 15-95c0-56 19-97 73-99zm17 164c33 0 40-30 41-66 1-37-9-64-41-64s-38 30-39 65c0 43 13 65 39 65" id="aw"/><path fill="#333" d="M133-34C117-15 103 5 69 4 32 3 11-16 11-54c-1-60 55-63 116-61 1-26-3-47-28-47-18 1-26 9-28 27l-52-2c7-38 36-58 82-57s74 22 75 68l1 82c-1 14 12 18 25 15v27c-30 8-71 5-69-32zm-48 3c29 0 43-24 42-57-32 0-66-3-65 30 0 17 8 27 23 27" id="ax"/><path fill="#333" d="M115-3C79 11 28 4 28-45v-112H4v-33h27l15-45h31v45h36v33H77v99c-1 23 16 31 38 25v30" id="ay"/><path fill="#333" d="M185-48c-13 30-37 53-82 52C43 2 14-33 14-96s30-98 90-98c62 0 83 45 84 108H66c0 31 8 55 39 56 18 0 30-7 34-22zm-45-69c5-46-57-63-70-21-2 6-4 13-4 21h74" id="az"/><g id="v"><use transform="matrix(0.06172839506172839,0,0,0.06172839506172839,0,0)" xlink:href="#au"/><use transform="matrix(0.06172839506172839,0,0,0.06172839506172839,13.518518518518517,0)" xlink:href="#av"/><use transform="matrix(0.06172839506172839,0,0,0.06172839506172839,27.037037037037035,0)" xlink:href="#aw"/><use transform="matrix(0.06172839506172839,0,0,0.06172839506172839,40.55555555555555,0)" xlink:href="#ax"/><use transform="matrix(0.06172839506172839,0,0,0.06172839506172839,52.90123456790123,0)" xlink:href="#ay"/><use transform="matrix(0.06172839506172839,0,0,0.06172839506172839,60.246913580246904,0)" xlink:href="#az"/></g><path fill="#333" d="M135-150c-39-12-60 13-60 57V0H25l-1-190h47c2 13-1 29 3 40 6-28 27-53 61-41v41" id="aA"/><path fill="#333" d="M25 0v-261h50V0H25" id="aB"/><path fill="#333" d="M137-138c1-29-70-34-71-4 15 46 118 7 119 86 1 83-164 76-172 9l43-7c4 19 20 25 44 25 33 8 57-30 24-41C81-84 22-81 20-136c-2-80 154-74 161-7" id="aC"/><g id="w"><use transform="matrix(0.06172839506172839,0,0,0.06172839506172839,0,0)" xlink:href="#aA"/><use transform="matrix(0.06172839506172839,0,0,0.06172839506172839,8.641975308641975,0)" xlink:href="#au"/><use transform="matrix(0.06172839506172839,0,0,0.06172839506172839,22.160493827160494,0)" xlink:href="#aB"/><use transform="matrix(0.06172839506172839,0,0,0.06172839506172839,28.333333333333332,0)" xlink:href="#az"/><use transform="matrix(0.06172839506172839,0,0,0.06172839506172839,40.67901234567901,0)" xlink:href="#aC"/></g><linearGradient gradientUnits="userSpaceOnUse" id="x" x1="280" y1="-57.73" x2="280" y2="53.53"><stop offset="0%" stop-color="#6cc6b9" stop-opacity=".9"/><stop offset="46%" stop-color="#6ac4b7" stop-opacity=".9"/><stop offset="64%" stop-color="#62bdb0" stop-opacity=".9"/><stop offset="77%" stop-color="#56b1a4" stop-opacity=".9"/><stop offset="100%" stop-color="#258277" stop-opacity=".9"/></linearGradient><path fill="#3a414a" d="M115-194c53 0 69 39 70 98 0 66-23 100-70 100C84 3 66-7 56-30L54 0H23l1-261h32v101c10-23 28-34 59-34zm-8 174c40 0 45-34 45-75 0-40-5-75-45-74-42 0-51 32-51 76 0 43 10 73 51 73" id="aD"/><g id="y"><use transform="matrix(0.06172839506172839,0,0,0.06172839506172839,0,0)" xlink:href="#U"/><use transform="matrix(0.06172839506172839,0,0,0.06172839506172839,15.987654320987653,0)" xlink:href="#W"/><use transform="matrix(0.06172839506172839,0,0,0.06172839506172839,28.333333333333332,0)" xlink:href="#T"/><use transform="matrix(0.06172839506172839,0,0,0.06172839506172839,39.44444444444444,0)" xlink:href="#Y"/><use transform="matrix(0.06172839506172839,0,0,0.06172839506172839,51.79012345679012,0)" xlink:href="#aD"/><use transform="matrix(0.06172839506172839,0,0,0.06172839506172839,64.1358024691358,0)" xlink:href="#Z"/><use transform="matrix(0.06172839506172839,0,0,0.06172839506172839,76.48148148148148,0)" xlink:href="#W"/><use transform="matrix(0.06172839506172839,0,0,0.06172839506172839,88.82716049382717,0)" xlink:href="#P"/><use transform="matrix(0.06172839506172839,0,0,0.06172839506172839,96.17283950617285,0)" xlink:href="#ah"/></g><g id="z"><use transform="matrix(0.06172839506172839,0,0,0.06172839506172839,0,0)" xlink:href="#L"/><use transform="matrix(0.06172839506172839,0,0,0.06172839506172839,14.814814814814813,0)" xlink:href="#G"/><use transform="matrix(0.06172839506172839,0,0,0.06172839506172839,19.691358024691354,0)" xlink:href="#I"/><use transform="matrix(0.06172839506172839,0,0,0.06172839506172839,32.03703703703703,0)" xlink:href="#P"/><use transform="matrix(0.06172839506172839,0,0,0.06172839506172839,39.38271604938271,0)" xlink:href="#K"/><use transform="matrix(0.06172839506172839,0,0,0.06172839506172839,45.55555555555555,0)" xlink:href="#T"/></g><linearGradient gradientUnits="userSpaceOnUse" id="A" x1="280" y1="-78.16" x2="280" y2="-222.75"><stop offset="0%" stop-color="#5e9624"/><stop offset="18.3%" stop-color="#629c25"/><stop offset="43.5%" stop-color="#6dae2a"/><stop offset="72.6%" stop-color="#7fcb30"/><stop offset="82.2%" stop-color="#86d633"/></linearGradient><g id="B"><use transform="matrix(0.06172839506172839,0,0,0.06172839506172839,0,0)" xlink:href="#F"/><use transform="matrix(0.06172839506172839,0,0,0.06172839506172839,15.987654320987653,0)" xlink:href="#Z"/><use transform="matrix(0.06172839506172839,0,0,0.06172839506172839,28.333333333333332,0)" xlink:href="#T"/><use transform="matrix(0.06172839506172839,0,0,0.06172839506172839,39.44444444444444,0)" xlink:href="#K"/></g><g id="C"><use transform="matrix(0.06172839506172839,0,0,0.06172839506172839,0,0)" xlink:href="#L"/><use transform="matrix(0.06172839506172839,0,0,0.06172839506172839,14.814814814814813,0)" xlink:href="#G"/><use transform="matrix(0.06172839506172839,0,0,0.06172839506172839,19.691358024691354,0)" xlink:href="#I"/><use transform="matrix(0.06172839506172839,0,0,0.06172839506172839,32.03703703703703,0)" xlink:href="#P"/><use transform="matrix(0.06172839506172839,0,0,0.06172839506172839,39.38271604938271,0)" xlink:href="#K"/><use transform="matrix(0.06172839506172839,0,0,0.06172839506172839,45.55555555555555,0)" xlink:href="#T"/></g><linearGradient gradientUnits="userSpaceOnUse" id="D" x1="320.03" y1="199" x2="320.03" y2="84.97"><stop offset="0%" stop-color="#1988d9"/><stop offset="22%" stop-color="#218ddc"/><stop offset="56%" stop-color="#379ce5"/><stop offset="90%" stop-color="#54aef0"/></linearGradient><path fill="#3a414a" d="M197 0v-115H63V0H30v-248h33v105h134v-105h34V0h-34" id="aE"/><g id="E"><use transform="matrix(0.06172839506172839,0,0,0.06172839506172839,0,0)" xlink:href="#aE"/><use transform="matrix(0.06172839506172839,0,0,0.06172839506172839,15.987654320987653,0)" xlink:href="#I"/><use transform="matrix(0.06172839506172839,0,0,0.06172839506172839,28.333333333333332,0)" xlink:href="#W"/><use transform="matrix(0.06172839506172839,0,0,0.06172839506172839,40.67901234567901,0)" xlink:href="#G"/><use transform="matrix(0.06172839506172839,0,0,0.06172839506172839,45.55555555555556,0)" xlink:href="#K"/><use transform="matrix(0.06172839506172839,0,0,0.06172839506172839,51.7283950617284,0)" xlink:href="#Y"/></g></defs></g></svg>