<svg version="1.1" xmlns="http://www.w3.org/2000/svg" viewBox="0 0 1811.7729196958867 910.4207589285712" width="3623.5458393917734" height="1820.8415178571424" filter="invert(93%) hue-rotate(180deg)">
  <!-- svg-source:excalidraw -->
  
  <defs>
    <style class="style-fonts">
      @font-face {
        font-family: "Virgil";
        src: url("https://excalidraw.com/Virgil.woff2");
      }
      @font-face {
        font-family: "Cascadia";
        src: url("https://excalidraw.com/Cascadia.woff2");
      }
      @font-face {
        font-family: "Assistant";
        src: url("https://excalidraw.com/Assistant-Regular.woff2");
      }
    </style>
    
  </defs>
  <rect x="0" y="0" width="1811.7729196958867" height="910.4207589285712" fill="#fdf8f6"></rect><g stroke-linecap="round" transform="translate(1004.2673417127626 10) rotate(0 40.83203125 22)"><path d="M0 0 C24.07 -1.1, 45.3 2.71, 81.66 0 M0 0 C24.16 -1.55, 48.04 -1.48, 81.66 0 M81.66 0 C83.46 15.53, 83.26 31.21, 81.66 44 M81.66 0 C81.76 14.55, 80.99 29.06, 81.66 44 M81.66 44 C51.4 44.94, 17.32 42.78, 0 44 M81.66 44 C55.19 44.83, 30.02 44.42, 0 44 M0 44 C-1.78 30.78, -1.67 15.8, 0 0 M0 44 C0.01 34.79, 0.53 24.36, 0 0" stroke="#1e1e1e" stroke-width="2" fill="none"></path></g><g stroke-linecap="round" transform="translate(899.5720292127626 133) rotate(0 145.52734375 22)"><path d="M0 0 C60.21 3.49, 120.33 1.63, 291.05 0 M0 0 C110.33 1.36, 220.26 2.56, 291.05 0 M291.05 0 C292.64 13.61, 292.02 26.16, 291.05 44 M291.05 0 C290.29 11.36, 291.89 23.81, 291.05 44 M291.05 44 C213.72 44.69, 139.31 43.91, 0 44 M291.05 44 C186.45 44.74, 82.69 44.8, 0 44 M0 44 C-1.27 32.9, -1.17 26.44, 0 0 M0 44 C0.64 35.11, -0.9 27.03, 0 0" stroke="#1e1e1e" stroke-width="2" fill="none"></path></g><g stroke-linecap="round" transform="translate(959.3298417127626 256) rotate(0 219.33203125 22)"><path d="M0 0 C152.62 0.31, 304.4 0.54, 438.66 0 M0 0 C145.77 0.79, 291.14 0.74, 438.66 0 M438.66 0 C439.98 18.1, 437.16 32.79, 438.66 44 M438.66 0 C437.3 14.12, 437.67 27.46, 438.66 44 M438.66 44 C306.43 42, 175.13 41.09, 0 44 M438.66 44 C341.26 42.09, 244.01 41.76, 0 44 M0 44 C-1.24 35.35, 0.02 26.17, 0 0 M0 44 C-0.11 27.3, -1.07 12.56, 0 0" stroke="#1e1e1e" stroke-width="2" fill="none"></path></g><g stroke-linecap="round" transform="translate(281.21990867704835 468.5647321428571) rotate(0 149.58984375 22)"><path d="M0 0 C94.58 -0.51, 187.65 -0.8, 299.18 0 M0 0 C88.13 0.93, 174.76 0.76, 299.18 0 M299.18 0 C299.03 14.01, 299.94 30.07, 299.18 44 M299.18 0 C298.93 14.8, 298.03 28.66, 299.18 44 M299.18 44 C209.01 42.65, 119.65 42.28, 0 44 M299.18 44 C191.87 44.31, 85.63 43.48, 0 44 M0 44 C1.1 29.46, 1.83 13.31, 0 0 M0 44 C0.79 35.03, 0.86 25.63, 0 0" stroke="#1e1e1e" stroke-width="2" fill="none"></path></g><g stroke-linecap="round" transform="translate(818.5497077841909 529.0502232142858) rotate(0 136.8125 22)"><path d="M0 0 C91.62 -0.43, 184.3 -1.64, 273.63 0 M0 0 C76.86 -1.15, 154.82 -2.25, 273.63 0 M273.63 0 C274.84 9.35, 274.39 21.3, 273.63 44 M273.63 0 C272.72 12.08, 273.6 25.09, 273.63 44 M273.63 44 C215.32 45.33, 161 46.14, 0 44 M273.63 44 C193.55 45.01, 114.08 45.5, 0 44 M0 44 C1.64 27.69, -2.12 9.29, 0 0 M0 44 C0.3 30.22, -0.15 16.85, 0 0" stroke="#1e1e1e" stroke-width="2" fill="none"></path></g><g stroke-linecap="round" transform="translate(1513.6189042127626 502) rotate(0 95.015625 22)"><path d="M0 0 C56.81 3.12, 115.79 0.68, 190.03 0 M0 0 C66.05 1.86, 132.02 2.31, 190.03 0 M190.03 0 C190.08 9.08, 190.25 16.39, 190.03 44 M190.03 0 C189.09 8.54, 190.49 17.65, 190.03 44 M190.03 44 C128.8 43.79, 69.18 45.13, 0 44 M190.03 44 C142.82 44.87, 94.56 45.24, 0 44 M0 44 C0.61 31.23, 0.68 17.79, 0 0 M0 44 C0.22 31.1, -0.9 19.48, 0 0" stroke="#1e1e1e" stroke-width="2" fill="none"></path></g><g stroke-linecap="round" transform="translate(1419.2673417127626 625) rotate(0 189.3671875 22)"><path d="M0 0 C85.4 -2.36, 169.66 -1.13, 378.73 0 M0 0 C78.49 0.06, 157.59 -0.08, 378.73 0 M378.73 0 C378.77 8.92, 376.95 21.38, 378.73 44 M378.73 0 C378.79 8.56, 378.54 19.68, 378.73 44 M378.73 44 C238 42, 95.13 42.78, 0 44 M378.73 44 C259.64 45.9, 140.06 44.77, 0 44 M0 44 C0.22 35.58, -0.35 25.31, 0 0 M0 44 C-0.99 30.83, -0.16 16.65, 0 0" stroke="#1e1e1e" stroke-width="2" fill="none"></path></g><g mask="url(#mask-LHxtuOK4scV34gt5Nn1_l)" stroke-linecap="round"><g transform="translate(1045.0993729627626 54.5) rotate(0 0 39)"><path d="M-0.47 0.6 C-0.51 13.27, 0.77 63.98, 0.75 76.91 M1.49 -0.13 C1.27 12.57, 0.72 64.59, 0.2 77.87" stroke="#1e1e1e" stroke-width="2" fill="none"></path></g><g transform="translate(1045.0993729627626 54.5) rotate(0 0 39)"><path d="M-9.41 49.45 C-4.53 61.62, -3.67 70.34, 0.2 77.87 M-9.41 49.45 C-7.62 58.64, -4.24 67.11, 0.2 77.87" stroke="#1e1e1e" stroke-width="2" fill="none"></path></g><g transform="translate(1045.0993729627626 54.5) rotate(0 0 39)"><path d="M11.1 49.92 C8.13 61.83, 1.14 70.37, 0.2 77.87 M11.1 49.92 C6.49 59.08, 3.45 67.41, 0.2 77.87" stroke="#1e1e1e" stroke-width="2" fill="none"></path></g></g><mask id="mask-LHxtuOK4scV34gt5Nn1_l"><rect x="0" y="0" fill="#fff" width="1145.0993729627626" height="233.5"></rect><rect x="972.819435218622" y="81" fill="#000" width="144.55987548828125" height="25" opacity="1"></rect></mask><g mask="url(#mask-3ZoHuhz_pHyt3teMuzM9C)" stroke-linecap="round"><g transform="translate(899.5723729627625 165.435) rotate(0 -406.0710818569478 48.367054115934565)"><path d="M0.75 -1.09 C-125.15 7.34, -620.2 34.8, -755.88 51.22 C-891.56 67.64, -803.75 89.77, -813.31 97.43 M-0.31 0.95 C-126.37 9.55, -621.99 37.08, -757.11 52.84 C-892.23 68.59, -801.62 87.84, -811.04 95.45" stroke="#1e1e1e" stroke-width="2" fill="none"></path></g><g transform="translate(899.5723729627625 165.435) rotate(0 -406.0710818569478 48.367054115934565)"><path d="M-838.33 82.99 C-832.96 85.17, -823.76 87.37, -811.04 95.45 M-838.33 82.99 C-829.24 87.3, -818.91 91.84, -811.04 95.45" stroke="#1e1e1e" stroke-width="2" fill="none"></path></g><g transform="translate(899.5723729627625 165.435) rotate(0 -406.0710818569478 48.367054115934565)"><path d="M-823.93 68.36 C-822.25 74.45, -816.81 80.47, -811.04 95.45 M-823.93 68.36 C-820.13 77.96, -814.96 87.74, -811.04 95.45" stroke="#1e1e1e" stroke-width="2" fill="none"></path></g></g><mask id="mask-3ZoHuhz_pHyt3teMuzM9C"><rect x="0" y="0" fill="#fff" width="1811.714536676658" height="362.16910823186913"></rect><rect x="29.786459937860172" y="204" fill="#000" width="228.8998260498047" height="25" opacity="1"></rect></mask><g mask="url(#mask-vqocwyXqV6Vz3YESGRbgi)" stroke-linecap="round"><g transform="translate(153.38572163550486 326.6249999999999) rotate(0 -9.986587274295825 89.83370535714289)"><path d="M-0.54 0.15 C-4.19 30.4, -17.72 150.37, -21.15 180.36 M1.38 -0.81 C-1.99 29.18, -15.69 148.81, -19.05 178.61" stroke="#1e1e1e" stroke-width="2" fill="none"></path></g><g transform="translate(153.38572163550486 326.6249999999999) rotate(0 -9.986587274295825 89.83370535714289)"><path d="M-26.06 149.44 C-23.53 158.1, -20.08 168.77, -19.05 178.61 M-26.06 149.44 C-23.88 159.26, -22.42 168.14, -19.05 178.61" stroke="#1e1e1e" stroke-width="2" fill="none"></path></g><g transform="translate(153.38572163550486 326.6249999999999) rotate(0 -9.986587274295825 89.83370535714289)"><path d="M-5.67 151.75 C-10.52 159.48, -14.47 169.31, -19.05 178.61 M-5.67 151.75 C-10.32 160.79, -15.7 168.89, -19.05 178.61" stroke="#1e1e1e" stroke-width="2" fill="none"></path></g></g><mask id="mask-vqocwyXqV6Vz3YESGRbgi"><rect x="0" y="0" fill="#fff" width="273.3588961840965" height="606.2924107142857"></rect><rect x="45.01921340173638" y="403.9587053571428" fill="#000" width="196.7598419189453" height="25" opacity="1"></rect></mask><g mask="url(#mask-iWqjra3cf_ag-9oU_v_J3)" stroke-linecap="round"><g transform="translate(111.33634944951615 651.0089285714288) rotate(0 -1.476440391898958 57.62109374999994)"><path d="M-1.17 0.7 C-1.76 19.95, -3.66 96.59, -4.07 115.67 M0.41 0.01 C0.23 18.89, -1.09 94.37, -1.95 113.77" stroke="#1e1e1e" stroke-width="2" fill="none"></path></g><g transform="translate(111.33634944951615 651.0089285714288) rotate(0 -1.476440391898958 57.62109374999994)"><path d="M-11.39 85.3 C-7.79 90.78, -5.83 98.77, -1.95 113.77 M-11.39 85.3 C-9.51 92.8, -5.86 101.24, -1.95 113.77" stroke="#1e1e1e" stroke-width="2" fill="none"></path></g><g transform="translate(111.33634944951615 651.0089285714288) rotate(0 -1.476440391898958 57.62109374999994)"><path d="M9.12 85.89 C7.49 91.02, 4.23 98.86, -1.95 113.77 M9.12 85.89 C4.96 93.22, 2.58 101.49, -1.95 113.77" stroke="#1e1e1e" stroke-width="2" fill="none"></path></g></g><mask id="mask-iWqjra3cf_ag-9oU_v_J3"><rect x="0" y="0" fill="#fff" width="214.28923023331407" height="866.2511160714287"></rect><rect x="10.000000000000007" y="696.1300223214286" fill="#000" width="199.71981811523438" height="25" opacity="1"></rect></mask><g mask="url(#mask-j3kDtdLPQ9_9oxHv6oOr7)" stroke-linecap="round"><g transform="translate(1190.1263729627626 171.382) rotate(0 209.25400000000002 43.63545089285711)"><path d="M-1.12 0.43 C68.71 7.82, 359.66 30.57, 417.83 45.05 C475.99 59.53, 359.71 80.45, 347.87 87.31 M0.49 -0.39 C70.82 7.14, 362.42 31.72, 420.19 46.55 C477.95 61.39, 359.38 81.94, 347.1 88.64" stroke="#1e1e1e" stroke-width="2" fill="none"></path></g><g transform="translate(1190.1263729627626 171.382) rotate(0 209.25400000000002 43.63545089285711)"><path d="M371.35 70.99 C367.26 73.2, 361.53 77.89, 347.1 88.64 M371.35 70.99 C363.82 75.29, 355.57 80.69, 347.1 88.64" stroke="#1e1e1e" stroke-width="2" fill="none"></path></g><g transform="translate(1190.1263729627626 171.382) rotate(0 209.25400000000002 43.63545089285711)"><path d="M377.03 90.71 C371.67 88.88, 364.8 89.58, 347.1 88.64 M377.03 90.71 C367.96 88.99, 357.99 88.42, 347.1 88.64" stroke="#1e1e1e" stroke-width="2" fill="none"></path></g></g><mask id="mask-j3kDtdLPQ9_9oxHv6oOr7"><rect x="0" y="0" fill="#fff" width="1708.6343729627627" height="358.6529017857142"></rect><rect x="1477.594486488153" y="204" fill="#000" width="262.07977294921875" height="25" opacity="1"></rect></mask><g stroke-linecap="round"><g transform="translate(1464.704101098648 256.2570537982865) rotate(0 -142.41486406794263 -39.37852689914325)"><path d="M-0.68 -0.07 C-7.87 -6.76, 3.29 -26.43, -44.25 -39.72 C-91.79 -53.01, -245.81 -73.14, -285.91 -79.81 M1.17 -1.15 C-6.08 -7.67, 2.25 -25.18, -45.2 -38.17 C-92.66 -51.15, -243.68 -72.22, -283.58 -79.05" stroke="#1e1e1e" stroke-width="2" fill="none"></path></g><g transform="translate(1464.704101098648 256.2570537982865) rotate(0 -142.41486406794263 -39.37852689914325)"><path d="M-254.14 -84.84 C-260.32 -83.82, -266.23 -84.41, -283.58 -79.05 M-254.14 -84.84 C-261.31 -84.63, -266.15 -83.63, -283.58 -79.05" stroke="#1e1e1e" stroke-width="2" fill="none"></path></g><g transform="translate(1464.704101098648 256.2570537982865) rotate(0 -142.41486406794263 -39.37852689914325)"><path d="M-257.31 -64.56 C-262.9 -67.72, -268.16 -72.5, -283.58 -79.05 M-257.31 -64.56 C-263.8 -68.63, -267.97 -71.92, -283.58 -79.05" stroke="#1e1e1e" stroke-width="2" fill="none"></path></g></g><mask></mask><g mask="url(#mask-NQJQtKaNJ4WD1IauKW1an)" stroke-linecap="round"><g transform="translate(971.6203729627625 176.9140625) rotate(0 -65.96349999999995 46.95479910714283)"><path d="M-0.01 0.03 C-22.06 6.37, -111.11 22.46, -133 37.94 C-154.9 53.42, -131.47 83.74, -131.38 92.92 M-1.47 -0.99 C-23.11 5.46, -109.08 23.14, -130.86 38.92 C-152.64 54.71, -131.84 84.6, -132.16 93.71" stroke="#1e1e1e" stroke-width="2" fill="none"></path></g><g transform="translate(971.6203729627625 176.9140625) rotate(0 -65.96349999999995 46.95479910714283)"><path d="M-148.3 71.5 C-144.33 75.11, -142.22 82.27, -132.16 93.71 M-148.3 71.5 C-144.54 75.46, -141.28 81.84, -132.16 93.71" stroke="#1e1e1e" stroke-width="2" fill="none"></path></g><g transform="translate(971.6203729627625 176.9140625) rotate(0 -65.96349999999995 46.95479910714283)"><path d="M-130.25 66.32 C-130.67 71.19, -132.96 79.61, -132.16 93.71 M-130.25 66.32 C-130.45 71.26, -131.12 78.77, -132.16 93.71" stroke="#1e1e1e" stroke-width="2" fill="none"></path></g></g><mask id="mask-NQJQtKaNJ4WD1IauKW1an"><rect x="0" y="0" fill="#fff" width="1203.5473729627624" height="370.82366071428567"></rect><rect x="742.553442237665" y="190.9140625" fill="#000" width="194.2798614501953" height="50" opacity="1"></rect></mask><g mask="url(#mask-jDlc8p3vAIPZnKqaYBP_y)" stroke-linecap="round"><g transform="translate(1092.8773729627626 177.5) rotate(0 42.89250000000004 39)"><path d="M-1.08 -1.06 C13.22 5.27, 71.46 24.99, 85.76 38.01 C100.05 51.03, 84.58 70.6, 84.67 77.07 M0.56 1 C14.69 7.44, 70.39 26.21, 84.79 39.02 C99.2 51.84, 86.64 71.52, 86.98 77.9" stroke="#1e1e1e" stroke-width="2" fill="none"></path></g><g transform="translate(1092.8773729627626 177.5) rotate(0 42.89250000000004 39)"><path d="M84.75 58.52 C83.7 64.3, 84.48 68.34, 86.98 77.9 M84.75 58.52 C85.54 63.41, 86.55 67.08, 86.98 77.9" stroke="#1e1e1e" stroke-width="2" fill="none"></path></g><g transform="translate(1092.8773729627626 177.5) rotate(0 42.89250000000004 39)"><path d="M97.72 61.62 C92.79 66.35, 89.68 69.46, 86.98 77.9 M97.72 61.62 C95.62 65.68, 93.74 68.67, 86.98 77.9" stroke="#1e1e1e" stroke-width="2" fill="none"></path></g></g><mask id="mask-jDlc8p3vAIPZnKqaYBP_y"><rect x="0" y="0" fill="#fff" width="1278.6623729627627" height="356.5"></rect><rect x="1070.642460243036" y="204" fill="#000" width="216.03982543945312" height="25" opacity="1"></rect></mask><g mask="url(#mask-x6eWf_QLWlLlSaZjMHJZ9)" stroke-linecap="round"><g transform="translate(899.5723729627625 172.392) rotate(0 -195.8950838960541 42.33636607142856)"><path d="M-0.03 -0.99 C-64.08 6.38, -320.21 29.1, -385.41 43.18 C-450.61 57.25, -390.21 76.45, -391.23 83.48 M-1.5 1.1 C-65.11 8.69, -318.25 30.38, -383.28 44.22 C-448.32 58.07, -390.39 77.68, -391.7 84.16" stroke="#1e1e1e" stroke-width="2" fill="none"></path></g><g transform="translate(899.5723729627625 172.392) rotate(0 -195.8950838960541 42.33636607142856)"><path d="M-410.84 76.48 C-408.54 76.25, -404.42 80.65, -391.7 84.16 M-410.84 76.48 C-406.25 77.83, -403.96 80.1, -391.7 84.16" stroke="#1e1e1e" stroke-width="2" fill="none"></path></g><g transform="translate(899.5723729627625 172.392) rotate(0 -195.8950838960541 42.33636607142856)"><path d="M-401.42 65.97 C-401.19 67.95, -399.05 74.56, -391.7 84.16 M-401.42 65.97 C-398.7 69.48, -398.29 73.85, -391.7 84.16" stroke="#1e1e1e" stroke-width="2" fill="none"></path></g></g><mask id="mask-x6eWf_QLWlLlSaZjMHJZ9"><rect x="0" y="0" fill="#fff" width="1391.3625407548707" height="357.0647321428571"></rect><rect x="422.12145536022354" y="191.5" fill="#000" width="186.29983520507812" height="50" opacity="1"></rect></mask><g mask="url(#mask-1v3EzTL4IBFfGcZIAZmFK)" stroke-linecap="round"><g transform="translate(461.0510848636628 304.7890625) rotate(0 -17.87867661291233 76.82310267857144)"><path d="M-1.11 -0.93 C-5.91 5.11, -23.07 9.36, -28.8 35.24 C-34.53 61.11, -34.49 134.61, -35.5 154.33 M0.51 1.19 C-4.4 7.42, -23.35 10.96, -29.45 36.15 C-35.56 61.34, -35.35 132.6, -36.13 152.34" stroke="#1e1e1e" stroke-width="2" fill="none"></path></g><g transform="translate(461.0510848636628 304.7890625) rotate(0 -17.87867661291233 76.82310267857144)"><path d="M-45.77 123.93 C-44.69 133.41, -42.27 141.36, -36.13 152.34 M-45.77 123.93 C-42.93 134.72, -38.82 143.73, -36.13 152.34" stroke="#1e1e1e" stroke-width="2" fill="none"></path></g><g transform="translate(461.0510848636628 304.7890625) rotate(0 -17.87867661291233 76.82310267857144)"><path d="M-25.26 124.38 C-30.28 133.54, -33.96 141.35, -36.13 152.34 M-25.26 124.38 C-29.73 135, -32.94 143.84, -36.13 152.34" stroke="#1e1e1e" stroke-width="2" fill="none"></path></g></g><mask id="mask-1v3EzTL4IBFfGcZIAZmFK"><rect x="0" y="0" fill="#fff" width="596.8084380894875" height="558.4352678571429"></rect><rect x="360.81154388735797" y="328.7243303571429" fill="#000" width="141.75987243652344" height="25" opacity="1"></rect></mask><g stroke-linecap="round"><g transform="translate(1186.0192301056197 169.9672678571428) rotate(0 259.0924352678569 181.64540844803543)"><path d="M0.56 -1.2 C103.31 10.49, 631.5 8.45, 615.39 69.18 C599.29 129.92, 22.82 314.05, -96.07 363.2 M-0.6 0.79 C102.11 12.21, 630.54 6.8, 614.58 67.42 C598.62 128.03, 22.42 315.38, -96.37 364.47" stroke="#1e1e1e" stroke-width="2" fill="none"></path></g><g transform="translate(1186.0192301056197 169.9672678571428) rotate(0 259.0924352678569 181.64540844803543)"><path d="M-73.43 345.13 C-80.33 349.68, -81.96 354.73, -96.37 364.47 M-73.43 345.13 C-80.42 350.46, -86.49 356.74, -96.37 364.47" stroke="#1e1e1e" stroke-width="2" fill="none"></path></g><g transform="translate(1186.0192301056197 169.9672678571428) rotate(0 259.0924352678569 181.64540844803543)"><path d="M-66.37 364.4 C-74.59 364.98, -77.68 366.04, -96.37 364.47 M-66.37 364.4 C-75.27 364.14, -83.4 364.79, -96.37 364.47" stroke="#1e1e1e" stroke-width="2" fill="none"></path></g></g><mask></mask><g mask="url(#mask-CyqztBnUxBJ1lY1eKOR9t)" stroke-linecap="round"><g transform="translate(1097.5196461924793 579.0658482142858) rotate(0 15.404301566746483 82.9287852494125)"><path d="M0.26 0.68 C17.95 18.91, 119.41 80.54, 106.71 108.2 C94 135.86, -45.67 157.12, -75.98 166.64 M-1.07 -0.01 C16.49 18.53, 118.31 82.23, 106.22 109.68 C94.14 137.14, -43.39 155.3, -73.59 164.7" stroke="#1e1e1e" stroke-width="2" fill="none"></path></g><g transform="translate(1097.5196461924793 579.0658482142858) rotate(0 15.404301566746483 82.9287852494125)"><path d="M-48.22 148.69 C-56.04 155.77, -66.13 158.24, -73.59 164.7 M-48.22 148.69 C-56.99 154.56, -66.01 160.84, -73.59 164.7" stroke="#1e1e1e" stroke-width="2" fill="none"></path></g><g transform="translate(1097.5196461924793 579.0658482142858) rotate(0 15.404301566746483 82.9287852494125)"><path d="M-43.87 168.74 C-53 168.88, -64.59 164.4, -73.59 164.7 M-43.87 168.74 C-54.2 167.28, -64.81 166.24, -73.59 164.7" stroke="#1e1e1e" stroke-width="2" fill="none"></path></g></g><mask id="mask-CyqztBnUxBJ1lY1eKOR9t"><rect x="0" y="0" fill="#fff" width="1378.3579965995532" height="844.9234187131108"></rect><rect x="1130.1531968153017" y="674.8549107142858" fill="#000" width="146.37985229492188" height="25" opacity="1"></rect></mask><g stroke-linecap="round"><g transform="translate(947.2771073377631 779.7314893689583) rotate(0 -97.62129575892891 -98.18438307733624)"><path d="M0.88 -0.09 C-31.86 -21.88, -173.93 -97.21, -196.21 -130.01 C-218.49 -162.82, -143.5 -185.91, -132.8 -196.94 M-0.11 -1.19 C-32.51 -23.37, -171.75 -99.27, -194 -131.73 C-216.26 -164.18, -144.07 -185.38, -133.65 -195.92" stroke="#1e1e1e" stroke-width="2" fill="none"></path></g><g transform="translate(947.2771073377631 779.7314893689583) rotate(0 -97.62129575892891 -98.18438307733624)"><path d="M-153.11 -173.09 C-147.14 -182.18, -139.44 -188.18, -133.65 -195.92 M-153.11 -173.09 C-147.57 -178.3, -142.96 -183.7, -133.65 -195.92" stroke="#1e1e1e" stroke-width="2" fill="none"></path></g><g transform="translate(947.2771073377631 779.7314893689583) rotate(0 -97.62129575892891 -98.18438307733624)"><path d="M-163.24 -190.94 C-153.91 -194.37, -142.95 -194.63, -133.65 -195.92 M-163.24 -190.94 C-155.05 -191.66, -147.88 -192.55, -133.65 -195.92" stroke="#1e1e1e" stroke-width="2" fill="none"></path></g></g><mask></mask><g mask="url(#mask-q3mTqW3HJGze2yiK4Ya94)" stroke-linecap="round"><g transform="translate(1093.174707784191 532.3699265797985) rotate(0 257.7298325892858 -34.93496328989926)"><path d="M-0.97 0.78 C84.77 -10.95, 429.13 -65.2, 515.3 -70.44 C601.47 -75.69, 515.89 -37.4, 516.07 -30.69 M0.73 0.14 C86.22 -11.42, 428.45 -64.3, 514.27 -69.2 C600.08 -74.11, 515.15 -35.42, 515.62 -29.27" stroke="#1e1e1e" stroke-width="2" fill="none"></path></g><g transform="translate(1093.174707784191 532.3699265797985) rotate(0 257.7298325892858 -34.93496328989926)"><path d="M525.97 -45.8 C523.36 -39.97, 517.3 -32.55, 515.62 -29.27 M525.97 -45.8 C523.27 -39.61, 519.66 -36.23, 515.62 -29.27" stroke="#1e1e1e" stroke-width="2" fill="none"></path></g><g transform="translate(1093.174707784191 532.3699265797985) rotate(0 257.7298325892858 -34.93496328989926)"><path d="M534.17 -35.28 C528.5 -33.45, 519.38 -29.95, 515.62 -29.27 M534.17 -35.28 C528.81 -32.36, 522.61 -32.29, 515.62 -29.27" stroke="#1e1e1e" stroke-width="2" fill="none"></path></g></g><mask id="mask-q3mTqW3HJGze2yiK4Ya94"><rect x="0" y="0" fill="#fff" width="1708.6343729627627" height="702.239853159597"></rect><rect x="1539.2744410169616" y="450" fill="#000" width="138.71986389160156" height="25" opacity="1"></rect></mask><g mask="url(#mask-ccvfEfs6UyTm8D6E5Uuh5)" stroke-linecap="round"><g transform="translate(1608.6343729627627 546.5) rotate(0 0 39)"><path d="M-0.16 -0.57 C0.1 12.33, 0.43 64.97, 0.61 78.18 M-1.71 1.74 C-1.46 14.8, -0.4 67.32, -0.02 79.81" stroke="#1e1e1e" stroke-width="2" fill="none"></path></g><g transform="translate(1608.6343729627627 546.5) rotate(0 0 39)"><path d="M-10.97 51.88 C-9.34 59.05, -5.68 65.66, -0.02 79.81 M-10.97 51.88 C-6.83 60.86, -3.86 71.9, -0.02 79.81" stroke="#1e1e1e" stroke-width="2" fill="none"></path></g><g transform="translate(1608.6343729627627 546.5) rotate(0 0 39)"><path d="M9.55 51.38 C6.68 58.63, 5.83 65.35, -0.02 79.81 M9.55 51.38 C6.33 60.73, 1.95 71.95, -0.02 79.81" stroke="#1e1e1e" stroke-width="2" fill="none"></path></g></g><mask id="mask-ccvfEfs6UyTm8D6E5Uuh5"><rect x="0" y="0" fill="#fff" width="1708.6343729627627" height="725.5"></rect><rect x="1515.9644434583681" y="573" fill="#000" width="185.33985900878906" height="25" opacity="1"></rect></mask><g stroke-linecap="round"><g transform="translate(1430.539222825809 343.3102678571429) rotate(0 -200.62576120994459 90.81863839285717)"><path d="M0.61 0.18 C-66.09 30.67, -333.47 151.91, -400.36 182.34 M-0.53 -0.77 C-67.3 29.42, -334.05 150.28, -400.83 180.58" stroke="#1e1e1e" stroke-width="2" fill="none"></path></g><g transform="translate(1430.539222825809 343.3102678571429) rotate(0 -200.62576120994459 90.81863839285717)"><path d="M-379.39 159.6 C-385.33 167.22, -390.61 172.63, -400.83 180.58 M-379.39 159.6 C-388.71 167.78, -395.9 176.11, -400.83 180.58" stroke="#1e1e1e" stroke-width="2" fill="none"></path></g><g transform="translate(1430.539222825809 343.3102678571429) rotate(0 -200.62576120994459 90.81863839285717)"><path d="M-370.92 178.29 C-379.2 180.59, -386.9 180.65, -400.83 180.58 M-370.92 178.29 C-383.6 179.02, -394.13 179.96, -400.83 180.58" stroke="#1e1e1e" stroke-width="2" fill="none"></path></g></g><mask></mask><g stroke-linecap="round"><g transform="translate(573.1664665732063 303.0647321428571) rotate(0 176.31754634258436 112.49274553571433)"><path d="M0.9 0.7 C19.27 6.93, 52.2 0.38, 110.84 37.57 C169.48 74.77, 312.62 192.61, 352.74 223.87 M-0.09 0.02 C18.12 5.93, 51.49 -1.38, 110.18 36.05 C168.87 73.48, 311.84 192.9, 352.03 224.6" stroke="#1e1e1e" stroke-width="2" fill="none"></path></g><g transform="translate(573.1664665732063 303.0647321428571) rotate(0 176.31754634258436 112.49274553571433)"><path d="M323.66 214.84 C334.79 218.95, 345.47 221.65, 352.03 224.6 M323.66 214.84 C329.85 216.97, 335.8 218.7, 352.03 224.6" stroke="#1e1e1e" stroke-width="2" fill="none"></path></g><g transform="translate(573.1664665732063 303.0647321428571) rotate(0 176.31754634258436 112.49274553571433)"><path d="M336.57 198.89 C343.2 208.69, 349.35 216.99, 352.03 224.6 M336.57 198.89 C339.95 204.33, 343.23 209.37, 352.03 224.6" stroke="#1e1e1e" stroke-width="2" fill="none"></path></g></g><mask></mask><g transform="translate(1018.0494004285829 19.5) rotate(0 27.049972534179688 12.5)"><text x="27.049972534179688" y="0" font-family="Virgil, Segoe UI Emoji" font-size="20px" fill="#1e1e1e" text-anchor="middle" style="white-space: pre;" direction="ltr" dominant-baseline="text-before-edge">Client</text></g><g transform="translate(926.5494690931337 142.5) rotate(0 118.5499038696289 12.5)"><text x="118.5499038696289" y="0" font-family="Virgil, Segoe UI Emoji" font-size="20px" fill="#1e1e1e" text-anchor="middle" style="white-space: pre;" direction="ltr" dominant-baseline="text-before-edge">Rate Limiter Middleware</text></g><g transform="translate(977.4520340955751 265.5) rotate(0 201.2098388671875 12.5)"><text x="201.2098388671875" y="0" font-family="Virgil, Segoe UI Emoji" font-size="20px" fill="#1e1e1e" text-anchor="middle" style="white-space: pre;" direction="ltr" dominant-baseline="text-before-edge">429 Too Many Requests Error to Client</text></g><g transform="translate(300.10984703154054 478.0647321428571) rotate(0 130.6999053955078 12.5)"><text x="130.6999053955078" y="0" font-family="Virgil, Segoe UI Emoji" font-size="20px" fill="#1e1e1e" text-anchor="middle" style="white-space: pre;" direction="ltr" dominant-baseline="text-before-edge">Data Analysis/Retry Logic</text></g><g transform="translate(847.4922965903432 538.5502232142858) rotate(0 107.86991119384766 12.5)"><text x="107.86991119384766" y="0" font-family="Virgil, Segoe UI Emoji" font-size="20px" fill="#1e1e1e" text-anchor="middle" style="white-space: pre;" direction="ltr" dominant-baseline="text-before-edge">Logging and Monitoring</text></g><g transform="translate(1533.5046006238954 511.5) rotate(0 75.12992858886719 12.5)"><text x="75.12992858886719" y="0" font-family="Virgil, Segoe UI Emoji" font-size="20px" fill="#1e1e1e" text-anchor="middle" style="white-space: pre;" direction="ltr" dominant-baseline="text-before-edge">Alerting System</text></g><g transform="translate(1448.5246659315126 634.5) rotate(0 160.10986328125 12.5)"><text x="160.10986328125" y="0" font-family="Virgil, Segoe UI Emoji" font-size="20px" fill="#1e1e1e" text-anchor="middle" style="white-space: pre;" direction="ltr" dominant-baseline="text-before-edge">Dashboard for Health Monitoring</text></g><g transform="translate(972.819435218622 81) rotate(0 72.78919164889305 12.368207113994288)"><text x="72.27993774414062" y="0" font-family="Virgil, Segoe UI Emoji" font-size="20px" fill="#1e1e1e" text-anchor="middle" style="white-space: pre;" direction="ltr" dominant-baseline="text-before-edge">Sends Request</text></g><g transform="translate(29.786459937860172 204) rotate(0 453.90470604816886 9.602463660938938)"><text x="114.44991302490234" y="0" font-family="Virgil, Segoe UI Emoji" font-size="20px" fill="#1e1e1e" text-anchor="middle" style="white-space: pre;" direction="ltr" dominant-baseline="text-before-edge">Load Rules from Cache</text></g><g transform="translate(45.01921340173638 403.9587053571428) rotate(0 98.48105872678106 12.44116574337238)"><text x="98.37992095947266" y="0" font-family="Virgil, Segoe UI Emoji" font-size="20px" fill="#1e1e1e" text-anchor="middle" style="white-space: pre;" direction="ltr" dominant-baseline="text-before-edge">Updated by Workers</text></g><g transform="translate(10 696.1300223214287) rotate(0 99.50596075403038 12.721437561414234)"><text x="99.85990905761719" y="0" font-family="Virgil, Segoe UI Emoji" font-size="20px" fill="#1e1e1e" text-anchor="middle" style="white-space: pre;" direction="ltr" dominant-baseline="text-before-edge">Pull Rules from Disk</text></g><g transform="translate(1477.5944864881533 204) rotate(0 -70.04849224308032 11.506353548501465)"><text x="131.03988647460938" y="0" font-family="Virgil, Segoe UI Emoji" font-size="20px" fill="#1e1e1e" text-anchor="middle" style="white-space: pre;" direction="ltr" dominant-baseline="text-before-edge">Fetch Counters/Timestamp</text></g><g transform="translate(742.553442237665 190.9140625) rotate(0 157.88791748696724 32.359972197643586)"><text x="97.13993072509766" y="0" font-family="Virgil, Segoe UI Emoji" font-size="20px" fill="#1e1e1e" text-anchor="middle" style="white-space: pre;" direction="ltr" dominant-baseline="text-before-edge">Request Not Rate </text><text x="97.13993072509766" y="25" font-family="Virgil, Segoe UI Emoji" font-size="20px" fill="#1e1e1e" text-anchor="middle" style="white-space: pre;" direction="ltr" dominant-baseline="text-before-edge">Limited</text></g><g transform="translate(1070.642460243036 204) rotate(0 67.6053761865357 11.918879581890067)"><text x="108.01991271972656" y="0" font-family="Virgil, Segoe UI Emoji" font-size="20px" fill="#1e1e1e" text-anchor="middle" style="white-space: pre;" direction="ltr" dominant-baseline="text-before-edge">Request Rate Limited</text></g><g transform="translate(422.12145536022354 191.5) rotate(0 269.570224049431 22.477723522233234)"><text x="93.14991760253906" y="0" font-family="Virgil, Segoe UI Emoji" font-size="20px" fill="#1e1e1e" text-anchor="middle" style="white-space: pre;" direction="ltr" dominant-baseline="text-before-edge">Request </text><text x="93.14991760253906" y="25" font-family="Virgil, Segoe UI Emoji" font-size="20px" fill="#1e1e1e" text-anchor="middle" style="white-space: pre;" direction="ltr" dominant-baseline="text-before-edge">Dropped/Forwarded</text></g><g transform="translate(360.81154388735797 328.7243303571429) rotate(0 82.42682827276707 52.761885952736634)"><text x="70.87993621826172" y="0" font-family="Virgil, Segoe UI Emoji" font-size="20px" fill="#1e1e1e" text-anchor="middle" style="white-space: pre;" direction="ltr" dominant-baseline="text-before-edge">Process Later</text></g><g transform="translate(1130.1531968153017 674.8549107142858) rotate(0 -16.721148937965893 -12.474950881876566)"><text x="73.18992614746094" y="0" font-family="Virgil, Segoe UI Emoji" font-size="20px" fill="#1e1e1e" text-anchor="middle" style="white-space: pre;" direction="ltr" dominant-baseline="text-before-edge">Stores Metrics</text></g><g transform="translate(1539.2744410169619 450) rotate(0 -169.7031833368619 47.29257453059773)"><text x="69.35993194580078" y="0" font-family="Virgil, Segoe UI Emoji" font-size="20px" fill="#1e1e1e" text-anchor="middle" style="white-space: pre;" direction="ltr" dominant-baseline="text-before-edge">Trigger Alerts</text></g><g transform="translate(1515.9644434583681 573) rotate(0 92.1215866594249 13.121800152114588)"><text x="92.66992950439453" y="0" font-family="Virgil, Segoe UI Emoji" font-size="20px" fill="#1e1e1e" text-anchor="middle" style="white-space: pre;" direction="ltr" dominant-baseline="text-before-edge">Update Dashboard</text></g><g stroke-linecap="round"><g transform="translate(946.0045391287746 745.7583088296873) rotate(0 37.77819073584351 41.029010110029446)" fill-rule="evenodd"><path d="M-1.71 1.66 C-1.9 13.47, -0.67 58.7, -0.69 72.18 C-0.7 85.66, -2.48 80.3, -1.79 82.53 C-1.1 84.76, 0.28 84.89, 3.46 85.57 C6.64 86.25, 11.57 85.86, 17.31 86.6 C23.04 87.35, 30.11 89.86, 37.86 90.03 C45.61 90.2, 57.57 88.72, 63.79 87.64 C70.01 86.56, 73.26 84.48, 75.17 83.55 C77.07 82.62, 75.5 83.59, 75.22 82.06 C74.94 80.52, 73.7 86.83, 73.49 74.33 C73.29 61.84, 73.56 19.48, 73.99 7.1 C74.43 -5.29, 76.76 1.9, 76.11 0.04 C75.47 -1.81, 73.03 -2.88, 70.12 -4.02 C67.21 -5.17, 64.36 -6.4, 58.66 -6.83 C52.95 -7.26, 42.53 -6.36, 35.9 -6.62 C29.28 -6.88, 24.4 -8.67, 18.89 -8.4 C13.37 -8.12, 5.75 -6.3, 2.81 -4.98 C-0.14 -3.66, 1.37 -1.07, 1.21 -0.47 C1.06 0.13, 1.94 -1.34, 1.89 -1.37" stroke="none" stroke-width="0" fill="#ced4da" fill-rule="evenodd"></path><path d="M-0.45 -0.58 C-0.26 11.46, 0.94 59.15, 1.02 73.02 C1.1 86.9, -0.49 80.49, 0.01 82.67 C0.51 84.85, 1.06 85.02, 4.02 86.08 C6.98 87.14, 11.64 88.49, 17.78 89.03 C23.93 89.56, 33.34 89.33, 40.9 89.29 C48.46 89.25, 57.83 89.66, 63.16 88.79 C68.5 87.91, 71.02 85.07, 72.89 84.02 C74.77 82.98, 74.16 84.06, 74.43 82.52 C74.7 80.97, 74.33 87.36, 74.51 74.77 C74.69 62.18, 75.5 19.3, 75.52 6.95 C75.54 -5.4, 75.66 2.63, 74.64 0.65 C73.62 -1.34, 71.81 -3.75, 69.38 -4.96 C66.95 -6.16, 65.48 -5.97, 60.04 -6.59 C54.61 -7.21, 43.69 -8.55, 36.78 -8.66 C29.86 -8.76, 23.98 -8.13, 18.53 -7.25 C13.08 -6.36, 7.1 -4.57, 4.06 -3.35 C1.01 -2.12, 0.85 -0.34, 0.27 0.11 C-0.31 0.56, 0.63 -0.67, 0.58 -0.65 M1.51 1.73 C1.63 13.84, 0.85 61.01, 0.47 74.16 C0.1 87.3, -1.39 78.39, -0.75 80.58 C-0.11 82.78, 1.46 85.83, 4.34 87.32 C7.21 88.8, 10.73 88.78, 16.5 89.49 C22.28 90.21, 31.61 91.92, 38.98 91.62 C46.34 91.32, 54.67 89.07, 60.69 87.69 C66.71 86.31, 72.55 84.36, 75.09 83.34 C77.63 82.33, 75.99 83.13, 75.93 81.62 C75.87 80.11, 74.71 87.12, 74.7 74.29 C74.7 61.47, 75.56 16.94, 75.89 4.67 C76.22 -7.59, 77.81 1.94, 76.69 0.72 C75.58 -0.51, 72.09 -1.36, 69.2 -2.66 C66.32 -3.96, 64.74 -6.52, 59.4 -7.08 C54.06 -7.64, 44.38 -6.15, 37.19 -6.01 C29.99 -5.87, 21.87 -6.82, 16.22 -6.26 C10.56 -5.71, 6.08 -3.83, 3.23 -2.7 C0.39 -1.56, -0.23 0.24, -0.85 0.56 C-1.48 0.89, -0.71 -0.41, -0.5 -0.73" stroke="#000000" stroke-width="1" fill="none"></path></g></g><mask></mask><g stroke-linecap="round" transform="translate(945.9883029498882 737.0312714604988) rotate(0 37.57650973279743 7.599566393767873)"><path d="M29.75 0.4 C37.15 0.02, 48.01 0.19, 55.11 0.86 C62.2 1.54, 69.3 2.97, 72.32 4.46 C75.34 5.94, 75.61 8.14, 73.21 9.76 C70.81 11.39, 64.73 13.34, 57.9 14.22 C51.07 15.1, 40.29 15.25, 32.21 15.04 C24.13 14.84, 14.79 14.1, 9.42 12.97 C4.04 11.85, 0.25 9.93, -0.06 8.29 C-0.37 6.65, 2.38 4.49, 7.56 3.14 C12.74 1.79, 26.8 0.71, 31 0.2 C35.21 -0.31, 32.72 -0.11, 32.81 0.07 M34.99 -0.69 C42.59 -0.72, 52.5 0.72, 58.88 1.84 C65.25 2.97, 71.21 4.57, 73.26 6.06 C75.3 7.54, 74.43 9.31, 71.15 10.75 C67.88 12.2, 60.9 13.99, 53.61 14.75 C46.31 15.52, 35.2 15.74, 27.37 15.33 C19.55 14.92, 11.26 13.71, 6.66 12.3 C2.05 10.88, -1.09 8.45, -0.28 6.86 C0.54 5.28, 5.73 4.01, 11.52 2.78 C17.31 1.56, 30.58 -0.14, 34.45 -0.47 C38.31 -0.8, 34.75 0.64, 34.72 0.82" stroke="none" stroke-width="0" fill="#fff"></path><path d="M37.7 0.15 C45.33 0.09, 55.69 0.94, 61.8 2.04 C67.91 3.13, 72.94 5.21, 74.35 6.72 C75.77 8.22, 74.34 9.78, 70.31 11.05 C66.27 12.33, 57.68 13.81, 50.15 14.35 C42.61 14.89, 32.62 14.77, 25.1 14.29 C17.58 13.8, 9.04 12.8, 5.01 11.44 C0.97 10.08, -0.58 7.79, 0.89 6.12 C2.36 4.46, 7.6 2.47, 13.83 1.45 C20.05 0.44, 33.96 0.26, 38.23 0.05 C42.5 -0.15, 39.46 0.07, 39.45 0.23 M33.74 0.14 C41.27 -0.17, 52.22 -0.03, 58.87 0.88 C65.52 1.8, 71.43 3.95, 73.63 5.65 C75.83 7.35, 75.42 9.54, 72.08 11.08 C68.74 12.63, 60.91 14.36, 53.61 14.93 C46.32 15.5, 36.12 14.94, 28.29 14.49 C20.47 14.03, 11.41 13.43, 6.68 12.19 C1.96 10.94, -0.68 8.77, -0.05 7.02 C0.58 5.26, 4.97 2.79, 10.44 1.64 C15.92 0.48, 28.86 0.38, 32.81 0.1 C36.76 -0.17, 33.88 -0.07, 34.14 -0.01" stroke="#000000" stroke-width="1" fill="none"></path></g><g stroke-linecap="round" transform="translate(962.9713087880631 767.2227912830335) rotate(0 2.1769475217949434 24.490659620192844)"><path d="M-0.06 0.19 L3.49 -0.2 L3.77 49.35 L0.45 49.12" stroke="none" stroke-width="0" fill="#868e96"></path><path d="M0 0 C1.67 0.02, 3.22 0.07, 4.35 0 M0 0 C1.45 0.05, 2.64 -0.05, 4.35 0 M4.35 0 C4.5 10.96, 5.18 21.45, 4.35 48.98 M4.35 0 C4.24 18.3, 4.26 36.71, 4.35 48.98 M4.35 48.98 C2.8 49.05, 1.34 49.1, 0 48.98 M4.35 48.98 C3.3 49.05, 2.13 49.06, 0 48.98 M0 48.98 C0.3 35.98, 0.06 23.29, 0 0 M0 48.98 C0.58 38.71, 0.54 28.5, 0 0" stroke="#000000" stroke-width="1" fill="none"></path></g><g stroke-linecap="round" transform="translate(972.5861603426569 767.5251451055062) rotate(0 2.1769475217949434 24.490659620192844)"><path d="M-0.86 -0.2 L3.77 0.37 L4.8 49.12 L-0.01 48.94" stroke="none" stroke-width="0" fill="#868e96"></path><path d="M0 0 C1.35 0.06, 2.64 0.11, 4.35 0 M0 0 C1.03 -0.07, 2.13 0.08, 4.35 0 M4.35 0 C4.98 9.94, 5.13 19.85, 4.35 48.98 M4.35 0 C4.44 10.1, 4.63 20.71, 4.35 48.98 M4.35 48.98 C2.78 49.09, 1.03 48.97, 0 48.98 M4.35 48.98 C2.87 49.07, 1.51 48.92, 0 48.98 M0 48.98 C-0.13 37.85, -0.97 25.82, 0 0 M0 48.98 C0.13 33.68, -0.2 18.94, 0 0" stroke="#000000" stroke-width="1" fill="none"></path></g><g stroke-linecap="round" transform="translate(981.717245781298 767.2227912830335) rotate(0 2.1769475217949434 24.490659620192844)"><path d="M-0.58 0.37 L4.8 0.14 L4.34 48.94 L-0.52 48.65" stroke="none" stroke-width="0" fill="#868e96"></path><path d="M0 0 C1.38 0.11, 2.6 0.18, 4.35 0 M0 0 C1.39 0.1, 2.86 0.01, 4.35 0 M4.35 0 C5.29 14.46, 3.64 30.3, 4.35 48.98 M4.35 0 C4.63 12.15, 4.73 24.65, 4.35 48.98 M4.35 48.98 C2.82 48.98, 1.57 49.03, 0 48.98 M4.35 48.98 C2.77 48.92, 1.18 49.01, 0 48.98 M0 48.98 C-0.91 34.17, 0.1 22.01, 0 0 M0 48.98 C-0.17 35.73, -0.57 22.19, 0 0" stroke="#000000" stroke-width="1" fill="none"></path></g><g stroke-linecap="round" transform="translate(990.7878604554429 767.5251451055062) rotate(0 2.1769475217949434 24.490659620192844)"><path d="M0.45 0.14 L4.34 -0.04 L3.84 48.65 L-0.29 49.46" stroke="none" stroke-width="0" fill="#868e96"></path><path d="M0 0 C1.34 0.18, 2.96 -0.16, 4.35 0 M0 0 C0.98 -0.02, 2.16 0.05, 4.35 0 M4.35 0 C3.68 13.28, 4.07 26.49, 4.35 48.98 M4.35 0 C4.82 11.05, 4.6 22.33, 4.35 48.98 M4.35 48.98 C2.89 49.02, 1.44 48.83, 0 48.98 M4.35 48.98 C2.67 48.98, 1.13 48.96, 0 48.98 M0 48.98 C0.31 35.2, -0.05 20.64, 0 0 M0 48.98 C-0.41 36.4, -0.28 24.21, 0 0" stroke="#000000" stroke-width="1" fill="none"></path></g><g stroke-linecap="round" transform="translate(999.8584751295869 767.4042035765162) rotate(0 2.1769475217949434 24.490659620192844)"><path d="M-0.01 -0.04 L3.84 -0.33 L4.06 49.46 L0.39 48.3" stroke="none" stroke-width="0" fill="#868e96"></path><path d="M0 0 C1.62 -0.17, 2.94 -0.19, 4.35 0 M0 0 C1.65 0.07, 3.26 0.09, 4.35 0 M4.35 0 C3.67 11.67, 3.42 23.58, 4.35 48.98 M4.35 0 C4.65 12.66, 4.76 24.91, 4.35 48.98 M4.35 48.98 C3.19 48.83, 1.94 48.9, 0 48.98 M4.35 48.98 C3.31 48.97, 2.31 48.88, 0 48.98 M0 48.98 C-0.29 39.72, -0.47 29.22, 0 0 M0 48.98 C-0.08 33.52, 0.44 17.76, 0 0" stroke="#000000" stroke-width="1" fill="none"></path></g><g transform="translate(953.4922617131115 843.4453125000002) rotate(0 29.189979553222656 12.5)"><text x="29.189979553222656" y="0" font-family="Virgil, Segoe UI Emoji" font-size="20px" fill="#1e1e1e" text-anchor="middle" style="white-space: pre;" direction="ltr" dominant-baseline="text-before-edge">TSDB</text></g><g stroke-linecap="round" transform="translate(82.19786039292939 274.1890819620466) rotate(0 66.79576480197647 48.91459767578368)"><path d="M24.46 0 C55.12 1.48, 81.92 0.1, 109.13 0 C127.16 -2.45, 135.45 6.86, 133.59 24.46 C134.29 37.79, 134.39 48.64, 133.59 73.37 C131.52 86.59, 125.78 99.08, 109.13 97.83 C81.55 101.2, 57.47 96.04, 24.46 97.83 C10.89 94.28, -2.68 88.42, 0 73.37 C-2.68 63.64, 1.53 49.84, 0 24.46 C-1.22 11.26, 10.57 1.96, 24.46 0" stroke="none" stroke-width="0" fill="#eeeeee"></path><path d="M24.46 0 C51.28 0.65, 81.64 1.3, 109.13 0 M24.46 0 C48.35 0.35, 71.37 0.33, 109.13 0 M109.13 0 C126.4 0.18, 134.19 7.35, 133.59 24.46 M109.13 0 C126.72 1.28, 132.7 6.2, 133.59 24.46 M133.59 24.46 C134.77 42.41, 132.74 57.33, 133.59 73.37 M133.59 24.46 C134.19 37.13, 133.41 48.95, 133.59 73.37 M133.59 73.37 C132.38 89.28, 126.47 99.24, 109.13 97.83 M133.59 73.37 C135.54 88.65, 127.16 97.78, 109.13 97.83 M109.13 97.83 C90.86 99.89, 72.29 99.31, 24.46 97.83 M109.13 97.83 C87.86 97.76, 66.4 98.21, 24.46 97.83 M24.46 97.83 C7.7 99.09, -1.77 87.72, 0 73.37 M24.46 97.83 C6.48 99.74, -0.05 89.1, 0 73.37 M0 73.37 C-1.13 60.25, -0.56 48.3, 0 24.46 M0 73.37 C-0.45 60.97, -0.07 47.11, 0 24.46 M0 24.46 C0.74 9.34, 7.41 -0.58, 24.46 0 M0 24.46 C-1.69 7.19, 7.59 1.35, 24.46 0" stroke="#000000" stroke-width="1" fill="none"></path></g><g stroke-linecap="round" transform="translate(90.76899835424746 281.8735504790879) rotate(0 13.891154626959665 5.46779490635646)"><path d="M-0.23 0.63 L26.9 -0.98 L27.06 11.77 L-0.02 10.69" stroke="none" stroke-width="0" fill="#868e96"></path><path d="M0 0 C6.61 0.28, 11.36 -0.6, 27.78 0 M0 0 C7.82 0.02, 15.05 0.04, 27.78 0 M27.78 0 C28.06 3.4, 27.3 7.4, 27.78 10.94 M27.78 0 C28.03 2.54, 27.85 5.12, 27.78 10.94 M27.78 10.94 C16.86 10.31, 5.09 10.35, 0 10.94 M27.78 10.94 C20.43 10.81, 12.6 11.02, 0 10.94 M0 10.94 C0.13 9.06, 0.14 6.5, 0 0 M0 10.94 C-0.02 8.04, -0.06 5.41, 0 0" stroke="#000000" stroke-width="1" fill="none"></path></g><g stroke-linecap="round" transform="translate(134.9842479753749 281.4195152340817) rotate(0 36.64900369665961 5.911129628493484)"><path d="M2.96 0 C26.97 -1.76, 49.83 -0.93, 70.34 0 C70.51 -1.68, 71.99 1.9, 73.3 2.96 C72.89 4.41, 73.4 7.44, 73.3 8.87 C73.23 8.46, 72.37 10.1, 70.34 11.82 C45.87 8.82, 15.5 10.47, 2.96 11.82 C-1.23 13.88, -1.2 9.41, 0 8.87 C-0.31 7.63, 0.47 5.48, 0 2.96 C2.24 -1.13, 3.42 1.18, 2.96 0" stroke="none" stroke-width="0" fill="#ced4da"></path><path d="M2.96 0 C22.49 -0.7, 42.25 0.77, 70.34 0 M2.96 0 C23.82 0.03, 44.36 -0.22, 70.34 0 M70.34 0 C72.87 0.56, 72.91 0.14, 73.3 2.96 M70.34 0 C72.69 -0.7, 73.78 1.84, 73.3 2.96 M73.3 2.96 C73.16 5.51, 73.25 7.53, 73.3 8.87 M73.3 2.96 C73.19 4.74, 73.36 6.68, 73.3 8.87 M73.3 8.87 C74.15 10.39, 73.06 11.8, 70.34 11.82 M73.3 8.87 C72.37 10.03, 72.49 12.01, 70.34 11.82 M70.34 11.82 C43.17 12.52, 17.5 12.08, 2.96 11.82 M70.34 11.82 C53.62 12.11, 36.69 11.31, 2.96 11.82 M2.96 11.82 C0.26 12.65, -0.02 10.59, 0 8.87 M2.96 11.82 C0.64 10.73, 0.04 9.92, 0 8.87 M0 8.87 C-0.09 6.8, -0.13 5.01, 0 2.96 M0 8.87 C0.07 6.85, -0.04 4.61, 0 2.96 M0 2.96 C-0.74 0.57, 0.74 0.58, 2.96 0 M0 2.96 C0.52 1.62, 0.9 0.46, 2.96 0" stroke="#000000" stroke-width="1" fill="none"></path></g><g stroke-linecap="round"><g transform="translate(120.28194111938382 287.7951087752275) rotate(0 7.822064884315905 -0.07132624444662383)"><path d="M-0.34 -0.18 C2.33 -0.18, 13.38 -0.12, 16.12 -0.11 M0.49 -0.75 C3.11 -0.64, 13.34 0.4, 15.93 0.61" stroke="#000000" stroke-width="1" fill="none"></path></g><g transform="translate(120.28194111938382 287.7951087752275) rotate(0 7.822064884315905 -0.07132624444662383)"><path d="M8.36 2.6 C10.71 2.31, 13.33 1.65, 15.93 0.61 M8.36 2.6 C10.72 1.91, 13.08 1.49, 15.93 0.61" stroke="#000000" stroke-width="1" fill="none"></path></g><g transform="translate(120.28194111938382 287.7951087752275) rotate(0 7.822064884315905 -0.07132624444662383)"><path d="M8.85 -2.73 C11.03 -1.28, 13.5 -0.2, 15.93 0.61 M8.85 -2.73 C11.08 -1.79, 13.28 -0.59, 15.93 0.61" stroke="#000000" stroke-width="1" fill="none"></path></g></g><mask></mask><g stroke-linecap="round" transform="translate(91.24188872452791 296.53315195775195) rotate(0 13.891154626959665 5.46779490635646)"><path d="M-0.02 -0.25 L27.48 -0.95 L27.81 10.14 L0.05 10.42" stroke="none" stroke-width="0" fill="#868e96"></path><path d="M0 0 C6.7 0.72, 13.33 0.36, 27.78 0 M0 0 C8.87 0.33, 16.98 -0.37, 27.78 0 M27.78 0 C28.15 4.1, 27.6 7.37, 27.78 10.94 M27.78 0 C27.87 2.84, 27.66 5.44, 27.78 10.94 M27.78 10.94 C21.83 11.85, 14.03 11.76, 0 10.94 M27.78 10.94 C19.59 10.92, 11.72 10.93, 0 10.94 M0 10.94 C0.32 6.93, -0.27 2.83, 0 0 M0 10.94 C-0.23 7.47, -0.19 4.78, 0 0" stroke="#000000" stroke-width="1" fill="none"></path></g><g stroke-linecap="round" transform="translate(135.4571383456523 296.7507420176186) rotate(0 36.64900369665961 5.911129628493484)"><path d="M2.96 0 C19.44 1.48, 40.03 1.55, 70.34 0 C73.49 -1.49, 71.07 1.23, 73.3 2.96 C73.31 4.42, 74.01 6.64, 73.3 8.87 C71.98 12.82, 69.75 9.89, 70.34 11.82 C51.28 11.08, 35.19 14.12, 2.96 11.82 C-0.83 10.94, 2.25 12.58, 0 8.87 C0.65 7.12, -0.49 5.03, 0 2.96 C-2.05 -0.58, 0.03 -2.21, 2.96 0" stroke="none" stroke-width="0" fill="#ced4da"></path><path d="M2.96 0 C29.01 0.2, 55.05 0.02, 70.34 0 M2.96 0 C20.27 -0.61, 38.13 -0.49, 70.34 0 M70.34 0 C72.73 0.74, 74.14 0.71, 73.3 2.96 M70.34 0 C72.5 -0.49, 74.4 0.82, 73.3 2.96 M73.3 2.96 C73.09 4.63, 73.24 6.81, 73.3 8.87 M73.3 2.96 C73.43 5.14, 73.2 7.23, 73.3 8.87 M73.3 8.87 C73.46 11, 73.27 12, 70.34 11.82 M73.3 8.87 C74.07 10.28, 72.86 12.45, 70.34 11.82 M70.34 11.82 C49.86 11.55, 30.17 10.9, 2.96 11.82 M70.34 11.82 C56.71 11.98, 42.95 11.63, 2.96 11.82 M2.96 11.82 C1.02 11.02, 0.05 10.32, 0 8.87 M2.96 11.82 C1.76 11.42, -1.03 10.27, 0 8.87 M0 8.87 C-0.12 7.72, 0.16 6.26, 0 2.96 M0 8.87 C-0.01 7.35, 0.09 5.74, 0 2.96 M0 2.96 C-0.08 1.39, 1.36 -0.27, 2.96 0 M0 2.96 C-0.01 1.54, 0.2 0.59, 2.96 0" stroke="#000000" stroke-width="1" fill="none"></path></g><g stroke-linecap="round"><g transform="translate(119.95133218328982 302.75879972756337) rotate(0 7.819419641491116 0.014825826466278613)"><path d="M0.26 0.05 C2.82 0.01, 13.19 -0.24, 15.8 -0.19 M-0.26 -0.4 C2.2 -0.36, 12.79 0.42, 15.46 0.39" stroke="#000000" stroke-width="1" fill="none"></path></g><g transform="translate(119.95133218328982 302.75879972756337) rotate(0 7.819419641491116 0.014825826466278613)"><path d="M8.02 2.79 C10.91 1.97, 13.57 1.15, 15.46 0.39 M8.02 2.79 C10.73 1.85, 13.4 1.26, 15.46 0.39" stroke="#000000" stroke-width="1" fill="none"></path></g><g transform="translate(119.95133218328982 302.75879972756337) rotate(0 7.819419641491116 0.014825826466278613)"><path d="M8.21 -2.55 C11.03 -1.32, 13.62 -0.09, 15.46 0.39 M8.21 -2.55 C10.85 -1.59, 13.44 -0.28, 15.46 0.39" stroke="#000000" stroke-width="1" fill="none"></path></g></g><mask></mask><g stroke-linecap="round" transform="translate(91.89211298365845 327.1907555807462) rotate(0 13.891154626959665 5.46779490635646)"><path d="M0.05 -0.51 L28.46 -0.35 L26.89 10.44 L-0.88 11.5" stroke="none" stroke-width="0" fill="#868e96"></path><path d="M0 0 C9.27 0.51, 19.89 -0.43, 27.78 0 M0 0 C6.19 0.45, 12.38 -0.05, 27.78 0 M27.78 0 C27.68 3.53, 27.8 6.57, 27.78 10.94 M27.78 0 C27.89 2.69, 27.98 4.88, 27.78 10.94 M27.78 10.94 C16.67 10.98, 7.12 11.79, 0 10.94 M27.78 10.94 C19.18 11.14, 10.13 10.6, 0 10.94 M0 10.94 C0.35 7.31, -0.53 4.26, 0 0 M0 10.94 C-0.08 6.49, 0.01 2.34, 0 0" stroke="#000000" stroke-width="1" fill="none"></path></g><g stroke-linecap="round" transform="translate(136.10736260478865 327.072532988176) rotate(0 36.64900369665961 5.911129628493484)"><path d="M2.96 0 C23.49 0.75, 49.39 0.44, 70.34 0 C69.94 0.06, 71.57 3.39, 73.3 2.96 C72.5 3.95, 72.99 5.43, 73.3 8.87 C75.36 9.63, 70.88 12.38, 70.34 11.82 C48.2 13.27, 22.99 13.77, 2.96 11.82 C-1.13 14.25, 1.18 9.41, 0 8.87 C-0.22 6.17, -0.62 5.5, 0 2.96 C-1.5 3.36, 1.15 -0.48, 2.96 0" stroke="none" stroke-width="0" fill="#ced4da"></path><path d="M2.96 0 C25.76 -0.57, 46.6 0.14, 70.34 0 M2.96 0 C19.51 -0.39, 35.3 -0.46, 70.34 0 M70.34 0 C73.27 -0.14, 73.43 1.05, 73.3 2.96 M70.34 0 C71.57 -0.82, 72.6 0.75, 73.3 2.96 M73.3 2.96 C73.19 5.26, 73.31 6.88, 73.3 8.87 M73.3 2.96 C73.44 4.34, 73.4 5.6, 73.3 8.87 M73.3 8.87 C73.77 11.38, 72.34 11.29, 70.34 11.82 M73.3 8.87 C73.15 10.75, 72.05 12.55, 70.34 11.82 M70.34 11.82 C56.9 11.55, 41.56 11.28, 2.96 11.82 M70.34 11.82 C56.53 11.3, 43.01 11.38, 2.96 11.82 M2.96 11.82 C0.09 11.33, -0.88 11.4, 0 8.87 M2.96 11.82 C0.4 11.44, 0.42 11.52, 0 8.87 M0 8.87 C-0.12 7.24, 0.18 5.89, 0 2.96 M0 8.87 C0.06 6.73, 0 4.73, 0 2.96 M0 2.96 C-0.68 1.5, 0.63 -0.69, 2.96 0 M0 2.96 C-0.74 0.41, 1.39 0.66, 2.96 0" stroke="#000000" stroke-width="1" fill="none"></path></g><g stroke-linecap="round"><g transform="translate(181.59998830351188 342.1087972050407) rotate(0 -1.3129982876260016 -0.9292555404348946)"><path d="M-0.14 -0.3 C-0.59 -0.68, -2.12 -1.86, -2.51 -2.07 M0.44 0.31 C-0.07 -0.04, -2.22 -1.32, -2.73 -1.73" stroke="#000000" stroke-width="1" fill="none"></path></g><g transform="translate(181.59998830351188 342.1087972050407) rotate(0 -1.3129982876260016 -0.9292555404348946)"><path d="M-1.17 -1.34 C-1.77 -1.46, -2.31 -1.6, -2.73 -1.73 M-1.17 -1.34 C-1.75 -1.5, -2.31 -1.64, -2.73 -1.73" stroke="#000000" stroke-width="1" fill="none"></path></g><g transform="translate(181.59998830351188 342.1087972050407) rotate(0 -1.3129982876260016 -0.9292555404348946)"><path d="M-1.79 -0.43 C-2.17 -0.87, -2.49 -1.33, -2.73 -1.73 M-1.79 -0.43 C-2.14 -0.93, -2.47 -1.41, -2.73 -1.73" stroke="#000000" stroke-width="1" fill="none"></path></g></g><mask></mask><g stroke-linecap="round"><g transform="translate(105.33485322203606 307.8081184602014) rotate(0 0.018256473045852317 9.346492353477117)"><path d="M0.18 -0.33 C0.26 2.93, 0.21 15.95, 0.27 19.1" stroke="#000000" stroke-width="1.5" fill="none" stroke-dasharray="1.5 7"></path></g></g><mask></mask><g stroke-linecap="round"><g transform="translate(173.59799456501528 309.5284919030305) rotate(0 0.045709731354971694 8.794571113551228)"><path d="M0.23 0.41 C0.29 3.37, 0.56 14.61, 0.55 17.44" stroke="#000000" stroke-width="1.5" fill="none" stroke-dasharray="1.5 7"></path></g></g><mask></mask><g transform="translate(99.1192442159923 283.2509693996988) rotate(0 5.540908765216689 4.533470807904564)"><text x="5.540908765216689" y="0" font-family="Virgil, Segoe UI Emoji" font-size="6.71625304874749px" fill="#000000" text-anchor="middle" style="white-space: pre;" direction="ltr" dominant-baseline="text-before-edge">Key</text></g><g transform="translate(99.79086952086408 327.7458332407281) rotate(0 5.540908765216689 4.533470807904564)"><text x="5.540908765216689" y="0" font-family="Virgil, Segoe UI Emoji" font-size="6.71625304874749px" fill="#000000" text-anchor="middle" style="white-space: pre;" direction="ltr" dominant-baseline="text-before-edge">Key</text></g><g transform="translate(163.07002903487964 283.5760815292658) rotate(0 8.563222637153054 4.533470807904564)"><text x="8.563222637153055" y="0" font-family="Virgil, Segoe UI Emoji" font-size="6.716253048747507px" fill="#000000" text-anchor="middle" style="white-space: pre;" direction="ltr" dominant-baseline="text-before-edge">Value</text></g><g transform="translate(162.7342163824465 328.5280063357275) rotate(0 8.563222637153054 4.533470807904564)"><text x="8.563222637153055" y="0" font-family="Virgil, Segoe UI Emoji" font-size="6.716253048747507px" fill="#000000" text-anchor="middle" style="white-space: pre;" direction="ltr" dominant-baseline="text-before-edge">Value</text></g><g transform="translate(85.10663505644322 348.0854713800877) rotate(0 63.12248120989119 13.465549581664675)"><text x="63.12248120989119" y="0" font-family="Virgil, Segoe UI Emoji" font-size="21.21269596797021px" fill="#000000" text-anchor="middle" style="white-space: pre;" direction="ltr" dominant-baseline="text-before-edge">Rules Cache</text></g><g stroke-linecap="round" transform="translate(75.4901479098346 515.4626481440787) rotate(0 59.16015625 59.8515625)"><path d="M0 0 C35.55 1.57, 75.8 -1.82, 118.32 0 M0 0 C40.83 -1.12, 78.9 -0.37, 118.32 0 M118.32 0 C120.42 28.47, 118.71 52.6, 118.32 119.7 M118.32 0 C117.86 27.9, 118.26 56.75, 118.32 119.7 M118.32 119.7 C93.99 121.28, 68.21 122.58, 0 119.7 M118.32 119.7 C85.24 119.92, 51.84 120.45, 0 119.7 M0 119.7 C-1.96 86.28, -1.53 54.48, 0 0 M0 119.7 C0.23 92.14, 0.6 65.38, 0 0" stroke="#000000" stroke-width="1" fill="none"></path></g><g stroke-linecap="round" transform="translate(68.13605337283411 506.472619713064) rotate(0 59.16015625 59.8515625)"><path d="M0.9 0.25 L119.32 1.59 L119.06 119.32 L-1.58 119.69" stroke="none" stroke-width="0" fill="#fff"></path><path d="M0 0 C36.06 -2.77, 70.69 -2.51, 118.32 0 M0 0 C46.34 0.74, 93.75 0.44, 118.32 0 M118.32 0 C119 25.97, 118.02 53.44, 118.32 119.7 M118.32 0 C117.61 37.79, 116.89 77.26, 118.32 119.7 M118.32 119.7 C72.74 121.7, 24.35 118.75, 0 119.7 M118.32 119.7 C81.33 120.25, 42.9 119.94, 0 119.7 M0 119.7 C-0.24 97.18, -0.38 70.22, 0 0 M0 119.7 C0.41 83.37, 0.59 45.51, 0 0" stroke="#000000" stroke-width="1" fill="none"></path></g><g stroke-linecap="round" transform="translate(58.89777212283411 496.183557213064) rotate(0 59.16015625 59.8515625)"><path d="M1 1.59 L119.06 -0.38 L116.74 119.69 L-1.77 119.53" stroke="none" stroke-width="0" fill="#fff"></path><path d="M0 0 C45.22 -0.51, 90.93 2.94, 118.32 0 M0 0 C35.35 -0.45, 71.47 -0.21, 118.32 0 M118.32 0 C117 46.78, 118.63 92.43, 118.32 119.7 M118.32 0 C117.37 26.06, 119.15 52.33, 118.32 119.7 M118.32 119.7 C79.89 119.52, 42.48 121.69, 0 119.7 M118.32 119.7 C82.55 120.57, 46.2 119.5, 0 119.7 M0 119.7 C-0.64 82.33, 0.97 45.94, 0 0 M0 119.7 C0.15 83.33, 0.2 46.44, 0 0" stroke="#000000" stroke-width="1" fill="none"></path></g><g transform="translate(80.68796377322474 543.535119713064) rotate(0 37.369964599609375 12.5)"><text x="37.369964599609375" y="0" font-family="Virgil, Segoe UI Emoji" font-size="20px" fill="#1e1e1e" text-anchor="middle" style="white-space: pre;" direction="ltr" dominant-baseline="text-before-edge">Workers</text></g><g stroke-linecap="round"><g transform="translate(75.6228775140803 784.6158987520295) rotate(0 37.465050323856566 40.68892391534888)" fill-rule="evenodd"><path d="M-2.19 -1.95 C-2.04 10.34, 0.38 59.48, 0.58 73.17 C0.78 86.85, -1.47 78.4, -0.98 80.15 C-0.49 81.9, 0.71 82.35, 3.52 83.67 C6.32 84.99, 10.09 86.76, 15.85 88.06 C21.62 89.36, 30.82 91.65, 38.13 91.48 C45.44 91.3, 53.71 87.97, 59.7 87.04 C65.68 86.1, 71.78 87.27, 74.06 85.88 C76.34 84.5, 73.61 80.6, 73.39 78.72 C73.18 76.84, 72.38 86.97, 72.76 74.61 C73.15 62.25, 75.83 17.2, 75.72 4.55 C75.62 -8.09, 73.12 0.54, 72.13 -1.23 C71.14 -3, 71.99 -5.61, 69.8 -6.07 C67.6 -6.52, 64.35 -3.77, 58.96 -3.98 C53.58 -4.19, 44.11 -7.15, 37.49 -7.34 C30.87 -7.54, 25.25 -5.61, 19.23 -5.13 C13.21 -4.65, 4.36 -4.97, 1.37 -4.48 C-1.63 -3.99, 1.53 -2.57, 1.27 -2.17 C1.01 -1.77, -0.23 -2.26, -0.21 -2.07" stroke="none" stroke-width="0" fill="#ced4da" fill-rule="evenodd"></path><path d="M-0.05 -0.99 C-0.02 11.11, -0.03 60.11, 0.01 73.76 C0.05 87.41, -0.38 79.17, 0.19 80.93 C0.75 82.69, 0.74 83.29, 3.41 84.3 C6.07 85.31, 10.08 86.3, 16.18 87 C22.27 87.69, 32.22 88.21, 39.97 88.47 C47.72 88.72, 57.25 89.26, 62.68 88.53 C68.11 87.79, 70.64 85.52, 72.55 84.05 C74.46 82.58, 73.63 81.47, 74.13 79.72 C74.62 77.97, 75.29 85.99, 75.52 73.56 C75.76 61.12, 75.52 17.58, 75.53 5.11 C75.53 -7.37, 76.59 0.26, 75.56 -1.28 C74.53 -2.81, 72.24 -3.33, 69.35 -4.12 C66.47 -4.92, 63.67 -5.61, 58.26 -6.05 C52.84 -6.49, 43.54 -6.57, 36.87 -6.75 C30.2 -6.93, 23.9 -7.56, 18.23 -7.12 C12.57 -6.69, 5.8 -5.2, 2.88 -4.15 C-0.04 -3.1, 1.05 -1.32, 0.69 -0.82 C0.32 -0.33, 1 -1.19, 0.71 -1.18 M-1.53 1.11 C-1.66 13.36, -1.24 58.47, -1.06 71.94 C-0.89 85.42, -1.23 79.78, -0.49 81.95 C0.26 84.12, 0.37 84.18, 3.41 84.98 C6.46 85.79, 11.46 85.82, 17.79 86.79 C24.12 87.75, 34.33 90.61, 41.4 90.76 C48.47 90.91, 54.64 88.85, 60.22 87.68 C65.8 86.51, 72.29 84.81, 74.88 83.75 C77.48 82.7, 75.51 83.2, 75.79 81.37 C76.08 79.54, 76.51 85.41, 76.58 72.77 C76.66 60.13, 76.54 17.44, 76.24 5.55 C75.93 -6.34, 75.89 3.21, 74.76 1.44 C73.63 -0.33, 71.83 -3.78, 69.47 -5.07 C67.11 -6.36, 65.93 -6, 60.6 -6.28 C55.27 -6.57, 44.34 -6.83, 37.49 -6.8 C30.64 -6.77, 25.51 -6.58, 19.5 -6.11 C13.5 -5.63, 4.74 -4.81, 1.45 -3.94 C-1.83 -3.06, 0.07 -1.26, -0.22 -0.86 C-0.51 -0.46, -0.16 -1.81, -0.31 -1.54" stroke="#000000" stroke-width="1" fill="none"></path></g></g><mask></mask><g stroke-linecap="round" transform="translate(76.47474760476427 775.8629305960014) rotate(0 37.26504103857024 7.5365741936356585)"><path d="M28.61 -0.27 C35.86 -0.73, 46.95 0.08, 54.04 0.87 C61.13 1.67, 67.94 2.99, 71.14 4.51 C74.35 6.03, 75.55 8.38, 73.29 9.99 C71.03 11.6, 64.31 13.38, 57.59 14.16 C50.87 14.93, 40.96 14.84, 32.98 14.64 C25 14.43, 15.26 14.06, 9.7 12.94 C4.14 11.81, 0.04 9.49, -0.39 7.88 C-0.82 6.27, 2.15 4.58, 7.11 3.28 C12.08 1.97, 25.47 0.61, 29.41 0.07 C33.35 -0.48, 30.57 -0.15, 30.76 -0.01 M40.1 0.06 C47.7 0.29, 57.58 1.5, 63.22 2.71 C68.85 3.92, 73.19 5.94, 73.91 7.34 C74.63 8.74, 72.03 9.85, 67.53 11.13 C63.03 12.41, 54.63 14.53, 46.9 15 C39.17 15.47, 28.48 14.63, 21.16 13.94 C13.84 13.24, 6.2 12.22, 2.98 10.85 C-0.24 9.47, -0.3 7.18, 1.82 5.69 C3.94 4.2, 9.34 2.78, 15.71 1.92 C22.08 1.06, 35.94 0.87, 40.03 0.54 C44.12 0.21, 40.37 -0.09, 40.26 -0.06" stroke="none" stroke-width="0" fill="#fff"></path><path d="M38.3 -0.45 C45.85 -0.46, 55.83 0.72, 61.77 1.95 C67.71 3.19, 72.67 5.39, 73.91 6.95 C75.16 8.5, 73.42 10.05, 69.23 11.3 C65.03 12.55, 56.5 13.88, 48.76 14.45 C41.01 15.03, 30.2 15.26, 22.75 14.75 C15.3 14.24, 7.79 12.75, 4.06 11.37 C0.34 9.99, -1.25 8.09, 0.4 6.44 C2.05 4.8, 7.32 2.65, 13.96 1.5 C20.6 0.35, 35.59 -0.29, 40.25 -0.46 C44.91 -0.64, 41.89 0.21, 41.92 0.44 M34.24 -0.45 C41.86 -0.71, 52.51 -0.32, 58.89 0.6 C65.27 1.52, 70.51 3.43, 72.53 5.08 C74.56 6.74, 74.36 9.07, 71.03 10.51 C67.7 11.96, 59.73 13.03, 52.55 13.75 C45.37 14.47, 35.61 15.2, 27.95 14.83 C20.28 14.45, 11.22 12.87, 6.57 11.48 C1.91 10.09, -0.61 8.03, 0.02 6.49 C0.64 4.94, 4.78 3.17, 10.32 2.21 C15.85 1.26, 29.4 1.13, 33.23 0.76 C37.06 0.4, 33.07 -0.09, 33.27 0.02" stroke="#000000" stroke-width="1" fill="none"></path></g><g transform="translate(30.108293904796938 875.4207589285712) rotate(0 84.16992950439453 12.5)"><text x="84.16992950439453" y="0" font-family="Virgil, Segoe UI Emoji" font-size="20px" fill="#1e1e1e" text-anchor="middle" style="white-space: pre;" direction="ltr" dominant-baseline="text-before-edge">Rules Datastore</text></g><g stroke-linecap="round" transform="translate(797.5492996955489 291.95818385836446) rotate(0 59.16015625 59.8515625)"><path d="M0 0 C24.12 2.65, 49.95 0.01, 118.32 0 M0 0 C25.63 -1.96, 50.43 -0.88, 118.32 0 M118.32 0 C116.2 43.56, 116.34 84.35, 118.32 119.7 M118.32 0 C117.31 32.57, 118.07 66.58, 118.32 119.7 M118.32 119.7 C76.75 120.58, 35.77 121.02, 0 119.7 M118.32 119.7 C70.81 119.57, 24.62 120.41, 0 119.7 M0 119.7 C-1.8 90.62, -0.08 64.86, 0 0 M0 119.7 C-0.62 93.76, -0.72 65.42, 0 0" stroke="#000000" stroke-width="1" fill="none"></path></g><g stroke-linecap="round" transform="translate(790.1952051585484 282.96815542734976) rotate(0 59.16015625 59.8515625)"><path d="M-1.05 -1.5 L118.83 -0.81 L117.85 119.44 L0.96 118.37" stroke="none" stroke-width="0" fill="#fff"></path><path d="M0 0 C25.87 -2, 47.67 0.42, 118.32 0 M0 0 C46.79 1.24, 93.36 0.59, 118.32 0 M118.32 0 C115.88 27.75, 116.94 52.7, 118.32 119.7 M118.32 0 C117.67 38.48, 118.08 77.06, 118.32 119.7 M118.32 119.7 C89.56 122.46, 60.82 121.45, 0 119.7 M118.32 119.7 C75.1 118.57, 31.3 119.12, 0 119.7 M0 119.7 C1.24 92.07, -0.77 61.9, 0 0 M0 119.7 C-0.03 74.32, 0.12 29.04, 0 0" stroke="#000000" stroke-width="1" fill="none"></path></g><g stroke-linecap="round" transform="translate(780.9569239085484 273.26503042734976) rotate(0 59.16015625 59.8515625)"><path d="M0.5 -0.81 L117.85 -0.27 L119.28 118.37 L-0.01 120.61" stroke="none" stroke-width="0" fill="#fff"></path><path d="M0 0 C43.02 1.99, 91.43 1.81, 118.32 0 M0 0 C25.77 -0.68, 49.82 -1.06, 118.32 0 M118.32 0 C117.03 46.85, 117.92 93.64, 118.32 119.7 M118.32 0 C118.99 25.08, 117.97 51.19, 118.32 119.7 M118.32 119.7 C76.15 121.71, 31.44 119.48, 0 119.7 M118.32 119.7 C92.83 120.1, 68.06 119.01, 0 119.7 M0 119.7 C-1.8 89.72, 1.2 58.12, 0 0 M0 119.7 C0.23 71.47, 0.01 24.21, 0 0" stroke="#000000" stroke-width="1" fill="none"></path></g><g transform="translate(803.8371195262242 308.11659292734976) rotate(0 36.27996063232422 25)"><text x="36.27996063232422" y="0" font-family="Virgil, Segoe UI Emoji" font-size="20px" fill="#1e1e1e" text-anchor="middle" style="white-space: pre;" direction="ltr" dominant-baseline="text-before-edge">API </text><text x="36.27996063232422" y="25" font-family="Virgil, Segoe UI Emoji" font-size="20px" fill="#1e1e1e" text-anchor="middle" style="white-space: pre;" direction="ltr" dominant-baseline="text-before-edge">Servers</text></g><g stroke-linecap="round"><g transform="translate(503.38489051881936 210.8315102734225) rotate(269.83845249062614 15.143769025806193 65.88741862166881)" fill-rule="evenodd"><path d="M-1.8 1.49 L30.18 -1.04 L31.5 116.83 L13.11 130.1 L-1.36 118.88 L1.98 -1.53" stroke="none" stroke-width="0" fill="#eeeeee" fill-rule="evenodd"></path><path d="M0 0 C7.67 -0.48, 13.53 1.56, 30.29 -0.12 M0 0 C10.46 -0.41, 20.63 0.54, 30.29 -0.12 M30.29 -0.12 C30.74 43.96, 28.9 87.64, 30.03 118.71 M30.29 -0.12 C29.1 47.07, 30.08 93.51, 30.03 118.71 M30.03 118.71 C24.09 123.97, 22.23 127.23, 14.56 131.89 M30.03 118.71 C26.56 121.71, 23.86 123.43, 14.56 131.89 M14.56 131.89 C8.67 129.17, 5.19 123.77, 0.47 117.98 M14.56 131.89 C10.36 128.69, 7.27 124.68, 0.47 117.98 M0.47 117.98 C-0.98 79.28, 0.73 43.24, 0 0 M0.47 117.98 C-0.37 84.91, 0.52 51.17, 0 0 M0 0 C0 0, 0 0, 0 0 M0 0 C0 0, 0 0, 0 0" stroke="#000000" stroke-width="1" fill="none"></path></g></g><mask></mask><g stroke-linecap="round" transform="translate(457.04198705669 270.6303282510074) rotate(0 12.320244053771319 8.188904730351027)"><path d="M0.28 -0.85 L23.99 0.09 L24.66 16.18 L-0.09 15.73" stroke="none" stroke-width="0" fill="#868e96"></path><path d="M0 0 C5.37 0.71, 10.54 -0.53, 24.64 0 M0 0 C9.97 0.47, 20.06 0.04, 24.64 0 M24.64 0 C24.13 6.34, 25.4 12.46, 24.64 16.38 M24.64 0 C24.99 5.53, 24.47 10.19, 24.64 16.38 M24.64 16.38 C16.27 17.24, 6.53 16.83, 0 16.38 M24.64 16.38 C16.12 16.03, 7.63 16.46, 0 16.38 M0 16.38 C0.01 12.92, -0.34 7.91, 0 0 M0 16.38 C-0.06 9.95, 0.13 3.65, 0 0" stroke="#000000" stroke-width="1" fill="none"></path></g><g stroke-linecap="round"><g transform="translate(470.0139062503964 278.6571603864694) rotate(0 -0.3055958865822106 -3.868487699872688)" fill-rule="evenodd"><path d="M-0.65 0.09 L11.71 -7.94 L-12.39 -8.29 L-0.82 -0.06" stroke="none" stroke-width="0" fill="#ced4da" fill-rule="evenodd"></path><path d="M0 0 C3.32 -2.48, 6.84 -3.92, 11.69 -7.74 M0 0 C3.67 -2.3, 7.2 -4.51, 11.69 -7.74 M11.69 -7.74 C5.46 -8.49, -2.4 -7.9, -12.3 -7.64 M11.69 -7.74 C2.5 -7.92, -6.07 -8.02, -12.3 -7.64 M-12.3 -7.64 C-8.23 -4.48, -2.44 -2.04, 0 0 M-12.3 -7.64 C-8.22 -5.09, -4.57 -2.89, 0 0 M0 0 C0 0, 0 0, 0 0 M0 0 C0 0, 0 0, 0 0" stroke="#000000" stroke-width="1" fill="none"></path></g></g><mask></mask><g stroke-linecap="round"><g transform="translate(509.2460768621237 280.06296618872) rotate(0 15.480608900274717 -0.28678515021957196)"><path d="M0 0 C12.33 0.15, 22.61 -0.08, 30.96 -0.57" stroke="#000000" stroke-width="1.5" fill="none" stroke-dasharray="1.5 7"></path></g></g><mask></mask><g stroke-linecap="round" transform="translate(486.49619402310043 270.77216231344494) rotate(0 12.320244053771319 8.188904730351027)"><path d="M-0.09 -0.65 L23.82 -0.06 L24.85 15.59 L-0.81 16.09" stroke="none" stroke-width="0" fill="#868e96"></path><path d="M0 0 C5.92 0.21, 12.89 0.68, 24.64 0 M0 0 C7.56 -0.35, 15.02 0.43, 24.64 0 M24.64 0 C25.27 4.41, 25.28 7.05, 24.64 16.38 M24.64 0 C25.03 3.98, 24.99 7.4, 24.64 16.38 M24.64 16.38 C16.62 16.46, 7.38 16.62, 0 16.38 M24.64 16.38 C17.47 16.28, 9.61 16.06, 0 16.38 M0 16.38 C0.08 12.49, -0.33 9.24, 0 0 M0 16.38 C-0.29 12.04, -0.01 7.54, 0 0" stroke="#000000" stroke-width="1" fill="none"></path></g><g stroke-linecap="round"><g transform="translate(499.4878310898122 278.2259399199248) rotate(0 -0.3055958865822106 -3.868487699872688)" fill-rule="evenodd"><path d="M-0.82 -0.06 L11.9 -8.52 L-13.11 -7.93 L-0.23 -0.79" stroke="none" stroke-width="0" fill="#ced4da" fill-rule="evenodd"></path><path d="M0 0 C4.48 -2.05, 7.71 -4.39, 11.69 -7.74 M0 0 C3.69 -2.14, 7.29 -4.9, 11.69 -7.74 M11.69 -7.74 C5.71 -7.97, -2.42 -7.1, -12.3 -7.64 M11.69 -7.74 C7.01 -8.17, 1.75 -7.43, -12.3 -7.64 M-12.3 -7.64 C-9.57 -5.41, -5.69 -4.04, 0 0 M-12.3 -7.64 C-9.14 -6, -6.72 -3.71, 0 0 M0 0 C0 0, 0 0, 0 0 M0 0 C0 0, 0 0, 0 0" stroke="#000000" stroke-width="1" fill="none"></path></g></g><mask></mask><g stroke-linecap="round" transform="translate(539.3530212918657 270.2048260636901) rotate(0 12.320244053771319 8.188904730351027)"><path d="M0.21 -0.79 L23.83 -0.28 L24.41 15.59 L0.67 15.47" stroke="none" stroke-width="0" fill="#868e96"></path><path d="M0 0 C8.07 0.9, 16.23 -0.11, 24.64 0 M0 0 C5.44 -0.02, 11.53 0.26, 24.64 0 M24.64 0 C24.19 6.77, 23.97 13.46, 24.64 16.38 M24.64 0 C24.85 5.45, 24.56 10.6, 24.64 16.38 M24.64 16.38 C17.06 15.8, 8.63 17.39, 0 16.38 M24.64 16.38 C16.98 16.74, 9.7 16.41, 0 16.38 M0 16.38 C-0.24 12.19, -0.67 7.01, 0 0 M0 16.38 C-0.04 11.06, -0.34 6.24, 0 0" stroke="#000000" stroke-width="1" fill="none"></path></g><g stroke-linecap="round"><g transform="translate(552.8421352136739 277.3057125859376) rotate(0 -0.3055958865822106 -3.868487699872688)" fill-rule="evenodd"><path d="M-0.81 -0.28 L11.46 -8.52 L-11.63 -8.55 L-0.7 0.72" stroke="none" stroke-width="0" fill="#ced4da" fill-rule="evenodd"></path><path d="M0 0 C4.5 -2.95, 8.23 -5.98, 11.69 -7.74 M0 0 C4.53 -2.77, 9.48 -5.79, 11.69 -7.74 M11.69 -7.74 C4.49 -6.79, -0.72 -6.87, -12.3 -7.64 M11.69 -7.74 C6.6 -7.55, 1.93 -8.02, -12.3 -7.64 M-12.3 -7.64 C-8.71 -4.38, -4.24 -2.17, 0 0 M-12.3 -7.64 C-9.51 -5.7, -6.24 -3.96, 0 0 M0 0 C0 0, 0 0, 0 0 M0 0 C0 0, 0 0, 0 0" stroke="#000000" stroke-width="1" fill="none"></path></g></g><mask></mask><g transform="translate(468.95689953663316 291.8270061918074) rotate(0 49.0378586761411 12.490775323168037)"><text x="49.0378586761411" y="0" font-family="Virgil, Segoe UI Emoji" font-size="18.504852330619276px" fill="#000000" text-anchor="middle" style="white-space: pre;" direction="ltr" dominant-baseline="text-before-edge">Message Q</text></g><g stroke-linecap="round" transform="translate(1430.352527581494 253.2931066149573) rotate(0 60.24824047055449 44.11983981361399)"><path d="M22.06 0 C47.75 1.39, 71.1 -2.24, 98.44 0 C115.15 -1.82, 123.33 6.38, 120.5 22.06 C120.47 36.06, 122.39 43.11, 120.5 66.18 C122.83 83.65, 115.23 88.49, 98.44 88.24 C71.48 91.93, 47.43 89.78, 22.06 88.24 C4 90.14, 1.43 83.82, 0 66.18 C-2 55.32, -1.68 50.76, 0 22.06 C-0.66 7.27, 6.57 0.2, 22.06 0" stroke="none" stroke-width="0" fill="#eeeeee"></path><path d="M22.06 0 C46.07 -0.33, 71.53 -0.63, 98.44 0 M22.06 0 C39.53 -0.42, 58.08 1.16, 98.44 0 M98.44 0 C111.83 -1.65, 118.5 7.42, 120.5 22.06 M98.44 0 C111.01 1.93, 119.57 9.33, 120.5 22.06 M120.5 22.06 C120.46 32.24, 121.67 43.95, 120.5 66.18 M120.5 22.06 C120.96 39.59, 120.02 56.21, 120.5 66.18 M120.5 66.18 C120.85 80.88, 111.86 89.28, 98.44 88.24 M120.5 66.18 C119.62 80.54, 114.27 86.36, 98.44 88.24 M98.44 88.24 C71.4 86.52, 41.14 87.66, 22.06 88.24 M98.44 88.24 C69.6 88.19, 39.59 86.79, 22.06 88.24 M22.06 88.24 C8.16 86.6, -1.35 82.71, 0 66.18 M22.06 88.24 C5.79 90.03, 1.83 82.17, 0 66.18 M0 66.18 C0.23 57.59, 2.21 46.73, 0 22.06 M0 66.18 C0.64 54.03, -0.88 41.03, 0 22.06 M0 22.06 C1.07 5.77, 6.74 -1.3, 22.06 0 M0 22.06 C0.86 8.07, 5.59 -2.15, 22.06 0" stroke="#000000" stroke-width="1" fill="none"></path></g><g stroke-linecap="round" transform="translate(1438.0834964914347 260.22432012041907) rotate(0 12.52950133679667 4.9318249942710395)"><path d="M0.4 -0.82 L24.38 0.91 L24.38 10.64 L0.79 10.42" stroke="none" stroke-width="0" fill="#868e96"></path><path d="M0 0 C7.04 -0.34, 13.69 -0.58, 25.06 0 M0 0 C6.35 0.46, 11.7 -0.3, 25.06 0 M25.06 0 C25.47 1.78, 25.48 3.75, 25.06 9.86 M25.06 0 C24.87 3.73, 24.9 7.45, 25.06 9.86 M25.06 9.86 C16.92 9.16, 7.87 10.07, 0 9.86 M25.06 9.86 C17.36 9.85, 10.29 9.52, 0 9.86 M0 9.86 C0.11 5.84, -0.53 2.54, 0 0 M0 9.86 C-0.01 6.29, -0.28 2.21, 0 0" stroke="#000000" stroke-width="1" fill="none"></path></g><g stroke-linecap="round" transform="translate(1477.9646326613204 259.81479079315807) rotate(0 33.05655671835723 5.33170269650924)"><path d="M2.67 0 C23.05 -0.61, 42.58 0, 63.45 0 C63.64 -0.3, 66.36 0.94, 66.11 2.67 C66.6 5.31, 66.55 6.94, 66.11 8 C66.4 8.47, 67.46 8.34, 63.45 10.66 C38.55 12.12, 19.53 12.86, 2.67 10.66 C-1.43 9.43, -0.33 8.06, 0 8 C-0.09 6.61, -0.11 5.3, 0 2.67 C0.53 -1.59, 0.77 -2.1, 2.67 0" stroke="none" stroke-width="0" fill="#ced4da"></path><path d="M2.67 0 C18.91 -0.49, 35.93 -0.09, 63.45 0 M2.67 0 C15.24 -0.63, 27.98 -0.2, 63.45 0 M63.45 0 C64.3 0.84, 65.71 1.75, 66.11 2.67 M63.45 0 C64.77 0.78, 65.51 0.7, 66.11 2.67 M66.11 2.67 C66.34 4.07, 65.87 5.23, 66.11 8 M66.11 2.67 C66.12 4.68, 66.01 6.77, 66.11 8 M66.11 8 C65.73 9.62, 65.71 9.85, 63.45 10.66 M66.11 8 C66.83 10.84, 65.4 11.03, 63.45 10.66 M63.45 10.66 C51.57 11.26, 37.2 10.65, 2.67 10.66 M63.45 10.66 C41.41 10.03, 18.63 10.89, 2.67 10.66 M2.67 10.66 C0.21 11.44, 0.79 10.33, 0 8 M2.67 10.66 C0.19 9.61, 0.43 9.67, 0 8 M0 8 C-0.06 5.94, 0.04 3.95, 0 2.67 M0 8 C0.09 6, -0.02 4.12, 0 2.67 M0 2.67 C0.37 1.2, 0.12 -0.93, 2.67 0 M0 2.67 C0.33 0.34, 0.08 0.18, 2.67 0" stroke="#000000" stroke-width="1" fill="none"></path></g><g stroke-linecap="round"><g transform="translate(1464.70349070782 265.56542923480515) rotate(0 7.0553222576860435 -0.0643346287002089)"><path d="M-0.33 -0.33 C2.03 -0.37, 11.53 -0.71, 14 -0.61 M0.5 0.69 C2.8 0.73, 11.21 0.06, 13.51 -0.16" stroke="#000000" stroke-width="1" fill="none"></path></g><g transform="translate(1464.70349070782 265.56542923480515) rotate(0 7.0553222576860435 -0.0643346287002089)"><path d="M7.11 2.81 C8.59 1.97, 10.18 1.5, 13.51 -0.16 M7.11 2.81 C9.31 1.74, 11.69 0.79, 13.51 -0.16" stroke="#000000" stroke-width="1" fill="none"></path></g><g transform="translate(1464.70349070782 265.56542923480515) rotate(0 7.0553222576860435 -0.0643346287002089)"><path d="M6.7 -2 C8.28 -1.57, 9.97 -0.78, 13.51 -0.16 M6.7 -2 C9.04 -1.29, 11.57 -0.46, 13.51 -0.16" stroke="#000000" stroke-width="1" fill="none"></path></g></g><mask></mask><g stroke-linecap="round" transform="translate(1438.5100327071564 273.4469428077622) rotate(0 12.52950133679667 4.9318249942710395)"><path d="M0.79 0.56 L24.45 -0.92 L25.43 9.77 L0.99 10.77" stroke="none" stroke-width="0" fill="#868e96"></path><path d="M0 0 C5.13 0.7, 12.71 -0.63, 25.06 0 M0 0 C4.98 0.42, 10.69 0.43, 25.06 0 M25.06 0 C25.01 2.25, 25.31 4.87, 25.06 9.86 M25.06 0 C25.14 3.94, 24.91 7.65, 25.06 9.86 M25.06 9.86 C17.62 9.4, 8.99 10.27, 0 9.86 M25.06 9.86 C19.66 10.14, 13.65 9.49, 0 9.86 M0 9.86 C-0.49 7.29, 0.29 4.15, 0 0 M0 9.86 C-0.19 7.86, -0.19 5.6, 0 0" stroke="#000000" stroke-width="1" fill="none"></path></g><g stroke-linecap="round" transform="translate(1478.3911688770393 273.64320402716305) rotate(0 33.05655671835723 5.33170269650924)"><path d="M2.67 0 C19.5 0.14, 38.35 1.53, 63.45 0 C65.2 1.69, 68.11 2.4, 66.11 2.67 C66.72 3.68, 66.6 5.26, 66.11 8 C66.37 7.35, 66.6 11.7, 63.45 10.66 C39.93 8.58, 15.94 8.8, 2.67 10.66 C3.19 10.19, -0.06 9.21, 0 8 C-0.05 5.81, 0.17 5.21, 0 2.67 C-2.3 -0.95, -0.19 -0.05, 2.67 0" stroke="none" stroke-width="0" fill="#ced4da"></path><path d="M2.67 0 C20.36 -0.86, 35.83 -1.2, 63.45 0 M2.67 0 C20.89 0.17, 39.32 0.08, 63.45 0 M63.45 0 C64.7 -0.17, 65.46 1.33, 66.11 2.67 M63.45 0 C64.61 0.92, 66.75 -0.2, 66.11 2.67 M66.11 2.67 C66.31 4.43, 66.13 5.92, 66.11 8 M66.11 2.67 C66.17 4.43, 66.19 6.54, 66.11 8 M66.11 8 C66.27 10.09, 64.31 9.68, 63.45 10.66 M66.11 8 C65.71 10.68, 66.04 9.6, 63.45 10.66 M63.45 10.66 C43.92 10.76, 25.05 9.69, 2.67 10.66 M63.45 10.66 C40.07 11.18, 15.6 10.44, 2.67 10.66 M2.67 10.66 C1.26 10.57, 0.99 10.68, 0 8 M2.67 10.66 C1.85 10.53, 0.31 10.04, 0 8 M0 8 C0.05 6.14, -0.23 3.91, 0 2.67 M0 8 C-0.11 6.62, 0.03 5.43, 0 2.67 M0 2.67 C-0.71 1.05, 1 -0.33, 2.67 0 M0 2.67 C-1.02 1.53, 0.31 0.91, 2.67 0" stroke="#000000" stroke-width="1" fill="none"></path></g><g stroke-linecap="round"><g transform="translate(1464.4052890667047 279.06233361932857) rotate(0 7.052936309620577 0.013372553795335307)"><path d="M-0.36 -0.45 C1.84 -0.51, 11.23 -0.11, 13.56 0.04 M0.45 0.5 C2.78 0.51, 12.14 0.89, 14.51 0.75" stroke="#000000" stroke-width="1" fill="none"></path></g><g transform="translate(1464.4052890667047 279.06233361932857) rotate(0 7.052936309620577 0.013372553795335307)"><path d="M7.89 3.18 C10.02 1.96, 12.75 1.09, 14.51 0.75 M7.89 3.18 C10.36 2.34, 12.88 1.26, 14.51 0.75" stroke="#000000" stroke-width="1" fill="none"></path></g><g transform="translate(1464.4052890667047 279.06233361932857) rotate(0 7.052936309620577 0.013372553795335307)"><path d="M7.88 -1.64 C10.03 -1.09, 12.77 -0.19, 14.51 0.75 M7.88 -1.64 C10.35 -0.63, 12.87 0.14, 14.51 0.75" stroke="#000000" stroke-width="1" fill="none"></path></g></g><mask></mask><g stroke-linecap="round" transform="translate(1439.096520003769 301.09939473798465) rotate(0 12.52950133679667 4.9318249942710395)"><path d="M0.99 0.9 L25.9 -0.12 L25.33 10.1 L0.76 10.42" stroke="none" stroke-width="0" fill="#868e96"></path><path d="M0 0 C5.9 -0.8, 12.58 -0.28, 25.06 0 M0 0 C9.41 -0.17, 19.01 0.13, 25.06 0 M25.06 0 C24.63 2.54, 25.48 4.51, 25.06 9.86 M25.06 0 C24.91 3.72, 24.97 7.15, 25.06 9.86 M25.06 9.86 C17.24 10.1, 7.88 9.02, 0 9.86 M25.06 9.86 C20.36 9.5, 14.99 10.29, 0 9.86 M0 9.86 C-0.37 7.55, 0.49 5.56, 0 0 M0 9.86 C-0.19 5.91, 0.05 2.39, 0 0" stroke="#000000" stroke-width="1" fill="none"></path></g><g stroke-linecap="round" transform="translate(1478.9776561736571 300.99276068405413) rotate(0 33.05655671835723 5.33170269650924)"><path d="M2.67 0 C26.26 1, 46.03 -0.23, 63.45 0 C63.92 2.24, 63.79 2.7, 66.11 2.67 C66.49 4.02, 66.69 4.2, 66.11 8 C64.88 9.45, 63.51 9.54, 63.45 10.66 C48.63 9.95, 34.08 11.05, 2.67 10.66 C-1.59 10.54, -2.1 10.47, 0 8 C-0.23 6.02, 0.24 4.44, 0 2.67 C-1.15 -1.17, 1.33 0.8, 2.67 0" stroke="none" stroke-width="0" fill="#ced4da"></path><path d="M2.67 0 C15.68 -0.12, 27.87 -0.12, 63.45 0 M2.67 0 C24.69 0.27, 47.1 0.45, 63.45 0 M63.45 0 C65.78 -0.95, 66.33 1.67, 66.11 2.67 M63.45 0 C64.39 0.74, 66.32 0.88, 66.11 2.67 M66.11 2.67 C66.09 4.05, 65.91 5.35, 66.11 8 M66.11 2.67 C65.99 4.63, 66.07 6.96, 66.11 8 M66.11 8 C66.82 8.85, 65.32 11.32, 63.45 10.66 M66.11 8 C64.97 8.92, 65.69 9.72, 63.45 10.66 M63.45 10.66 C50.1 11.25, 35.75 9.85, 2.67 10.66 M63.45 10.66 C51.27 11.09, 38.52 10.58, 2.67 10.66 M2.67 10.66 C1.16 10.9, 0.76 10.33, 0 8 M2.67 10.66 C0.02 10.96, 0.62 8.86, 0 8 M0 8 C0.1 6.36, -0.23 5.21, 0 2.67 M0 8 C0.03 6.61, -0.1 5.39, 0 2.67 M0 2.67 C-0.51 1.68, 0.62 -0.61, 2.67 0 M0 2.67 C-0.13 1, 0.91 1.1, 2.67 0" stroke="#000000" stroke-width="1" fill="none"></path></g><g stroke-linecap="round"><g transform="translate(1465.2361753836558 306.72761304922085) rotate(0 7.0553222576860435 -0.033044035962404905)"><path d="M-0.22 0.47 C2.18 0.45, 11.55 0.41, 13.89 0.31 M0.67 0.24 C3.02 0.3, 11.24 -0.49, 13.35 -0.47" stroke="#000000" stroke-width="1" fill="none"></path></g><g transform="translate(1465.2361753836558 306.72761304922085) rotate(0 7.0553222576860435 -0.033044035962404905)"><path d="M6.84 2.26 C8.48 1.56, 9.77 0.95, 13.35 -0.47 M6.84 2.26 C8.6 1.61, 10.63 0.53, 13.35 -0.47" stroke="#000000" stroke-width="1" fill="none"></path></g><g transform="translate(1465.2361753836558 306.72761304922085) rotate(0 7.0553222576860435 -0.033044035962404905)"><path d="M6.61 -2.57 C8.32 -2.26, 9.65 -1.87, 13.35 -0.47 M6.61 -2.57 C8.42 -1.85, 10.52 -1.56, 13.35 -0.47" stroke="#000000" stroke-width="1" fill="none"></path></g></g><mask></mask><g stroke-linecap="round"><g transform="translate(1451.2215618962605 283.61670274914275) rotate(0 0.016466917947127513 8.430320702785394)"><path d="M-0.22 0.37 C-0.22 3.09, -0.24 13.98, -0.26 16.77" stroke="#000000" stroke-width="1.5" fill="none" stroke-dasharray="1.5 7"></path></g></g><mask></mask><g stroke-linecap="round"><g transform="translate(1512.793342189516 285.1684399467032) rotate(0 0.04122912425191316 7.932500463995694)"><path d="M-0.29 -0.09 C-0.3 2.53, -0.29 13.37, -0.27 16.11" stroke="#000000" stroke-width="1.5" fill="none" stroke-dasharray="1.5 7"></path></g></g><mask></mask><g transform="translate(1445.6152258182583 261.46672024269753) rotate(0 4.997772009974824 4.089086189979369)"><text x="4.997772009974799" y="0" font-family="Virgil, Segoe UI Emoji" font-size="6.057905466636109px" fill="#000000" text-anchor="middle" style="white-space: pre;" direction="ltr" dominant-baseline="text-before-edge">Key</text></g><g transform="translate(1446.2210163649193 301.6000619949217) rotate(0 4.997772009974824 4.089086189979383)"><text x="4.997772009974799" y="0" font-family="Virgil, Segoe UI Emoji" font-size="6.057905466636109px" fill="#000000" text-anchor="middle" style="white-space: pre;" direction="ltr" dominant-baseline="text-before-edge">Key</text></g><g transform="translate(1503.297359909715 261.75996389100544) rotate(0 7.723829469961061 4.089086189979369)"><text x="7.723829469961045" y="0" font-family="Virgil, Segoe UI Emoji" font-size="6.057905466636125px" fill="#000000" text-anchor="middle" style="white-space: pre;" direction="ltr" dominant-baseline="text-before-edge">Value</text></g><g transform="translate(1502.994464636387 302.3055641005841) rotate(0 7.723829469961061 4.089086189979383)"><text x="7.723829469961045" y="0" font-family="Virgil, Segoe UI Emoji" font-size="6.057905466636125px" fill="#000000" text-anchor="middle" style="white-space: pre;" direction="ltr" dominant-baseline="text-before-edge">Value</text></g><g transform="translate(1459.227354590136 312.1184354161761) rotate(0 31.37341346191249 13.988146129515144)"><text x="31.37341346191255" y="0" font-family="Virgil, Segoe UI Emoji" font-size="22.0359584435366px" fill="#000000" text-anchor="middle" style="white-space: pre;" direction="ltr" dominant-baseline="text-before-edge">Cache</text></g></svg>