<svg version="1.1" xmlns="http://www.w3.org/2000/svg" viewBox="0 0 5865 2420" width="5865" height="2420">
  <!-- svg-source:excalidraw -->
  
  <defs>
    <style class="style-fonts">
      @font-face {
        font-family: "Virgil";
        src: url("https://excalidraw.com/Virgil.woff2");
      }
      @font-face {
        font-family: "Cascadia";
        src: url("https://excalidraw.com/Cascadia.woff2");
      }
      @font-face {
        font-family: "Assistant";
        src: url("https://excalidraw.com/Assistant-Regular.woff2");
      }
    </style>
    
  </defs>
  <rect x="0" y="0" width="5865" height="2420" fill="#ffffff"></rect><g transform="translate(265 10) rotate(0 143.89996337890625 31.25)"><text x="0" y="0" font-family="Virgil, Segoe UI Emoji" font-size="50px" fill="#000000" text-anchor="start" style="white-space: pre;" direction="ltr" dominant-baseline="text-before-edge">Design Uber</text></g><g transform="translate(265 110) rotate(0 1049.774658203125 56.25)"><text x="0" y="0" font-family="Virgil, Segoe UI Emoji" font-size="30px" fill="#000000" text-anchor="start" style="white-space: pre;" direction="ltr" dominant-baseline="text-before-edge">Uber is a ride-sharing platform that connects passengers with drivers who offer transportation services in personal vehicles. It allows users</text><text x="0" y="37.5" font-family="Virgil, Segoe UI Emoji" font-size="30px" fill="#000000" text-anchor="start" style="white-space: pre;" direction="ltr" dominant-baseline="text-before-edge">to book rides on-demand from their smartphones, matching them with a nearby driver who will take them from their location</text><text x="0" y="75" font-family="Virgil, Segoe UI Emoji" font-size="30px" fill="#000000" text-anchor="start" style="white-space: pre;" direction="ltr" dominant-baseline="text-before-edge">to their desired destination.</text></g><g stroke-linecap="round" transform="translate(265 310) rotate(0 625 350)"><path d="M32 0 C350.92 1.23, 669.98 2.36, 1218 0 M32 0 C419.74 -4.34, 807.71 -4.67, 1218 0 M1218 0 C1240.97 -1.95, 1249.18 9.76, 1250 32 M1218 0 C1241.47 1.79, 1249.64 12.57, 1250 32 M1250 32 C1249.68 269.06, 1250.58 506.08, 1250 668 M1250 32 C1248.79 201.18, 1248.83 369.84, 1250 668 M1250 668 C1248.5 689.3, 1237.42 700.1, 1218 700 M1250 668 C1249.11 690.51, 1238.69 700.58, 1218 700 M1218 700 C957.95 703.87, 698.14 704.39, 32 700 M1218 700 C769.93 703.14, 322.77 702.81, 32 700 M32 700 C9.6 701.06, 1.39 687.51, 0 668 M32 700 C11.53 699.46, 0.56 690.56, 0 668 M0 668 C-1.23 493.37, 0.09 317.11, 0 32 M0 668 C0.13 474.06, 0.28 280.46, 0 32 M0 32 C-0.88 11.43, 12.17 -1.14, 32 0 M0 32 C-0.14 11.78, 10.78 -0.35, 32 0" stroke="#000000" stroke-width="1" fill="none"></path></g><g stroke-linecap="round"><g transform="translate(65 380) rotate(0 80.75 -16.5)"><path d="M-0.99 -1.12 C9.65 -6.54, 35.65 -31.21, 62.81 -33.23 C89.97 -35.25, 145.4 -16.63, 161.98 -13.26 M0.7 0.9 C11.29 -4.27, 35.23 -29.1, 62.03 -31.81 C88.82 -34.52, 144.64 -18.12, 161.47 -15.35" stroke="#B8B8B8" stroke-width="1" fill="none"></path></g><g transform="translate(65 380) rotate(0 80.75 -16.5)"><path d="M161.81 -14.07 L147.08 -13.09 L150.51 -23.44 L160.78 -14.19" stroke="none" stroke-width="0" fill="#B8B8B8" fill-rule="evenodd"></path><path d="M161.47 -15.35 C156.88 -14.37, 154.83 -13.46, 146.83 -12.1 M161.47 -15.35 C156.93 -13.46, 150.95 -12.94, 146.83 -12.1 M146.83 -12.1 C148.98 -18.13, 150.34 -20.71, 149.57 -24.48 M146.83 -12.1 C147.5 -14.76, 148.42 -17.34, 149.57 -24.48 M149.57 -24.48 C154.57 -21.77, 159.21 -18.29, 161.47 -15.35 M149.57 -24.48 C154.76 -21.57, 158.55 -17.49, 161.47 -15.35 M161.47 -15.35 C161.47 -15.35, 161.47 -15.35, 161.47 -15.35 M161.47 -15.35 C161.47 -15.35, 161.47 -15.35, 161.47 -15.35" stroke="#B8B8B8" stroke-width="1" fill="none"></path></g></g><mask></mask><g transform="translate(10 391) rotate(0 38.38996887207031 12.5)"><text x="0" y="0" font-family="Virgil, Segoe UI Emoji" font-size="20px" fill="#B8B8B8" text-anchor="start" style="white-space: pre;" direction="ltr" dominant-baseline="text-before-edge">Example</text></g><g transform="translate(10 425) rotate(0 133.0479278564453 130)"><text x="0" y="0" font-family="Virgil, Segoe UI Emoji" font-size="16px" fill="#B8B8B8" text-anchor="start" style="white-space: pre;" direction="ltr" dominant-baseline="text-before-edge">Functional Requirements:</text><text x="0" y="20" font-family="Virgil, Segoe UI Emoji" font-size="16px" fill="#B8B8B8" text-anchor="start" style="white-space: pre;" direction="ltr" dominant-baseline="text-before-edge">- User can create tweets</text><text x="0" y="40" font-family="Virgil, Segoe UI Emoji" font-size="16px" fill="#B8B8B8" text-anchor="start" style="white-space: pre;" direction="ltr" dominant-baseline="text-before-edge">- User can view tweets</text><text x="0" y="60" font-family="Virgil, Segoe UI Emoji" font-size="16px" fill="#B8B8B8" text-anchor="start" style="white-space: pre;" direction="ltr" dominant-baseline="text-before-edge">- User can delete tweets</text><text x="0" y="80" font-family="Virgil, Segoe UI Emoji" font-size="16px" fill="#B8B8B8" text-anchor="start" style="white-space: pre;" direction="ltr" dominant-baseline="text-before-edge">- ...</text><text x="0" y="100" font-family="Virgil, Segoe UI Emoji" font-size="16px" fill="#B8B8B8" text-anchor="start" style="white-space: pre;" direction="ltr" dominant-baseline="text-before-edge"></text><text x="0" y="120" font-family="Virgil, Segoe UI Emoji" font-size="16px" fill="#B8B8B8" text-anchor="start" style="white-space: pre;" direction="ltr" dominant-baseline="text-before-edge">System Scale:</text><text x="0" y="140" font-family="Virgil, Segoe UI Emoji" font-size="16px" fill="#B8B8B8" text-anchor="start" style="white-space: pre;" direction="ltr" dominant-baseline="text-before-edge">100M DAU, 500M tweets per day</text><text x="0" y="160" font-family="Virgil, Segoe UI Emoji" font-size="16px" fill="#B8B8B8" text-anchor="start" style="white-space: pre;" direction="ltr" dominant-baseline="text-before-edge"></text><text x="0" y="180" font-family="Virgil, Segoe UI Emoji" font-size="16px" fill="#B8B8B8" text-anchor="start" style="white-space: pre;" direction="ltr" dominant-baseline="text-before-edge">Non-Functional Requirements:</text><text x="0" y="200" font-family="Virgil, Segoe UI Emoji" font-size="16px" fill="#B8B8B8" text-anchor="start" style="white-space: pre;" direction="ltr" dominant-baseline="text-before-edge">- Availability &gt; consistency</text><text x="0" y="220" font-family="Virgil, Segoe UI Emoji" font-size="16px" fill="#B8B8B8" text-anchor="start" style="white-space: pre;" direction="ltr" dominant-baseline="text-before-edge">- Low latency feed gen</text><text x="0" y="240" font-family="Virgil, Segoe UI Emoji" font-size="16px" fill="#B8B8B8" text-anchor="start" style="white-space: pre;" direction="ltr" dominant-baseline="text-before-edge">- ...</text></g><g transform="translate(315 350) rotate(0 94.3499526977539 18.75)"><text x="0" y="0" font-family="Virgil, Segoe UI Emoji" font-size="30px" fill="#000000" text-anchor="start" style="white-space: pre;" direction="ltr" dominant-baseline="text-before-edge">Requirements</text></g><g transform="translate(315 410) rotate(0 116.35990142822266 12.5)"><text x="0" y="0" font-family="Virgil, Segoe UI Emoji" font-size="20px" fill="#000000" text-anchor="start" style="white-space: pre;" direction="ltr" dominant-baseline="text-before-edge">Functional Requirements</text></g><g transform="translate(315 450) rotate(0 468.7196350097656 37.5)"><text x="0" y="0" font-family="Virgil, Segoe UI Emoji" font-size="20px" fill="#000000" text-anchor="start" style="white-space: pre;" direction="ltr" dominant-baseline="text-before-edge">1. Riders should be able to input a start location and a destination and get a fare estimate</text><text x="0" y="25" font-family="Virgil, Segoe UI Emoji" font-size="20px" fill="#000000" text-anchor="start" style="white-space: pre;" direction="ltr" dominant-baseline="text-before-edge">2. Riders should be able to request a ride based on the estimated fare</text><text x="0" y="50" font-family="Virgil, Segoe UI Emoji" font-size="20px" fill="#000000" text-anchor="start" style="white-space: pre;" direction="ltr" dominant-baseline="text-before-edge">3. Drivers should be able to accept/decline a request and navigate to pickup/drop-off</text></g><g transform="translate(315 580) rotate(0 64.51994323730469 12.5)"><text x="0" y="0" font-family="Virgil, Segoe UI Emoji" font-size="20px" fill="#000000" text-anchor="start" style="white-space: pre;" direction="ltr" dominant-baseline="text-before-edge">System Scale</text></g><g transform="translate(315 610) rotate(0 220.59983825683594 12.5)"><text x="0" y="0" font-family="Virgil, Segoe UI Emoji" font-size="20px" fill="#000000" text-anchor="start" style="white-space: pre;" direction="ltr" dominant-baseline="text-before-edge">- 100M daily active users, 15M rides per day</text></g><g transform="translate(315 690) rotate(0 137.119873046875 12.5)"><text x="0" y="0" font-family="Virgil, Segoe UI Emoji" font-size="20px" fill="#000000" text-anchor="start" style="white-space: pre;" direction="ltr" dominant-baseline="text-before-edge">Non-Functional Requirements</text></g><g transform="translate(323.867034341497 726.9064424995211) rotate(0 570.24951171875 112.5)"><text x="0" y="0" font-family="Virgil, Segoe UI Emoji" font-size="20px" fill="#1e1e1e" text-anchor="start" style="white-space: pre;" direction="ltr" dominant-baseline="text-before-edge">1. Low latency matching riders to drivers (&lt; 1 min)</text><text x="0" y="25" font-family="Virgil, Segoe UI Emoji" font-size="20px" fill="#1e1e1e" text-anchor="start" style="white-space: pre;" direction="ltr" dominant-baseline="text-before-edge">2. Consistency over availability when matching to ensure only one driver is assigned to a single rider.</text><text x="0" y="50" font-family="Virgil, Segoe UI Emoji" font-size="20px" fill="#1e1e1e" text-anchor="start" style="white-space: pre;" direction="ltr" dominant-baseline="text-before-edge">(no duplicate matches)</text><text x="0" y="75" font-family="Virgil, Segoe UI Emoji" font-size="20px" fill="#1e1e1e" text-anchor="start" style="white-space: pre;" direction="ltr" dominant-baseline="text-before-edge">3. High availability to ensure we can handle large bursts of matching requests within a given region. (100k / region)</text><text x="0" y="100" font-family="Virgil, Segoe UI Emoji" font-size="20px" fill="#1e1e1e" text-anchor="start" style="white-space: pre;" direction="ltr" dominant-baseline="text-before-edge"></text><text x="0" y="125" font-family="Virgil, Segoe UI Emoji" font-size="20px" fill="#1e1e1e" text-anchor="start" style="white-space: pre;" direction="ltr" dominant-baseline="text-before-edge">---- Out of Scope ---</text><text x="0" y="150" font-family="Virgil, Segoe UI Emoji" font-size="20px" fill="#1e1e1e" text-anchor="start" style="white-space: pre;" direction="ltr" dominant-baseline="text-before-edge">1. Alerting, monitoring, dashboards.</text><text x="0" y="175" font-family="Virgil, Segoe UI Emoji" font-size="20px" fill="#1e1e1e" text-anchor="start" style="white-space: pre;" direction="ltr" dominant-baseline="text-before-edge">2. GDPR and compliance.</text><text x="0" y="200" font-family="Virgil, Segoe UI Emoji" font-size="20px" fill="#1e1e1e" text-anchor="start" style="white-space: pre;" direction="ltr" dominant-baseline="text-before-edge">3. Fault tolerance</text></g><g stroke-linecap="round" transform="translate(265 1060) rotate(0 625 200)"><path d="M32 0 C503.1 0.19, 974.09 0.18, 1218 0 M32 0 C433.56 -3.52, 834.88 -3.66, 1218 0 M1218 0 C1237.64 -0.69, 1250.7 9.09, 1250 32 M1218 0 C1240.53 -0.18, 1248.7 10.48, 1250 32 M1250 32 C1250.69 145.2, 1251.71 260.04, 1250 368 M1250 32 C1251.84 132.31, 1250.94 232.5, 1250 368 M1250 368 C1248.16 390.29, 1241.26 399.88, 1218 400 M1250 368 C1249.48 390.07, 1238.46 400.83, 1218 400 M1218 400 C950.11 397.81, 682.55 396.72, 32 400 M1218 400 C762.44 400.11, 307.85 399.77, 32 400 M32 400 C9 401.93, -0.98 387.43, 0 368 M32 400 C11.45 401.2, 1.12 390.13, 0 368 M0 368 C-0.21 248.7, 0.04 129.15, 0 32 M0 368 C-2.07 268.8, -1.79 168.9, 0 32 M0 32 C-1.01 9.9, 11.54 0.22, 32 0 M0 32 C-1.91 8.45, 9.77 -1.82, 32 0" stroke="#000000" stroke-width="1" fill="none"></path></g><g stroke-linecap="round"><g transform="translate(65 1100) rotate(0 80.75 -16.5)"><path d="M1.17 -1.15 C11.74 -6.96, 36.46 -31.75, 63.12 -33.75 C89.79 -35.75, 144.67 -16.6, 161.14 -13.15 M0.32 0.86 C10.81 -4.3, 35.86 -29.93, 62.5 -32.6 C89.15 -35.28, 143.53 -18.07, 160.19 -15.18" stroke="#B8B8B8" stroke-width="1" fill="none"></path></g><g transform="translate(65 1100) rotate(0 80.75 -16.5)"><path d="M160.91 -13.31 L146.65 -13.74 L148.74 -24.32 L161.92 -15.08" stroke="none" stroke-width="0" fill="#B8B8B8" fill-rule="evenodd"></path><path d="M160.19 -15.18 C154.72 -13.42, 151.17 -13.81, 145.5 -12.15 M160.19 -15.18 C154.41 -13.89, 149.55 -13.6, 145.5 -12.15 M145.5 -12.15 C145.69 -16.53, 146.97 -18.69, 148.42 -24.48 M145.5 -12.15 C146.77 -17.38, 148.09 -22, 148.42 -24.48 M148.42 -24.48 C153.44 -20.05, 157.93 -17.61, 160.19 -15.18 M148.42 -24.48 C151.63 -22.93, 154.28 -19.88, 160.19 -15.18 M160.19 -15.18 C160.19 -15.18, 160.19 -15.18, 160.19 -15.18 M160.19 -15.18 C160.19 -15.18, 160.19 -15.18, 160.19 -15.18" stroke="#B8B8B8" stroke-width="1" fill="none"></path></g></g><mask></mask><g transform="translate(10 1111) rotate(0 38.38996887207031 12.5)"><text x="0" y="0" font-family="Virgil, Segoe UI Emoji" font-size="20px" fill="#B8B8B8" text-anchor="start" style="white-space: pre;" direction="ltr" dominant-baseline="text-before-edge">Example</text></g><g transform="translate(10 1145) rotate(0 51.791969299316406 50)"><text x="0" y="0" font-family="Virgil, Segoe UI Emoji" font-size="16px" fill="#B8B8B8" text-anchor="start" style="white-space: pre;" direction="ltr" dominant-baseline="text-before-edge">Core Entities</text><text x="0" y="20" font-family="Virgil, Segoe UI Emoji" font-size="16px" fill="#B8B8B8" text-anchor="start" style="white-space: pre;" direction="ltr" dominant-baseline="text-before-edge">- User</text><text x="0" y="40" font-family="Virgil, Segoe UI Emoji" font-size="16px" fill="#B8B8B8" text-anchor="start" style="white-space: pre;" direction="ltr" dominant-baseline="text-before-edge">- Tweet</text><text x="0" y="60" font-family="Virgil, Segoe UI Emoji" font-size="16px" fill="#B8B8B8" text-anchor="start" style="white-space: pre;" direction="ltr" dominant-baseline="text-before-edge">- Follow</text><text x="0" y="80" font-family="Virgil, Segoe UI Emoji" font-size="16px" fill="#B8B8B8" text-anchor="start" style="white-space: pre;" direction="ltr" dominant-baseline="text-before-edge">        </text></g><g transform="translate(315 1110) rotate(0 97.10995483398438 18.75)"><text x="0" y="0" font-family="Virgil, Segoe UI Emoji" font-size="30px" fill="#000000" text-anchor="start" style="white-space: pre;" direction="ltr" dominant-baseline="text-before-edge">Core Entities</text></g><g transform="translate(328.7039320871794 1171.137553437295) rotate(0 50.37995910644531 62.5)"><text x="0" y="0" font-family="Virgil, Segoe UI Emoji" font-size="20px" fill="#1e1e1e" text-anchor="start" style="white-space: pre;" direction="ltr" dominant-baseline="text-before-edge">- Rider</text><text x="0" y="25" font-family="Virgil, Segoe UI Emoji" font-size="20px" fill="#1e1e1e" text-anchor="start" style="white-space: pre;" direction="ltr" dominant-baseline="text-before-edge">- Driver</text><text x="0" y="50" font-family="Virgil, Segoe UI Emoji" font-size="20px" fill="#1e1e1e" text-anchor="start" style="white-space: pre;" direction="ltr" dominant-baseline="text-before-edge">- Ride</text><text x="0" y="75" font-family="Virgil, Segoe UI Emoji" font-size="20px" fill="#1e1e1e" text-anchor="start" style="white-space: pre;" direction="ltr" dominant-baseline="text-before-edge">- Location</text><text x="0" y="100" font-family="Virgil, Segoe UI Emoji" font-size="20px" fill="#1e1e1e" text-anchor="start" style="white-space: pre;" direction="ltr" dominant-baseline="text-before-edge">- Fare</text></g><g stroke-linecap="round" transform="translate(265 1510) rotate(0 625 450)"><path d="M32 0 C472.08 -1.47, 912.69 -1.14, 1218 0 M32 0 C374.31 -1.49, 716.41 -1.29, 1218 0 M1218 0 C1239.84 -1.51, 1251.6 9.65, 1250 32 M1218 0 C1240.63 2.23, 1250.29 10.31, 1250 32 M1250 32 C1248.88 270.96, 1247.93 510.74, 1250 868 M1250 32 C1248.62 302.59, 1248.49 572.74, 1250 868 M1250 868 C1249.84 891.04, 1239.63 898.47, 1218 900 M1250 868 C1251.94 889.12, 1237.94 898.26, 1218 900 M1218 900 C957.33 896.18, 694.43 896.92, 32 900 M1218 900 C831.95 899.38, 446.11 899.33, 32 900 M32 900 C10.62 899.52, 0.09 891.14, 0 868 M32 900 C10.04 898.11, 1.43 889.94, 0 868 M0 868 C-2.59 654.41, -2.6 440.99, 0 32 M0 868 C-0.03 564.51, 0.03 261.67, 0 32 M0 32 C0.68 9.08, 9.83 0.93, 32 0 M0 32 C-0.14 11.84, 9.82 0.94, 32 0" stroke="#000000" stroke-width="1" fill="none"></path></g><g stroke-linecap="round"><g transform="translate(65 1600) rotate(0 80.75 -16.5)"><path d="M1.16 -0.87 C11.91 -6.63, 36.84 -31.73, 63.38 -34.04 C89.92 -36.34, 143.96 -18.18, 160.39 -14.69 M0.3 1.29 C11.08 -4.41, 35.82 -30.52, 62.89 -33.05 C89.95 -35.57, 146.12 -16.82, 162.71 -13.87" stroke="#B8B8B8" stroke-width="1" fill="none"></path></g><g transform="translate(65 1600) rotate(0 80.75 -16.5)"><path d="M161.2 -13.63 L147.92 -9.71 L152.64 -25.14 L161.92 -15.56" stroke="none" stroke-width="0" fill="#B8B8B8" fill-rule="evenodd"></path><path d="M162.71 -13.87 C158.64 -12.05, 155.45 -13.95, 147.98 -11.01 M162.71 -13.87 C160.15 -13.85, 156.47 -12.5, 147.98 -11.01 M147.98 -11.01 C148.13 -14.68, 149.01 -17.96, 151.05 -23.31 M147.98 -11.01 C148.38 -15.08, 149.73 -19.06, 151.05 -23.31 M151.05 -23.31 C155.13 -19.5, 158.73 -18.35, 162.71 -13.87 M151.05 -23.31 C155.51 -20.28, 159.26 -16.04, 162.71 -13.87 M162.71 -13.87 C162.71 -13.87, 162.71 -13.87, 162.71 -13.87 M162.71 -13.87 C162.71 -13.87, 162.71 -13.87, 162.71 -13.87" stroke="#B8B8B8" stroke-width="1" fill="none"></path></g></g><mask></mask><g transform="translate(10 1611) rotate(0 38.38996887207031 12.5)"><text x="0" y="0" font-family="Virgil, Segoe UI Emoji" font-size="20px" fill="#B8B8B8" text-anchor="start" style="white-space: pre;" direction="ltr" dominant-baseline="text-before-edge">Example</text></g><g transform="translate(10 1645) rotate(0 92.79995727539062 110)"><text x="0" y="0" font-family="Virgil, Segoe UI Emoji" font-size="16px" fill="#B8B8B8" text-anchor="start" style="white-space: pre;" direction="ltr" dominant-baseline="text-before-edge">GET /feed -&gt; Tweet[]</text><text x="0" y="20" font-family="Virgil, Segoe UI Emoji" font-size="16px" fill="#B8B8B8" text-anchor="start" style="white-space: pre;" direction="ltr" dominant-baseline="text-before-edge"></text><text x="0" y="40" font-family="Virgil, Segoe UI Emoji" font-size="16px" fill="#B8B8B8" text-anchor="start" style="white-space: pre;" direction="ltr" dominant-baseline="text-before-edge">POST /tweet -&gt; Tweet</text><text x="0" y="60" font-family="Virgil, Segoe UI Emoji" font-size="16px" fill="#B8B8B8" text-anchor="start" style="white-space: pre;" direction="ltr" dominant-baseline="text-before-edge">body: {</text><text x="0" y="80" font-family="Virgil, Segoe UI Emoji" font-size="16px" fill="#B8B8B8" text-anchor="start" style="white-space: pre;" direction="ltr" dominant-baseline="text-before-edge">    content: string</text><text x="0" y="100" font-family="Virgil, Segoe UI Emoji" font-size="16px" fill="#B8B8B8" text-anchor="start" style="white-space: pre;" direction="ltr" dominant-baseline="text-before-edge">}</text><text x="0" y="120" font-family="Virgil, Segoe UI Emoji" font-size="16px" fill="#B8B8B8" text-anchor="start" style="white-space: pre;" direction="ltr" dominant-baseline="text-before-edge"></text><text x="0" y="140" font-family="Virgil, Segoe UI Emoji" font-size="16px" fill="#B8B8B8" text-anchor="start" style="white-space: pre;" direction="ltr" dominant-baseline="text-before-edge">POST /follow -&gt; void</text><text x="0" y="160" font-family="Virgil, Segoe UI Emoji" font-size="16px" fill="#B8B8B8" text-anchor="start" style="white-space: pre;" direction="ltr" dominant-baseline="text-before-edge">{</text><text x="0" y="180" font-family="Virgil, Segoe UI Emoji" font-size="16px" fill="#B8B8B8" text-anchor="start" style="white-space: pre;" direction="ltr" dominant-baseline="text-before-edge">    userId: string</text><text x="0" y="200" font-family="Virgil, Segoe UI Emoji" font-size="16px" fill="#B8B8B8" text-anchor="start" style="white-space: pre;" direction="ltr" dominant-baseline="text-before-edge">}</text></g><g transform="translate(315 1560) rotate(0 87.25496673583984 18.75)"><text x="0" y="0" font-family="Virgil, Segoe UI Emoji" font-size="30px" fill="#000000" text-anchor="start" style="white-space: pre;" direction="ltr" dominant-baseline="text-before-edge">API Routes</text></g><g transform="translate(329.91647082184824 1629.614102652863) rotate(0 176.4698486328125 312.5)"><text x="0" y="0" font-family="Virgil, Segoe UI Emoji" font-size="20px" fill="#1e1e1e" text-anchor="start" style="white-space: pre;" direction="ltr" dominant-baseline="text-before-edge">POST /fares/estimate -&gt; Fare</text><text x="0" y="25" font-family="Virgil, Segoe UI Emoji" font-size="20px" fill="#1e1e1e" text-anchor="start" style="white-space: pre;" direction="ltr" dominant-baseline="text-before-edge">{</text><text x="0" y="50" font-family="Virgil, Segoe UI Emoji" font-size="20px" fill="#1e1e1e" text-anchor="start" style="white-space: pre;" direction="ltr" dominant-baseline="text-before-edge"> source,</text><text x="0" y="75" font-family="Virgil, Segoe UI Emoji" font-size="20px" fill="#1e1e1e" text-anchor="start" style="white-space: pre;" direction="ltr" dominant-baseline="text-before-edge"> destination</text><text x="0" y="100" font-family="Virgil, Segoe UI Emoji" font-size="20px" fill="#1e1e1e" text-anchor="start" style="white-space: pre;" direction="ltr" dominant-baseline="text-before-edge">}</text><text x="0" y="125" font-family="Virgil, Segoe UI Emoji" font-size="20px" fill="#1e1e1e" text-anchor="start" style="white-space: pre;" direction="ltr" dominant-baseline="text-before-edge"></text><text x="0" y="150" font-family="Virgil, Segoe UI Emoji" font-size="20px" fill="#1e1e1e" text-anchor="start" style="white-space: pre;" direction="ltr" dominant-baseline="text-before-edge">POST /ride -&gt; Async&lt;200&gt;</text><text x="0" y="175" font-family="Virgil, Segoe UI Emoji" font-size="20px" fill="#1e1e1e" text-anchor="start" style="white-space: pre;" direction="ltr" dominant-baseline="text-before-edge">{</text><text x="0" y="200" font-family="Virgil, Segoe UI Emoji" font-size="20px" fill="#1e1e1e" text-anchor="start" style="white-space: pre;" direction="ltr" dominant-baseline="text-before-edge"> :fareID</text><text x="0" y="225" font-family="Virgil, Segoe UI Emoji" font-size="20px" fill="#1e1e1e" text-anchor="start" style="white-space: pre;" direction="ltr" dominant-baseline="text-before-edge">}</text><text x="0" y="250" font-family="Virgil, Segoe UI Emoji" font-size="20px" fill="#1e1e1e" text-anchor="start" style="white-space: pre;" direction="ltr" dominant-baseline="text-before-edge"></text><text x="0" y="275" font-family="Virgil, Segoe UI Emoji" font-size="20px" fill="#1e1e1e" text-anchor="start" style="white-space: pre;" direction="ltr" dominant-baseline="text-before-edge">POST drivers/location -&gt; 200</text><text x="0" y="300" font-family="Virgil, Segoe UI Emoji" font-size="20px" fill="#1e1e1e" text-anchor="start" style="white-space: pre;" direction="ltr" dominant-baseline="text-before-edge">{</text><text x="0" y="325" font-family="Virgil, Segoe UI Emoji" font-size="20px" fill="#1e1e1e" text-anchor="start" style="white-space: pre;" direction="ltr" dominant-baseline="text-before-edge"> lat,long</text><text x="0" y="350" font-family="Virgil, Segoe UI Emoji" font-size="20px" fill="#1e1e1e" text-anchor="start" style="white-space: pre;" direction="ltr" dominant-baseline="text-before-edge">}</text><text x="0" y="375" font-family="Virgil, Segoe UI Emoji" font-size="20px" fill="#1e1e1e" text-anchor="start" style="white-space: pre;" direction="ltr" dominant-baseline="text-before-edge"></text><text x="0" y="400" font-family="Virgil, Segoe UI Emoji" font-size="20px" fill="#1e1e1e" text-anchor="start" style="white-space: pre;" direction="ltr" dominant-baseline="text-before-edge">PATCH /ride/:ride-id/status -&gt; Ride</text><text x="0" y="425" font-family="Virgil, Segoe UI Emoji" font-size="20px" fill="#1e1e1e" text-anchor="start" style="white-space: pre;" direction="ltr" dominant-baseline="text-before-edge">{</text><text x="0" y="450" font-family="Virgil, Segoe UI Emoji" font-size="20px" fill="#1e1e1e" text-anchor="start" style="white-space: pre;" direction="ltr" dominant-baseline="text-before-edge"> action: Accept | Reject</text><text x="0" y="475" font-family="Virgil, Segoe UI Emoji" font-size="20px" fill="#1e1e1e" text-anchor="start" style="white-space: pre;" direction="ltr" dominant-baseline="text-before-edge">}</text><text x="0" y="500" font-family="Virgil, Segoe UI Emoji" font-size="20px" fill="#1e1e1e" text-anchor="start" style="white-space: pre;" direction="ltr" dominant-baseline="text-before-edge"></text><text x="0" y="525" font-family="Virgil, Segoe UI Emoji" font-size="20px" fill="#1e1e1e" text-anchor="start" style="white-space: pre;" direction="ltr" dominant-baseline="text-before-edge">PATCH /ride/:ride-id/update -&gt; Ride</text><text x="0" y="550" font-family="Virgil, Segoe UI Emoji" font-size="20px" fill="#1e1e1e" text-anchor="start" style="white-space: pre;" direction="ltr" dominant-baseline="text-before-edge">{</text><text x="0" y="575" font-family="Virgil, Segoe UI Emoji" font-size="20px" fill="#1e1e1e" text-anchor="start" style="white-space: pre;" direction="ltr" dominant-baseline="text-before-edge"> status, Pickup | Dropoff</text><text x="0" y="600" font-family="Virgil, Segoe UI Emoji" font-size="20px" fill="#1e1e1e" text-anchor="start" style="white-space: pre;" direction="ltr" dominant-baseline="text-before-edge">}</text></g><g stroke-linecap="round" transform="translate(1565 310) rotate(0 1750 1050)"><path d="M32 0 C875.32 -6.6, 1718.87 -6.52, 3468 0 M32 0 C733.84 2.45, 1436.05 2.33, 3468 0 M3468 0 C3490.1 0.69, 3501.65 9.45, 3500 32 M3468 0 C3490.87 0.7, 3502 8.53, 3500 32 M3500 32 C3499.92 454.73, 3499.71 877.87, 3500 2068 M3500 32 C3508.12 767.34, 3507.38 1501.64, 3500 2068 M3500 2068 C3499.57 2089.11, 3490.26 2099.4, 3468 2100 M3500 2068 C3497.98 2088.8, 3487.78 2099.51, 3468 2100 M3468 2100 C2466.87 2097.19, 1465.31 2096.74, 32 2100 M3468 2100 C2254.83 2113.17, 1040.99 2113.39, 32 2100 M32 2100 C9.73 2100.06, 0.23 2087.4, 0 2068 M32 2100 C9.72 2101.05, -0.83 2090.91, 0 2068 M0 2068 C5.8 1282.33, 6.34 498.69, 0 32 M0 2068 C4.24 1387.24, 4.3 705.43, 0 32 M0 32 C1.24 9.24, 9.86 -0.41, 32 0 M0 32 C1.23 11.39, 10.2 -0.2, 32 0" stroke="#299a8d" stroke-width="10" fill="none"></path></g><g transform="translate(1615 360) rotate(0 123.17993927001953 18.75)"><text x="0" y="0" font-family="Virgil, Segoe UI Emoji" font-size="30px" fill="#000000" text-anchor="start" style="white-space: pre;" direction="ltr" dominant-baseline="text-before-edge">High-Level Design</text></g><g stroke-linecap="round"><g transform="translate(5415 520) rotate(0 -140 -30)"><path d="M1.17 0.32 C-15.71 -9.68, -53.95 -55.31, -100.64 -59.4 C-147.33 -63.49, -249.04 -30.05, -278.97 -24.21 M0.33 -0.56 C-16.22 -10.96, -51.68 -56.94, -98.27 -61.21 C-144.85 -65.47, -248.89 -31.91, -279.2 -26.14" stroke="#B8B8B8" stroke-width="1" fill="none"></path></g><g transform="translate(5415 520) rotate(0 -140 -30)"><path d="M-277.83 -24.51 L-265.98 -36.67 L-265.71 -23.26 L-279.65 -24.17" stroke="none" stroke-width="0" fill="#B8B8B8" fill-rule="evenodd"></path><path d="M-279.2 -26.14 C-274.7 -30.42, -270.21 -31.69, -267.55 -35.59 M-279.2 -26.14 C-274.52 -29.36, -270.22 -33.52, -267.55 -35.59 M-267.55 -35.59 C-267.5 -30.27, -264.87 -27.8, -264.47 -23.29 M-267.55 -35.59 C-266.14 -31.07, -265.74 -27.4, -264.47 -23.29 M-264.47 -23.29 C-269.05 -25.03, -271.42 -25.92, -279.2 -26.14 M-264.47 -23.29 C-268.96 -24.45, -274.67 -24.93, -279.2 -26.14 M-279.2 -26.14 C-279.2 -26.14, -279.2 -26.14, -279.2 -26.14 M-279.2 -26.14 C-279.2 -26.14, -279.2 -26.14, -279.2 -26.14" stroke="#B8B8B8" stroke-width="1" fill="none"></path></g></g><mask></mask><g transform="translate(5415 540) rotate(0 71.01993560791016 12.5)"><text x="0" y="0" font-family="Virgil, Segoe UI Emoji" font-size="20px" fill="#B8B8B8" text-anchor="start" style="white-space: pre;" direction="ltr" dominant-baseline="text-before-edge">Simple Example</text></g><g stroke-linecap="round" transform="translate(5415 570) rotate(0 50 50)"><path d="M25 0 C36.91 0.19, 48.6 0.18, 75 0 M25 0 C43.63 -0.62, 62.16 0.4, 75 0 M75 0 C90.55 1.78, 100.46 9.12, 100 25 M75 0 C92.77 1.66, 100.68 10.46, 100 25 M100 25 C102.08 37.5, 98.93 49.03, 100 75 M100 25 C99.9 38.48, 100.5 52.57, 100 75 M100 75 C99.66 90.12, 91.85 101.81, 75 100 M100 75 C99.49 92.26, 90.79 100.78, 75 100 M75 100 C57.49 98.64, 40.06 99.03, 25 100 M75 100 C65.16 100.48, 52.98 100.36, 25 100 M25 100 C9.35 100.52, -1.93 92.45, 0 75 M25 100 C8.06 100.81, -1.82 91.3, 0 75 M0 75 C1.5 54.65, 1.52 38.44, 0 25 M0 75 C0.32 58.87, -0.22 40.98, 0 25 M0 25 C-0.77 9.27, 9.63 1.31, 25 0 M0 25 C0.15 9.07, 6.82 -1.18, 25 0" stroke="#B8B8B8" stroke-width="1" fill="none"></path></g><g transform="translate(5445 612) rotate(0 21.639984130859375 10)"><text x="0" y="0" font-family="Virgil, Segoe UI Emoji" font-size="16px" fill="#B8B8B8" text-anchor="start" style="white-space: pre;" direction="ltr" dominant-baseline="text-before-edge">Client</text></g><g stroke-linecap="round"><g transform="translate(5525 620) rotate(0 25 0)"><path d="M-0.91 -0.6 C7.47 -0.55, 41.48 0.81, 49.83 0.91 M0.81 1.7 C9.07 1.37, 40.31 -0.68, 48.79 -0.73" stroke="#B8B8B8" stroke-width="1" fill="none"></path></g><g transform="translate(5525 620) rotate(0 25 0)"><path d="M25.64 8.72 C30.56 6.17, 39.04 2.67, 48.79 -0.73 M25.64 8.72 C32.51 5.13, 39.21 3.09, 48.79 -0.73" stroke="#B8B8B8" stroke-width="1" fill="none"></path></g><g transform="translate(5525 620) rotate(0 25 0)"><path d="M24.98 -8.36 C30.15 -6.51, 38.81 -5.6, 48.79 -0.73 M24.98 -8.36 C32.06 -6.77, 38.96 -3.63, 48.79 -0.73" stroke="#B8B8B8" stroke-width="1" fill="none"></path></g></g><mask></mask><g stroke-linecap="round" transform="translate(5585 520) rotate(0 50 100)"><path d="M25 0 C39.71 1.36, 54.75 -2.02, 75 0 M25 0 C43.78 0.62, 62.94 -0.68, 75 0 M75 0 C90.35 1.84, 98.34 7.53, 100 25 M75 0 C89.9 0.45, 99.43 9.46, 100 25 M100 25 C97.36 81.53, 99.85 138.8, 100 175 M100 25 C98.65 59.54, 98.57 91.96, 100 175 M100 175 C98.35 191.78, 90.78 201.78, 75 200 M100 175 C101.72 189.96, 93.73 200.13, 75 200 M75 200 C57.7 198.96, 39.6 200.28, 25 200 M75 200 C57.78 199.96, 40.93 198.8, 25 200 M25 200 C7.92 200.44, 1.62 190.18, 0 175 M25 200 C6.95 200.62, -0.37 192.96, 0 175 M0 175 C-0.08 122.41, 0.2 68.27, 0 25 M0 175 C0.28 127.34, 1.58 81.2, 0 25 M0 25 C0.27 6.74, 10.11 -1.72, 25 0 M0 25 C-1.01 7.01, 7.84 0.11, 25 0" stroke="#B8B8B8" stroke-width="1" fill="none"></path></g><g transform="translate(5605 612) rotate(0 24.67998504638672 10)"><text x="0" y="0" font-family="Virgil, Segoe UI Emoji" font-size="16px" fill="#B8B8B8" text-anchor="start" style="white-space: pre;" direction="ltr" dominant-baseline="text-before-edge">Server</text></g><g stroke-linecap="round"><g transform="translate(5695 620) rotate(0 25 0)"><path d="M-0.67 0.01 C7.76 0.04, 41.69 -0.5, 50.29 -0.35 M1.18 -1.02 C9.51 -0.78, 41.25 1, 49.49 1" stroke="#B8B8B8" stroke-width="1" fill="none"></path></g><g transform="translate(5695 620) rotate(0 25 0)"><path d="M25.75 8.81 C32.35 7.27, 38.28 6.2, 49.49 1 M25.75 8.81 C34.35 5.41, 42.6 3.51, 49.49 1" stroke="#B8B8B8" stroke-width="1" fill="none"></path></g><g transform="translate(5695 620) rotate(0 25 0)"><path d="M26.28 -8.28 C32.66 -5.11, 38.45 -1.47, 49.49 1 M26.28 -8.28 C34.76 -5.32, 42.81 -0.87, 49.49 1" stroke="#B8B8B8" stroke-width="1" fill="none"></path></g></g><mask></mask><g stroke-linecap="round" transform="translate(5755 570) rotate(0 50 50)"><path d="M25 0 C36.08 1.8, 50.03 -0.05, 75 0 M25 0 C44.32 -0.08, 62.62 -0.58, 75 0 M75 0 C91.49 0.21, 100.6 8.84, 100 25 M75 0 C91.53 0.47, 100.24 8.78, 100 25 M100 25 C97.95 44.83, 98.97 64.7, 100 75 M100 25 C100.57 38.7, 100.79 51.01, 100 75 M100 75 C101.71 89.83, 93.04 100.28, 75 100 M100 75 C99.59 93.66, 90.75 100.24, 75 100 M75 100 C59.79 100.95, 47.43 100.67, 25 100 M75 100 C55.37 99.74, 38.02 100.03, 25 100 M25 100 C6.38 99.03, -1.85 90.84, 0 75 M25 100 C9.89 101.3, -2.03 91.73, 0 75 M0 75 C0.81 60.14, -1.31 49.39, 0 25 M0 75 C0.37 64.89, 0.77 52.55, 0 25 M0 25 C1.84 9.53, 6.75 -0.5, 25 0 M0 25 C0.24 7.84, 10.01 -1.96, 25 0" stroke="#B8B8B8" stroke-width="1" fill="none"></path></g><g transform="translate(5785 612) rotate(0 12.055992126464844 10)"><text x="0" y="0" font-family="Virgil, Segoe UI Emoji" font-size="16px" fill="#B8B8B8" text-anchor="start" style="white-space: pre;" direction="ltr" dominant-baseline="text-before-edge">DB</text></g><g stroke-linecap="round" transform="translate(2130.1232318413813 989.4727528017314) rotate(0 116.64339024181697 54.0978948973281)"><path d="M27.05 0 C92.88 -2.81, 163.67 -1.56, 206.24 0 M27.05 0 C70.44 2.48, 112.53 0.99, 206.24 0 M206.24 0 C224.33 -0.83, 233.61 9.56, 233.29 27.05 M206.24 0 C223.45 -1.62, 233.44 6.77, 233.29 27.05 M233.29 27.05 C234.34 41.73, 233.88 56.59, 233.29 81.15 M233.29 27.05 C232.81 37.67, 233.19 50.45, 233.29 81.15 M233.29 81.15 C233.44 97.79, 223.5 107.72, 206.24 108.2 M233.29 81.15 C233.77 100.38, 225.9 108.46, 206.24 108.2 M206.24 108.2 C140.3 105.73, 73.11 108.02, 27.05 108.2 M206.24 108.2 C148.61 108.02, 92.29 106.92, 27.05 108.2 M27.05 108.2 C7.76 109, 1.11 98.2, 0 81.15 M27.05 108.2 C9.32 109.12, 0.39 97.58, 0 81.15 M0 81.15 C-0.53 63.52, -0.57 45.47, 0 27.05 M0 81.15 C-0.24 69.92, -0.08 58.06, 0 27.05 M0 27.05 C1.66 10.06, 7.15 -1.91, 27.05 0 M0 27.05 C-1.58 9.43, 8.62 0.93, 27.05 0" stroke="#1e1e1e" stroke-width="2" fill="none"></path></g><g transform="translate(2210.6881635661307 1027.1606372364586) rotate(0 56.479949951171875 12.5)"><text x="0" y="0" font-family="Virgil, Segoe UI Emoji" font-size="20px" fill="#1e1e1e" text-anchor="start" style="white-space: pre;" direction="ltr" dominant-baseline="text-before-edge">Rider Client</text></g><g stroke-linecap="round" transform="translate(2775.7273353687665 879.4774860556223) rotate(0 80.99641647111298 190.7439679224173)"><path d="M32 0 C62.08 1.48, 89.28 1.58, 129.99 0 M32 0 C55.14 1.06, 80.75 0.59, 129.99 0 M129.99 0 C151.47 -1.17, 161.98 11.75, 161.99 32 M129.99 0 C149.92 -0.86, 163.1 9.01, 161.99 32 M161.99 32 C162.9 138.48, 160.62 247.77, 161.99 349.49 M161.99 32 C160.51 120.86, 160.8 209.66, 161.99 349.49 M161.99 349.49 C162.1 372.73, 151.83 381.56, 129.99 381.49 M161.99 349.49 C160.2 371.78, 150.8 379.24, 129.99 381.49 M129.99 381.49 C94.59 380.53, 62.34 382.94, 32 381.49 M129.99 381.49 C107.8 382.15, 85.69 382.13, 32 381.49 M32 381.49 C10.03 379.67, 1.44 370.18, 0 349.49 M32 381.49 C8.89 379.49, -0.96 369.07, 0 349.49 M0 349.49 C-0.27 258.82, -0.19 165.52, 0 32 M0 349.49 C1.14 235.09, 0.81 118.94, 0 32 M0 32 C0.71 9.3, 11.78 -0.51, 32 0 M0 32 C-0.03 9.93, 11.95 -1.61, 32 0" stroke="#1e1e1e" stroke-width="2" fill="none"></path></g><g transform="translate(2796.4306860429233 997.9418210986081) rotate(0 67.0599365234375 50.00000000000006)"><text x="0" y="0" font-family="Virgil, Segoe UI Emoji" font-size="20px" fill="#1e1e1e" text-anchor="start" style="white-space: pre;" direction="ltr" dominant-baseline="text-before-edge">LoadBalancer</text><text x="0" y="25" font-family="Virgil, Segoe UI Emoji" font-size="20px" fill="#1e1e1e" text-anchor="start" style="white-space: pre;" direction="ltr" dominant-baseline="text-before-edge">- auth</text><text x="0" y="50" font-family="Virgil, Segoe UI Emoji" font-size="20px" fill="#1e1e1e" text-anchor="start" style="white-space: pre;" direction="ltr" dominant-baseline="text-before-edge">- rate limiting</text><text x="0" y="75" font-family="Virgil, Segoe UI Emoji" font-size="20px" fill="#1e1e1e" text-anchor="start" style="white-space: pre;" direction="ltr" dominant-baseline="text-before-edge">- SSL</text></g><g stroke-linecap="round" transform="translate(3632.2522669306463 430.30582366647866) rotate(0 126.29043911235635 117.89034157305196)"><path d="M158.75 29.5 C174.59 43.52, 187.93 55.82, 220.83 88.5 M158.75 29.5 C172.78 41.82, 185.62 55.17, 220.83 88.5 M220.83 88.5 C251.87 118.73, 254.23 118.62, 220.83 147.5 M220.83 88.5 C252.08 119.88, 253.27 118.38, 220.83 147.5 M220.83 147.5 C197.12 170.12, 178.67 190.86, 158.75 206.28 M220.83 147.5 C207.29 159.88, 194.98 173.45, 158.75 206.28 M158.75 206.28 C125.21 237.74, 127.21 235.74, 95.25 206.28 M158.75 206.28 C127.06 237.55, 126.45 234.52, 95.25 206.28 M95.25 206.28 C80.01 191.59, 64.63 176.98, 31.75 147.5 M95.25 206.28 C78.27 191.87, 62.77 177.2, 31.75 147.5 M31.75 147.5 C-0.26 117.5, -1.6 119.29, 31.75 88.5 M31.75 147.5 C-1.14 116.38, -0.57 118.35, 31.75 88.5 M31.75 88.5 C51.02 68.43, 71.85 51.8, 95.25 29.5 M31.75 88.5 C45.64 75.3, 58.91 63.97, 95.25 29.5 M95.25 29.5 C125.65 -0.14, 126.51 -0.29, 158.75 29.5 M95.25 29.5 C126.51 -2.15, 127.95 -0.21, 158.75 29.5" stroke="#1e1e1e" stroke-width="2" fill="none"></path></g><g transform="translate(3711.487117235412 517.1015534717484) rotate(0 63.44994354248047 25)"><text x="0" y="0" font-family="Virgil, Segoe UI Emoji" font-size="20px" fill="#1e1e1e" text-anchor="start" style="white-space: pre;" direction="ltr" dominant-baseline="text-before-edge">3rd Party</text><text x="0" y="25" font-family="Virgil, Segoe UI Emoji" font-size="20px" fill="#1e1e1e" text-anchor="start" style="white-space: pre;" direction="ltr" dominant-baseline="text-before-edge">Maps Service</text></g><g stroke-linecap="round" transform="translate(3607.2499030954696 799.1975717780118) rotate(0 153.39480662018605 90.97202712099352)"><path d="M32 0 C112.86 0.06, 197.11 -0.94, 274.79 0 M32 0 C116.09 -2.22, 199.69 -1.9, 274.79 0 M274.79 0 C295.91 -0.14, 307.94 9.14, 306.79 32 M274.79 0 C297.08 2.29, 305.47 11.14, 306.79 32 M306.79 32 C305.53 57.51, 307 81.75, 306.79 149.94 M306.79 32 C306.52 66.86, 307.9 99.64, 306.79 149.94 M306.79 149.94 C304.88 170.32, 296.7 183.56, 274.79 181.94 M306.79 149.94 C306.98 170.93, 295.92 179.87, 274.79 181.94 M274.79 181.94 C208.94 181.72, 144.38 180.85, 32 181.94 M274.79 181.94 C196.35 180.17, 119.79 180.6, 32 181.94 M32 181.94 C12.13 181.29, 0.6 171.23, 0 149.94 M32 181.94 C12.61 181.82, 0.65 171.3, 0 149.94 M0 149.94 C-0.03 103.62, -0.09 57.85, 0 32 M0 149.94 C1.37 107.35, 1.03 63.68, 0 32 M0 32 C1.85 12.41, 11.09 0.28, 32 0 M0 32 C-0.95 11.66, 9.22 -0.71, 32 0" stroke="#1e1e1e" stroke-width="2" fill="none"></path></g><g transform="translate(3685.265512098583 843.0110871243918) rotate(0 98.53994750976562 25)"><text x="0" y="0" font-family="Virgil, Segoe UI Emoji" font-size="20px" fill="#1e1e1e" text-anchor="start" style="white-space: pre;" direction="ltr" dominant-baseline="text-before-edge">RIDE SERVICE /</text><text x="0" y="25" font-family="Virgil, Segoe UI Emoji" font-size="20px" fill="#1e1e1e" text-anchor="start" style="white-space: pre;" direction="ltr" dominant-baseline="text-before-edge">FARE ESTIMATION</text></g><g stroke-linecap="round" transform="translate(4318.1625877743345 900.9725518607212) rotate(0 159.2812086187464 137.86927290239595)"><path d="M137.44 1.79 C152.52 -2.35, 171.24 0.32, 187.27 2.65 C203.29 4.98, 219.27 9.2, 233.59 15.76 C247.9 22.31, 261.87 31.79, 273.16 41.98 C284.44 52.18, 293.99 64.27, 301.3 76.94 C308.6 89.61, 314.39 104.08, 316.99 118 C319.59 131.92, 319.7 146.35, 316.89 160.45 C314.08 174.56, 307.94 190.02, 300.15 202.64 C292.37 215.26, 282.01 226.43, 270.18 236.17 C258.35 245.91, 243.94 254.78, 229.16 261.09 C214.38 267.39, 197.67 271.99, 181.52 273.98 C165.37 275.97, 148.47 275.37, 132.24 273.01 C116 270.65, 98.48 266.27, 84.11 259.81 C69.74 253.34, 57.34 244.53, 46 234.24 C34.67 223.96, 23.39 210.88, 16.1 198.09 C8.81 185.31, 4.7 171.45, 2.25 157.55 C-0.19 143.65, -1.24 128.64, 1.43 114.69 C4.1 100.74, 10.37 86.46, 18.27 73.83 C26.17 61.21, 36.97 48.91, 48.83 38.93 C60.7 28.95, 72.89 20.23, 89.46 13.95 C106.04 7.68, 136.51 3.22, 148.28 1.27 C160.04 -0.68, 159.94 0, 160.04 2.25 M221.83 12.3 C237.21 15.97, 250.78 25.64, 263.32 35 C275.86 44.35, 288.69 56.21, 297.07 68.44 C305.45 80.67, 310.16 94.84, 313.61 108.36 C317.05 121.87, 319.02 135.63, 317.75 149.53 C316.47 163.44, 312.57 178.46, 305.96 191.77 C299.36 205.07, 288.86 218.47, 278.1 229.36 C267.33 240.25, 255.25 250.05, 241.39 257.11 C227.53 264.16, 210.92 268.78, 194.93 271.69 C178.93 274.6, 161.67 275.83, 145.43 274.58 C129.18 273.33, 112.68 269.7, 97.48 264.21 C82.28 258.71, 66.71 250.91, 54.23 241.61 C41.75 232.31, 30.8 220.48, 22.61 208.4 C14.42 196.32, 8.51 182.86, 5.08 169.13 C1.64 155.39, 0.74 140.17, 2 126.01 C3.26 111.85, 6.67 97.46, 12.64 84.17 C18.6 70.89, 26.88 56.86, 37.79 46.29 C48.7 35.73, 63.58 27.74, 78.1 20.77 C92.62 13.8, 108.95 7.93, 124.92 4.47 C140.89 1.01, 157.72 -1.03, 173.93 0.02 C190.14 1.06, 214.45 8.44, 222.19 10.74 C229.92 13.05, 221.42 11.79, 220.33 13.86" stroke="#1e1e1e" stroke-width="2" fill="none"></path></g><g transform="translate(4426.410998625178 1016.0659496911916) rotate(0 50.76996612548828 12.500000000000057)"><text x="0" y="0" font-family="Virgil, Segoe UI Emoji" font-size="20px" fill="#1e1e1e" text-anchor="start" style="white-space: pre;" direction="ltr" dominant-baseline="text-before-edge">DynamoDB</text></g><g transform="translate(4618.491805546213 738.5205241425482) rotate(0 79.83992767333984 112.5)"><text x="0" y="0" font-family="Virgil, Segoe UI Emoji" font-size="20px" fill="#1e1e1e" text-anchor="start" style="white-space: pre;" direction="ltr" dominant-baseline="text-before-edge">Fare:</text><text x="0" y="25" font-family="Virgil, Segoe UI Emoji" font-size="20px" fill="#1e1e1e" text-anchor="start" style="white-space: pre;" direction="ltr" dominant-baseline="text-before-edge">- id</text><text x="0" y="50" font-family="Virgil, Segoe UI Emoji" font-size="20px" fill="#1e1e1e" text-anchor="start" style="white-space: pre;" direction="ltr" dominant-baseline="text-before-edge">- source</text><text x="0" y="75" font-family="Virgil, Segoe UI Emoji" font-size="20px" fill="#1e1e1e" text-anchor="start" style="white-space: pre;" direction="ltr" dominant-baseline="text-before-edge">- destination</text><text x="0" y="100" font-family="Virgil, Segoe UI Emoji" font-size="20px" fill="#1e1e1e" text-anchor="start" style="white-space: pre;" direction="ltr" dominant-baseline="text-before-edge">- estimatedFare</text><text x="0" y="125" font-family="Virgil, Segoe UI Emoji" font-size="20px" fill="#1e1e1e" text-anchor="start" style="white-space: pre;" direction="ltr" dominant-baseline="text-before-edge">- timestamp</text><text x="0" y="150" font-family="Virgil, Segoe UI Emoji" font-size="20px" fill="#1e1e1e" text-anchor="start" style="white-space: pre;" direction="ltr" dominant-baseline="text-before-edge">- Status</text><text x="0" y="175" font-family="Virgil, Segoe UI Emoji" font-size="20px" fill="#1e1e1e" text-anchor="start" style="white-space: pre;" direction="ltr" dominant-baseline="text-before-edge">- ETA</text><text x="0" y="200" font-family="Virgil, Segoe UI Emoji" font-size="20px" fill="#1e1e1e" text-anchor="start" style="white-space: pre;" direction="ltr" dominant-baseline="text-before-edge">- RiderID</text></g><g stroke-linecap="round"><g transform="translate(3751.15996244696 772.089245694527) rotate(0 3.566676664897841 -51.687122323607014)"><path d="M-1.09 0.52 C-0.12 -16.64, 4.84 -86.95, 6.3 -104.21 M0.53 -0.25 C1.84 -17.18, 7.47 -85.62, 8.58 -103.11" stroke="#1e1e1e" stroke-width="2" fill="none"></path></g><g transform="translate(3751.15996244696 772.089245694527) rotate(0 3.566676664897841 -51.687122323607014)"><path d="M-8.02 -23.5 C-5.03 -16.67, -4.95 -6.23, -1.09 0.52 M-8.02 -23.5 C-5.41 -14.63, -3.64 -7.06, -1.09 0.52" stroke="#1e1e1e" stroke-width="2" fill="none"></path></g><g transform="translate(3751.15996244696 772.089245694527) rotate(0 3.566676664897841 -51.687122323607014)"><path d="M9.05 -22.33 C6.25 -16.05, 0.55 -6.01, -1.09 0.52 M9.05 -22.33 C6 -14.01, 2.12 -6.83, -1.09 0.52" stroke="#1e1e1e" stroke-width="2" fill="none"></path></g><g transform="translate(3751.15996244696 772.089245694527) rotate(0 3.566676664897841 -51.687122323607014)"><path d="M15.37 -79.05 C14.18 -88.65, 9.61 -94.52, 8.58 -103.11 M15.37 -79.05 C13.06 -86.22, 10.29 -94.57, 8.58 -103.11" stroke="#1e1e1e" stroke-width="2" fill="none"></path></g><g transform="translate(3751.15996244696 772.089245694527) rotate(0 3.566676664897841 -51.687122323607014)"><path d="M-1.69 -80.31 C2.9 -89.33, 4.12 -94.77, 8.58 -103.11 M-1.69 -80.31 C1.66 -86.91, 4.54 -94.83, 8.58 -103.11" stroke="#1e1e1e" stroke-width="2" fill="none"></path></g></g><mask></mask><g stroke-linecap="round"><g transform="translate(2960.2523809376253 961.1112332071435) rotate(0 316.67417665019457 -37.008723795925675)"><path d="M0.9 0.28 C106.29 -12.2, 527.05 -62.07, 632.53 -74.59 M-0.08 -0.62 C105.67 -12.97, 529.26 -61.13, 634.81 -73.35" stroke="#1e1e1e" stroke-width="2" fill="none"></path></g><g transform="translate(2960.2523809376253 961.1112332071435) rotate(0 316.67417665019457 -37.008723795925675)"><path d="M23.23 -10.97 C16.66 -8.61, 8.17 -2.99, 0.9 0.28 M23.23 -10.97 C17.63 -7.96, 12.85 -6.41, 0.9 0.28" stroke="#1e1e1e" stroke-width="2" fill="none"></path></g><g transform="translate(2960.2523809376253 961.1112332071435) rotate(0 316.67417665019457 -37.008723795925675)"><path d="M25.24 6.01 C17.99 3.01, 8.87 3.26, 0.9 0.28 M25.24 6.01 C19.21 5.06, 13.97 2.65, 0.9 0.28" stroke="#1e1e1e" stroke-width="2" fill="none"></path></g><g transform="translate(2960.2523809376253 961.1112332071435) rotate(0 316.67417665019457 -37.008723795925675)"><path d="M612.44 -62.18 C619.96 -67.25, 625.63 -68.72, 634.81 -73.35 M612.44 -62.18 C617.32 -64.36, 622.97 -68.04, 634.81 -73.35" stroke="#1e1e1e" stroke-width="2" fill="none"></path></g><g transform="translate(2960.2523809376253 961.1112332071435) rotate(0 316.67417665019457 -37.008723795925675)"><path d="M610.49 -79.17 C618.67 -78.88, 624.96 -74.97, 634.81 -73.35 M610.49 -79.17 C615.78 -77.39, 621.89 -77.11, 634.81 -73.35" stroke="#1e1e1e" stroke-width="2" fill="none"></path></g></g><mask></mask><g stroke-linecap="round"><g transform="translate(2384.5963092290453 1038.1555505240208) rotate(0 187.01894823133102 -16.818913571961502)"><path d="M-1.03 0.15 C61.3 -5.64, 312.16 -28.54, 374.52 -34.15 M0.63 -0.82 C62.79 -6.51, 311.34 -27.66, 373.83 -32.88" stroke="#1e1e1e" stroke-width="2" fill="none"></path></g><g transform="translate(2384.5963092290453 1038.1555505240208) rotate(0 187.01894823133102 -16.818913571961502)"><path d="M21.58 -10.51 C14.05 -6.2, 5.1 -4.84, -1.03 0.15 M21.58 -10.51 C13.68 -6.64, 7.58 -3.55, -1.03 0.15" stroke="#1e1e1e" stroke-width="2" fill="none"></path></g><g transform="translate(2384.5963092290453 1038.1555505240208) rotate(0 187.01894823133102 -16.818913571961502)"><path d="M23.14 6.52 C14.98 4.91, 5.49 0.37, -1.03 0.15 M23.14 6.52 C14.93 5.15, 8.34 2.99, -1.03 0.15" stroke="#1e1e1e" stroke-width="2" fill="none"></path></g><g transform="translate(2384.5963092290453 1038.1555505240208) rotate(0 187.01894823133102 -16.818913571961502)"><path d="M351.14 -22.38 C359.2 -25.03, 365.96 -31, 373.83 -32.88 M351.14 -22.38 C357.42 -25.39, 365.28 -28.82, 373.83 -32.88" stroke="#1e1e1e" stroke-width="2" fill="none"></path></g><g transform="translate(2384.5963092290453 1038.1555505240208) rotate(0 187.01894823133102 -16.818913571961502)"><path d="M349.7 -39.42 C358.35 -36.14, 365.61 -36.21, 373.83 -32.88 M349.7 -39.42 C356.25 -37.19, 364.56 -35.36, 373.83 -32.88" stroke="#1e1e1e" stroke-width="2" fill="none"></path></g></g><mask></mask><g stroke-linecap="round"><g transform="translate(3929.6996416258926 867.6334276967158) rotate(0 194.34231319255287 58.03667767376908)"><path d="M-0.37 0.51 C64.4 20.01, 324.48 96.47, 389.17 115.87 M1.64 -0.27 C66.24 19.52, 323.73 98.09, 388.47 117.3" stroke="#1e1e1e" stroke-width="2" fill="none"></path></g><g transform="translate(3929.6996416258926 867.6334276967158) rotate(0 194.34231319255287 58.03667767376908)"><path d="M24.58 -1.02 C16.77 0.23, 6.94 -1.65, -0.37 0.51 M24.58 -1.02 C14.57 -1.09, 6.85 -0.3, -0.37 0.51" stroke="#1e1e1e" stroke-width="2" fill="none"></path></g><g transform="translate(3929.6996416258926 867.6334276967158) rotate(0 194.34231319255287 58.03667767376908)"><path d="M19.73 15.37 C13.75 10.96, 5.6 3.4, -0.37 0.51 M19.73 15.37 C11.43 9.3, 5.5 4.04, -0.37 0.51" stroke="#1e1e1e" stroke-width="2" fill="none"></path></g><g transform="translate(3929.6996416258926 867.6334276967158) rotate(0 194.34231319255287 58.03667767376908)"><path d="M363.51 118.7 C373.02 119.1, 380.48 116.2, 388.47 117.3 M363.51 118.7 C371.89 118, 382.58 117.71, 388.47 117.3" stroke="#1e1e1e" stroke-width="2" fill="none"></path></g><g transform="translate(3929.6996416258926 867.6334276967158) rotate(0 194.34231319255287 58.03667767376908)"><path d="M368.45 102.33 C376.09 108.38, 381.85 111.16, 388.47 117.3 M368.45 102.33 C375.09 107.62, 383.95 113.37, 388.47 117.3" stroke="#1e1e1e" stroke-width="2" fill="none"></path></g></g><mask></mask><g transform="translate(3212.334478629844 880.7363131138208) rotate(0 89.96991729736328 12.5)"><text x="0" y="0" font-family="Virgil, Segoe UI Emoji" font-size="20px" fill="#1e1e1e" text-anchor="start" style="white-space: pre;" direction="ltr" dominant-baseline="text-before-edge">getFareEsitmate()</text></g><g transform="translate(4690.434982065974 988.1656116693842) rotate(0 77.55992889404297 100.00000000000006)"><text x="0" y="0" font-family="Virgil, Segoe UI Emoji" font-size="20px" fill="#1e1e1e" text-anchor="start" style="white-space: pre;" direction="ltr" dominant-baseline="text-before-edge">Ride:</text><text x="0" y="25" font-family="Virgil, Segoe UI Emoji" font-size="20px" fill="#1e1e1e" text-anchor="start" style="white-space: pre;" direction="ltr" dominant-baseline="text-before-edge">- id</text><text x="0" y="50" font-family="Virgil, Segoe UI Emoji" font-size="20px" fill="#1e1e1e" text-anchor="start" style="white-space: pre;" direction="ltr" dominant-baseline="text-before-edge">- riderID</text><text x="0" y="75" font-family="Virgil, Segoe UI Emoji" font-size="20px" fill="#1e1e1e" text-anchor="start" style="white-space: pre;" direction="ltr" dominant-baseline="text-before-edge">- driverID</text><text x="0" y="100" font-family="Virgil, Segoe UI Emoji" font-size="20px" fill="#1e1e1e" text-anchor="start" style="white-space: pre;" direction="ltr" dominant-baseline="text-before-edge">- fareID</text><text x="0" y="125" font-family="Virgil, Segoe UI Emoji" font-size="20px" fill="#1e1e1e" text-anchor="start" style="white-space: pre;" direction="ltr" dominant-baseline="text-before-edge">- status</text><text x="0" y="150" font-family="Virgil, Segoe UI Emoji" font-size="20px" fill="#1e1e1e" text-anchor="start" style="white-space: pre;" direction="ltr" dominant-baseline="text-before-edge">- timestamp</text><text x="0" y="175" font-family="Virgil, Segoe UI Emoji" font-size="20px" fill="#1e1e1e" text-anchor="start" style="white-space: pre;" direction="ltr" dominant-baseline="text-before-edge">- driverLocation</text></g><g transform="translate(4853.402232486156 923.0136394933121) rotate(0 32.249977111816406 50)"><text x="0" y="0" font-family="Virgil, Segoe UI Emoji" font-size="20px" fill="#1e1e1e" text-anchor="start" style="white-space: pre;" direction="ltr" dominant-baseline="text-before-edge">Rider:</text><text x="0" y="25" font-family="Virgil, Segoe UI Emoji" font-size="20px" fill="#1e1e1e" text-anchor="start" style="white-space: pre;" direction="ltr" dominant-baseline="text-before-edge">- id</text><text x="0" y="50" font-family="Virgil, Segoe UI Emoji" font-size="20px" fill="#1e1e1e" text-anchor="start" style="white-space: pre;" direction="ltr" dominant-baseline="text-before-edge">- name</text><text x="0" y="75" font-family="Virgil, Segoe UI Emoji" font-size="20px" fill="#1e1e1e" text-anchor="start" style="white-space: pre;" direction="ltr" dominant-baseline="text-before-edge">- ...</text></g><g transform="translate(3245.1653749881793 937.1369420653322) rotate(0 65.11993408203125 12.5)"><text x="0" y="0" font-family="Virgil, Segoe UI Emoji" font-size="20px" fill="#1e1e1e" text-anchor="start" style="white-space: pre;" direction="ltr" dominant-baseline="text-before-edge">requestRide()</text></g><g stroke-linecap="round" transform="translate(3615.7063017420874 1203.0065637581583) rotate(0 173.56395250952005 90.59025409228911)"><path d="M32 0 C116.56 -0.35, 200.92 -1.38, 315.13 0 M32 0 C129.99 -2.08, 227.21 -1.1, 315.13 0 M315.13 0 C335.56 -1.95, 345.39 10.42, 347.13 32 M315.13 0 C334.98 -1.9, 348.97 11.47, 347.13 32 M347.13 32 C349.18 63.28, 346.36 92.64, 347.13 149.18 M347.13 32 C347.12 77.37, 347 122.53, 347.13 149.18 M347.13 149.18 C349.08 168.74, 337.19 180.9, 315.13 181.18 M347.13 149.18 C347.08 168.59, 336.14 180.98, 315.13 181.18 M315.13 181.18 C214.9 181.62, 116.71 181.74, 32 181.18 M315.13 181.18 C226.52 179.87, 138.74 180.58, 32 181.18 M32 181.18 C12.55 180.14, -0.08 170.71, 0 149.18 M32 181.18 C10.24 181.16, 2.27 170.58, 0 149.18 M0 149.18 C-0.87 110.06, 0.57 73.49, 0 32 M0 149.18 C-0.81 116.21, -0.72 83.36, 0 32 M0 32 C0.19 12.54, 11.08 0.6, 32 0 M0 32 C1.02 8.64, 10 -0.54, 32 0" stroke="#1e1e1e" stroke-width="2" fill="none"></path></g><g transform="translate(3696.0350497973063 1270.4119547730047) rotate(0 85.75995635986328 25)"><text x="0" y="0" font-family="Virgil, Segoe UI Emoji" font-size="20px" fill="#1e1e1e" text-anchor="start" style="white-space: pre;" direction="ltr" dominant-baseline="text-before-edge">RIDE MATCHING</text><text x="0" y="25" font-family="Virgil, Segoe UI Emoji" font-size="20px" fill="#1e1e1e" text-anchor="start" style="white-space: pre;" direction="ltr" dominant-baseline="text-before-edge">SERVICE</text></g><g stroke-linecap="round"><g transform="translate(3755.0312624085 1128.812748491503) rotate(0 -0.30008592964486525 24.05806287746782)"><path d="M-0.48 -0.12 C-0.65 7.75, -0.65 39.62, -0.71 47.72 M0.27 -0.66 C0 7.51, -0.93 40.17, -1.19 48.21" stroke="#1e1e1e" stroke-width="2" fill="none"></path></g><g transform="translate(3755.0312624085 1128.812748491503) rotate(0 -0.30008592964486525 24.05806287746782)"><path d="M-8.74 25.36 C-6.21 33.25, -4.05 41.12, -1.19 48.21 M-8.74 25.36 C-6.47 33.98, -3.1 42.08, -1.19 48.21" stroke="#1e1e1e" stroke-width="2" fill="none"></path></g><g transform="translate(3755.0312624085 1128.812748491503) rotate(0 -0.30008592964486525 24.05806287746782)"><path d="M7.72 25.86 C4.45 33.5, 0.81 41.19, -1.19 48.21 M7.72 25.86 C4.06 34.28, 1.53 42.21, -1.19 48.21" stroke="#1e1e1e" stroke-width="2" fill="none"></path></g></g><mask></mask><g transform="translate(4869.15363016919 1041.6279736193121) rotate(0 32.249977111816406 50)"><text x="0" y="0" font-family="Virgil, Segoe UI Emoji" font-size="20px" fill="#1e1e1e" text-anchor="start" style="white-space: pre;" direction="ltr" dominant-baseline="text-before-edge">Driver:</text><text x="0" y="25" font-family="Virgil, Segoe UI Emoji" font-size="20px" fill="#1e1e1e" text-anchor="start" style="white-space: pre;" direction="ltr" dominant-baseline="text-before-edge">- id</text><text x="0" y="50" font-family="Virgil, Segoe UI Emoji" font-size="20px" fill="#1e1e1e" text-anchor="start" style="white-space: pre;" direction="ltr" dominant-baseline="text-before-edge">- name</text><text x="0" y="75" font-family="Virgil, Segoe UI Emoji" font-size="20px" fill="#1e1e1e" text-anchor="start" style="white-space: pre;" direction="ltr" dominant-baseline="text-before-edge">- ...</text></g><g stroke-linecap="round" transform="translate(3644.2458513351667 1539.6391705356052) rotate(0 181.41430038910107 87.77911409091769)"><path d="M32 0 C132.61 -1.5, 235.27 -2.39, 330.83 0 M32 0 C135.19 1.83, 237.36 1.94, 330.83 0 M330.83 0 C353.92 0.08, 364.12 10.23, 362.83 32 M330.83 0 C349.88 0.85, 360.87 10.95, 362.83 32 M362.83 32 C365 71.79, 362.05 109.77, 362.83 143.56 M362.83 32 C362.95 73.38, 363.86 112.91, 362.83 143.56 M362.83 143.56 C364.44 163.15, 351.83 174.38, 330.83 175.56 M362.83 143.56 C361.94 164.68, 353.05 176.23, 330.83 175.56 M330.83 175.56 C222.63 174.56, 115.15 175.21, 32 175.56 M330.83 175.56 C256.72 177.25, 182.37 177.39, 32 175.56 M32 175.56 C10.38 173.66, 1.9 163.84, 0 143.56 M32 175.56 C11.86 175.68, -0.41 163.4, 0 143.56 M0 143.56 C0.65 116.62, 0.78 94.12, 0 32 M0 143.56 C0.19 121.67, -0.92 98.54, 0 32 M0 32 C-0.56 10.23, 11 -0.98, 32 0 M0 32 C-2.26 10.1, 9.63 1.16, 32 0" stroke="#1e1e1e" stroke-width="2" fill="none"></path></g><g transform="translate(3734.410772621637 1611.4950637570316) rotate(0 89.6699447631836 12.5)"><text x="0" y="0" font-family="Virgil, Segoe UI Emoji" font-size="20px" fill="#1e1e1e" text-anchor="start" style="white-space: pre;" direction="ltr" dominant-baseline="text-before-edge">Location SERVICE</text></g><g stroke-linecap="round" transform="translate(2188.4527782802943 1402.9467837755356) rotate(0 121.7043347086701 60.445143576581245)"><path d="M30.22 0 C98.97 2.4, 169.62 2.74, 213.19 0 M30.22 0 C73.11 -0.17, 117.38 -0.37, 213.19 0 M213.19 0 C234.68 0.15, 242.19 9.86, 243.41 30.22 M213.19 0 C232.16 2.24, 242.12 7.94, 243.41 30.22 M243.41 30.22 C242.68 49.4, 243.05 71.43, 243.41 90.67 M243.41 30.22 C242.68 52.85, 244.11 75.83, 243.41 90.67 M243.41 90.67 C242.99 109.31, 234.2 122.86, 213.19 120.89 M243.41 90.67 C242.07 111.1, 234.21 119, 213.19 120.89 M213.19 120.89 C151.07 119.79, 86.36 122.13, 30.22 120.89 M213.19 120.89 C164.21 120.75, 115.24 119.58, 30.22 120.89 M30.22 120.89 C8.73 122.36, -0.47 112.41, 0 90.67 M30.22 120.89 C8.01 119.58, -2.07 111.86, 0 90.67 M0 90.67 C1.44 65.32, 0.32 44.22, 0 30.22 M0 90.67 C0.52 77.67, -0.09 64.36, 0 30.22 M0 30.22 C-1.25 10.23, 8.67 1.14, 30.22 0 M0 30.22 C-0.18 11.71, 8.04 -1.98, 30.22 0" stroke="#1e1e1e" stroke-width="2" fill="none"></path></g><g transform="translate(2265.350696153479 1456.5499844028873) rotate(0 61.339942932128906 12.5)"><text x="0" y="0" font-family="Virgil, Segoe UI Emoji" font-size="20px" fill="#1e1e1e" text-anchor="start" style="white-space: pre;" direction="ltr" dominant-baseline="text-before-edge">Driver Client</text></g><g stroke-linecap="round"><g transform="translate(2453.708343339555 1461.7666490146505) rotate(0 151.8409949037325 -112.25687622710723)"><path d="M0.69 1.18 C51.36 -35.97, 252.47 -186.03, 303.11 -223.69 M-0.4 0.75 C50.14 -36.67, 251.09 -187.98, 301.86 -225.38" stroke="#1e1e1e" stroke-width="2" fill="none"></path></g><g transform="translate(2453.708343339555 1461.7666490146505) rotate(0 151.8409949037325 -112.25687622710723)"><path d="M288.14 -204.48 C293.3 -210.18, 295.78 -212.46, 301.86 -225.38 M288.14 -204.48 C291.68 -210.83, 296.09 -216.13, 301.86 -225.38" stroke="#1e1e1e" stroke-width="2" fill="none"></path></g><g transform="translate(2453.708343339555 1461.7666490146505) rotate(0 151.8409949037325 -112.25687622710723)"><path d="M277.92 -218.19 C285.28 -220.88, 290.03 -220.11, 301.86 -225.38 M277.92 -218.19 C284.21 -220.72, 291.45 -222.23, 301.86 -225.38" stroke="#1e1e1e" stroke-width="2" fill="none"></path></g></g><mask></mask><g transform="translate(2562.689311929793 1398.113200366364) rotate(0 82.88992309570312 12.5)"><text x="0" y="0" font-family="Virgil, Segoe UI Emoji" font-size="20px" fill="#1e1e1e" text-anchor="start" style="white-space: pre;" direction="ltr" dominant-baseline="text-before-edge">updateLocation()</text></g><g stroke-linecap="round" transform="translate(3145.8121383866023 1750.4634035442639) rotate(0 132.16019812058425 65.55477079350283)"><path d="M32 0 C82.55 0.87, 134.35 -1.23, 232.32 0 M32 0 C89.2 0.75, 146.97 0.88, 232.32 0 M232.32 0 C252.66 1.52, 264.81 11.76, 264.32 32 M232.32 0 C254.84 0.21, 264.15 8.91, 264.32 32 M264.32 32 C265.23 50.84, 265.98 70.82, 264.32 99.11 M264.32 32 C263.66 51.98, 265.03 72.71, 264.32 99.11 M264.32 99.11 C265.67 122.23, 253.45 129.58, 232.32 131.11 M264.32 99.11 C265.25 122.08, 255.52 133.37, 232.32 131.11 M232.32 131.11 C186.87 129.28, 142.04 131.11, 32 131.11 M232.32 131.11 C168.26 131.21, 104.22 132.29, 32 131.11 M32 131.11 C11.69 130.22, 0.3 120.43, 0 99.11 M32 131.11 C12.09 132.86, 0.18 118.83, 0 99.11 M0 99.11 C-0.01 72.07, -0.01 48.12, 0 32 M0 99.11 C-0.72 80.61, -0.97 62.52, 0 32 M0 32 C1.43 11.34, 12.02 -0.69, 32 0 M0 32 C-0.8 12.87, 12.71 1.03, 32 0" stroke="#1e1e1e" stroke-width="2" fill="none"></path></g><g transform="translate(3221.0875946958695 1795.509246131369) rotate(0 56.60993957519531 25)"><text x="0" y="0" font-family="Virgil, Segoe UI Emoji" font-size="20px" fill="#1e1e1e" text-anchor="start" style="white-space: pre;" direction="ltr" dominant-baseline="text-before-edge">Notification</text><text x="0" y="25" font-family="Virgil, Segoe UI Emoji" font-size="20px" fill="#1e1e1e" text-anchor="start" style="white-space: pre;" direction="ltr" dominant-baseline="text-before-edge">Service</text></g><g stroke-linecap="round"><g transform="translate(3607.334850756037 1357.9234753768183) rotate(0 -110.18373089543479 181.92695317492223)"><path d="M-0.45 -0.42 C-29.68 23.19, -138.95 81.36, -175.42 141.98 C-211.9 202.59, -211.95 326.46, -219.28 363.29 M1.52 -1.68 C-27.32 22.06, -136.22 82.27, -173.06 143.26 C-209.89 204.26, -211.88 327.59, -219.48 364.31" stroke="#1e1e1e" stroke-width="2" fill="none"></path></g><g transform="translate(3607.334850756037 1357.9234753768183) rotate(0 -110.18373089543479 181.92695317492223)"><path d="M-225.11 339.95 C-224.06 346.13, -222.48 356.3, -219.48 364.31 M-225.11 339.95 C-223.51 345.88, -222.92 351.3, -219.48 364.31" stroke="#1e1e1e" stroke-width="2" fill="none"></path></g><g transform="translate(3607.334850756037 1357.9234753768183) rotate(0 -110.18373089543479 181.92695317492223)"><path d="M-208.14 342.03 C-212.15 347.53, -215.63 357.08, -219.48 364.31 M-208.14 342.03 C-210.84 347.3, -214.54 352.2, -219.48 364.31" stroke="#1e1e1e" stroke-width="2" fill="none"></path></g></g><mask></mask><g stroke-linecap="round"><g transform="translate(3129.2326092803196 1784.2815867671743) rotate(0 -347.43211656227436 -134.1967253961269)"><path d="M0.3 -0.77 C-115.49 -45.39, -578.08 -223.98, -693.77 -268.55 M-1 1.44 C-116.93 -42.92, -578.63 -222.4, -694.14 -267.09" stroke="#1e1e1e" stroke-width="2" fill="none"></path></g><g transform="translate(3129.2326092803196 1784.2815867671743) rotate(0 -347.43211656227436 -134.1967253961269)"><path d="M-669.15 -266.57 C-679.87 -264.88, -688.3 -265.19, -694.14 -267.09 M-669.15 -266.57 C-677.36 -267.64, -684.2 -267.79, -694.14 -267.09" stroke="#1e1e1e" stroke-width="2" fill="none"></path></g><g transform="translate(3129.2326092803196 1784.2815867671743) rotate(0 -347.43211656227436 -134.1967253961269)"><path d="M-675.33 -250.62 C-683.61 -254.98, -689.7 -261.32, -694.14 -267.09 M-675.33 -250.62 C-681.47 -256.8, -686.34 -262.03, -694.14 -267.09" stroke="#1e1e1e" stroke-width="2" fill="none"></path></g></g><mask></mask><g stroke-linecap="round"><g transform="translate(2952.6378084326493 1217.636885568903) rotate(0 336.7931628697095 187.78302538218782)"><path d="M0.53 0.27 C113.16 62.59, 562.61 312.44, 674.61 375.04 M-0.65 -0.63 C112.01 62.36, 561.61 313.31, 674.2 376.31" stroke="#1e1e1e" stroke-width="2" fill="none"></path></g><g transform="translate(2952.6378084326493 1217.636885568903) rotate(0 336.7931628697095 187.78302538218782)"><path d="M649.53 372.31 C655.07 374.73, 658.8 372.16, 674.2 376.31 M649.53 372.31 C657.88 373.53, 665.04 374.58, 674.2 376.31" stroke="#1e1e1e" stroke-width="2" fill="none"></path></g><g transform="translate(2952.6378084326493 1217.636885568903) rotate(0 336.7931628697095 187.78302538218782)"><path d="M657.87 357.39 C661.85 362.9, 663.87 363.38, 674.2 376.31 M657.87 357.39 C663.5 363.43, 667.95 369.35, 674.2 376.31" stroke="#1e1e1e" stroke-width="2" fill="none"></path></g></g><mask></mask><g stroke-linecap="round"><g transform="translate(4031.512779419881 1600.6512916125716) rotate(0 86.11134756240972 -47.84922513734841)"><path d="M0.88 0.92 C29.54 -14.76, 143.52 -79.05, 172.09 -95.09 M-0.12 0.35 C28.36 -15.59, 142.46 -80.59, 171.08 -96.89" stroke="#1e1e1e" stroke-width="2" fill="none"></path></g><g transform="translate(4031.512779419881 1600.6512916125716) rotate(0 86.11134756240972 -47.84922513734841)"><path d="M154.9 -77.84 C161.58 -84.06, 166.08 -89.56, 171.08 -96.89 M154.9 -77.84 C160.98 -83.46, 166.77 -90.17, 171.08 -96.89" stroke="#1e1e1e" stroke-width="2" fill="none"></path></g><g transform="translate(4031.512779419881 1600.6512916125716) rotate(0 86.11134756240972 -47.84922513734841)"><path d="M146.43 -92.7 C155.61 -94.39, 162.72 -95.29, 171.08 -96.89 M146.43 -92.7 C155.21 -93.39, 163.81 -95.17, 171.08 -96.89" stroke="#1e1e1e" stroke-width="2" fill="none"></path></g></g><mask></mask><g stroke-linecap="round"><g transform="translate(3974.6533885704994 1253.0155613376644) rotate(0 116.60597458594202 65.39139792769186)"><path d="M-0.68 -0.21 C38.12 21.51, 193.42 108.43, 232.43 130.17 M1.17 -1.37 C40.38 20.51, 196.14 109.28, 234.74 131.39" stroke="#1e1e1e" stroke-width="2" fill="none"></path></g><g transform="translate(3974.6533885704994 1253.0155613376644) rotate(0 116.60597458594202 65.39139792769186)"><path d="M24 3.8 C16.97 1.27, 9.63 1.84, -0.68 -0.21 M24 3.8 C17.8 3.12, 11.85 1.98, -0.68 -0.21" stroke="#1e1e1e" stroke-width="2" fill="none"></path></g><g transform="translate(3974.6533885704994 1253.0155613376644) rotate(0 116.60597458594202 65.39139792769186)"><path d="M15.65 18.72 C10.9 12.2, 5.82 8.73, -0.68 -0.21 M15.65 18.72 C11.68 14.17, 7.86 9.21, -0.68 -0.21" stroke="#1e1e1e" stroke-width="2" fill="none"></path></g><g transform="translate(3974.6533885704994 1253.0155613376644) rotate(0 116.60597458594202 65.39139792769186)"><path d="M210.1 127.17 C216.41 127.15, 222.42 129.95, 234.74 131.39 M210.1 127.17 C216.47 128.27, 223.13 129.24, 234.74 131.39" stroke="#1e1e1e" stroke-width="2" fill="none"></path></g><g transform="translate(3974.6533885704994 1253.0155613376644) rotate(0 116.60597458594202 65.39139792769186)"><path d="M218.57 112.32 C222.57 116.28, 226.29 123.09, 234.74 131.39 M218.57 112.32 C222.69 117.28, 227.19 122.04, 234.74 131.39" stroke="#1e1e1e" stroke-width="2" fill="none"></path></g></g><mask></mask><g transform="translate(4553.1510728607245 1243.4103635373876) rotate(0 57.75994110107422 50)"><text x="0" y="0" font-family="Virgil, Segoe UI Emoji" font-size="20px" fill="#1e1e1e" text-anchor="start" style="white-space: pre;" direction="ltr" dominant-baseline="text-before-edge">Location:</text><text x="0" y="25" font-family="Virgil, Segoe UI Emoji" font-size="20px" fill="#1e1e1e" text-anchor="start" style="white-space: pre;" direction="ltr" dominant-baseline="text-before-edge">- lat</text><text x="0" y="50" font-family="Virgil, Segoe UI Emoji" font-size="20px" fill="#1e1e1e" text-anchor="start" style="white-space: pre;" direction="ltr" dominant-baseline="text-before-edge">- long</text><text x="0" y="75" font-family="Virgil, Segoe UI Emoji" font-size="20px" fill="#1e1e1e" text-anchor="start" style="white-space: pre;" direction="ltr" dominant-baseline="text-before-edge">- timestamp</text></g><g transform="translate(3248.6694412824722 971.6142502985845) rotate(0 82.00992584228516 12.5)"><text x="0" y="0" font-family="Virgil, Segoe UI Emoji" font-size="20px" fill="#1e1e1e" text-anchor="start" style="white-space: pre;" direction="ltr" dominant-baseline="text-before-edge">accept()/reject()</text></g><g transform="translate(3151.507654501606 1904.7155566054853) rotate(0 152.8798828125 12.5)"><text x="0" y="0" font-family="Virgil, Segoe UI Emoji" font-size="20px" fill="#1e1e1e" text-anchor="start" style="white-space: pre;" direction="ltr" dominant-baseline="text-before-edge">TTL 10s to accept/reject ride</text></g><g stroke-linecap="round" transform="translate(4204.569712690674 1351.5575671572797) rotate(0 88.32838493286908 80.44423577070631)"><path d="M104.4 1.02 C115.72 1.8, 128.46 8.12, 138.22 14.43 C147.98 20.74, 156.7 29.68, 162.97 38.89 C169.24 48.1, 174.25 58.81, 175.83 69.69 C177.41 80.57, 175.73 93.73, 172.45 104.17 C169.16 114.6, 163.95 124.25, 156.12 132.3 C148.28 140.35, 136.36 147.84, 125.43 152.46 C114.51 157.09, 102.45 159.66, 90.57 160.03 C78.7 160.39, 65.43 158.61, 54.19 154.65 C42.94 150.69, 31.3 144.11, 23.12 136.27 C14.93 128.43, 8.84 118.1, 5.1 107.6 C1.35 97.1, -0.22 84.26, 0.64 73.29 C1.5 62.33, 4.51 51.34, 10.23 41.81 C15.96 32.28, 25.23 22.85, 34.99 16.14 C44.74 9.43, 56.07 3.96, 68.75 1.56 C81.42 -0.85, 103.34 1.22, 111.04 1.71 C118.74 2.19, 115.49 2.98, 114.93 4.48 M92.12 -0.87 C103.65 -1.37, 116.84 5.18, 127.9 10.07 C138.96 14.96, 150.89 20.08, 158.48 28.48 C166.07 36.87, 170.72 49.79, 173.44 60.42 C176.16 71.05, 176.44 81.38, 174.78 92.25 C173.13 103.11, 169.93 116.29, 163.52 125.62 C157.1 134.95, 146.69 142.51, 136.27 148.2 C125.86 153.89, 112.59 158.21, 101.02 159.76 C89.45 161.32, 78.35 160.2, 66.84 157.54 C55.34 154.88, 41.57 150.65, 32 143.8 C22.43 136.95, 14.78 126.29, 9.41 116.43 C4.03 106.57, 0.42 95.23, -0.26 84.65 C-0.95 74.07, 1.12 63.02, 5.31 52.95 C9.5 42.89, 16.37 32.31, 24.88 24.26 C33.4 16.2, 45.1 8.57, 56.4 4.62 C67.7 0.67, 86.68 0.97, 92.67 0.56 C98.65 0.15, 92.38 0.63, 92.3 2.13" stroke="#1e1e1e" stroke-width="2" fill="none"></path></g><g transform="translate(4236.600539475337 1407.11913830715) rotate(0 56.33995819091797 25)"><text x="56.33995819091797" y="0" font-family="Virgil, Segoe UI Emoji" font-size="20px" fill="#1e1e1e" text-anchor="middle" style="white-space: pre;" direction="ltr" dominant-baseline="text-before-edge">Redis</text><text x="56.33995819091797" y="25" font-family="Virgil, Segoe UI Emoji" font-size="20px" fill="#1e1e1e" text-anchor="middle" style="white-space: pre;" direction="ltr" dominant-baseline="text-before-edge">LocationDB</text></g><g transform="translate(4308.153743162048 1514.7501594613395) rotate(0 308.67974853515625 25)"><text x="0" y="0" font-family="Virgil, Segoe UI Emoji" font-size="20px" fill="#1e1e1e" text-anchor="start" style="white-space: pre;" direction="ltr" dominant-baseline="text-before-edge">geohashing</text><text x="0" y="25" font-family="Virgil, Segoe UI Emoji" font-size="20px" fill="#1e1e1e" text-anchor="start" style="white-space: pre;" direction="ltr" dominant-baseline="text-before-edge">- encode lat and long as string -&gt; sorted set to index values</text></g><g transform="translate(2148.7362712468907 1550.4555809617236) rotate(0 154.869873046875 12.5)"><text x="0" y="0" font-family="Virgil, Segoe UI Emoji" font-size="20px" fill="#1e1e1e" text-anchor="start" style="white-space: pre;" direction="ltr" dominant-baseline="text-before-edge">dynamic driver location updates</text></g><g stroke-linecap="round"><g transform="translate(3981.8755959487717 1204.809298829178) rotate(0 61.58875363725929 -18.613239608278604)"><path d="M-0.61 -0.26 C19.6 -6.25, 101.55 -30.7, 122.01 -36.91 M1.27 -1.44 C21.76 -7.72, 103.57 -33.05, 124.1 -38.87" stroke="#1e1e1e" stroke-width="2" fill="none"></path></g><g transform="translate(3981.8755959487717 1204.809298829178) rotate(0 61.58875363725929 -18.613239608278604)"><path d="M19.46 -15.17 C11.61 -11.8, 5.27 -6.15, -0.61 -0.26 M19.46 -15.17 C14.58 -10.58, 7.52 -6.91, -0.61 -0.26" stroke="#1e1e1e" stroke-width="2" fill="none"></path></g><g transform="translate(3981.8755959487717 1204.809298829178) rotate(0 61.58875363725929 -18.613239608278604)"><path d="M24.34 1.22 C14.86 -1.4, 6.74 -1.7, -0.61 -0.26 M24.34 1.22 C18.13 1.33, 9.72 0.5, -0.61 -0.26" stroke="#1e1e1e" stroke-width="2" fill="none"></path></g><g transform="translate(3981.8755959487717 1204.809298829178) rotate(0 61.58875363725929 -18.613239608278604)"><path d="M104.04 -23.96 C111.02 -31.23, 119.26 -36.41, 124.1 -38.87 M104.04 -23.96 C110.21 -27.84, 114.19 -32.37, 124.1 -38.87" stroke="#1e1e1e" stroke-width="2" fill="none"></path></g><g transform="translate(3981.8755959487717 1204.809298829178) rotate(0 61.58875363725929 -18.613239608278604)"><path d="M99.15 -40.35 C107.78 -41.64, 117.79 -40.87, 124.1 -38.87 M99.15 -40.35 C106.66 -39.75, 111.98 -39.77, 124.1 -38.87" stroke="#1e1e1e" stroke-width="2" fill="none"></path></g></g><mask></mask><g stroke-linecap="round" transform="translate(4096.591515483692 1027.6342426305218) rotate(0 91.51978936328373 71.43619396270464)"><path d="M129.18 7.12 C140.39 9.97, 151.61 17.13, 159.75 24.37 C167.89 31.61, 174.23 41.33, 178.02 50.57 C181.8 59.81, 183.85 70.23, 182.48 79.79 C181.1 89.35, 176.1 99.5, 169.77 107.93 C163.45 116.35, 154.53 124.6, 144.54 130.34 C134.55 136.08, 121.9 140.63, 109.84 142.37 C97.78 144.11, 84.28 142.87, 72.17 140.76 C60.06 138.64, 47.16 135.22, 37.2 129.67 C27.24 124.12, 18.46 116.07, 12.4 107.45 C6.34 98.82, 2.21 87.74, 0.83 77.91 C-0.56 68.08, 0.09 57.63, 4.1 48.46 C8.11 39.3, 16.44 30.1, 24.89 22.91 C33.34 15.72, 43.66 9.32, 54.81 5.34 C65.95 1.36, 77.95 -1.81, 91.77 -0.96 C105.58 -0.11, 128.79 7.67, 137.7 10.45 C146.61 13.23, 145.72 14.62, 145.23 15.7 M96.04 0.45 C107.75 -0.37, 121.78 3.38, 132.58 7.72 C143.39 12.05, 152.8 19.25, 160.88 26.46 C168.96 33.67, 177.53 41.73, 181.06 50.96 C184.59 60.19, 184.12 72.24, 182.07 81.83 C180.02 91.41, 175.44 100.08, 168.78 108.47 C162.12 116.86, 152.36 126.49, 142.1 132.16 C131.84 137.84, 119.6 141.17, 107.22 142.54 C94.84 143.91, 80.08 142.7, 67.82 140.39 C55.55 138.08, 43.03 134.64, 33.62 128.69 C24.21 122.74, 16.92 113.27, 11.36 104.69 C5.8 96.11, 1.41 86.97, 0.27 77.22 C-0.87 67.47, 0.16 55.33, 4.53 46.18 C8.89 37.02, 17.4 29.42, 26.45 22.32 C35.49 15.22, 47.04 7.13, 58.78 3.57 C70.52 0.01, 90.87 1.51, 96.88 0.96 C102.89 0.41, 95.03 -0.55, 94.83 0.25" stroke="#1e1e1e" stroke-width="2" fill="none"></path></g><g transform="translate(4162.273041086875 1071.4012700266221) rotate(0 50.229957580566406 25)"><text x="0" y="0" font-family="Virgil, Segoe UI Emoji" font-size="20px" fill="#1e1e1e" text-anchor="start" style="white-space: pre;" direction="ltr" dominant-baseline="text-before-edge">Dist. Lock</text><text x="0" y="25" font-family="Virgil, Segoe UI Emoji" font-size="20px" fill="#1e1e1e" text-anchor="start" style="white-space: pre;" direction="ltr" dominant-baseline="text-before-edge">TTL</text></g><g stroke-linecap="round" transform="translate(3550.4923605479476 1072.6406503879482) rotate(0 206.28359404852768 20.942711332861904)"><path d="M10.47 0 C153.38 -1, 298.31 0.19, 402.1 0 M10.47 0 C160.69 -0.45, 310.88 -1.04, 402.1 0 M402.1 0 C409.59 -1.09, 413.19 4.94, 412.57 10.47 M402.1 0 C409.79 -1.66, 413.42 2.33, 412.57 10.47 M412.57 10.47 C414.63 18.9, 412.34 26.27, 412.57 31.41 M412.57 10.47 C411.66 17.61, 412.72 24.49, 412.57 31.41 M412.57 31.41 C412.72 37.66, 408.59 41.24, 402.1 41.89 M412.57 31.41 C412.23 36.22, 408 40.75, 402.1 41.89 M402.1 41.89 C275.51 43.04, 150.48 42, 10.47 41.89 M402.1 41.89 C281.79 42.47, 161.12 42.64, 10.47 41.89 M10.47 41.89 C3.93 43.84, -0.45 40.29, 0 31.41 M10.47 41.89 C2.96 43.92, 0.94 37.05, 0 31.41 M0 31.41 C0.34 28.42, -1.08 23.7, 0 10.47 M0 31.41 C-1.04 24.28, -0.21 19.7, 0 10.47 M0 10.47 C0.39 4.76, 4.17 -1.47, 10.47 0 M0 10.47 C-1.9 5.59, 5.58 -0.87, 10.47 0" stroke="#1e1e1e" stroke-width="2" fill="none"></path></g><g transform="translate(3690.1959756536044 1081.0833617208102) rotate(0 66.5799789428711 12.5)"><text x="66.5799789428711" y="0" font-family="Virgil, Segoe UI Emoji" font-size="20px" fill="#1e1e1e" text-anchor="middle" style="white-space: pre;" direction="ltr" dominant-baseline="text-before-edge">RIDE QUEUE</text></g><g stroke-linecap="round"><g transform="translate(3729.1434060860015 978.1604320252243) rotate(0 6.4273702401026185 46.29649004262501)"><path d="M0.71 0.94 C2.89 16.72, 10.57 78.48, 12.51 93.61 M-0.37 0.4 C1.67 15.95, 9.43 76.65, 11.38 92.03" stroke="#1e1e1e" stroke-width="2" fill="none"></path></g><g transform="translate(3729.1434060860015 978.1604320252243) rotate(0 6.4273702401026185 46.29649004262501)"><path d="M-0.07 69.81 C4.22 74.82, 7.27 80.23, 11.38 92.03 M-0.07 69.81 C2.71 74.06, 5.48 79.35, 11.38 92.03" stroke="#1e1e1e" stroke-width="2" fill="none"></path></g><g transform="translate(3729.1434060860015 978.1604320252243) rotate(0 6.4273702401026185 46.29649004262501)"><path d="M16.89 67.64 C16.85 73.31, 15.58 79.27, 11.38 92.03 M16.89 67.64 C15.76 72.39, 14.6 78.18, 11.38 92.03" stroke="#1e1e1e" stroke-width="2" fill="none"></path></g></g><mask></mask></svg>