<svg version="1.1" xmlns="http://www.w3.org/2000/svg" viewBox="0 0 6425 2420" width="6425" height="2420">
  <!-- svg-source:excalidraw -->
  
  <defs>
    <style class="style-fonts">
      @font-face {
        font-family: "Virgil";
        src: url("https://excalidraw.com/Virgil.woff2");
      }
      @font-face {
        font-family: "Cascadia";
        src: url("https://excalidraw.com/Cascadia.woff2");
      }
      @font-face {
        font-family: "Assistant";
        src: url("https://excalidraw.com/Assistant-Regular.woff2");
      }
    </style>
    
  </defs>
  <rect x="0" y="0" width="6425" height="2420" fill="#ffffff"></rect><g transform="translate(265 10) rotate(0 251.64996337890625 31.25)"><text x="0" y="0" font-family="Virgil, Segoe UI Emoji" font-size="50px" fill="#000000" text-anchor="start" style="white-space: pre;" direction="ltr" dominant-baseline="text-before-edge">Design Ticketmaster</text></g><g transform="translate(265 110) rotate(0 1065.8994140625 18.75)"><text x="0" y="0" font-family="Virgil, Segoe UI Emoji" font-size="30px" fill="#000000" text-anchor="start" style="white-space: pre;" direction="ltr" dominant-baseline="text-before-edge">Ticketmaster is an online platform that allows users to purchase tickets for concerts, sporting events, theater, and other live entertainment.</text></g><g stroke-linecap="round" transform="translate(265 310) rotate(0 625 350)"><path d="M32 0 C366.26 -4.5, 701.78 -4.49, 1218 0 M32 0 C445.55 -1.92, 858.97 -1.66, 1218 0 M1218 0 C1239.8 0.18, 1249.18 9.68, 1250 32 M1218 0 C1239 -1.43, 1251.83 9.35, 1250 32 M1250 32 C1247.07 200.35, 1248.47 368.55, 1250 668 M1250 32 C1248.89 256.26, 1249.45 479.37, 1250 668 M1250 668 C1248.38 687.92, 1238.76 698.64, 1218 700 M1250 668 C1250.79 687.98, 1240.23 701.93, 1218 700 M1218 700 C897.98 705.35, 578.8 705.34, 32 700 M1218 700 C957.35 697.13, 696.68 696.76, 32 700 M32 700 C11.28 698.69, -0.46 689.17, 0 668 M32 700 C11.84 701.27, 0.91 688.28, 0 668 M0 668 C-1.22 481.55, -2.23 294.55, 0 32 M0 668 C2.53 420.27, 2.45 172.49, 0 32 M0 32 C-1.07 9.48, 8.67 1.1, 32 0 M0 32 C-1.6 9.07, 12.55 -1.29, 32 0" stroke="#000000" stroke-width="1" fill="none"></path></g><g stroke-linecap="round"><g transform="translate(65 380) rotate(0 80.75 -16.5)"><path d="M0.3 -0.04 C10.78 -5.37, 36.12 -29.67, 62.93 -31.87 C89.73 -34.07, 144.76 -16.45, 161.13 -13.24 M-1 -1.1 C9.35 -6.75, 35.34 -31.03, 62.2 -33.4 C89.07 -35.76, 143.67 -18.45, 160.17 -15.31" stroke="#B8B8B8" stroke-width="1" fill="none"></path></g><g transform="translate(65 380) rotate(0 80.75 -16.5)"><path d="M159.48 -15.36 L144.46 -14.36 L150.1 -26.32 L161.38 -13.49" stroke="none" stroke-width="0" fill="#B8B8B8" fill-rule="evenodd"></path><path d="M160.17 -15.31 C155.65 -13.85, 152.64 -13.97, 145.45 -12.4 M160.17 -15.31 C155.61 -13.59, 149.95 -13.46, 145.45 -12.4 M145.45 -12.4 C145.38 -15.47, 146.39 -19.56, 148.48 -24.71 M145.45 -12.4 C146.7 -14.78, 147.38 -18.84, 148.48 -24.71 M148.48 -24.71 C150.16 -23.38, 153.75 -19.94, 160.17 -15.31 M148.48 -24.71 C151.52 -22.47, 155.56 -19.3, 160.17 -15.31 M160.17 -15.31 C160.17 -15.31, 160.17 -15.31, 160.17 -15.31 M160.17 -15.31 C160.17 -15.31, 160.17 -15.31, 160.17 -15.31" stroke="#B8B8B8" stroke-width="1" fill="none"></path></g></g><mask></mask><g transform="translate(10 391) rotate(0 38.38996887207031 12.5)"><text x="0" y="0" font-family="Virgil, Segoe UI Emoji" font-size="20px" fill="#B8B8B8" text-anchor="start" style="white-space: pre;" direction="ltr" dominant-baseline="text-before-edge">Example</text></g><g transform="translate(10 425) rotate(0 133.0479278564453 130)"><text x="0" y="0" font-family="Virgil, Segoe UI Emoji" font-size="16px" fill="#B8B8B8" text-anchor="start" style="white-space: pre;" direction="ltr" dominant-baseline="text-before-edge">Functional Requirements:</text><text x="0" y="20" font-family="Virgil, Segoe UI Emoji" font-size="16px" fill="#B8B8B8" text-anchor="start" style="white-space: pre;" direction="ltr" dominant-baseline="text-before-edge">- User can create tweets</text><text x="0" y="40" font-family="Virgil, Segoe UI Emoji" font-size="16px" fill="#B8B8B8" text-anchor="start" style="white-space: pre;" direction="ltr" dominant-baseline="text-before-edge">- User can view tweets</text><text x="0" y="60" font-family="Virgil, Segoe UI Emoji" font-size="16px" fill="#B8B8B8" text-anchor="start" style="white-space: pre;" direction="ltr" dominant-baseline="text-before-edge">- User can delete tweets</text><text x="0" y="80" font-family="Virgil, Segoe UI Emoji" font-size="16px" fill="#B8B8B8" text-anchor="start" style="white-space: pre;" direction="ltr" dominant-baseline="text-before-edge">- ...</text><text x="0" y="100" font-family="Virgil, Segoe UI Emoji" font-size="16px" fill="#B8B8B8" text-anchor="start" style="white-space: pre;" direction="ltr" dominant-baseline="text-before-edge"></text><text x="0" y="120" font-family="Virgil, Segoe UI Emoji" font-size="16px" fill="#B8B8B8" text-anchor="start" style="white-space: pre;" direction="ltr" dominant-baseline="text-before-edge">System Scale:</text><text x="0" y="140" font-family="Virgil, Segoe UI Emoji" font-size="16px" fill="#B8B8B8" text-anchor="start" style="white-space: pre;" direction="ltr" dominant-baseline="text-before-edge">100M DAU, 500M tweets per day</text><text x="0" y="160" font-family="Virgil, Segoe UI Emoji" font-size="16px" fill="#B8B8B8" text-anchor="start" style="white-space: pre;" direction="ltr" dominant-baseline="text-before-edge"></text><text x="0" y="180" font-family="Virgil, Segoe UI Emoji" font-size="16px" fill="#B8B8B8" text-anchor="start" style="white-space: pre;" direction="ltr" dominant-baseline="text-before-edge">Non-Functional Requirements:</text><text x="0" y="200" font-family="Virgil, Segoe UI Emoji" font-size="16px" fill="#B8B8B8" text-anchor="start" style="white-space: pre;" direction="ltr" dominant-baseline="text-before-edge">- Availability &gt; consistency</text><text x="0" y="220" font-family="Virgil, Segoe UI Emoji" font-size="16px" fill="#B8B8B8" text-anchor="start" style="white-space: pre;" direction="ltr" dominant-baseline="text-before-edge">- Low latency feed gen</text><text x="0" y="240" font-family="Virgil, Segoe UI Emoji" font-size="16px" fill="#B8B8B8" text-anchor="start" style="white-space: pre;" direction="ltr" dominant-baseline="text-before-edge">- ...</text></g><g transform="translate(315 350) rotate(0 94.3499526977539 18.75)"><text x="0" y="0" font-family="Virgil, Segoe UI Emoji" font-size="30px" fill="#000000" text-anchor="start" style="white-space: pre;" direction="ltr" dominant-baseline="text-before-edge">Requirements</text></g><g transform="translate(315 410) rotate(0 116.35990142822266 12.5)"><text x="0" y="0" font-family="Virgil, Segoe UI Emoji" font-size="20px" fill="#000000" text-anchor="start" style="white-space: pre;" direction="ltr" dominant-baseline="text-before-edge">Functional Requirements</text></g><g transform="translate(315 450) rotate(0 252.23977661132812 37.5)"><text x="0" y="0" font-family="Virgil, Segoe UI Emoji" font-size="20px" fill="#000000" text-anchor="start" style="white-space: pre;" direction="ltr" dominant-baseline="text-before-edge">1. Users should be able to view events</text><text x="0" y="25" font-family="Virgil, Segoe UI Emoji" font-size="20px" fill="#000000" text-anchor="start" style="white-space: pre;" direction="ltr" dominant-baseline="text-before-edge">2. Users should be able to search for events</text><text x="0" y="50" font-family="Virgil, Segoe UI Emoji" font-size="20px" fill="#000000" text-anchor="start" style="white-space: pre;" direction="ltr" dominant-baseline="text-before-edge">3. Users should be able to book tickets to events</text></g><g transform="translate(315 580) rotate(0 64.51994323730469 12.5)"><text x="0" y="0" font-family="Virgil, Segoe UI Emoji" font-size="20px" fill="#000000" text-anchor="start" style="white-space: pre;" direction="ltr" dominant-baseline="text-before-edge">System Scale</text></g><g transform="translate(315 610) rotate(0 198.99984741210938 12.5)"><text x="0" y="0" font-family="Virgil, Segoe UI Emoji" font-size="20px" fill="#000000" text-anchor="start" style="white-space: pre;" direction="ltr" dominant-baseline="text-before-edge">- 100M daily users, 100k events per day</text></g><g transform="translate(315 690) rotate(0 137.119873046875 12.5)"><text x="0" y="0" font-family="Virgil, Segoe UI Emoji" font-size="20px" fill="#000000" text-anchor="start" style="white-space: pre;" direction="ltr" dominant-baseline="text-before-edge">Non-Functional Requirements</text></g><g transform="translate(339.923234611815 742.8454265951079) rotate(0 492.0495910644532 37.5)"><text x="0" y="0" font-family="Virgil, Segoe UI Emoji" font-size="20px" fill="#1e1e1e" text-anchor="start" style="white-space: pre;" direction="ltr" dominant-baseline="text-before-edge">1. System should favor consistency &gt;&gt; availability for booking. Availability &gt;&gt; consistency for search.</text><text x="0" y="25" font-family="Virgil, Segoe UI Emoji" font-size="20px" fill="#1e1e1e" text-anchor="start" style="white-space: pre;" direction="ltr" dominant-baseline="text-before-edge">2. System should scale to handle bursty traffic (eg. Popular event) 100x normal traffic load</text><text x="0" y="50" font-family="Virgil, Segoe UI Emoji" font-size="20px" fill="#1e1e1e" text-anchor="start" style="white-space: pre;" direction="ltr" dominant-baseline="text-before-edge">3. Search latency should be &lt; 500ms</text></g><g stroke-linecap="round" transform="translate(265 1060) rotate(0 625 200)"><path d="M32 0 C496.71 3.12, 962.41 3.3, 1218 0 M32 0 C326.77 0.15, 621.91 0.07, 1218 0 M1218 0 C1237.54 -0.1, 1248.19 12.03, 1250 32 M1218 0 C1239.67 -1.12, 1251.11 9.96, 1250 32 M1250 32 C1246.67 153.42, 1248.61 274.65, 1250 368 M1250 32 C1247.98 134.8, 1247.91 237.15, 1250 368 M1250 368 C1249.94 390.07, 1241.27 398.23, 1218 400 M1250 368 C1251.77 388.94, 1239.6 398.91, 1218 400 M1218 400 C868.44 396.63, 520.33 396.61, 32 400 M1218 400 C961.13 401.94, 703.72 401.65, 32 400 M32 400 C11.69 399.22, -1.81 389.39, 0 368 M32 400 C11.42 400.67, 1.73 391.35, 0 368 M0 368 C-2.63 298.22, -3.28 229.75, 0 32 M0 368 C-1.81 267.5, -2.01 167.15, 0 32 M0 32 C0.73 12.47, 11.14 -0.84, 32 0 M0 32 C-2.04 11.91, 12.21 -1.31, 32 0" stroke="#000000" stroke-width="1" fill="none"></path></g><g stroke-linecap="round"><g transform="translate(65 1100) rotate(0 80.75 -16.5)"><path d="M0.64 -0.34 C10.83 -5.93, 35.36 -30.9, 62.3 -33.31 C89.24 -35.73, 145.56 -18.09, 162.26 -14.82 M-0.49 -1.57 C9.43 -6.99, 34.18 -29.85, 61.24 -31.94 C88.31 -34.02, 144.89 -17.29, 161.9 -14.07" stroke="#B8B8B8" stroke-width="1" fill="none"></path></g><g transform="translate(65 1100) rotate(0 80.75 -16.5)"><path d="M163.75 -14.35 L146.18 -9.9 L150.79 -24.83 L162.71 -15.25" stroke="none" stroke-width="0" fill="#B8B8B8" fill-rule="evenodd"></path><path d="M161.9 -14.07 C155.69 -13.04, 149.95 -10.63, 147.21 -11.01 M161.9 -14.07 C159.46 -14.02, 156.32 -12.76, 147.21 -11.01 M147.21 -11.01 C147.39 -16.89, 150.75 -21.18, 150.11 -23.35 M147.21 -11.01 C148.59 -14.6, 149.49 -18.85, 150.11 -23.35 M150.11 -23.35 C153.38 -21.03, 155.07 -18.77, 161.9 -14.07 M150.11 -23.35 C153.83 -21.14, 157.14 -19, 161.9 -14.07 M161.9 -14.07 C161.9 -14.07, 161.9 -14.07, 161.9 -14.07 M161.9 -14.07 C161.9 -14.07, 161.9 -14.07, 161.9 -14.07" stroke="#B8B8B8" stroke-width="1" fill="none"></path></g></g><mask></mask><g transform="translate(10 1111) rotate(0 110 13.75)"><text x="0" y="0" font-family="Virgil, Segoe UI Emoji" font-size="20px" fill="#B8B8B8" text-anchor="start" style="white-space: pre;" direction="ltr" dominant-baseline="text-before-edge">Example</text></g><g transform="translate(10 1145) rotate(0 110 50)"><text x="0" y="0" font-family="Virgil, Segoe UI Emoji" font-size="16px" fill="#B8B8B8" text-anchor="start" style="white-space: pre;" direction="ltr" dominant-baseline="text-before-edge">Core Entities</text><text x="0" y="20" font-family="Virgil, Segoe UI Emoji" font-size="16px" fill="#B8B8B8" text-anchor="start" style="white-space: pre;" direction="ltr" dominant-baseline="text-before-edge">- User</text><text x="0" y="40" font-family="Virgil, Segoe UI Emoji" font-size="16px" fill="#B8B8B8" text-anchor="start" style="white-space: pre;" direction="ltr" dominant-baseline="text-before-edge">- Tweet</text><text x="0" y="60" font-family="Virgil, Segoe UI Emoji" font-size="16px" fill="#B8B8B8" text-anchor="start" style="white-space: pre;" direction="ltr" dominant-baseline="text-before-edge">- Follow</text><text x="0" y="80" font-family="Virgil, Segoe UI Emoji" font-size="16px" fill="#B8B8B8" text-anchor="start" style="white-space: pre;" direction="ltr" dominant-baseline="text-before-edge">        </text></g><g transform="translate(315 1110) rotate(0 500 25)"><text x="0" y="0" font-family="Virgil, Segoe UI Emoji" font-size="30px" fill="#000000" text-anchor="start" style="white-space: pre;" direction="ltr" dominant-baseline="text-before-edge">Core Entities</text></g><g transform="translate(318.9655817789378 1185.7450788996575) rotate(0 74.46994018554688 62.5)"><text x="0" y="0" font-family="Virgil, Segoe UI Emoji" font-size="20px" fill="#1e1e1e" text-anchor="start" style="white-space: pre;" direction="ltr" dominant-baseline="text-before-edge">1. Ticket</text><text x="0" y="25" font-family="Virgil, Segoe UI Emoji" font-size="20px" fill="#1e1e1e" text-anchor="start" style="white-space: pre;" direction="ltr" dominant-baseline="text-before-edge">2. Event</text><text x="0" y="50" font-family="Virgil, Segoe UI Emoji" font-size="20px" fill="#1e1e1e" text-anchor="start" style="white-space: pre;" direction="ltr" dominant-baseline="text-before-edge">3. Booking</text><text x="0" y="75" font-family="Virgil, Segoe UI Emoji" font-size="20px" fill="#1e1e1e" text-anchor="start" style="white-space: pre;" direction="ltr" dominant-baseline="text-before-edge">4. User/Booker</text><text x="0" y="100" font-family="Virgil, Segoe UI Emoji" font-size="20px" fill="#1e1e1e" text-anchor="start" style="white-space: pre;" direction="ltr" dominant-baseline="text-before-edge">5. Location</text></g><g stroke-linecap="round" transform="translate(265 1510) rotate(0 625 450)"><path d="M32 0 C482.7 3.29, 932.72 3.41, 1218 0 M32 0 C334.01 0.08, 634.97 -0.08, 1218 0 M1218 0 C1238.34 -1.46, 1248.4 9.31, 1250 32 M1218 0 C1238.89 -0.03, 1248.26 9.49, 1250 32 M1250 32 C1251.95 302.76, 1252.44 573.19, 1250 868 M1250 32 C1246.94 317.58, 1247.56 602.94, 1250 868 M1250 868 C1251.36 890.08, 1239.15 900.53, 1218 900 M1250 868 C1247.9 888.24, 1238.35 898.58, 1218 900 M1218 900 C903.6 904.65, 590.52 904.17, 32 900 M1218 900 C973.46 903.44, 729.28 903.33, 32 900 M32 900 C10.18 899.53, -1.12 890.17, 0 868 M32 900 C12.42 898.55, -0.27 888.11, 0 868 M0 868 C0.12 615.18, 1.28 363.07, 0 32 M0 868 C-2.88 628.25, -2.96 388.04, 0 32 M0 32 C-1.53 10.62, 8.69 1.09, 32 0 M0 32 C-0.27 9.22, 11.12 -0.98, 32 0" stroke="#000000" stroke-width="1" fill="none"></path></g><g stroke-linecap="round"><g transform="translate(65 1600) rotate(0 80.75 -16.5)"><path d="M-1.08 0.68 C9.39 -4.83, 35.72 -30.89, 62.76 -33.28 C89.81 -35.66, 144.88 -17.08, 161.19 -13.63 M0.55 -0.01 C10.89 -5.31, 35.33 -29.84, 61.95 -31.88 C88.57 -33.92, 143.85 -15.15, 160.26 -12.25" stroke="#B8B8B8" stroke-width="1" fill="none"></path></g><g transform="translate(65 1600) rotate(0 80.75 -16.5)"><path d="M161.72 -12.78 L146.13 -10.36 L146.73 -20.34 L160.16 -10.76" stroke="none" stroke-width="0" fill="#B8B8B8" fill-rule="evenodd"></path><path d="M160.26 -12.25 C156.77 -11.23, 151.24 -11.11, 145.53 -9.43 M160.26 -12.25 C155.88 -10.56, 151.65 -10.57, 145.53 -9.43 M145.53 -9.43 C146.46 -13.79, 145.98 -15.86, 148.63 -21.72 M145.53 -9.43 C146.16 -13.55, 147.39 -16.72, 148.63 -21.72 M148.63 -21.72 C152.09 -19.52, 153.87 -18.36, 160.26 -12.25 M148.63 -21.72 C152.23 -19.68, 155.07 -17.37, 160.26 -12.25 M160.26 -12.25 C160.26 -12.25, 160.26 -12.25, 160.26 -12.25 M160.26 -12.25 C160.26 -12.25, 160.26 -12.25, 160.26 -12.25" stroke="#B8B8B8" stroke-width="1" fill="none"></path></g></g><mask></mask><g transform="translate(10 1611) rotate(0 110 13.75)"><text x="0" y="0" font-family="Virgil, Segoe UI Emoji" font-size="20px" fill="#B8B8B8" text-anchor="start" style="white-space: pre;" direction="ltr" dominant-baseline="text-before-edge">Example</text></g><g transform="translate(10 1645) rotate(0 110 110)"><text x="0" y="0" font-family="Virgil, Segoe UI Emoji" font-size="16px" fill="#B8B8B8" text-anchor="start" style="white-space: pre;" direction="ltr" dominant-baseline="text-before-edge">GET /feed -&gt; Tweet[]</text><text x="0" y="20" font-family="Virgil, Segoe UI Emoji" font-size="16px" fill="#B8B8B8" text-anchor="start" style="white-space: pre;" direction="ltr" dominant-baseline="text-before-edge"></text><text x="0" y="40" font-family="Virgil, Segoe UI Emoji" font-size="16px" fill="#B8B8B8" text-anchor="start" style="white-space: pre;" direction="ltr" dominant-baseline="text-before-edge">POST /tweet -&gt; Tweet</text><text x="0" y="60" font-family="Virgil, Segoe UI Emoji" font-size="16px" fill="#B8B8B8" text-anchor="start" style="white-space: pre;" direction="ltr" dominant-baseline="text-before-edge">body: {</text><text x="0" y="80" font-family="Virgil, Segoe UI Emoji" font-size="16px" fill="#B8B8B8" text-anchor="start" style="white-space: pre;" direction="ltr" dominant-baseline="text-before-edge">    content: string</text><text x="0" y="100" font-family="Virgil, Segoe UI Emoji" font-size="16px" fill="#B8B8B8" text-anchor="start" style="white-space: pre;" direction="ltr" dominant-baseline="text-before-edge">}</text><text x="0" y="120" font-family="Virgil, Segoe UI Emoji" font-size="16px" fill="#B8B8B8" text-anchor="start" style="white-space: pre;" direction="ltr" dominant-baseline="text-before-edge"></text><text x="0" y="140" font-family="Virgil, Segoe UI Emoji" font-size="16px" fill="#B8B8B8" text-anchor="start" style="white-space: pre;" direction="ltr" dominant-baseline="text-before-edge">POST /follow -&gt; void</text><text x="0" y="160" font-family="Virgil, Segoe UI Emoji" font-size="16px" fill="#B8B8B8" text-anchor="start" style="white-space: pre;" direction="ltr" dominant-baseline="text-before-edge">{</text><text x="0" y="180" font-family="Virgil, Segoe UI Emoji" font-size="16px" fill="#B8B8B8" text-anchor="start" style="white-space: pre;" direction="ltr" dominant-baseline="text-before-edge">    userId: string</text><text x="0" y="200" font-family="Virgil, Segoe UI Emoji" font-size="16px" fill="#B8B8B8" text-anchor="start" style="white-space: pre;" direction="ltr" dominant-baseline="text-before-edge">}</text></g><g transform="translate(315 1560) rotate(0 500 25)"><text x="0" y="0" font-family="Virgil, Segoe UI Emoji" font-size="30px" fill="#000000" text-anchor="start" style="white-space: pre;" direction="ltr" dominant-baseline="text-before-edge">API Routes</text></g><g transform="translate(326.6497488190345 1638.0638333646532) rotate(0 378.27972412109375 62.5)"><text x="0" y="0" font-family="Virgil, Segoe UI Emoji" font-size="20px" fill="#1e1e1e" text-anchor="start" style="white-space: pre;" direction="ltr" dominant-baseline="text-before-edge">GET /events?location=location&amp;time=time&amp;keywords=keywords -&gt; List&lt;Event&gt;</text><text x="0" y="25" font-family="Virgil, Segoe UI Emoji" font-size="20px" fill="#1e1e1e" text-anchor="start" style="white-space: pre;" direction="ltr" dominant-baseline="text-before-edge">GET /events/&lt;event_id&gt; -&gt; Event</text><text x="0" y="50" font-family="Virgil, Segoe UI Emoji" font-size="20px" fill="#1e1e1e" text-anchor="start" style="white-space: pre;" direction="ltr" dominant-baseline="text-before-edge">POST /bookings/&lt;event_id&gt; -&gt; Booking</text><text x="0" y="75" font-family="Virgil, Segoe UI Emoji" font-size="20px" fill="#1e1e1e" text-anchor="start" style="white-space: pre;" direction="ltr" dominant-baseline="text-before-edge">PATCH /bookings/&lt;booking_id&gt;/confirm -&gt; Booking</text><text x="0" y="100" font-family="Virgil, Segoe UI Emoji" font-size="20px" fill="#1e1e1e" text-anchor="start" style="white-space: pre;" direction="ltr" dominant-baseline="text-before-edge"></text></g><g stroke-linecap="round" transform="translate(1565 310) rotate(0 1750 1050)"><path d="M32 0 C1005.06 3.16, 1978.49 2.7, 3468 0 M32 0 C1100.07 -10.15, 2168.9 -9.99, 3468 0 M3468 0 C3491.1 -1.73, 3500.43 11.92, 3500 32 M3468 0 C3487.82 0.7, 3499.46 10.09, 3500 32 M3500 32 C3495.3 740.72, 3494.52 1449.98, 3500 2068 M3500 32 C3493.03 493.15, 3493.32 953.54, 3500 2068 M3500 2068 C3498.33 2091.04, 3491.19 2098.71, 3468 2100 M3500 2068 C3502.25 2090.04, 3491.31 2100.04, 3468 2100 M3468 2100 C2327.44 2106.65, 1186.22 2106.81, 32 2100 M3468 2100 C2662.15 2113.66, 1857.14 2113.69, 32 2100 M32 2100 C8.83 2099.52, -1.02 2091.32, 0 2068 M32 2100 C9.88 2102.05, 0.14 2089.53, 0 2068 M0 2068 C-4.6 1636.88, -5.22 1204.74, 0 32 M0 2068 C-5.44 1374.12, -5.57 681.38, 0 32 M0 32 C0 8.73, 12.28 1.66, 32 0 M0 32 C1.78 10.63, 8.92 0.11, 32 0" stroke="#299a8d" stroke-width="10" fill="none"></path></g><g transform="translate(1615 360) rotate(0 500 25)"><text x="0" y="0" font-family="Virgil, Segoe UI Emoji" font-size="30px" fill="#000000" text-anchor="start" style="white-space: pre;" direction="ltr" dominant-baseline="text-before-edge">High-Level Design</text></g><g stroke-linecap="round"><g transform="translate(5415 520) rotate(0 -140 -30)"><path d="M1.07 0.22 C-15.54 -9.8, -53.42 -54.82, -100.14 -59.15 C-146.86 -63.48, -249.43 -31.6, -279.25 -25.77 M0.17 -0.71 C-16.56 -11.15, -54.53 -56.8, -101.16 -60.82 C-147.8 -64.85, -250.1 -30.61, -279.63 -24.86" stroke="#B8B8B8" stroke-width="1" fill="none"></path></g><g transform="translate(5415 520) rotate(0 -140 -30)"><path d="M-279.97 -23.44 L-268.25 -32.66 L-265.09 -23.05 L-281.46 -25.41" stroke="none" stroke-width="0" fill="#B8B8B8" fill-rule="evenodd"></path><path d="M-279.63 -24.86 C-276.45 -27.59, -272.68 -28.94, -268.05 -34.4 M-279.63 -24.86 C-276.77 -27.07, -274.37 -29.72, -268.05 -34.4 M-268.05 -34.4 C-267.4 -30.4, -266.07 -26.51, -264.88 -22.12 M-268.05 -34.4 C-266.48 -30.48, -266.29 -25.18, -264.88 -22.12 M-264.88 -22.12 C-268.03 -23.28, -271.49 -22.78, -279.63 -24.86 M-264.88 -22.12 C-270.14 -23.5, -273.97 -24.41, -279.63 -24.86 M-279.63 -24.86 C-279.63 -24.86, -279.63 -24.86, -279.63 -24.86 M-279.63 -24.86 C-279.63 -24.86, -279.63 -24.86, -279.63 -24.86" stroke="#B8B8B8" stroke-width="1" fill="none"></path></g></g><mask></mask><g transform="translate(5415 540) rotate(0 500 25)"><text x="0" y="0" font-family="Virgil, Segoe UI Emoji" font-size="20px" fill="#B8B8B8" text-anchor="start" style="white-space: pre;" direction="ltr" dominant-baseline="text-before-edge">Simple Example</text></g><g stroke-linecap="round" transform="translate(5415 570) rotate(0 50 50)"><path d="M25 0 C33.97 -0.21, 45.72 -1.14, 75 0 M25 0 C39.77 1.11, 55.7 -0.18, 75 0 M75 0 C91.66 1.61, 100.5 8.16, 100 25 M75 0 C93.78 0.83, 101.54 6.51, 100 25 M100 25 C98.69 42.33, 101.17 59.25, 100 75 M100 25 C99.6 40.05, 99.29 54.94, 100 75 M100 75 C99.63 92.88, 93.17 99.85, 75 100 M100 75 C101.71 90.45, 90.05 100.86, 75 100 M75 100 C53.93 101.23, 37.49 98.88, 25 100 M75 100 C56.27 99.76, 35.31 100.24, 25 100 M25 100 C7.75 100.03, 1.36 91.47, 0 75 M25 100 C9.57 101.59, -1.82 93.96, 0 75 M0 75 C1.17 56.56, 0.26 43.72, 0 25 M0 75 C0.7 61.95, 0.52 50.64, 0 25 M0 25 C0.79 7.34, 8.13 1.68, 25 0 M0 25 C1.17 6.79, 8.66 1.17, 25 0" stroke="#B8B8B8" stroke-width="1" fill="none"></path></g><g transform="translate(5445 612) rotate(0 10 10)"><text x="0" y="0" font-family="Virgil, Segoe UI Emoji" font-size="16px" fill="#B8B8B8" text-anchor="start" style="white-space: pre;" direction="ltr" dominant-baseline="text-before-edge">Client</text></g><g stroke-linecap="round"><g transform="translate(5525 620) rotate(0 25 0)"><path d="M0.95 -0.15 C9.32 -0.04, 41.22 0.19, 49.43 0.19 M0 -1.28 C8.23 -1.51, 39.92 -2.22, 48.19 -1.83" stroke="#B8B8B8" stroke-width="1" fill="none"></path></g><g transform="translate(5525 620) rotate(0 25 0)"><path d="M24.63 6.54 C29.94 3.44, 36.06 2.82, 48.19 -1.83 M24.63 6.54 C31.97 3.43, 39.12 2.34, 48.19 -1.83" stroke="#B8B8B8" stroke-width="1" fill="none"></path></g><g transform="translate(5525 620) rotate(0 25 0)"><path d="M24.76 -10.57 C29.98 -9.64, 36.06 -6.24, 48.19 -1.83 M24.76 -10.57 C32.14 -8.76, 39.24 -4.92, 48.19 -1.83" stroke="#B8B8B8" stroke-width="1" fill="none"></path></g></g><mask></mask><g stroke-linecap="round" transform="translate(5585 520) rotate(0 50 100)"><path d="M25 0 C39 -0.83, 55.18 0.77, 75 0 M25 0 C39.92 0.62, 55.82 -0.96, 75 0 M75 0 C91.43 -1.62, 99.48 8.92, 100 25 M75 0 C89.73 -0.78, 101.52 8.42, 100 25 M100 25 C99.16 80.63, 98.47 138.81, 100 175 M100 25 C100.67 74, 100.83 125.59, 100 175 M100 175 C101.87 192.78, 90.35 200.14, 75 200 M100 175 C98.81 193.25, 93.29 200.31, 75 200 M75 200 C62.51 199.91, 49.42 200.73, 25 200 M75 200 C57.46 199.19, 42.39 200.53, 25 200 M25 200 C9.12 201.02, -0.29 193.05, 0 175 M25 200 C8.32 199.94, 0.27 191.51, 0 175 M0 175 C-2.19 124.67, -2.67 75.38, 0 25 M0 175 C0.29 134, -0.5 92.5, 0 25 M0 25 C0.27 8.36, 7.48 0, 25 0 M0 25 C-0.5 8.03, 6.41 -0.16, 25 0" stroke="#B8B8B8" stroke-width="1" fill="none"></path></g><g transform="translate(5605 612) rotate(0 10 10)"><text x="0" y="0" font-family="Virgil, Segoe UI Emoji" font-size="16px" fill="#B8B8B8" text-anchor="start" style="white-space: pre;" direction="ltr" dominant-baseline="text-before-edge">Server</text></g><g stroke-linecap="round"><g transform="translate(5695 620) rotate(0 25 0)"><path d="M1.15 -0.31 C9.5 -0.27, 42.53 -0.69, 50.49 -0.5 M0.3 -1.52 C8.5 -1.26, 41.31 0.7, 49.79 0.77" stroke="#B8B8B8" stroke-width="1" fill="none"></path></g><g transform="translate(5695 620) rotate(0 25 0)"><path d="M26 8.45 C33.44 6.47, 41.04 1.24, 49.79 0.77 M26 8.45 C35.27 6.26, 43.06 3.22, 49.79 0.77" stroke="#B8B8B8" stroke-width="1" fill="none"></path></g><g transform="translate(5695 620) rotate(0 25 0)"><path d="M26.63 -8.64 C33.75 -4.93, 41.14 -4.47, 49.79 0.77 M26.63 -8.64 C35.71 -4.55, 43.27 -1.31, 49.79 0.77" stroke="#B8B8B8" stroke-width="1" fill="none"></path></g></g><mask></mask><g stroke-linecap="round" transform="translate(5755 570) rotate(0 50 50)"><path d="M25 0 C44.97 -1.89, 63.66 1.62, 75 0 M25 0 C44.82 0.99, 64.02 0.05, 75 0 M75 0 C90.26 1.71, 98.48 8.15, 100 25 M75 0 C91.58 -1.89, 98.43 7.23, 100 25 M100 25 C100.96 39.96, 99.79 53.07, 100 75 M100 25 C100.8 44.5, 101.33 64.47, 100 75 M100 75 C100.27 92.19, 92.31 100.69, 75 100 M100 75 C99.24 89.41, 93.84 97.76, 75 100 M75 100 C54.67 99.38, 34.56 102.01, 25 100 M75 100 C63.04 100.69, 50.14 100.8, 25 100 M25 100 C7.16 98.65, 1 92.53, 0 75 M25 100 C7.53 100.57, 0.57 89.81, 0 75 M0 75 C0.38 61.85, 1.38 45.88, 0 25 M0 75 C0.71 59.24, 1.03 45.55, 0 25 M0 25 C0.05 9.13, 7.94 1.6, 25 0 M0 25 C2.23 9.21, 8.87 0.06, 25 0" stroke="#B8B8B8" stroke-width="1" fill="none"></path></g><g transform="translate(5785 612) rotate(0 10 10)"><text x="0" y="0" font-family="Virgil, Segoe UI Emoji" font-size="16px" fill="#B8B8B8" text-anchor="start" style="white-space: pre;" direction="ltr" dominant-baseline="text-before-edge">DB</text></g><g stroke-linecap="round" transform="translate(1954.2892524479325 1050.1510935074884) rotate(0 111.12814920185122 72.35766637482834)"><path d="M32 0 C90.97 -0.76, 149.27 -0.77, 190.26 0 M32 0 C78.53 0.19, 126.29 -0.15, 190.26 0 M190.26 0 C211.14 -0.82, 223.77 10.95, 222.26 32 M190.26 0 C213.42 1.47, 221.98 12.87, 222.26 32 M222.26 32 C222.74 61.25, 220.48 87.95, 222.26 112.72 M222.26 32 C222.66 51.25, 222.45 69.36, 222.26 112.72 M222.26 112.72 C220.8 133.07, 213.11 145.5, 190.26 144.72 M222.26 112.72 C221.89 134.21, 211.79 142.88, 190.26 144.72 M190.26 144.72 C135.56 145.76, 77.47 143.47, 32 144.72 M190.26 144.72 C129.63 145.1, 70.72 145.83, 32 144.72 M32 144.72 C12.31 143.76, 0.9 135.46, 0 112.72 M32 144.72 C9.38 144.16, -1.59 132.35, 0 112.72 M0 112.72 C-1.57 98.09, 1.3 78.17, 0 32 M0 112.72 C-0.13 87.18, -0.62 60.84, 0 32 M0 32 C-1.44 10.47, 11.1 0.61, 32 0 M0 32 C0.73 9.72, 11.51 0.94, 32 0" stroke="#1e1e1e" stroke-width="2" fill="none"></path></g><g transform="translate(2019.657138702371 1119.0718593343504) rotate(0 39.0999755859375 12.5)"><text x="0" y="0" font-family="Virgil, Segoe UI Emoji" font-size="20px" fill="#1e1e1e" text-anchor="start" style="white-space: pre;" direction="ltr" dominant-baseline="text-before-edge">CLIENT</text></g><g stroke-linecap="round" transform="translate(2370.0623385063873 986.1270545464188) rotate(0 47.463322100026744 123.49172612447308)"><path d="M23.73 0 C34.54 -0.27, 44.37 0.93, 71.19 0 M23.73 0 C35.68 0.28, 45 -0.04, 71.19 0 M71.19 0 C88.68 -1.56, 93.21 7.84, 94.93 23.73 M71.19 0 C86.14 2.22, 95 7.79, 94.93 23.73 M94.93 23.73 C95.25 75.65, 94.24 123.52, 94.93 223.25 M94.93 23.73 C94.92 71.05, 95.56 118.23, 94.93 223.25 M94.93 223.25 C94.43 239.3, 88.31 247.85, 71.19 246.98 M94.93 223.25 C95.23 240.28, 85.21 246.38, 71.19 246.98 M71.19 246.98 C54.8 249.03, 39.91 245.41, 23.73 246.98 M71.19 246.98 C51.54 247.41, 33.24 246.2, 23.73 246.98 M23.73 246.98 C9.11 247.78, 1.1 240.96, 0 223.25 M23.73 246.98 C7.83 245.32, 1.05 240.26, 0 223.25 M0 223.25 C-3.23 163.19, -2.97 99.99, 0 23.73 M0 223.25 C2.53 175.41, 2.05 126.85, 0 23.73 M0 23.73 C-1.07 8.47, 9.69 1.49, 23.73 0 M0 23.73 C2.05 8.44, 7.97 1.78, 23.73 0" stroke="#1e1e1e" stroke-width="2" fill="none"></path></g><g transform="translate(2404.265666099578 1097.1187806708917) rotate(0 13.259994506835938 12.5)"><text x="13.259994506835938" y="0" font-family="Virgil, Segoe UI Emoji" font-size="20px" fill="#1e1e1e" text-anchor="middle" style="white-space: pre;" direction="ltr" dominant-baseline="text-before-edge">LB</text></g><g stroke-linecap="round"><g transform="translate(2190.0579863352104 1135.2149308542757) rotate(0 83.07862726549274 -9.761847564525965)"><path d="M0.23 0.13 C27.99 -3.47, 138.72 -17.23, 166.52 -20.44 M-1.1 -0.85 C26.53 -3.82, 137.78 -15.98, 165.76 -19.38" stroke="#1e1e1e" stroke-width="2" fill="none"></path></g><g transform="translate(2190.0579863352104 1135.2149308542757) rotate(0 83.07862726549274 -9.761847564525965)"><path d="M143.4 -8.21 C150.19 -10.99, 155.14 -13.42, 165.76 -19.38 M143.4 -8.21 C149.87 -11.53, 157.95 -15.72, 165.76 -19.38" stroke="#1e1e1e" stroke-width="2" fill="none"></path></g><g transform="translate(2190.0579863352104 1135.2149308542757) rotate(0 83.07862726549274 -9.761847564525965)"><path d="M141.45 -25.2 C148.99 -22.91, 154.52 -20.26, 165.76 -19.38 M141.45 -25.2 C148.68 -22.89, 157.41 -21.43, 165.76 -19.38" stroke="#1e1e1e" stroke-width="2" fill="none"></path></g></g><mask></mask><g stroke-linecap="round" transform="translate(3112.952397324035 851.1973086828499) rotate(0 153.85004282047817 139.77730636796827)"><path d="M150.91 0.79 C165.74 -1.57, 183.35 2.47, 198.72 6.56 C214.08 10.65, 230.21 16.96, 243.11 25.33 C256 33.7, 266.57 45.28, 276.11 56.78 C285.65 68.28, 295.12 80.65, 300.35 94.32 C305.58 107.99, 307.29 124.3, 307.48 138.8 C307.67 153.29, 306.25 167.6, 301.48 181.27 C296.71 194.95, 288.16 209.14, 278.84 220.84 C269.52 232.53, 258.19 242.97, 245.56 251.43 C232.94 259.9, 218.17 266.98, 203.08 271.64 C188 276.29, 170.73 279.06, 155.04 279.37 C139.34 279.67, 123.97 277.67, 108.92 273.48 C93.87 269.3, 77.79 262.72, 64.75 254.27 C51.72 245.82, 40.21 234.31, 30.72 222.77 C21.23 211.23, 13 198.62, 7.83 185.02 C2.65 171.42, -0.24 155.75, -0.31 141.16 C-0.39 126.57, 2.75 111.1, 7.38 97.47 C12.02 83.83, 18.52 71.04, 27.5 59.34 C36.47 47.65, 48.36 35.86, 61.25 27.32 C74.14 18.78, 88.8 12.53, 104.83 8.08 C120.86 3.62, 147.58 1.27, 157.43 0.6 C167.28 -0.07, 163.97 1.74, 163.93 4.07 M188.97 4.06 C203.74 5.28, 218.66 13.42, 231.98 20.75 C245.3 28.08, 258.3 37.13, 268.91 48.06 C279.51 58.99, 289.27 72.82, 295.6 86.33 C301.93 99.85, 305.33 114.98, 306.9 129.16 C308.46 143.33, 308.61 157.47, 304.98 171.39 C301.34 185.3, 293.31 200.48, 285.07 212.67 C276.84 224.86, 267.34 235.16, 255.56 244.52 C243.78 253.89, 229.33 263.12, 214.38 268.86 C199.42 274.59, 181.93 277.95, 165.85 278.93 C149.77 279.9, 133.09 278.09, 117.9 274.7 C102.72 271.32, 88.23 265.63, 74.73 258.62 C61.24 251.61, 47.36 243.45, 36.93 232.66 C26.51 221.87, 18.26 207.29, 12.2 193.88 C6.14 180.47, 1.73 166.56, 0.58 152.23 C-0.56 137.89, 1.86 121.76, 5.34 107.87 C8.82 93.99, 13.55 81.12, 21.45 68.91 C29.35 56.7, 40.54 44.41, 52.75 34.62 C64.95 24.82, 80.19 15.6, 94.7 10.15 C109.22 4.71, 124.34 3.21, 139.85 1.93 C155.36 0.66, 179.84 1.94, 187.75 2.52 C195.66 3.09, 187.71 3.17, 187.3 5.41" stroke="#1e1e1e" stroke-width="2" fill="none"></path></g><g transform="translate(3219.1451478374065 980.4504570575582) rotate(0 43.43994903564453 12.5)"><text x="0" y="0" font-family="Virgil, Segoe UI Emoji" font-size="20px" fill="#1e1e1e" text-anchor="start" style="white-space: pre;" direction="ltr" dominant-baseline="text-before-edge">Postgres</text></g><g stroke-linecap="round" transform="translate(2640.884333348024 973.9742272864455) rotate(0 122.5614608456151 86.75218547306781)"><path d="M32 0 C98.56 -0.56, 162.48 -0.25, 213.12 0 M32 0 C76.67 -1.68, 120.9 -2.56, 213.12 0 M213.12 0 C232.94 1.45, 245.97 10.06, 245.12 32 M213.12 0 C234.22 1.88, 245.13 8.67, 245.12 32 M245.12 32 C244.99 70.02, 244.81 108.83, 245.12 141.5 M245.12 32 C243.18 57.4, 244.7 81.93, 245.12 141.5 M245.12 141.5 C244.71 162.32, 232.49 173.46, 213.12 173.5 M245.12 141.5 C244.78 165.03, 232.66 172.27, 213.12 173.5 M213.12 173.5 C148.93 172.42, 88.69 174.16, 32 173.5 M213.12 173.5 C165.35 173.03, 119.84 174.14, 32 173.5 M32 173.5 C9.22 175.07, -0.45 163.18, 0 141.5 M32 173.5 C9.36 173.72, 0.27 163.45, 0 141.5 M0 141.5 C1.49 105.92, -1.57 73.59, 0 32 M0 141.5 C0.61 107.77, -0.43 75.19, 0 32 M0 32 C-1.81 10.87, 11.92 0.94, 32 0 M0 32 C-0.23 10.89, 8.49 -0.5, 32 0" stroke="#1e1e1e" stroke-width="2" fill="none"></path></g><g transform="translate(2710.7927794102816 1060.2949280131495) rotate(0 61.89996337890625 12.5)"><text x="0" y="0" font-family="Virgil, Segoe UI Emoji" font-size="20px" fill="#1e1e1e" text-anchor="start" style="white-space: pre;" direction="ltr" dominant-baseline="text-before-edge">EVENTS SVC</text></g><g stroke-linecap="round"><g transform="translate(2485.256890058579 1066.4228031266475) rotate(0 71.13956309087393 -11.93114702330945)"><path d="M-0.24 -0.25 C23.73 -4.01, 118.98 -19.19, 142.64 -23.03 M-1.83 -1.43 C22.12 -5.47, 118.13 -20.73, 141.88 -24.72" stroke="#1e1e1e" stroke-width="2" fill="none"></path></g><g transform="translate(2485.256890058579 1066.4228031266475) rotate(0 71.13956309087393 -11.93114702330945)"><path d="M120.07 -12.51 C124.12 -14.33, 130.32 -18.36, 141.88 -24.72 M120.07 -12.51 C126.89 -17.65, 135.25 -20.71, 141.88 -24.72" stroke="#1e1e1e" stroke-width="2" fill="none"></path></g><g transform="translate(2485.256890058579 1066.4228031266475) rotate(0 71.13956309087393 -11.93114702330945)"><path d="M117.32 -29.38 C121.85 -27.79, 128.62 -28.4, 141.88 -24.72 M117.32 -29.38 C125.03 -28.69, 134.33 -25.91, 141.88 -24.72" stroke="#1e1e1e" stroke-width="2" fill="none"></path></g></g><mask></mask><g stroke-linecap="round"><g transform="translate(2894.035246467015 1016.5209984233168) rotate(0 104.85079336642275 41.600671555394456)"><path d="M-0.57 -0.61 C34.2 0.94, 205.44 -5.37, 209.65 8.75 C213.86 22.86, 55.89 71.63, 24.69 84.05 M1.33 1.68 C35.85 3.47, 204.81 -3.25, 208.68 10.17 C212.54 23.58, 55.59 69.79, 24.51 82.16" stroke="#1e1e1e" stroke-width="2" fill="none"></path></g><g transform="translate(2894.035246467015 1016.5209984233168) rotate(0 104.85079336642275 41.600671555394456)"><path d="M43.99 66.49 C35.37 72.36, 28.5 80.33, 24.51 82.16 M43.99 66.49 C35.81 73.08, 28.46 77.34, 24.51 82.16" stroke="#1e1e1e" stroke-width="2" fill="none"></path></g><g transform="translate(2894.035246467015 1016.5209984233168) rotate(0 104.85079336642275 41.600671555394456)"><path d="M49.5 82.68 C38.83 82.27, 29.83 83.99, 24.51 82.16 M49.5 82.68 C39.43 83.26, 30.03 81.52, 24.51 82.16" stroke="#1e1e1e" stroke-width="2" fill="none"></path></g></g><mask></mask><g transform="translate(3472.4464868312753 838.0129878496218) rotate(0 57.75994110107422 75)"><text x="0" y="0" font-family="Virgil, Segoe UI Emoji" font-size="20px" fill="#1e1e1e" text-anchor="start" style="white-space: pre;" direction="ltr" dominant-baseline="text-before-edge">Event:</text><text x="0" y="25" font-family="Virgil, Segoe UI Emoji" font-size="20px" fill="#1e1e1e" text-anchor="start" style="white-space: pre;" direction="ltr" dominant-baseline="text-before-edge">- eventID</text><text x="0" y="50" font-family="Virgil, Segoe UI Emoji" font-size="20px" fill="#1e1e1e" text-anchor="start" style="white-space: pre;" direction="ltr" dominant-baseline="text-before-edge">- VenueID</text><text x="0" y="75" font-family="Virgil, Segoe UI Emoji" font-size="20px" fill="#1e1e1e" text-anchor="start" style="white-space: pre;" direction="ltr" dominant-baseline="text-before-edge">- name</text><text x="0" y="100" font-family="Virgil, Segoe UI Emoji" font-size="20px" fill="#1e1e1e" text-anchor="start" style="white-space: pre;" direction="ltr" dominant-baseline="text-before-edge">- desc..</text><text x="0" y="125" font-family="Virgil, Segoe UI Emoji" font-size="20px" fill="#1e1e1e" text-anchor="start" style="white-space: pre;" direction="ltr" dominant-baseline="text-before-edge">- timestamp</text></g><g transform="translate(3489.3862183313095 1020.4814023561112) rotate(0 73.48994445800781 75)"><text x="0" y="0" font-family="Virgil, Segoe UI Emoji" font-size="20px" fill="#1e1e1e" text-anchor="start" style="white-space: pre;" direction="ltr" dominant-baseline="text-before-edge">Booking:</text><text x="0" y="25" font-family="Virgil, Segoe UI Emoji" font-size="20px" fill="#1e1e1e" text-anchor="start" style="white-space: pre;" direction="ltr" dominant-baseline="text-before-edge">- bookingID</text><text x="0" y="50" font-family="Virgil, Segoe UI Emoji" font-size="20px" fill="#1e1e1e" text-anchor="start" style="white-space: pre;" direction="ltr" dominant-baseline="text-before-edge">- eventID [fk]</text><text x="0" y="75" font-family="Virgil, Segoe UI Emoji" font-size="20px" fill="#1e1e1e" text-anchor="start" style="white-space: pre;" direction="ltr" dominant-baseline="text-before-edge">- userID [fk]</text><text x="0" y="100" font-family="Virgil, Segoe UI Emoji" font-size="20px" fill="#1e1e1e" text-anchor="start" style="white-space: pre;" direction="ltr" dominant-baseline="text-before-edge">- status</text><text x="0" y="125" font-family="Virgil, Segoe UI Emoji" font-size="20px" fill="#1e1e1e" text-anchor="start" style="white-space: pre;" direction="ltr" dominant-baseline="text-before-edge">- timestamp</text></g><g transform="translate(3687.8625542367968 845.7208063151018) rotate(0 43.239959716796875 50)"><text x="0" y="0" font-family="Virgil, Segoe UI Emoji" font-size="20px" fill="#1e1e1e" text-anchor="start" style="white-space: pre;" direction="ltr" dominant-baseline="text-before-edge">User:</text><text x="0" y="25" font-family="Virgil, Segoe UI Emoji" font-size="20px" fill="#1e1e1e" text-anchor="start" style="white-space: pre;" direction="ltr" dominant-baseline="text-before-edge">- userID</text><text x="0" y="50" font-family="Virgil, Segoe UI Emoji" font-size="20px" fill="#1e1e1e" text-anchor="start" style="white-space: pre;" direction="ltr" dominant-baseline="text-before-edge">- name</text><text x="0" y="75" font-family="Virgil, Segoe UI Emoji" font-size="20px" fill="#1e1e1e" text-anchor="start" style="white-space: pre;" direction="ltr" dominant-baseline="text-before-edge">- ...</text></g><g transform="translate(3714.331223553144 1031.0014915295308) rotate(0 73.81993103027344 37.5)"><text x="0" y="0" font-family="Virgil, Segoe UI Emoji" font-size="20px" fill="#1e1e1e" text-anchor="start" style="white-space: pre;" direction="ltr" dominant-baseline="text-before-edge">Venue:</text><text x="0" y="25" font-family="Virgil, Segoe UI Emoji" font-size="20px" fill="#1e1e1e" text-anchor="start" style="white-space: pre;" direction="ltr" dominant-baseline="text-before-edge">- venueID</text><text x="0" y="50" font-family="Virgil, Segoe UI Emoji" font-size="20px" fill="#1e1e1e" text-anchor="start" style="white-space: pre;" direction="ltr" dominant-baseline="text-before-edge">- seatsMapping</text></g><g stroke-linecap="round" transform="translate(2692.638618547113 1489.688366440029) rotate(0 125.99204758283486 73.34273297450954)"><path d="M32 0 C94.41 0.28, 154.96 0.14, 219.98 0 M32 0 C96.89 -1.64, 163.96 -2.49, 219.98 0 M219.98 0 C240.22 -1.08, 252.24 10.28, 251.98 32 M219.98 0 C240.07 -1.82, 251.58 11.85, 251.98 32 M251.98 32 C251.67 49.62, 250.62 68.17, 251.98 114.69 M251.98 32 C251.55 51.57, 252.74 73.42, 251.98 114.69 M251.98 114.69 C251.27 137.61, 242.43 144.96, 219.98 146.69 M251.98 114.69 C251.49 134.61, 239.17 145.34, 219.98 146.69 M219.98 146.69 C148.75 147.76, 76.32 147.52, 32 146.69 M219.98 146.69 C152.01 145.03, 82.67 144.3, 32 146.69 M32 146.69 C10.61 145.55, -1.07 134.84, 0 114.69 M32 146.69 C9.36 144.65, -1.63 137.36, 0 114.69 M0 114.69 C1.13 98.09, 0.59 76.76, 0 32 M0 114.69 C-0.39 87.08, 0.33 58.18, 0 32 M0 32 C-0.26 9.07, 9.82 -0.69, 32 0 M0 32 C-1.88 11.43, 8.69 -0.92, 32 0" stroke="#1e1e1e" stroke-width="2" fill="none"></path></g><g transform="translate(2751.8878682779387 1544.2701499298028) rotate(0 57.77995300292969 12.5)"><text x="0" y="0" font-family="Virgil, Segoe UI Emoji" font-size="20px" fill="#1e1e1e" text-anchor="start" style="white-space: pre;" direction="ltr" dominant-baseline="text-before-edge">Booking SVC</text></g><g mask="url(#mask-6EXUWzC-HL5Kx1-G_cFCn)" stroke-linecap="round"><g transform="translate(2472.296370293929 1241.5030735200048) rotate(0 18.487231382576283 60.353501966034855)"><path d="M-1.09 0.49 C4.93 20.66, 29.98 99.85, 36.38 119.97 M0.54 -0.3 C6.94 20.1, 32.76 101.22, 38.78 121.12" stroke="#1e1e1e" stroke-width="2" fill="none"></path></g><g transform="translate(2472.296370293929 1241.5030735200048) rotate(0 18.487231382576283 60.353501966034855)"><path d="M23.62 101.23 C29.12 106.74, 31.92 114.6, 38.78 121.12 M23.62 101.23 C29.52 107.51, 33.98 113.97, 38.78 121.12" stroke="#1e1e1e" stroke-width="2" fill="none"></path></g><g transform="translate(2472.296370293929 1241.5030735200048) rotate(0 18.487231382576283 60.353501966034855)"><path d="M39.95 96.15 C40.18 103.13, 37.76 112.62, 38.78 121.12 M39.95 96.15 C40.31 104.2, 39.22 112.39, 38.78 121.12" stroke="#1e1e1e" stroke-width="2" fill="none"></path></g></g><mask id="mask-6EXUWzC-HL5Kx1-G_cFCn"><rect x="0" y="0" fill="#fff" width="2609.2708330590817" height="1462.2100774520745"></rect><rect x="2442.163652335685" y="1289.3565754860397" fill="#000" width="97.23989868164062" height="25" opacity="1"></rect></mask><g transform="translate(2442.163652335685 1289.3565754860397) rotate(0 48.97533726593474 12.556426998190545)"><text x="48.61994934082031" y="0" font-family="Virgil, Segoe UI Emoji" font-size="20px" fill="#1e1e1e" text-anchor="middle" style="white-space: pre;" direction="ltr" dominant-baseline="text-before-edge">websocket</text></g><g stroke-linecap="round" transform="translate(2696.6512609378906 1792.6600991503585) rotate(0 155.66344558041033 46.20939283269615)"><path d="M23.1 0 C83.42 2.15, 140.64 1.6, 288.22 0 M23.1 0 C106.32 -0.7, 189.41 -1.47, 288.22 0 M288.22 0 C302.12 0.78, 312.12 8.05, 311.33 23.1 M288.22 0 C305.04 -0.5, 313.1 8.89, 311.33 23.1 M311.33 23.1 C309.88 36.98, 310.28 54.25, 311.33 69.31 M311.33 23.1 C311.59 32.47, 310.15 42.38, 311.33 69.31 M311.33 69.31 C312.64 84.84, 303.91 92.49, 288.22 92.42 M311.33 69.31 C312.25 85.38, 305.01 91.68, 288.22 92.42 M288.22 92.42 C193.94 93.07, 100.77 92.92, 23.1 92.42 M288.22 92.42 C225.54 94.14, 162.53 93.74, 23.1 92.42 M23.1 92.42 C9.6 90.91, -0.49 86.63, 0 69.31 M23.1 92.42 C5.8 90.61, 0.08 86.06, 0 69.31 M0 69.31 C-2.07 50.68, 1.27 34.65, 0 23.1 M0 69.31 C0.12 52.79, 0.28 37.36, 0 23.1 M0 23.1 C1.28 8.1, 8.2 1.35, 23.1 0 M0 23.1 C0.57 8.84, 6.46 -2.11, 23.1 0" stroke="#1e1e1e" stroke-width="2" fill="none"></path></g><g transform="translate(2736.694757177481 1813.8694919830546) rotate(0 115.61994934082031 25)"><text x="115.61994934082031" y="0" font-family="Virgil, Segoe UI Emoji" font-size="20px" fill="#1e1e1e" text-anchor="middle" style="white-space: pre;" direction="ltr" dominant-baseline="text-before-edge">PAYMENT GATEWAY / </text><text x="115.61994934082031" y="25" font-family="Virgil, Segoe UI Emoji" font-size="20px" fill="#1e1e1e" text-anchor="middle" style="white-space: pre;" direction="ltr" dominant-baseline="text-before-edge">STRIPE</text></g><g stroke-linecap="round"><g transform="translate(2730.0571242770675 1639.8498146318573) rotate(0 5.147506281666892 70.11046336770494)"><path d="M0.69 -0.32 C2.57 22.86, 9.06 116.79, 10.5 140.07 M-0.41 -1.53 C1.39 21.75, 7.64 117.9, 9.66 141.53" stroke="#1e1e1e" stroke-width="2" fill="none"></path></g><g transform="translate(2730.0571242770675 1639.8498146318573) rotate(0 5.147506281666892 70.11046336770494)"><path d="M-0.6 118.73 C1.48 124.39, 4.18 127.82, 9.66 141.53 M-0.6 118.73 C2.05 123.19, 4.22 128.7, 9.66 141.53" stroke="#1e1e1e" stroke-width="2" fill="none"></path></g><g transform="translate(2730.0571242770675 1639.8498146318573) rotate(0 5.147506281666892 70.11046336770494)"><path d="M16.46 117.47 C14.52 123.53, 13.19 127.25, 9.66 141.53 M16.46 117.47 C15.22 122.36, 13.5 128.16, 9.66 141.53" stroke="#1e1e1e" stroke-width="2" fill="none"></path></g></g><mask></mask><g stroke-linecap="round"><g transform="translate(2883.2809817536368 1775.9743996873563) rotate(0 -1.1693283040610822 -65.49961723400725)"><path d="M1.13 -1.17 C0.8 -22.98, -2.55 -109.79, -3.03 -131.56 M0.26 0.83 C0.42 -20.77, -0.26 -108.36, -0.68 -130.32" stroke="#1e1e1e" stroke-width="2" fill="none"></path></g><g transform="translate(2883.2809817536368 1775.9743996873563) rotate(0 -1.1693283040610822 -65.49961723400725)"><path d="M8.16 -106.93 C4.49 -112.91, 3.65 -115.71, -0.68 -130.32 M8.16 -106.93 C5.68 -112.95, 3.66 -117.88, -0.68 -130.32" stroke="#1e1e1e" stroke-width="2" fill="none"></path></g><g transform="translate(2883.2809817536368 1775.9743996873563) rotate(0 -1.1693283040610822 -65.49961723400725)"><path d="M-8.94 -106.72 C-9.02 -112.9, -6.28 -115.75, -0.68 -130.32 M-8.94 -106.72 C-7.45 -112.67, -5.49 -117.65, -0.68 -130.32" stroke="#1e1e1e" stroke-width="2" fill="none"></path></g></g><mask></mask><g stroke-linecap="round" transform="translate(3179.9949617293905 1391.0413689656375) rotate(0 96.5126656015052 74.10833529569481)"><path d="M32 0 C59.6 -1.16, 87.4 -1.56, 161.03 0 M32 0 C62.97 -1.7, 96.41 -0.28, 161.03 0 M161.03 0 C183.64 -0.74, 194.93 10.08, 193.03 32 M161.03 0 C182.78 0.43, 192.5 10.86, 193.03 32 M193.03 32 C191.48 60.48, 192.7 87.78, 193.03 116.22 M193.03 32 C193.08 55.62, 193.27 78.62, 193.03 116.22 M193.03 116.22 C192.27 138.13, 181 148.26, 161.03 148.22 M193.03 116.22 C191.16 135.9, 184.43 147.61, 161.03 148.22 M161.03 148.22 C126.77 150.01, 91.78 147.72, 32 148.22 M161.03 148.22 C126.18 146.57, 92.28 146.23, 32 148.22 M32 148.22 C11.14 147.23, -1.23 136.49, 0 116.22 M32 148.22 C9.11 145.96, 0.28 139.42, 0 116.22 M0 116.22 C0.23 85.68, -0.64 49.78, 0 32 M0 116.22 C0.53 85.38, 1.74 53.07, 0 32 M0 32 C0.66 9.4, 9.98 0.5, 32 0 M0 32 C1.12 11.77, 11.67 -2.16, 32 0" stroke="#1e1e1e" stroke-width="2" fill="none"></path></g><g transform="translate(3214.454451414121 1450.9996009102942) rotate(0 68.62994384765625 25)"><text x="0" y="0" font-family="Virgil, Segoe UI Emoji" font-size="20px" fill="#1e1e1e" text-anchor="start" style="white-space: pre;" direction="ltr" dominant-baseline="text-before-edge">Booking Cache</text><text x="0" y="25" font-family="Virgil, Segoe UI Emoji" font-size="20px" fill="#1e1e1e" text-anchor="start" style="white-space: pre;" direction="ltr" dominant-baseline="text-before-edge">TTL (Redis)</text></g><g stroke-linecap="round"><g transform="translate(2796.6079061128307 1481.8452506995268) rotate(0 174.64841375076617 -187.16638096371514)"><path d="M-0.55 0.57 C57.49 -63.01, 323.09 -382.13, 348.16 -381.17 C373.24 -380.2, 182.66 -58.15, 149.9 6.35 M1.36 -0.18 C59.77 -63.6, 325.14 -381.09, 350.28 -379.79 C375.42 -378.5, 185.23 -56.82, 152.21 7.58" stroke="#1e1e1e" stroke-width="2" fill="none"></path></g><g transform="translate(2796.6079061128307 1481.8452506995268) rotate(0 174.64841375076617 -187.16638096371514)"><path d="M156.14 -17.11 C155.99 -11.82, 153.38 -4.58, 152.21 7.58 M156.14 -17.11 C154.71 -9.79, 154.09 -2.16, 152.21 7.58" stroke="#1e1e1e" stroke-width="2" fill="none"></path></g><g transform="translate(2796.6079061128307 1481.8452506995268) rotate(0 174.64841375076617 -187.16638096371514)"><path d="M171.09 -8.81 C166.56 -6.01, 159.59 -1.19, 152.21 7.58 M171.09 -8.81 C165.36 -3.95, 160.46 1.31, 152.21 7.58" stroke="#1e1e1e" stroke-width="2" fill="none"></path></g></g><mask></mask><g stroke-linecap="round"><g transform="translate(2957.738884668651 1559.3754098744741) rotate(0 103.59264076462046 -34.92229751875925)"><path d="M-0.23 0.06 C34.37 -11.44, 173.08 -58.23, 207.77 -70.04 M-1.82 -0.95 C32.67 -12.18, 172.24 -57.11, 207.13 -68.6" stroke="#1e1e1e" stroke-width="2" fill="none"></path></g><g transform="translate(2957.738884668651 1559.3754098744741) rotate(0 103.59264076462046 -34.92229751875925)"><path d="M187.44 -53.2 C193.81 -56.99, 199.53 -61.56, 207.13 -68.6 M187.44 -53.2 C191.34 -55.9, 196.61 -60.34, 207.13 -68.6" stroke="#1e1e1e" stroke-width="2" fill="none"></path></g><g transform="translate(2957.738884668651 1559.3754098744741) rotate(0 103.59264076462046 -34.92229751875925)"><path d="M182.15 -69.46 C190.04 -68.17, 197.4 -67.67, 207.13 -68.6 M182.15 -69.46 C187.39 -68.54, 193.85 -69.33, 207.13 -68.6" stroke="#1e1e1e" stroke-width="2" fill="none"></path></g></g><mask></mask><g stroke-linecap="round" transform="translate(2874.4932960588612 811.9695151883067) rotate(0 57.980466721671746 45.428923789696796)"><path d="M22.71 0 C45.39 -0.95, 72.3 -1.52, 93.25 0 M22.71 0 C46.42 -0.11, 71.46 -0.78, 93.25 0 M93.25 0 C109.43 0.91, 117.22 7.96, 115.96 22.71 M93.25 0 C106.37 0.51, 117.12 7.94, 115.96 22.71 M115.96 22.71 C117.36 30.87, 117.67 41.66, 115.96 68.14 M115.96 22.71 C115.69 36.11, 117.11 50.28, 115.96 68.14 M115.96 68.14 C114.96 83.1, 109.54 90.32, 93.25 90.86 M115.96 68.14 C117.67 81.65, 109.76 91.91, 93.25 90.86 M93.25 90.86 C74.06 90.88, 54.84 92.23, 22.71 90.86 M93.25 90.86 C72 90.26, 51.3 90.74, 22.71 90.86 M22.71 90.86 C6.72 91.14, 1.29 85.07, 0 68.14 M22.71 90.86 C8.15 89.75, -1.33 81.77, 0 68.14 M0 68.14 C-0.84 55.26, -2.06 39.91, 0 22.71 M0 68.14 C0.88 58.23, 0.93 47.87, 0 22.71 M0 22.71 C-1.18 8.35, 6.65 -1.32, 22.71 0 M0 22.71 C-1.92 9.32, 5.52 -1.07, 22.71 0" stroke="#1e1e1e" stroke-width="2" fill="none"></path></g><g transform="translate(2899.3837969602205 819.8984389780035) rotate(0 33.0899658203125 37.5)"><text x="33.0899658203125" y="0" font-family="Virgil, Segoe UI Emoji" font-size="20px" fill="#1e1e1e" text-anchor="middle" style="white-space: pre;" direction="ltr" dominant-baseline="text-before-edge">Event </text><text x="33.0899658203125" y="25" font-family="Virgil, Segoe UI Emoji" font-size="20px" fill="#1e1e1e" text-anchor="middle" style="white-space: pre;" direction="ltr" dominant-baseline="text-before-edge">Cache</text><text x="33.0899658203125" y="50" font-family="Virgil, Segoe UI Emoji" font-size="20px" fill="#1e1e1e" text-anchor="middle" style="white-space: pre;" direction="ltr" dominant-baseline="text-before-edge">(Redis)</text></g><g stroke-linecap="round"><g transform="translate(2802.9754156632516 966.7230539411553) rotate(0 52.16664611763281 -33.56467360354833)"><path d="M-0.79 0.39 C16.72 -11.48, 94.66 -71.31, 104.85 -71 C115.04 -70.69, 67.77 -10.02, 60.35 2.25 M0.99 -0.45 C18.41 -12.22, 94.36 -70.54, 104.18 -69.94 C113.99 -69.33, 67.09 -9.06, 59.88 3.18" stroke="#1e1e1e" stroke-width="2" fill="none"></path></g><g transform="translate(2802.9754156632516 966.7230539411553) rotate(0 52.16664611763281 -33.56467360354833)"><path d="M66.23 -21 C65.14 -13.35, 61.19 -6.46, 59.88 3.18 M66.23 -21 C64.33 -15.63, 63.53 -9.07, 59.88 3.18" stroke="#1e1e1e" stroke-width="2" fill="none"></path></g><g transform="translate(2802.9754156632516 966.7230539411553) rotate(0 52.16664611763281 -33.56467360354833)"><path d="M80.29 -11.26 C75.2 -6.45, 67.29 -2.31, 59.88 3.18 M80.29 -11.26 C74.98 -8.27, 70.82 -4.04, 59.88 3.18" stroke="#1e1e1e" stroke-width="2" fill="none"></path></g></g><mask></mask><g mask="url(#mask-VCHbmjaMYTEjVMQF00zJY)" stroke-linecap="round"><g transform="translate(3129.020734227626 884.7955703165085) rotate(0 -65.79608670970697 -22.453141853375314)"><path d="M0.32 -0.43 C-21.61 -7.92, -109.21 -37.94, -131.1 -45.37 M-0.98 -1.7 C-23.06 -9, -110.03 -37.07, -131.78 -44.07" stroke="#1e1e1e" stroke-width="2" fill="none"></path></g><g transform="translate(3129.020734227626 884.7955703165085) rotate(0 -65.79608670970697 -22.453141853375314)"><path d="M-106.8 -45 C-115.99 -43.79, -124.51 -43.34, -131.78 -44.07 M-106.8 -45 C-113.2 -44.91, -121.66 -45.27, -131.78 -44.07" stroke="#1e1e1e" stroke-width="2" fill="none"></path></g><g transform="translate(3129.020734227626 884.7955703165085) rotate(0 -65.79608670970697 -22.453141853375314)"><path d="M-112.05 -28.72 C-119.41 -33.05, -126.15 -38.12, -131.78 -44.07 M-112.05 -28.72 C-117.01 -33.41, -123.94 -38.53, -131.78 -44.07" stroke="#1e1e1e" stroke-width="2" fill="none"></path></g></g><mask id="mask-VCHbmjaMYTEjVMQF00zJY"><rect x="0" y="0" fill="#fff" width="3360.6129076470397" height="1029.701854023259"></rect><rect x="3028.904685970067" y="849.8424284631333" fill="#000" width="68.63992309570312" height="25" opacity="1"></rect></mask><g transform="translate(3028.904685970068 849.842428463133) rotate(0 34.382236687196155 12.055247166380298)"><text x="34.31996154785156" y="0" font-family="Virgil, Segoe UI Emoji" font-size="20px" fill="#1e1e1e" text-anchor="middle" style="white-space: pre;" direction="ltr" dominant-baseline="text-before-edge">Trigger</text></g><g stroke-linecap="round" transform="translate(2663.6183611263295 602.2832586932291) rotate(0 127.69279527271351 47.49643557427254)"><path d="M23.75 0 C84.99 0.18, 146.51 0.08, 231.64 0 M23.75 0 C69.71 -0.64, 116.07 -0.49, 231.64 0 M231.64 0 C248.11 1.54, 256.85 8.65, 255.39 23.75 M231.64 0 C246.79 -0.94, 253.93 9.63, 255.39 23.75 M255.39 23.75 C253.23 37.94, 257.06 52.28, 255.39 71.24 M255.39 23.75 C255.45 38.04, 256.26 54.83, 255.39 71.24 M255.39 71.24 C254.34 86.01, 246.95 94.65, 231.64 94.99 M255.39 71.24 C256.97 88.49, 245.77 93.07, 231.64 94.99 M231.64 94.99 C157.94 94.26, 86.95 95.41, 23.75 94.99 M231.64 94.99 C150.25 93.77, 68.09 94.31, 23.75 94.99 M23.75 94.99 C7.74 94.26, -1.7 87.93, 0 71.24 M23.75 94.99 C9.86 96.69, 0.19 85.05, 0 71.24 M0 71.24 C2.09 62.12, -1.02 52.61, 0 23.75 M0 71.24 C0.54 58.4, 1.22 45.19, 0 23.75 M0 23.75 C0.38 8.4, 9 0.2, 23.75 0 M0 23.75 C1.23 7.01, 7.37 -0.78, 23.75 0" stroke="#1e1e1e" stroke-width="2" fill="none"></path></g><g transform="translate(2758.735170311007 639.1998928194547) rotate(0 60.799964904785156 12.5)"><text x="0" y="0" font-family="Virgil, Segoe UI Emoji" font-size="20px" fill="#1e1e1e" text-anchor="start" style="white-space: pre;" direction="ltr" dominant-baseline="text-before-edge">SEARCH SVC</text></g><g stroke-linecap="round" transform="translate(3150.4356999610095 378.5356686441979) rotate(0 137.968385177526 90.37336252905703)"><path d="M157.2 1.39 C172.56 1.3, 189.85 6.35, 203.88 11.19 C217.91 16.04, 231.02 22.78, 241.38 30.48 C251.75 38.18, 260.33 48.03, 266.09 57.4 C271.85 66.78, 275.48 76.69, 275.95 86.74 C276.43 96.79, 273.88 107.7, 268.93 117.72 C263.98 127.73, 256.01 138.5, 246.24 146.84 C236.48 155.18, 223.77 162.55, 210.35 167.76 C196.94 172.97, 181.05 176.2, 165.74 178.1 C150.42 179.99, 133.98 180.41, 118.46 179.12 C102.94 177.83, 86.41 175.05, 72.63 170.36 C58.84 165.67, 46.32 158.69, 35.76 150.99 C25.2 143.28, 15.23 133.63, 9.26 124.12 C3.29 114.61, 0.36 104.34, -0.07 93.93 C-0.5 83.52, 1.92 71.54, 6.7 61.64 C11.48 51.74, 18.73 42.5, 28.6 34.53 C38.47 26.56, 52.58 19.28, 65.92 13.83 C79.27 8.37, 91.22 3.54, 108.66 1.78 C126.11 0.02, 158.36 2.39, 170.57 3.26 C182.77 4.14, 182.54 5.6, 181.88 7.06 M176.67 3.24 C191.53 4.66, 206.9 11.24, 219.51 17.56 C232.12 23.89, 243.54 32.46, 252.33 41.18 C261.12 49.9, 268.59 59.98, 272.24 69.88 C275.89 79.78, 275.84 90.5, 274.21 100.57 C272.57 110.64, 269.29 120.91, 262.43 130.29 C255.56 139.67, 244.43 149.92, 233 156.85 C221.57 163.78, 208.2 168.13, 193.84 171.87 C179.49 175.62, 162.76 178.57, 146.88 179.32 C130.99 180.07, 113.57 179.15, 98.56 176.38 C83.55 173.62, 69.33 168.95, 56.82 162.74 C44.31 156.53, 32.41 147.37, 23.48 139.13 C14.55 130.88, 6.76 123.1, 3.23 113.3 C-0.31 103.49, 0.53 90.98, 2.25 80.32 C3.97 69.66, 6.76 58.77, 13.57 49.31 C20.38 39.86, 31.45 30.75, 43.09 23.61 C54.73 16.48, 69.2 10.52, 83.42 6.49 C97.64 2.46, 112.75 -0.33, 128.38 -0.59 C144.02 -0.84, 169.35 4.16, 177.21 4.94 C185.08 5.73, 176.18 2.69, 175.59 4.1" stroke="#1e1e1e" stroke-width="2" fill="none"></path></g><g transform="translate(3251.963485742001 456.04200960385174) rotate(0 66.80994415283203 12.5)"><text x="0" y="0" font-family="Virgil, Segoe UI Emoji" font-size="20px" fill="#1e1e1e" text-anchor="start" style="white-space: pre;" direction="ltr" dominant-baseline="text-before-edge">ElasticSearch</text></g><g stroke-linecap="round"><g transform="translate(2833.768384095106 591.6583888684067) rotate(0 164.5530939279697 -5.560310984676448)"><path d="M0.7 -0.37 C55.88 -11.43, 317.35 -74.36, 330.27 -65.41 C343.18 -56.46, 120.35 33.46, 78.21 53.34 M-0.38 -1.61 C54.81 -12.56, 316.92 -73.32, 329.93 -64.01 C342.93 -54.69, 119.72 34.48, 77.64 54.3" stroke="#1e1e1e" stroke-width="2" fill="none"></path></g><g transform="translate(2833.768384095106 591.6583888684067) rotate(0 164.5530939279697 -5.560310984676448)"><path d="M95.83 37.15 C91.12 43.18, 87.07 45.84, 77.64 54.3 M95.83 37.15 C91.73 40.91, 87.18 45.3, 77.64 54.3" stroke="#1e1e1e" stroke-width="2" fill="none"></path></g><g transform="translate(2833.768384095106 591.6583888684067) rotate(0 164.5530939279697 -5.560310984676448)"><path d="M102.6 52.86 C96.19 55.27, 90.57 54.28, 77.64 54.3 M102.6 52.86 C96.91 52.79, 90.72 53.37, 77.64 54.3" stroke="#1e1e1e" stroke-width="2" fill="none"></path></g></g><mask></mask><g stroke-linecap="round"><g transform="translate(2454.748968960308 966.8526255243847) rotate(0 118.70447087955108 -126.17455433008917)"><path d="M0.24 1.04 C39.75 -41.02, 198.11 -209.26, 237.84 -251.34 M-1.1 0.55 C38.23 -41.32, 197.19 -210.63, 237.11 -252.93" stroke="#1e1e1e" stroke-width="2" fill="none"></path></g><g transform="translate(2454.748968960308 966.8526255243847) rotate(0 118.70447087955108 -126.17455433008917)"><path d="M227.24 -229.96 C232.36 -237.62, 235.9 -244.72, 237.11 -252.93 M227.24 -229.96 C231.09 -237.73, 235.4 -246.68, 237.11 -252.93" stroke="#1e1e1e" stroke-width="2" fill="none"></path></g><g transform="translate(2454.748968960308 966.8526255243847) rotate(0 118.70447087955108 -126.17455433008917)"><path d="M214.79 -241.68 C224.54 -245.1, 232.61 -247.94, 237.11 -252.93 M214.79 -241.68 C223.38 -245.02, 232.42 -249.52, 237.11 -252.93" stroke="#1e1e1e" stroke-width="2" fill="none"></path></g></g><mask></mask><g mask="url(#mask-vYU56aiOlZOsUlsS85I9M)" stroke-linecap="round"><g transform="translate(3304.6033498157767 846.2102144434874) rotate(0 4.664576996263804 -139.90350860532374)"><path d="M-0.71 -0.9 C1.02 -47.79, 8.85 -234.09, 10.5 -280.69 M1.11 1.24 C2.79 -45.57, 8.95 -232.82, 10.17 -279.62" stroke="#1e1e1e" stroke-width="2" fill="none"></path></g><g transform="translate(3304.6033498157767 846.2102144434874) rotate(0 4.664576996263804 -139.90350860532374)"><path d="M18.01 -255.88 C13.99 -261.24, 11.61 -270.62, 10.17 -279.62 M18.01 -255.88 C16.62 -261.29, 13.82 -267.42, 10.17 -279.62" stroke="#1e1e1e" stroke-width="2" fill="none"></path></g><g transform="translate(3304.6033498157767 846.2102144434874) rotate(0 4.664576996263804 -139.90350860532374)"><path d="M0.92 -256.39 C2.13 -261.49, 4.99 -270.72, 10.17 -279.62 M0.92 -256.39 C3.64 -261.63, 4.97 -267.63, 10.17 -279.62" stroke="#1e1e1e" stroke-width="2" fill="none"></path></g></g><mask id="mask-vYU56aiOlZOsUlsS85I9M"><rect x="0" y="0" fill="#fff" width="3413.9325038083043" height="1226.0172316541348"></rect><rect x="3288.5879417656533" y="693.8067058381636" fill="#000" width="41.35997009277344" height="25" opacity="1"></rect></mask><g transform="translate(3288.587941765654 693.8067058381637) rotate(0 20.910490087047265 12.680119629399826)"><text x="20.67998504638672" y="0" font-family="Virgil, Segoe UI Emoji" font-size="20px" fill="#1e1e1e" text-anchor="middle" style="white-space: pre;" direction="ltr" dominant-baseline="text-before-edge">CDC</text></g><g stroke-linecap="round"><g transform="translate(2918.79551042917 711.7374452396105) rotate(0 141.99918812538408 41.99246006056546)"><path d="M0.16 -0.68 C47.61 19.9, 284.1 131.21, 284.34 124.67 C284.58 118.13, 48.54 -12.43, 1.59 -39.92 M-1.22 1.58 C46.14 22.33, 283.28 129.63, 283.57 122.94 C283.87 116.24, 47.29 -11.54, 0.54 -38.59" stroke="#1e1e1e" stroke-width="2" fill="none"></path></g><g transform="translate(2918.79551042917 711.7374452396105) rotate(0 141.99918812538408 41.99246006056546)"><path d="M25.23 -34.63 C17.41 -35.09, 13.13 -37.61, 0.54 -38.59 M25.23 -34.63 C18.22 -36.31, 9.88 -37.1, 0.54 -38.59" stroke="#1e1e1e" stroke-width="2" fill="none"></path></g><g transform="translate(2918.79551042917 711.7374452396105) rotate(0 141.99918812538408 41.99246006056546)"><path d="M16.91 -19.69 C11.19 -24.18, 9.14 -30.72, 0.54 -38.59 M16.91 -19.69 C12.35 -25.86, 6.53 -31.17, 0.54 -38.59" stroke="#1e1e1e" stroke-width="2" fill="none"></path></g></g><mask></mask><g stroke-linecap="round" transform="translate(2432.9302410538753 1375.6002686897173) rotate(0 68.76870941230504 58.47340209265349)"><path d="M29.24 0 C50.64 1.11, 70.67 1.77, 108.3 0 M29.24 0 C47.14 1.39, 66.3 1.08, 108.3 0 M108.3 0 C127.92 -0.52, 138.79 9.61, 137.54 29.24 M108.3 0 C127.37 -1.84, 135.61 7.98, 137.54 29.24 M137.54 29.24 C136.01 41.66, 136.25 55.62, 137.54 87.71 M137.54 29.24 C138.49 49.76, 137.6 70.66, 137.54 87.71 M137.54 87.71 C135.91 107.31, 128.12 115.67, 108.3 116.95 M137.54 87.71 C137.29 109.01, 128.8 118.9, 108.3 116.95 M108.3 116.95 C83.84 118.18, 60.18 115.62, 29.24 116.95 M108.3 116.95 C85.43 118.29, 60.02 118.36, 29.24 116.95 M29.24 116.95 C9.32 116.22, -0.15 106.21, 0 87.71 M29.24 116.95 C10.89 115.67, 1.02 107.1, 0 87.71 M0 87.71 C-1.96 63.6, -1.38 41.81, 0 29.24 M0 87.71 C-0.12 73.25, 0.67 60.53, 0 29.24 M0 29.24 C0.37 11.42, 8.16 -1.53, 29.24 0 M0 29.24 C1.58 10.37, 9.21 1.35, 29.24 0" stroke="#1e1e1e" stroke-width="2" fill="none"></path></g><g transform="translate(2464.4089800682314 1409.0736707823708) rotate(0 37.28997039794922 25)"><text x="37.28997039794922" y="0" font-family="Virgil, Segoe UI Emoji" font-size="20px" fill="#1e1e1e" text-anchor="middle" style="white-space: pre;" direction="ltr" dominant-baseline="text-before-edge">Virtual </text><text x="37.28997039794922" y="25" font-family="Virgil, Segoe UI Emoji" font-size="20px" fill="#1e1e1e" text-anchor="middle" style="white-space: pre;" direction="ltr" dominant-baseline="text-before-edge">Queue</text></g><g stroke-linecap="round"><g transform="translate(2563.498962119575 1513.3235945685265) rotate(0 54.515835257055414 7.929217538938246)"><path d="M-0.73 -0.88 C17.57 1.87, 91.37 13.2, 109.63 15.93 M1.09 1.27 C19.3 4.29, 91.19 14.94, 108.99 17.51" stroke="#1e1e1e" stroke-width="2" fill="none"></path></g><g transform="translate(2563.498962119575 1513.3235945685265) rotate(0 54.515835257055414 7.929217538938246)"><path d="M84.5 22.56 C90 22.26, 98.55 19.44, 108.99 17.51 M84.5 22.56 C92.05 20.79, 98.2 20.47, 108.99 17.51" stroke="#1e1e1e" stroke-width="2" fill="none"></path></g><g transform="translate(2563.498962119575 1513.3235945685265) rotate(0 54.515835257055414 7.929217538938246)"><path d="M86.99 5.64 C91.7 10.13, 99.54 12.11, 108.99 17.51 M86.99 5.64 C93.84 8.53, 99.31 12.85, 108.99 17.51" stroke="#1e1e1e" stroke-width="2" fill="none"></path></g></g><mask></mask><g stroke-linecap="round"><g transform="translate(2483.812438433407 1129.9663481690873) rotate(0 127.62800948109862 172.47104437271423)"><path d="M-0.11 -0.56 C42.13 57.04, 211.66 287.39, 254.23 345.02 M-1.62 1.76 C40.91 59.62, 213.7 289.11, 256.41 346.59" stroke="#1e1e1e" stroke-width="2" fill="none"></path></g><g transform="translate(2483.812438433407 1129.9663481690873) rotate(0 127.62800948109862 172.47104437271423)"><path d="M235.49 332.91 C242.14 336.24, 250.86 343.09, 256.41 346.59 M235.49 332.91 C242.86 336.89, 248.72 341.5, 256.41 346.59" stroke="#1e1e1e" stroke-width="2" fill="none"></path></g><g transform="translate(2483.812438433407 1129.9663481690873) rotate(0 127.62800948109862 172.47104437271423)"><path d="M249.18 322.66 C250.77 329.73, 254.48 340.33, 256.41 346.59 M249.18 322.66 C252.14 329.95, 253.58 337.87, 256.41 346.59" stroke="#1e1e1e" stroke-width="2" fill="none"></path></g></g><mask></mask><g transform="translate(2300.0461321313346 1317.5972677796578) rotate(0 56.599952697753906 12.5)"><text x="0" y="0" font-family="Virgil, Segoe UI Emoji" font-size="20px" fill="#1e1e1e" text-anchor="start" style="white-space: pre;" direction="ltr" dominant-baseline="text-before-edge">high demadn</text></g></svg>