<svg version="1.1" xmlns="http://www.w3.org/2000/svg" viewBox="0 0 1149.2134550443793 764.9663683821739" width="3447.640365133138" height="2294.899105146522" filter="invert(93%) hue-rotate(180deg)">
  <!-- svg-source:excalidraw -->
  
  <defs>
    <style class="style-fonts">
      @font-face {
        font-family: "Virgil";
        src: url("https://excalidraw.com/Virgil.woff2");
      }
      @font-face {
        font-family: "Cascadia";
        src: url("https://excalidraw.com/Cascadia.woff2");
      }
      @font-face {
        font-family: "Assistant";
        src: url("https://excalidraw.com/Assistant-Regular.woff2");
      }
    </style>
    
  </defs>
  <rect x="0" y="0" width="1149.2134550443793" height="764.9663683821739" fill="#ffffff"></rect><g stroke-linecap="round" transform="translate(614.4140956353083 10) rotate(0 85.3828125 22)"><path d="M0 0 C47.52 -0.87, 91.73 -1.56, 170.77 0 M0 0 C52.07 -0.72, 104.64 0.09, 170.77 0 M170.77 0 C171.61 13.62, 171.78 25.08, 170.77 44 M170.77 0 C169.8 11.07, 170.97 20.18, 170.77 44 M170.77 44 C130.81 44.19, 93.09 43.7, 0 44 M170.77 44 C104.85 41.76, 38.13 42.5, 0 44 M0 44 C0.96 33.51, -0.91 24.43, 0 0 M0 44 C-0.74 29.31, -0.99 13.49, 0 0" stroke="#1e1e1e" stroke-width="2" fill="none"></path></g><g stroke-linecap="round" transform="translate(621.8750331353083 104) rotate(0 77.921875 22)"><path d="M0 0 C48.71 -0.84, 96.88 1.06, 155.84 0 M0 0 C53.81 0.74, 108.41 0.29, 155.84 0 M155.84 0 C156.8 16.29, 154.75 30.75, 155.84 44 M155.84 0 C156.1 8.11, 154.87 18.04, 155.84 44 M155.84 44 C105.36 42.96, 54.93 44.07, 0 44 M155.84 44 C123.43 42.87, 88.88 43.75, 0 44 M0 44 C-0.81 26.1, 0.63 14.03, 0 0 M0 44 C-0.42 32.63, -0.17 21.23, 0 0" stroke="#1e1e1e" stroke-width="2" fill="none"></path></g><g stroke-linecap="round"><g transform="translate(699.7969706353083 54.5) rotate(0 0 24.5)"><path d="M0.1 -0.74 C-0.17 7.15, -0.76 39.42, -0.9 47.83 M-1.31 1.49 C-1.26 9.43, 0.83 41.04, 1.34 48.75" stroke="#1e1e1e" stroke-width="2" fill="none"></path></g><g transform="translate(699.7969706353083 54.5) rotate(0 0 24.5)"><path d="M-8.51 26.32 C-6.13 32.84, -3.32 41.1, 1.34 48.75 M-8.51 26.32 C-5.56 34.68, -1.03 42.15, 1.34 48.75" stroke="#1e1e1e" stroke-width="2" fill="none"></path></g><g transform="translate(699.7969706353083 54.5) rotate(0 0 24.5)"><path d="M8.21 25.23 C4.61 32.16, 1.44 40.81, 1.34 48.75 M8.21 25.23 C5.17 33.85, 3.7 41.71, 1.34 48.75" stroke="#1e1e1e" stroke-width="2" fill="none"></path></g></g><mask></mask><g mask="url(#mask-l0B69dZjKFgpJv-bP3VPR)" stroke-linecap="round"><g transform="translate(621.8749706353083 139.16899999999998) rotate(0 -153.5902826292441 44.585204861111094)"><path d="M-0.9 -1.17 C-51.1 7.12, -250.15 34.14, -301.09 49.04 C-352.03 63.94, -305.39 81.48, -306.54 88.22 M0.83 0.83 C-48.99 8.84, -247.47 32.58, -298.77 47.29 C-350.07 61.99, -305.4 81.8, -306.97 89.03" stroke="#1e1e1e" stroke-width="2" fill="none"></path></g><g transform="translate(621.8749706353083 139.16899999999998) rotate(0 -153.5902826292441 44.585204861111094)"><path d="M-324.43 77.9 C-321.07 80.2, -312.56 85.96, -306.97 89.03 M-324.43 77.9 C-320.36 79.97, -316.97 83.2, -306.97 89.03" stroke="#1e1e1e" stroke-width="2" fill="none"></path></g><g transform="translate(621.8749706353083 139.16899999999998) rotate(0 -153.5902826292441 44.585204861111094)"><path d="M-313.19 69.28 C-313.35 74.15, -308.3 82.57, -306.97 89.03 M-313.19 69.28 C-311.66 73.28, -310.74 78.41, -306.97 89.03" stroke="#1e1e1e" stroke-width="2" fill="none"></path></g></g><mask id="mask-l0B69dZjKFgpJv-bP3VPR"><rect x="0" y="0" fill="#fff" width="1029.0555358937963" height="328.3394097222222"></rect><rect x="262.6370051201716" y="175" fill="#000" width="117.81993103027344" height="25" opacity="1"></rect></mask><g mask="url(#mask-Z5M8Fyt-FqW7n-33Jov6R)" stroke-linecap="round"><g transform="translate(777.7189706353083 139.47500000000002) rotate(0 145.70299999999997 43.51249999999999)"><path d="M-0.76 0.71 C48.06 8.75, 243.49 32.64, 292.05 47.07 C340.6 61.5, 290.61 80.72, 290.57 87.31 M1.04 0.03 C49.84 8.29, 242.77 33.32, 291.43 48.11 C340.1 62.9, 292.89 82.21, 293.02 88.77" stroke="#1e1e1e" stroke-width="2" fill="none"></path></g><g transform="translate(777.7189706353083 139.47500000000002) rotate(0 145.70299999999997 43.51249999999999)"><path d="M301.17 71.06 C300.31 76.04, 295.78 77.62, 293.02 88.77 M301.17 71.06 C298.44 77.19, 295.56 83.37, 293.02 88.77" stroke="#1e1e1e" stroke-width="2" fill="none"></path></g><g transform="translate(777.7189706353083 139.47500000000002) rotate(0 145.70299999999997 43.51249999999999)"><path d="M310.65 80.45 C307.75 83.25, 301.08 82.72, 293.02 88.77 M310.65 80.45 C304.82 83.51, 298.88 86.65, 293.02 88.77" stroke="#1e1e1e" stroke-width="2" fill="none"></path></g></g><mask id="mask-Z5M8Fyt-FqW7n-33Jov6R"><rect x="0" y="0" fill="#fff" width="1169.1249706353083" height="326.5"></rect><rect x="1011.2850048149958" y="175" fill="#000" width="115.679931640625" height="25" opacity="1"></rect></mask><g mask="url(#mask-cj13ndMqCeTyYDF5NJUD9)" stroke-linecap="round"><g transform="translate(227.38423789907364 322.3100814844232) rotate(0 -66.14446361059152 74.17829259112176)"><path d="M0.64 -0.95 C-19.03 5.62, -96.68 15.32, -118.77 40.14 C-140.87 64.96, -129.65 129.82, -131.93 147.95 M-0.48 1.16 C-19.71 7.29, -94.5 13.52, -116.5 38.16 C-138.51 62.81, -129.88 130.97, -132.51 149.05" stroke="#1e1e1e" stroke-width="2" fill="none"></path></g><g transform="translate(227.38423789907364 322.3100814844232) rotate(0 -66.14446361059152 74.17829259112176)"><path d="M-142.3 120.69 C-141.4 125.95, -137.03 134.65, -132.51 149.05 M-142.3 120.69 C-140.14 129.08, -136.98 134.83, -132.51 149.05" stroke="#1e1e1e" stroke-width="2" fill="none"></path></g><g transform="translate(227.38423789907364 322.3100814844232) rotate(0 -66.14446361059152 74.17829259112176)"><path d="M-121.78 121.03 C-125.74 126.32, -126.23 134.95, -132.51 149.05 M-121.78 121.03 C-125.07 129.43, -127.37 135.09, -132.51 149.05" stroke="#1e1e1e" stroke-width="2" fill="none"></path></g></g><mask id="mask-cj13ndMqCeTyYDF5NJUD9"><rect x="0" y="0" fill="#fff" width="459.67316512025667" height="570.6666666666667"></rect><rect x="10" y="349.66666666666663" fill="#000" width="198.89987182617188" height="25" opacity="1"></rect></mask><g mask="url(#mask-qKk0Al24hzZULrNAbNVGP)" stroke-linecap="round"><g transform="translate(376.3772067464193 529.2447152777777) rotate(0 44.15784375000004 63.26619026011031)"><path d="M0.35 -0.41 C-2.74 9.32, -37.17 37.33, -19.39 58.66 C-1.61 80, 85.86 116.48, 107.04 127.61 M-0.92 -1.67 C-4.11 7.67, -38.26 35.56, -20.44 56.82 C-2.61 78.07, 84.61 114.3, 106.02 125.84" stroke="#1e1e1e" stroke-width="2" fill="none"></path></g><g transform="translate(376.3772067464193 529.2447152777777) rotate(0 44.15784375000004 63.26619026011031)"><path d="M76.16 122.92 C82.35 123.2, 90.78 123.37, 106.02 125.84 M76.16 122.92 C88.5 123.59, 100.03 125.47, 106.02 125.84" stroke="#1e1e1e" stroke-width="2" fill="none"></path></g><g transform="translate(376.3772067464193 529.2447152777777) rotate(0 44.15784375000004 63.26619026011031)"><path d="M85.02 104.41 C89.22 108.97, 95.61 113.4, 106.02 125.84 M85.02 104.41 C93.94 112.22, 102.01 121.32, 106.02 125.84" stroke="#1e1e1e" stroke-width="2" fill="none"></path></g></g><mask id="mask-qKk0Al24hzZULrNAbNVGP"><rect x="0" y="0" fill="#fff" width="603.1052275797526" height="755.7770957979983"></rect><rect x="258.99113895670587" y="574.8836805555557" fill="#000" width="196.35980224609375" height="25" opacity="1"></rect></mask><g mask="url(#mask-gr-f-HEgyPuApjYrnWE5I)" stroke-linecap="round"><g transform="translate(556.8771203673077 590.7564666132619) rotate(0 -15.536432504888523 -42.97576174147571)"><path d="M-0.48 1.08 C-5.6 -5.85, -30.26 -26.42, -30.89 -41.07 C-31.51 -55.73, -8.65 -79.36, -4.23 -86.83 M1.47 0.6 C-3.78 -6.26, -30.73 -25.66, -31.74 -40.09 C-32.74 -54.52, -9.22 -78.52, -4.56 -85.98" stroke="#1e1e1e" stroke-width="2" fill="none"></path></g><g transform="translate(556.8771203673077 590.7564666132619) rotate(0 -15.536432504888523 -42.97576174147571)"><path d="M-12.62 -60.84 C-8.63 -67.65, -9.91 -73.73, -4.56 -85.98 M-12.62 -60.84 C-11.93 -65.64, -8.49 -71.55, -4.56 -85.98" stroke="#1e1e1e" stroke-width="2" fill="none"></path></g><g transform="translate(556.8771203673077 590.7564666132619) rotate(0 -15.536432504888523 -42.97576174147571)"><path d="M-26.89 -71.9 C-18.8 -75.51, -16.01 -78.44, -4.56 -85.98 M-26.89 -71.9 C-22.91 -74.2, -16.23 -77.61, -4.56 -85.98" stroke="#1e1e1e" stroke-width="2" fill="none"></path></g></g><mask id="mask-gr-f-HEgyPuApjYrnWE5I"><rect x="0" y="0" fill="#fff" width="687.9499853770848" height="776.7079900962133"></rect><rect x="499.0642803819446" y="538.2430555555559" fill="#000" width="53.479949951171875" height="25" opacity="1"></rect></mask><g mask="url(#mask-eCIwt9k9XzE6lsRQeVgij)" stroke-linecap="round"><g transform="translate(996.2306303575306 274.7248263888888) rotate(0 -149.89868787207774 70.15159709430071)"><path d="M0.19 -1.06 C-17.09 12.2, -54.24 57.09, -104.12 80.66 C-154 104.22, -266.3 130.2, -299.11 140.32 M-1.17 1 C-18.49 14.9, -54.91 58.29, -104.63 81.73 C-154.36 105.17, -266.72 132.04, -299.51 141.64" stroke="#1e1e1e" stroke-width="2" fill="none"></path></g><g transform="translate(996.2306303575306 274.7248263888888) rotate(0 -149.89868787207774 70.15159709430071)"><path d="M-274.98 124.38 C-282.97 130.29, -289.05 134.54, -299.51 141.64 M-274.98 124.38 C-281.91 130.48, -290.77 134.74, -299.51 141.64" stroke="#1e1e1e" stroke-width="2" fill="none"></path></g><g transform="translate(996.2306303575306 274.7248263888888) rotate(0 -149.89868787207774 70.15159709430071)"><path d="M-269.62 144.19 C-279.18 144.96, -286.65 144.06, -299.51 141.64 M-269.62 144.19 C-277.97 144.37, -288.44 142.67, -299.51 141.64" stroke="#1e1e1e" stroke-width="2" fill="none"></path></g></g><mask id="mask-eCIwt9k9XzE6lsRQeVgij"><rect x="0" y="0" fill="#fff" width="1396.028006101686" height="515.0280205774902"></rect><rect x="864.5411831597223" y="343.7638888888888" fill="#000" width="53.479949951171875" height="25" opacity="1"></rect></mask><g transform="translate(627.0869700859919 19.5) rotate(0 72.7099380493164 12.5)"><text x="72.7099380493164" y="0" font-family="Virgil, Segoe UI Emoji" font-size="20px" fill="#1e1e1e" text-anchor="middle" style="white-space: pre;" direction="ltr" dominant-baseline="text-before-edge">User Requests</text></g><g transform="translate(633.0469462822809 113.5) rotate(0 66.74996185302734 12.5)"><text x="66.74996185302734" y="0" font-family="Virgil, Segoe UI Emoji" font-size="20px" fill="#1e1e1e" text-anchor="middle" style="white-space: pre;" direction="ltr" dominant-baseline="text-before-edge">API Gateway</text></g><g transform="translate(262.6370051201716 175) rotate(0 197.17875423788445 8.098946908315668)"><text x="58.90996551513672" y="0" font-family="Virgil, Segoe UI Emoji" font-size="20px" fill="#1e1e1e" text-anchor="middle" style="white-space: pre;" direction="ltr" dominant-baseline="text-before-edge">Create URL</text></g><g transform="translate(1011.2850048149958 175) rotate(0 -77.22017818338037 8.877089138058977)"><text x="57.8399658203125" y="0" font-family="Virgil, Segoe UI Emoji" font-size="20px" fill="#1e1e1e" text-anchor="middle" style="white-space: pre;" direction="ltr" dominant-baseline="text-before-edge">Access URL</text></g><g transform="translate(10 349.66666666666674) rotate(0 151.30265559873862 46.68981168852957)"><text x="99.44993591308594" y="0" font-family="Virgil, Segoe UI Emoji" font-size="20px" fill="#1e1e1e" text-anchor="middle" style="white-space: pre;" direction="ltr" dominant-baseline="text-before-edge">Generate Unique ID</text></g><g transform="translate(258.99113895670587 574.8836805555557) rotate(0 158.1258261691271 17.33132470932128)"><text x="98.17990112304688" y="0" font-family="Virgil, Segoe UI Emoji" font-size="20px" fill="#1e1e1e" text-anchor="middle" style="white-space: pre;" direction="ltr" dominant-baseline="text-before-edge">Process from Queue</text></g><g transform="translate(499.0642803819446 538.2430555555559) rotate(0 42.66306939603055 9.636599784234022)"><text x="26.739974975585938" y="0" font-family="Virgil, Segoe UI Emoji" font-size="20px" fill="#1e1e1e" text-anchor="middle" style="white-space: pre;" direction="ltr" dominant-baseline="text-before-edge">Check</text></g><g transform="translate(864.5411831597223 343.7638888888887) rotate(0 -17.973261922728398 1.2528502354794568)"><text x="26.739974975585938" y="0" font-family="Virgil, Segoe UI Emoji" font-size="20px" fill="#1e1e1e" text-anchor="middle" style="white-space: pre;" direction="ltr" dominant-baseline="text-before-edge">Check</text></g><g stroke-linecap="round" transform="translate(257.51640643326806 251.37001421550735) rotate(0 59.16015625 59.8515625)"><path d="M0 0 C32.52 0.78, 67.58 1.29, 118.32 0 M0 0 C26.62 -0.79, 53.91 0.24, 118.32 0 M118.32 0 C120.3 43.56, 120.2 87.93, 118.32 119.7 M118.32 0 C118.65 25.2, 119.26 50.05, 118.32 119.7 M118.32 119.7 C74.91 120.15, 29.97 120.52, 0 119.7 M118.32 119.7 C75 118.79, 32.75 118.61, 0 119.7 M0 119.7 C-0.92 87.92, -0.95 54.1, 0 0 M0 119.7 C-0.47 85.58, -0.32 51.33, 0 0" stroke="#000000" stroke-width="1" fill="none"></path></g><g stroke-linecap="round" transform="translate(250.16231189626757 242.37998578449265) rotate(0 59.16015625 59.8515625)"><path d="M-1.78 1.05 L117.36 1.34 L119.91 121.53 L1.91 118.04" stroke="none" stroke-width="0" fill="#fff"></path><path d="M0 0 C30.13 0.59, 57.65 -0.39, 118.32 0 M0 0 C36 1.16, 73.51 1.67, 118.32 0 M118.32 0 C119.76 30.18, 117.11 61.1, 118.32 119.7 M118.32 0 C119.6 32.32, 119.38 65.49, 118.32 119.7 M118.32 119.7 C87.9 121.72, 60.41 118.53, 0 119.7 M118.32 119.7 C85.27 118.15, 52.76 119.05, 0 119.7 M0 119.7 C-0.36 72.34, 0.2 24.58, 0 0 M0 119.7 C0.32 85.91, 1.97 51.6, 0 0" stroke="#000000" stroke-width="1" fill="none"></path></g><g stroke-linecap="round" transform="translate(240.92403064626757 232.22113161782613) rotate(0 59.16015625 59.8515625)"><path d="M-0.96 1.34 L119.91 1.82 L120.23 118.04 L-0.5 119.55" stroke="none" stroke-width="0" fill="#fff"></path><path d="M0 0 C35.16 -0.69, 73.3 -1.5, 118.32 0 M0 0 C27.96 0.45, 54.1 0.08, 118.32 0 M118.32 0 C117.05 32.52, 118.3 65.56, 118.32 119.7 M118.32 0 C120.11 35.83, 118.91 71.65, 118.32 119.7 M118.32 119.7 C77.88 118.74, 34.56 119.07, 0 119.7 M118.32 119.7 C90.04 118.84, 63.23 118.35, 0 119.7 M0 119.7 C0.22 77.45, 0.15 34.82, 0 0 M0 119.7 C1.79 82.44, -0.01 46.67, 0 0" stroke="#000000" stroke-width="1" fill="none"></path></g><g transform="translate(254.15422473806444 267.07269411782613) rotate(0 45.929962158203125 25)"><text x="45.929962158203125" y="0" font-family="Virgil, Segoe UI Emoji" font-size="20px" fill="#1e1e1e" text-anchor="middle" style="white-space: pre;" direction="ltr" dominant-baseline="text-before-edge">Creation </text><text x="45.929962158203125" y="25" font-family="Virgil, Segoe UI Emoji" font-size="20px" fill="#1e1e1e" text-anchor="middle" style="white-space: pre;" direction="ltr" dominant-baseline="text-before-edge">Service</text></g><g stroke-linecap="round" transform="translate(73.00965733129402 477.99983630148904) rotate(0 48.67800912514042 49.30485119851119)"><path d="M-1.71 0.33 L97.27 0.74 L96.44 100.49 L-1.69 100.35" stroke="none" stroke-width="0" fill="#eeeeee"></path><path d="M0 0 C34.09 -1.8, 66.69 -0.85, 97.36 0 M0 0 C31.62 -0.13, 61.32 -0.81, 97.36 0 M97.36 0 C99.54 24.55, 96.33 45.48, 97.36 98.61 M97.36 0 C98.46 25.79, 98.55 52.72, 97.36 98.61 M97.36 98.61 C75.87 98.1, 54.57 98.12, 0 98.61 M97.36 98.61 C66.77 99.12, 38.28 99.84, 0 98.61 M0 98.61 C-1.13 65.07, -0.59 32.68, 0 0 M0 98.61 C-1.48 75.77, -1.03 52.49, 0 0" stroke="#000000" stroke-width="1" fill="none"></path></g><g transform="translate(80.40768293592663 489.8046875000002) rotate(0 41.27998352050781 37.5)"><text x="41.27998352050781" y="0" font-family="Virgil, Segoe UI Emoji" font-size="20px" fill="#1e1e1e" text-anchor="middle" style="white-space: pre;" direction="ltr" dominant-baseline="text-before-edge">Unique </text><text x="41.27998352050781" y="25" font-family="Virgil, Segoe UI Emoji" font-size="20px" fill="#1e1e1e" text-anchor="middle" style="white-space: pre;" direction="ltr" dominant-baseline="text-before-edge">ID Gen </text><text x="41.27998352050781" y="50" font-family="Virgil, Segoe UI Emoji" font-size="20px" fill="#1e1e1e" text-anchor="middle" style="white-space: pre;" direction="ltr" dominant-baseline="text-before-edge">Service</text></g><g stroke-linecap="round"><g transform="translate(184.76926367865673 484.7482638888889) rotate(0 41.84461805555554 -48.830295138888914)"><path d="M0.42 -0.68 C11.49 -6.32, 52.64 -18.95, 66.4 -34.94 C80.15 -50.93, 79.99 -86.08, 82.97 -96.62 M-0.81 1.57 C10.14 -4.33, 51.39 -20.12, 65.77 -36.78 C80.15 -53.45, 82.3 -88.32, 85.49 -98.41" stroke="#1e1e1e" stroke-width="2" fill="none"></path></g><g transform="translate(184.76926367865673 484.7482638888889) rotate(0 41.84461805555554 -48.830295138888914)"><path d="M89.98 -68.75 C87.76 -76.65, 88.43 -87.81, 85.49 -98.41 M89.98 -68.75 C87.61 -80.31, 86.29 -91.57, 85.49 -98.41" stroke="#1e1e1e" stroke-width="2" fill="none"></path></g><g transform="translate(184.76926367865673 484.7482638888889) rotate(0 41.84461805555554 -48.830295138888914)"><path d="M69.86 -72.8 C73.67 -79.55, 80.4 -89.49, 85.49 -98.41 M69.86 -72.8 C75.29 -82.71, 81.76 -92.4, 85.49 -98.41" stroke="#1e1e1e" stroke-width="2" fill="none"></path></g></g><mask></mask><g stroke-linecap="round" transform="translate(323.13124284532324 483.3617410940632) rotate(0 7.577943982476626 19.047264604603413)"><path d="M6.51 0.13 C8.14 -0.77, 10.37 0.53, 11.76 2.64 C13.15 4.75, 14.29 8.89, 14.85 12.77 C15.41 16.65, 15.75 22.08, 15.1 25.91 C14.45 29.74, 12.51 33.85, 10.97 35.77 C9.44 37.7, 7.51 38.29, 5.91 37.47 C4.31 36.65, 2.43 33.9, 1.38 30.85 C0.33 27.8, -0.39 23.18, -0.39 19.18 C-0.39 15.18, 0.22 10.08, 1.39 6.87 C2.56 3.66, 5.85 0.96, 6.65 -0.07 C7.44 -1.11, 6.17 0.36, 6.17 0.67 M8.17 -0.04 C9.69 0.1, 11.59 3.17, 12.87 6.27 C14.15 9.36, 15.71 14.58, 15.85 18.51 C16 22.45, 14.78 26.66, 13.72 29.87 C12.66 33.07, 11.18 36.76, 9.49 37.73 C7.81 38.7, 5.07 37.51, 3.6 35.69 C2.13 33.86, 1.32 30.41, 0.67 26.78 C0.02 23.14, -0.87 17.79, -0.3 13.89 C0.26 9.99, 2.63 5.61, 4.05 3.37 C5.46 1.13, 7.36 0.83, 8.19 0.45 C9.01 0.07, 8.92 0.73, 8.98 1.11" stroke="none" stroke-width="0" fill="#ffffff"></path><path d="M7.97 0 C9.45 -0.38, 10.75 1.31, 11.95 3.86 C13.15 6.42, 14.76 11.23, 15.15 15.34 C15.54 19.46, 15.05 25.06, 14.27 28.57 C13.5 32.07, 12.02 34.92, 10.5 36.38 C8.97 37.84, 6.62 38.6, 5.12 37.33 C3.61 36.07, 2.38 32.33, 1.48 28.78 C0.57 25.23, -0.49 20.03, -0.33 16.03 C-0.17 12.04, 1.04 7.55, 2.45 4.8 C3.86 2.05, 7.17 0.3, 8.12 -0.46 C9.08 -1.22, 8.31 -0.09, 8.2 0.25 M7.95 -0.04 C9.62 -0.43, 11.43 0.93, 12.48 3.42 C13.53 5.91, 13.98 10.91, 14.25 14.9 C14.52 18.89, 14.82 23.8, 14.1 27.37 C13.37 30.93, 11.3 34.57, 9.88 36.28 C8.46 38, 6.94 38.76, 5.6 37.63 C4.26 36.51, 2.87 33.04, 1.84 29.53 C0.81 26.02, -0.83 20.7, -0.6 16.56 C-0.37 12.43, 1.88 7.51, 3.2 4.72 C4.52 1.93, 6.61 0.44, 7.31 -0.16 C8.01 -0.76, 7.44 0.77, 7.37 1.13" stroke="#000000" stroke-width="1" fill="none"></path></g><g stroke-linecap="round" transform="translate(450.67022546569575 483.3617410940632) rotate(0 7.577943982476654 19.047264604603413)"><path d="M8.41 0.06 C9.94 0.11, 11.76 2.53, 12.94 5.38 C14.13 8.24, 15.43 13.11, 15.53 17.17 C15.63 21.23, 14.56 26.46, 13.54 29.77 C12.52 33.08, 10.97 35.95, 9.41 37.01 C7.85 38.08, 5.68 37.7, 4.18 36.16 C2.68 34.62, 1.13 31.34, 0.4 27.76 C-0.33 24.19, -0.68 18.77, -0.2 14.71 C0.28 10.66, 1.95 5.84, 3.29 3.42 C4.62 1, 6.92 0.74, 7.78 0.2 C8.64 -0.34, 8.33 -0.1, 8.44 0.18 M9.08 0.76 C10.77 1.53, 13.34 5.04, 14.36 8.17 C15.38 11.29, 15.4 15.51, 15.22 19.52 C15.04 23.53, 14.51 29.22, 13.29 32.23 C12.07 35.24, 9.55 37.1, 7.92 37.6 C6.28 38.1, 4.86 37.33, 3.48 35.21 C2.11 33.09, 0.07 28.8, -0.31 24.89 C-0.68 20.99, 0.54 15.56, 1.23 11.8 C1.93 8.05, 2.44 4.14, 3.87 2.36 C5.31 0.57, 8.9 1.23, 9.83 1.1 C10.76 0.97, 9.59 1.46, 9.44 1.58" stroke="none" stroke-width="0" fill="#868e96"></path><path d="M7.62 -0.41 C9.1 -0.44, 11.66 2.15, 12.92 5.07 C14.19 7.99, 14.99 13.1, 15.19 17.1 C15.4 21.1, 15.04 25.66, 14.14 29.08 C13.23 32.5, 11.3 36.39, 9.77 37.63 C8.24 38.87, 6.54 38.19, 4.97 36.52 C3.4 34.85, 1.19 31.23, 0.36 27.6 C-0.46 23.98, -0.49 18.84, 0.02 14.78 C0.54 10.73, 2.03 5.74, 3.45 3.26 C4.87 0.79, 7.71 0.44, 8.53 -0.07 C9.35 -0.57, 8.42 -0.04, 8.36 0.24 M6.58 -0.39 C7.85 -1.29, 9.37 0.36, 10.7 2.44 C12.03 4.52, 13.99 8.27, 14.56 12.09 C15.14 15.91, 14.63 21.33, 14.15 25.34 C13.66 29.35, 12.88 34, 11.67 36.14 C10.46 38.28, 8.64 38.99, 6.87 38.19 C5.1 37.39, 2.07 34.58, 1.04 31.32 C0.01 28.07, 0.55 22.82, 0.68 18.67 C0.81 14.53, 0.86 9.41, 1.81 6.46 C2.76 3.51, 5.71 1.95, 6.39 0.99 C7.07 0.02, 6.01 0.59, 5.9 0.67" stroke="#000000" stroke-width="1" fill="none"></path></g><g stroke-linecap="round"><g transform="translate(330.99106389179207 484.18264169826944) rotate(0 63.64824113354268 0)"><path d="M0.3 1.17 C21.52 1.01, 106.32 -0.88, 127.3 -1.03 M-1.01 0.74 C20.07 0.7, 104.77 -0.2, 126.36 -0.03" stroke="#000000" stroke-width="1" fill="none"></path></g></g><mask></mask><g stroke-linecap="round"><g transform="translate(330.81430764795294 521.4379127731602) rotate(0 65.10618172039779 0)"><path d="M0.01 -1.03 C21.48 -1.17, 107.51 0.1, 129.14 0.3 M-1.45 1.05 C20.36 1.03, 109.58 -1.76, 131.29 -1.66" stroke="#000000" stroke-width="1" fill="none"></path></g></g><mask></mask><g stroke-linecap="round" transform="translate(329.493051703151 484.8723695076542) rotate(0 4.832099459796325 17.434231542599946)"><path d="M2.42 0 C3.91 0, 5.41 0, 7.25 0 C8.86 0, 9.66 0.81, 9.66 2.42 C9.66 12.5, 9.66 22.58, 9.66 32.45 C9.66 34.06, 8.86 34.87, 7.25 34.87 C5.95 34.87, 4.66 34.87, 2.42 34.87 C0.81 34.87, 0 34.06, 0 32.45 C0 25.26, 0 18.07, 0 2.42 C0 0.81, 0.81 0, 2.42 0" stroke="none" stroke-width="0" fill="#ffffff"></path><path d="M2.42 0 C3.87 0, 5.32 0, 7.25 0 M2.42 0 C4.1 0, 5.79 0, 7.25 0 M7.25 0 C8.86 0, 9.66 0.81, 9.66 2.42 M7.25 0 C8.86 0, 9.66 0.81, 9.66 2.42 M9.66 2.42 C9.66 9.55, 9.66 16.67, 9.66 32.45 M9.66 2.42 C9.66 8.86, 9.66 15.3, 9.66 32.45 M9.66 32.45 C9.66 34.06, 8.86 34.87, 7.25 34.87 M9.66 32.45 C9.66 34.06, 8.86 34.87, 7.25 34.87 M7.25 34.87 C5.81 34.87, 4.38 34.87, 2.42 34.87 M7.25 34.87 C6.23 34.87, 5.22 34.87, 2.42 34.87 M2.42 34.87 C0.81 34.87, 0 34.06, 0 32.45 M2.42 34.87 C0.81 34.87, 0 34.06, 0 32.45 M0 32.45 C0 25.31, 0 18.16, 0 2.42 M0 32.45 C0 22.26, 0 12.06, 0 2.42 M0 2.42 C0 0.81, 0.81 0, 2.42 0 M0 2.42 C0 0.81, 0.81 0, 2.42 0" stroke="transparent" stroke-width="1" fill="none"></path></g><g transform="translate(328.6937138670249 489.7970181813937) rotate(0 54.849952697753906 13)"><text x="0" y="0" font-family="Virgil, Segoe UI Emoji" font-size="20px" fill="#000000" text-anchor="start" style="white-space: pre;" direction="ltr" dominant-baseline="text-before-edge">Msg Broker</text></g><g stroke-linecap="round"><g transform="translate(331.966928348311 379.2144097222225) rotate(0 -0.2814320307654157 49.24262152777766)"><path d="M-0.43 -0.35 C-2.54 7.72, -13.5 31.48, -11.58 47.97 C-9.66 64.45, 7.64 90.08, 11.1 98.54 M1.55 -1.58 C-0.28 6.73, -10.88 32.54, -9.33 49.45 C-7.78 66.37, 7.79 91.47, 10.83 99.89" stroke="#1e1e1e" stroke-width="2" fill="none"></path></g><g transform="translate(331.966928348311 379.2144097222225) rotate(0 -0.2814320307654157 49.24262152777766)"><path d="M-8.57 80.71 C-1.67 86.8, 6.31 97.31, 10.83 99.89 M-8.57 80.71 C-2.96 86.99, 3.96 92.84, 10.83 99.89" stroke="#1e1e1e" stroke-width="2" fill="none"></path></g><g transform="translate(331.966928348311 379.2144097222225) rotate(0 -0.2814320307654157 49.24262152777766)"><path d="M8.29 72.73 C8.6 81.86, 10.01 95.48, 10.83 99.89 M8.29 72.73 C8.71 81.48, 10.48 89.76, 10.83 99.89" stroke="#1e1e1e" stroke-width="2" fill="none"></path></g></g><mask></mask><g stroke-linecap="round" transform="translate(525.8888022666013 635.2632433821739) rotate(0 59.16015625 59.8515625)"><path d="M0 0 C27.02 -0.78, 58.02 0.54, 118.32 0 M0 0 C37.91 -0.46, 76.27 -1.29, 118.32 0 M118.32 0 C118.92 29.74, 118.36 56.42, 118.32 119.7 M118.32 0 C116.97 42.61, 118.09 82.54, 118.32 119.7 M118.32 119.7 C72.31 118.77, 26.28 121.33, 0 119.7 M118.32 119.7 C87.93 120.04, 58.77 120.51, 0 119.7 M0 119.7 C1.19 87.4, -0.66 55.35, 0 0 M0 119.7 C-0.27 74.42, -0.12 28.68, 0 0" stroke="#000000" stroke-width="1" fill="none"></path></g><g stroke-linecap="round" transform="translate(518.5347077296008 626.2732149511592) rotate(0 59.16015625 59.8515625)"><path d="M-0.32 -0.54 L117.28 -1.64 L117 118 L-1.56 118.09" stroke="none" stroke-width="0" fill="#fff"></path><path d="M0 0 C41.89 1.24, 82.89 0.99, 118.32 0 M0 0 C47.18 -0.95, 91.99 -1.09, 118.32 0 M118.32 0 C119.4 38.38, 119.9 73.94, 118.32 119.7 M118.32 0 C117.74 25.41, 118.37 53.34, 118.32 119.7 M118.32 119.7 C83.16 120.52, 43.06 118.26, 0 119.7 M118.32 119.7 C80.92 120.59, 44.07 120.38, 0 119.7 M0 119.7 C-1.16 75.29, 0.6 33.02, 0 0 M0 119.7 C0.32 82.44, 0.24 43.8, 0 0" stroke="#000000" stroke-width="1" fill="none"></path></g><g stroke-linecap="round" transform="translate(507.9813223129341 613.8964788400481) rotate(0 59.16015625 59.8515625)"><path d="M-1.04 -1.64 L117 -1.7 L116.76 118.09 L-1.77 118.42" stroke="none" stroke-width="0" fill="#fff"></path><path d="M0 0 C34.69 0.21, 70.45 -0.26, 118.32 0 M0 0 C42.17 -0.11, 85.84 0.76, 118.32 0 M118.32 0 C119.57 46.88, 116.99 94.14, 118.32 119.7 M118.32 0 C119.71 47.53, 118.87 93.97, 118.32 119.7 M118.32 119.7 C88.28 119.77, 60.5 118.87, 0 119.7 M118.32 119.7 C80.16 120.93, 43.32 121.34, 0 119.7 M0 119.7 C1.71 88.29, 0.36 57.13, 0 0 M0 119.7 C0.06 78.18, 0.7 37.66, 0 0" stroke="#000000" stroke-width="1" fill="none"></path></g><g transform="translate(529.7715139633247 661.2480413400481) rotate(0 37.369964599609375 12.5)"><text x="37.369964599609375" y="0" font-family="Virgil, Segoe UI Emoji" font-size="20px" fill="#1e1e1e" text-anchor="middle" style="white-space: pre;" direction="ltr" dominant-baseline="text-before-edge">Workers</text></g><g stroke-linecap="round" transform="translate(566.387342652547 412.49474351971935) rotate(0 60.248240470554435 44.11983981361402)"><path d="M22.06 0 C49.29 -2.48, 72.63 2.14, 98.44 0 C115.95 2.42, 123.01 7.99, 120.5 22.06 C119.39 36.43, 119.03 54.86, 120.5 66.18 C119.94 78.14, 109.55 89.68, 98.44 88.24 C79.3 88.17, 54.61 87.43, 22.06 88.24 C9.94 90.92, 0.51 81.29, 0 66.18 C1.86 55.08, 0.87 39.2, 0 22.06 C3.24 9.92, 3.83 -0.35, 22.06 0" stroke="none" stroke-width="0" fill="#eeeeee"></path><path d="M22.06 0 C43.3 1.58, 70.07 -1.97, 98.44 0 M22.06 0 C48.85 0.61, 76.78 0.86, 98.44 0 M98.44 0 C113.6 0.06, 119.18 9.21, 120.5 22.06 M98.44 0 C112.17 -0.13, 119.9 6.49, 120.5 22.06 M120.5 22.06 C120.15 39.99, 119.71 57.32, 120.5 66.18 M120.5 22.06 C120.39 31.12, 119.88 40.69, 120.5 66.18 M120.5 66.18 C121.91 81.31, 111.66 86.69, 98.44 88.24 M120.5 66.18 C122.34 79.01, 112.46 89.73, 98.44 88.24 M98.44 88.24 C71.91 85.64, 44.49 89.32, 22.06 88.24 M98.44 88.24 C76.52 88.4, 54.06 88.57, 22.06 88.24 M22.06 88.24 C8.99 88.67, 1.71 82.77, 0 66.18 M22.06 88.24 C7.59 88.91, -2.02 81.3, 0 66.18 M0 66.18 C-1 49.8, -0.39 36.78, 0 22.06 M0 66.18 C0.04 56.78, -0.49 45.34, 0 22.06 M0 22.06 C-0.56 8.05, 6.49 -1.65, 22.06 0 M0 22.06 C0.18 7.94, 8.8 0.56, 22.06 0" stroke="#000000" stroke-width="1" fill="none"></path></g><g stroke-linecap="round" transform="translate(574.1183115624876 419.4259570251811) rotate(0 12.52950133679667 4.9318249942710395)"><path d="M0.82 0.21 L25.91 0.94 L25.16 10.15 L-0.88 10.04" stroke="none" stroke-width="0" fill="#868e96"></path><path d="M0 0 C8.62 -1.04, 16.28 0.44, 25.06 0 M0 0 C7.35 0.33, 14.79 -0.05, 25.06 0 M25.06 0 C25.08 2.18, 24.92 5.03, 25.06 9.86 M25.06 0 C25.17 1.95, 25.22 3.78, 25.06 9.86 M25.06 9.86 C16.33 9.06, 8.12 10.54, 0 9.86 M25.06 9.86 C17.41 9.36, 8.8 10.09, 0 9.86 M0 9.86 C-0.17 6.05, -0.52 3.6, 0 0 M0 9.86 C0.06 7.1, -0.04 4.3, 0 0" stroke="#000000" stroke-width="1" fill="none"></path></g><g stroke-linecap="round" transform="translate(613.9994477323733 419.0164276979201) rotate(0 33.05655671835723 5.33170269650924)"><path d="M2.67 0 C18.92 1.26, 32.94 -0.03, 63.45 0 C67.29 -1.54, 65.2 0.43, 66.11 2.67 C65.99 3.39, 65.4 5.44, 66.11 8 C65.35 7.39, 64.69 11.77, 63.45 10.66 C46.73 12.48, 26.65 10.84, 2.67 10.66 C0.69 12.72, -0.92 11.57, 0 8 C0.59 6.63, -0.71 4.2, 0 2.67 C-1.99 2.56, -1.2 -0.46, 2.67 0" stroke="none" stroke-width="0" fill="#ced4da"></path><path d="M2.67 0 C26.57 0.82, 49.25 -0.27, 63.45 0 M2.67 0 C24.37 -0.23, 45.52 0.22, 63.45 0 M63.45 0 C64.8 -0.06, 65.86 0.52, 66.11 2.67 M63.45 0 C66.18 -1.12, 65.73 0.94, 66.11 2.67 M66.11 2.67 C65.88 4.63, 66.3 6.35, 66.11 8 M66.11 2.67 C66.19 4.11, 65.99 5.4, 66.11 8 M66.11 8 C66.92 8.96, 64.93 11.31, 63.45 10.66 M66.11 8 C66.58 10.67, 64.12 10.35, 63.45 10.66 M63.45 10.66 C50.78 10.48, 38.05 11.1, 2.67 10.66 M63.45 10.66 C43.38 10.94, 22.92 11.3, 2.67 10.66 M2.67 10.66 C0.99 10.95, -0.88 9.96, 0 8 M2.67 10.66 C1.37 9.83, 0.07 9.02, 0 8 M0 8 C-0.17 6.66, -0.07 5.47, 0 2.67 M0 8 C-0.02 6.01, -0.04 3.82, 0 2.67 M0 2.67 C0.08 1.14, 1.52 0.24, 2.67 0 M0 2.67 C0.47 1.66, 0.98 0.37, 2.67 0" stroke="#000000" stroke-width="1" fill="none"></path></g><g stroke-linecap="round"><g transform="translate(600.7383057788729 424.7670661395671) rotate(0 7.055322257685987 -0.06433462870018047)"><path d="M0.3 -0.04 C2.68 -0.06, 11.5 0.12, 13.8 0.18 M-0.21 -0.54 C2.4 -0.75, 12.55 -0.64, 14.88 -0.63" stroke="#000000" stroke-width="1" fill="none"></path></g><g transform="translate(600.7383057788729 424.7670661395671) rotate(0 7.055322257685987 -0.06433462870018047)"><path d="M8.24 1.75 C9.58 1.04, 11.17 0.75, 14.88 -0.63 M8.24 1.75 C10.65 1, 13.22 -0.08, 14.88 -0.63" stroke="#000000" stroke-width="1" fill="none"></path></g><g transform="translate(600.7383057788729 424.7670661395671) rotate(0 7.055322257685987 -0.06433462870018047)"><path d="M8.26 -3.08 C9.61 -2.79, 11.2 -2.08, 14.88 -0.63 M8.26 -3.08 C10.67 -1.99, 13.23 -1.23, 14.88 -0.63" stroke="#000000" stroke-width="1" fill="none"></path></g></g><mask></mask><g stroke-linecap="round" transform="translate(574.5448477782093 432.6485797125242) rotate(0 12.52950133679667 4.9318249942710395)"><path d="M-0.88 0.18 L25.47 -0.73 L25.12 9.2 L-0.66 9.51" stroke="none" stroke-width="0" fill="#868e96"></path><path d="M0 0 C9.43 0.09, 18.55 0.3, 25.06 0 M0 0 C7.39 -0.14, 15.07 -0.3, 25.06 0 M25.06 0 C25.03 4.03, 24.92 7.92, 25.06 9.86 M25.06 0 C25.01 2.02, 24.89 4.16, 25.06 9.86 M25.06 9.86 C14.99 10.57, 5.67 9.47, 0 9.86 M25.06 9.86 C15.43 9.83, 6.31 9.47, 0 9.86 M0 9.86 C-0.13 6.09, 0.19 2.04, 0 0 M0 9.86 C0.17 6.6, -0.02 2.94, 0 0" stroke="#000000" stroke-width="1" fill="none"></path></g><g stroke-linecap="round" transform="translate(614.4259839480922 432.8448409319251) rotate(0 33.05655671835723 5.33170269650924)"><path d="M2.67 0 C21.07 0.01, 39.59 -0.25, 63.45 0 C64.74 -0.4, 64.13 -1.71, 66.11 2.67 C65.95 4.77, 66.13 5.81, 66.11 8 C65.73 11.64, 67.16 11.04, 63.45 10.66 C43.61 13.08, 26.92 12.37, 2.67 10.66 C0.04 13, 1.85 7.23, 0 8 C-0.5 6.33, -0.37 5.03, 0 2.67 C1.89 2.79, 1.46 -2.47, 2.67 0" stroke="none" stroke-width="0" fill="#ced4da"></path><path d="M2.67 0 C18.32 0.22, 32.38 -0.67, 63.45 0 M2.67 0 C26.42 -0.17, 50.86 -0.47, 63.45 0 M63.45 0 C64.89 0.04, 66.63 0.71, 66.11 2.67 M63.45 0 C66.06 -1, 66.51 1.7, 66.11 2.67 M66.11 2.67 C66.06 4.32, 66.16 5.39, 66.11 8 M66.11 2.67 C66.1 3.94, 66.19 5.14, 66.11 8 M66.11 8 C65.15 9.5, 64.29 9.68, 63.45 10.66 M66.11 8 C67.16 9.65, 64.7 10.34, 63.45 10.66 M63.45 10.66 C44.8 11.41, 25.27 11.45, 2.67 10.66 M63.45 10.66 C39.04 10.84, 15.72 10.39, 2.67 10.66 M2.67 10.66 C0.95 10, -0.66 9.42, 0 8 M2.67 10.66 C1.31 9.87, -0.38 9.44, 0 8 M0 8 C-0.13 6.38, 0.07 4.79, 0 2.67 M0 8 C0.08 6.87, 0.05 5.77, 0 2.67 M0 2.67 C0.08 1.21, 0.23 -0.43, 2.67 0 M0 2.67 C0.72 1.79, 1.66 0.8, 2.67 0" stroke="#000000" stroke-width="1" fill="none"></path></g><g stroke-linecap="round"><g transform="translate(600.4401041377575 438.2639705240906) rotate(0 7.05293630962052 0.013372553795306885)"><path d="M0.13 0.02 C2.41 0.03, 11.45 0.54, 13.74 0.54 M-0.47 -0.45 C1.99 -0.61, 12.48 -0.34, 14.79 -0.16" stroke="#000000" stroke-width="1" fill="none"></path></g><g transform="translate(600.4401041377575 438.2639705240906) rotate(0 7.05293630962052 0.013372553795306885)"><path d="M8.06 1.96 C10.1 1.08, 12.45 0.52, 14.79 -0.16 M8.06 1.96 C10.19 1.17, 11.97 0.73, 14.79 -0.16" stroke="#000000" stroke-width="1" fill="none"></path></g><g transform="translate(600.4401041377575 438.2639705240906) rotate(0 7.05293630962052 0.013372553795306885)"><path d="M8.27 -2.86 C10.26 -2.29, 12.55 -1.39, 14.79 -0.16 M8.27 -2.86 C10.33 -2.23, 12.05 -1.26, 14.79 -0.16" stroke="#000000" stroke-width="1" fill="none"></path></g></g><mask></mask><g stroke-linecap="round" transform="translate(575.1313350748219 460.3010316427467) rotate(0 12.52950133679667 4.9318249942710395)"><path d="M-0.66 -0.35 L25.42 -0.69 L24.73 9.57 L-0.1 10.67" stroke="none" stroke-width="0" fill="#868e96"></path><path d="M0 0 C9.02 -0.34, 16.12 -0.17, 25.06 0 M0 0 C6.41 0.14, 13.42 0.03, 25.06 0 M25.06 0 C25.36 3.55, 24.85 6.98, 25.06 9.86 M25.06 0 C24.91 2.61, 25.29 5.41, 25.06 9.86 M25.06 9.86 C19.06 8.95, 11.24 8.98, 0 9.86 M25.06 9.86 C19.78 9.71, 15.04 10.03, 0 9.86 M0 9.86 C0.08 7.56, 0.44 4.46, 0 0 M0 9.86 C0.15 6.44, 0.06 3.21, 0 0" stroke="#000000" stroke-width="1" fill="none"></path></g><g stroke-linecap="round" transform="translate(615.0124712447102 460.1943975888162) rotate(0 33.05655671835723 5.33170269650924)"><path d="M2.67 0 C17.25 -2.47, 36.83 -0.64, 63.45 0 C62.84 -0.53, 67.22 1.04, 66.11 2.67 C66.62 3.99, 66.18 5.07, 66.11 8 C68.17 8.85, 67.02 11.96, 63.45 10.66 C44.54 8.83, 21.67 9.39, 2.67 10.66 C2.56 8.58, -0.46 8.18, 0 8 C0.1 5.64, 0.34 4.42, 0 2.67 C-0.53 2.84, 3.18 -0.59, 2.67 0" stroke="none" stroke-width="0" fill="#ced4da"></path><path d="M2.67 0 C16.83 -0.13, 30.73 0.96, 63.45 0 M2.67 0 C15.23 -0.1, 27.63 -0.45, 63.45 0 M63.45 0 C65.57 0.71, 65.86 0.55, 66.11 2.67 M63.45 0 C64.34 -0.18, 66.93 1.13, 66.11 2.67 M66.11 2.67 C65.88 3.79, 66.27 5.18, 66.11 8 M66.11 2.67 C65.96 4.55, 66.21 6.68, 66.11 8 M66.11 8 C65.66 9.5, 65.38 11.03, 63.45 10.66 M66.11 8 C65.84 10.4, 66.17 10.91, 63.45 10.66 M63.45 10.66 C40.31 9.82, 16.78 11.11, 2.67 10.66 M63.45 10.66 C49.31 10.29, 36.01 10.12, 2.67 10.66 M2.67 10.66 C0.56 10.37, -0.1 10.58, 0 8 M2.67 10.66 C0.15 10.18, -0.32 10.17, 0 8 M0 8 C0.09 6.8, 0.09 5.37, 0 2.67 M0 8 C-0.09 5.98, 0.08 4.18, 0 2.67 M0 2.67 C0.67 1.59, 1.07 0.79, 2.67 0 M0 2.67 C-0.68 0.49, 0.69 -0.75, 2.67 0" stroke="#000000" stroke-width="1" fill="none"></path></g><g stroke-linecap="round"><g transform="translate(601.2709904547087 465.9292499539829) rotate(0 7.055322257685987 -0.033044035962404905)"><path d="M-0.14 -0.21 C2.33 -0.3, 12.22 -0.63, 14.57 -0.6 M0.79 -0.79 C3.24 -0.83, 12.26 -0.4, 14.37 -0.18" stroke="#000000" stroke-width="1" fill="none"></path></g><g transform="translate(601.2709904547087 465.9292499539829) rotate(0 7.055322257685987 -0.033044035962404905)"><path d="M7.59 1.76 C9.21 1.56, 10.74 0.65, 14.37 -0.18 M7.59 1.76 C9.77 1.02, 11.77 0.71, 14.37 -0.18" stroke="#000000" stroke-width="1" fill="none"></path></g><g transform="translate(601.2709904547087 465.9292499539829) rotate(0 7.055322257685987 -0.033044035962404905)"><path d="M7.93 -3.05 C9.46 -2.01, 10.9 -1.68, 14.37 -0.18 M7.93 -3.05 C10.02 -2.33, 11.92 -1.17, 14.37 -0.18" stroke="#000000" stroke-width="1" fill="none"></path></g></g><mask></mask><g stroke-linecap="round"><g transform="translate(587.2563769673134 442.8183396539048) rotate(0 0.016466917947127513 8.430320702785423)"><path d="M0.46 -0.54 C0.46 2.31, -0.13 14, -0.15 16.88" stroke="#000000" stroke-width="1.5" fill="none" stroke-dasharray="1.5 7"></path></g></g><mask></mask><g stroke-linecap="round"><g transform="translate(648.8281572605688 444.3700768514652) rotate(0 0.04122912425185632 7.932500463995666)"><path d="M-0.18 0.02 C-0.2 2.74, 0.25 13.21, 0.37 15.77" stroke="#000000" stroke-width="1.5" fill="none" stroke-dasharray="1.5 7"></path></g></g><mask></mask><g transform="translate(581.6500408893112 420.6683571474596) rotate(0 4.997772009974824 4.089086189979355)"><text x="4.997772009974799" y="0" font-family="Virgil, Segoe UI Emoji" font-size="6.057905466636109px" fill="#000000" text-anchor="middle" style="white-space: pre;" direction="ltr" dominant-baseline="text-before-edge">Key</text></g><g transform="translate(582.2558314359721 460.80169889968374) rotate(0 4.997772009974824 4.089086189979355)"><text x="4.997772009974799" y="0" font-family="Virgil, Segoe UI Emoji" font-size="6.057905466636109px" fill="#000000" text-anchor="middle" style="white-space: pre;" direction="ltr" dominant-baseline="text-before-edge">Key</text></g><g transform="translate(639.3321749807681 420.9616007957675) rotate(0 7.723829469961061 4.089086189979355)"><text x="7.723829469961045" y="0" font-family="Virgil, Segoe UI Emoji" font-size="6.057905466636125px" fill="#000000" text-anchor="middle" style="white-space: pre;" direction="ltr" dominant-baseline="text-before-edge">Value</text></g><g transform="translate(639.0292797074401 461.50720100534613) rotate(0 7.723829469961061 4.089086189979355)"><text x="7.723829469961045" y="0" font-family="Virgil, Segoe UI Emoji" font-size="6.057905466636125px" fill="#000000" text-anchor="middle" style="white-space: pre;" direction="ltr" dominant-baseline="text-before-edge">Value</text></g><g transform="translate(595.2621696611889 471.32007232093815) rotate(0 31.37341346191255 13.988146129515144)"><text x="31.37341346191255" y="0" font-family="Virgil, Segoe UI Emoji" font-size="22.0359584435366px" fill="#000000" text-anchor="middle" style="white-space: pre;" direction="ltr" dominant-baseline="text-before-edge">Cache</text></g><g stroke-linecap="round" transform="translate(1020.8931425443793 258.14518782661844) rotate(0 59.16015625 59.8515625)"><path d="M0 0 C37.24 0.68, 75.03 0.1, 118.32 0 M0 0 C34.5 -0.06, 68.26 0.41, 118.32 0 M118.32 0 C118.88 43.13, 116.57 86.2, 118.32 119.7 M118.32 0 C117.05 37.32, 117.1 77.16, 118.32 119.7 M118.32 119.7 C79.27 119.21, 40.5 120.76, 0 119.7 M118.32 119.7 C94.7 120.03, 69.03 118.84, 0 119.7 M0 119.7 C1.77 78.58, -1.64 35.5, 0 0 M0 119.7 C0.62 84.5, -0.89 48.98, 0 0" stroke="#000000" stroke-width="1" fill="none"></path></g><g stroke-linecap="round" transform="translate(1013.5390480073788 249.15515939560373) rotate(0 59.16015625 59.8515625)"><path d="M1.22 1.53 L117.58 -1.58 L118.11 120.14 L-1.52 121.48" stroke="none" stroke-width="0" fill="#fff"></path><path d="M0 0 C33.81 -0.4, 66.5 0.42, 118.32 0 M0 0 C32.21 0.54, 66.17 0.46, 118.32 0 M118.32 0 C116.79 38.47, 118.98 77.84, 118.32 119.7 M118.32 0 C117.07 36.17, 117.87 70.22, 118.32 119.7 M118.32 119.7 C88.59 121.49, 58.25 121.12, 0 119.7 M118.32 119.7 C87.22 120.26, 57.32 120.72, 0 119.7 M0 119.7 C-2.66 77.98, -1.18 34.19, 0 0 M0 119.7 C-1.7 87.26, -0.76 54.98, 0 0" stroke="#000000" stroke-width="1" fill="none"></path></g><g stroke-linecap="round" transform="translate(1004.3007667573788 239.45203439560373) rotate(0 59.16015625 59.8515625)"><path d="M-0.74 -1.58 L118.11 0.43 L116.8 121.48 L-1.55 121.49" stroke="none" stroke-width="0" fill="#fff"></path><path d="M0 0 C38.07 0.76, 76.05 0.26, 118.32 0 M0 0 C32.17 -0.1, 63.35 0.08, 118.32 0 M118.32 0 C117.59 31.91, 117.11 64.9, 118.32 119.7 M118.32 0 C117.94 26.5, 117.14 53.08, 118.32 119.7 M118.32 119.7 C80.12 122.04, 44.85 122.45, 0 119.7 M118.32 119.7 C73.98 119.32, 29.09 120.17, 0 119.7 M0 119.7 C0.86 74.59, 0.4 30.26, 0 0 M0 119.7 C1.04 80.84, 1.28 41.28, 0 0" stroke="#000000" stroke-width="1" fill="none"></path></g><g transform="translate(1010.4909751924374 274.30359689560373) rotate(0 52.969947814941406 25)"><text x="52.969947814941406" y="0" font-family="Virgil, Segoe UI Emoji" font-size="20px" fill="#1e1e1e" text-anchor="middle" style="white-space: pre;" direction="ltr" dominant-baseline="text-before-edge">Redirection</text><text x="52.969947814941406" y="25" font-family="Virgil, Segoe UI Emoji" font-size="20px" fill="#1e1e1e" text-anchor="middle" style="white-space: pre;" direction="ltr" dominant-baseline="text-before-edge">Service</text></g><g stroke-linecap="round"><g transform="translate(422.16075673421227 469.48350694444434) rotate(0 -14.919704861111143 -60.18918624747107)"><path d="M1.02 0.29 C1.8 -10.91, 10.99 -47.83, 4.83 -67.79 C-1.34 -87.74, -29.18 -110.74, -35.98 -119.45 M0.1 -0.61 C1.26 -12.14, 12.83 -49.66, 7.24 -69.78 C1.64 -89.89, -26.25 -113.14, -33.47 -121.3" stroke="#1e1e1e" stroke-width="2" fill="none"></path></g><g transform="translate(422.16075673421227 469.48350694444434) rotate(0 -14.919704861111143 -60.18918624747107)"><path d="M-6.28 -108.61 C-14.28 -113.33, -22.88 -117.57, -33.47 -121.3 M-6.28 -108.61 C-16.58 -112.89, -26.72 -117.45, -33.47 -121.3" stroke="#1e1e1e" stroke-width="2" fill="none"></path></g><g transform="translate(422.16075673421227 469.48350694444434) rotate(0 -14.919704861111143 -60.18918624747107)"><path d="M-20.8 -94.1 C-24.17 -103.51, -28.21 -112.3, -33.47 -121.3 M-20.8 -94.1 C-25.53 -103.91, -30.19 -113.95, -33.47 -121.3" stroke="#1e1e1e" stroke-width="2" fill="none"></path></g></g><mask></mask><g stroke-linecap="round"><g transform="translate(769.5144498336256 447.8762721845226) rotate(0 38.45741983035799 41.7666869771067)" fill-rule="evenodd"><path d="M0.18 -0.17 C0.18 12.4, 0.22 59.3, 0.1 73.67 C-0.02 88.04, -1.03 83.64, -0.57 86.04 C-0.11 88.44, 0 87.68, 2.86 88.05 C5.73 88.43, 10.01 87.36, 16.6 88.29 C23.19 89.21, 34.44 93.18, 42.42 93.61 C50.4 94.03, 58.82 92.35, 64.48 90.85 C70.14 89.34, 74.48 85.86, 76.36 84.59 C78.23 83.32, 75.32 85.01, 75.73 83.21 C76.13 81.41, 78.8 86.38, 78.79 73.8 C78.77 61.22, 75.9 19.87, 75.64 7.71 C75.39 -4.45, 77.61 2.97, 77.27 0.84 C76.92 -1.3, 76.16 -3.69, 73.59 -5.11 C71.03 -6.53, 67.92 -7.14, 61.87 -7.7 C55.82 -8.27, 44.79 -8.87, 37.3 -8.48 C29.82 -8.09, 23 -5.94, 16.95 -5.36 C10.91 -4.78, 3.74 -6.04, 1.03 -5.03 C-1.68 -4.01, 0.82 0.22, 0.67 0.73 C0.53 1.24, 0.6 -1.75, 0.17 -1.97" stroke="none" stroke-width="0" fill="#ced4da" fill-rule="evenodd"></path><path d="M-0.72 0.37 C-0.32 12.76, 1.38 60.43, 1.37 74.46 C1.35 88.49, -1.27 82.46, -0.8 84.54 C-0.32 86.61, 1.22 85.99, 4.23 86.9 C7.24 87.8, 11.08 89.28, 17.24 89.96 C23.4 90.64, 33.58 90.99, 41.2 90.96 C48.82 90.93, 57.37 90.67, 62.96 89.78 C68.55 88.9, 72.59 86.76, 74.74 85.64 C76.88 84.52, 75.51 84.48, 75.82 83.07 C76.14 81.67, 76.64 90.13, 76.65 77.21 C76.66 64.3, 75.76 18.45, 75.87 5.56 C75.98 -7.34, 77.9 1.31, 77.32 -0.15 C76.73 -1.61, 75.2 -2.03, 72.35 -3.22 C69.5 -4.41, 65.9 -6.42, 60.19 -7.27 C54.48 -8.13, 45.16 -8.54, 38.09 -8.35 C31.01 -8.17, 23.61 -6.91, 17.73 -6.17 C11.84 -5.43, 5.83 -5.11, 2.78 -3.93 C-0.27 -2.74, -0.1 0.25, -0.58 0.94 C-1.06 1.62, -0.01 0.53, -0.08 0.19 M1.1 -0.49 C1.54 12.04, 0.91 61.8, 1 75.65 C1.1 89.51, 1.07 80.64, 1.68 82.66 C2.28 84.67, 1.7 86.53, 4.62 87.76 C7.53 89, 12.82 89.76, 19.17 90.08 C25.52 90.4, 35.33 89.95, 42.71 89.66 C50.09 89.38, 58.32 89.15, 63.46 88.38 C68.6 87.6, 71.23 86.13, 73.54 85.02 C75.86 83.9, 76.72 82.98, 77.34 81.7 C77.96 80.42, 77.52 89.9, 77.25 77.31 C76.98 64.72, 75.86 19.12, 75.72 6.15 C75.58 -6.82, 76.85 1.13, 76.41 -0.5 C75.96 -2.13, 75.35 -2.99, 73.07 -3.64 C70.79 -4.29, 68.43 -3.49, 62.72 -4.41 C57.02 -5.33, 46.21 -8.5, 38.84 -9.14 C31.46 -9.77, 24.13 -9.15, 18.48 -8.22 C12.83 -7.29, 7.75 -4.62, 4.92 -3.55 C2.09 -2.49, 2.58 -2.52, 1.51 -1.84 C0.44 -1.16, -1.08 0.2, -1.5 0.55" stroke="#000000" stroke-width="1" fill="none"></path></g></g><mask></mask><g stroke-linecap="round" transform="translate(769.0207820916855 439.1053455608885) rotate(0 38.252112724462336 7.736202016062123)"><path d="M45.65 0.32 C53.51 0.63, 62.99 2, 68.09 3.28 C73.2 4.56, 76.47 6.43, 76.27 8.01 C76.08 9.59, 72.25 11.61, 66.92 12.79 C61.59 13.97, 52.29 14.92, 44.31 15.11 C36.32 15.29, 26.11 14.7, 19.02 13.92 C11.93 13.15, 4.51 11.92, 1.78 10.44 C-0.95 8.96, -0.26 6.67, 2.63 5.03 C5.53 3.4, 11.82 1.34, 19.14 0.6 C26.46 -0.14, 41.79 0.58, 46.56 0.59 C51.33 0.59, 47.93 0.5, 47.76 0.63 M29.26 -0.3 C36.69 -0.98, 47.86 -0.78, 55.28 0.13 C62.71 1.04, 70.63 3.52, 73.81 5.16 C76.98 6.8, 76.72 8.42, 74.35 9.95 C71.98 11.47, 66.32 13.29, 59.56 14.3 C52.81 15.32, 41.99 16.23, 33.82 16.03 C25.66 15.84, 16.29 14.43, 10.59 13.12 C4.89 11.81, 0.03 9.84, -0.39 8.18 C-0.8 6.52, 3.08 4.61, 8.1 3.17 C13.12 1.73, 26.12 -0.08, 29.73 -0.46 C33.34 -0.84, 29.7 0.54, 29.77 0.89" stroke="none" stroke-width="0" fill="#fff"></path><path d="M31.66 -0.1 C39.16 -0.46, 50.3 0.29, 57.37 1.14 C64.44 1.99, 71.29 3.49, 74.07 5.02 C76.86 6.55, 76.92 8.78, 74.06 10.3 C71.21 11.81, 64.06 13.27, 56.94 14.09 C49.83 14.91, 39.33 15.52, 31.38 15.22 C23.43 14.92, 14.51 13.48, 9.23 12.3 C3.95 11.11, -0.3 9.62, -0.31 8.09 C-0.32 6.56, 3.55 4.51, 9.17 3.12 C14.79 1.72, 29.29 0.16, 33.42 -0.27 C37.55 -0.7, 33.95 0.38, 33.95 0.53 M43.32 0.69 C51.14 0.91, 61.26 1.67, 66.69 2.69 C72.11 3.71, 75.58 5.26, 75.86 6.81 C76.14 8.36, 73.31 10.58, 68.37 11.98 C63.42 13.39, 54.21 14.9, 46.18 15.25 C38.15 15.61, 27.44 14.77, 20.18 14.12 C12.91 13.47, 5.68 12.78, 2.58 11.35 C-0.52 9.92, -0.96 7.35, 1.56 5.54 C4.08 3.74, 10.62 1.3, 17.7 0.49 C24.79 -0.31, 39.72 0.73, 44.09 0.74 C48.46 0.74, 44.02 0.58, 43.93 0.52" stroke="#000000" stroke-width="1" fill="none"></path></g><g transform="translate(788.0233604533244 473.7923017357398) rotate(0 8.5 18)"><text x="0" y="0" font-family="Cascadia, Segoe UI Emoji" font-size="29.219434366479078px" fill="#495057" text-anchor="start" style="white-space: pre;" direction="ltr" dominant-baseline="text-before-edge">{</text></g><g transform="translate(810.0342337990699 474.2690117076588) rotate(0 8.472599895867177 17.97218159729391)"><text x="0" y="0" font-family="Cascadia, Segoe UI Emoji" font-size="29.384515916572173px" fill="#495057" text-anchor="start" style="white-space: pre;" direction="ltr" dominant-baseline="text-before-edge">}</text></g><g transform="translate(748.0468035459769 539.8943572234657) rotate(0 59.6912101326796 12.93309552874723)"><text x="59.69121013267966" y="0" font-family="Virgil, Segoe UI Emoji" font-size="18.16360832146819px" fill="#000000" text-anchor="middle" style="white-space: pre;" direction="ltr" dominant-baseline="text-before-edge">Document DB</text></g><g mask="url(#mask-JYUV8R9Htv5Jua5X7Kypx)" stroke-linecap="round"><g transform="translate(652.651208123101 656.6639665760345) rotate(0 68.71093750000006 -43.44700064912831)"><path d="M0.16 -0.23 C16.53 -1.48, 75.47 7.54, 98.17 -6.88 C120.86 -21.3, 129.83 -73.58, 136.32 -86.77 M-1.22 -1.4 C15.01 -3.01, 73.97 5.56, 97.28 -8.44 C120.59 -22.44, 131.98 -72.11, 138.64 -85.39" stroke="#1e1e1e" stroke-width="2" fill="none"></path></g><g transform="translate(652.651208123101 656.6639665760345) rotate(0 68.71093750000006 -43.44700064912831)"><path d="M138.31 -55.39 C137.87 -63.99, 140.14 -74.79, 138.64 -85.39 M138.31 -55.39 C138.96 -64.1, 138.34 -74.19, 138.64 -85.39" stroke="#1e1e1e" stroke-width="2" fill="none"></path></g><g transform="translate(652.651208123101 656.6639665760345) rotate(0 68.71093750000006 -43.44700064912831)"><path d="M119.11 -62.62 C124.32 -69.13, 132.21 -77.81, 138.64 -85.39 M119.11 -62.62 C125.7 -69.22, 131.03 -77.08, 138.64 -85.39" stroke="#1e1e1e" stroke-width="2" fill="none"></path></g></g><mask id="mask-JYUV8R9Htv5Jua5X7Kypx"><rect x="0" y="0" fill="#fff" width="890.0730831231011" height="843.5579678742911"></rect><rect x="732.7711167738172" y="636.2109375" fill="#000" width="35.879974365234375" height="25" opacity="1"></rect></mask><g transform="translate(732.7711167738173 636.2109375) rotate(0 -11.411320544335354 -22.221492071323496)"><text x="17.939987182617188" y="0" font-family="Virgil, Segoe UI Emoji" font-size="20px" fill="#1e1e1e" text-anchor="middle" style="white-space: pre;" direction="ltr" dominant-baseline="text-before-edge">Add</text></g><g mask="url(#mask-tSf8W25BC4Bdwgh30V0x8)" stroke-linecap="round"><g transform="translate(1036.6876664564343 388.99739583333326) rotate(0 -88.99673698829702 60.0444891171727)"><path d="M-1.15 0.22 C-11.67 14.57, -34.59 66.7, -64.09 86.62 C-93.59 106.55, -159.32 114.02, -178.14 119.76 M0.45 -0.71 C-10.09 13.3, -34.82 64.84, -64.73 85.11 C-94.63 105.38, -160.4 115.25, -178.98 120.9" stroke="#1e1e1e" stroke-width="2" fill="none"></path></g><g transform="translate(1036.6876664564343 388.99739583333326) rotate(0 -88.99673698829702 60.0444891171727)"><path d="M-153.88 104.47 C-158.95 108.82, -162.9 111.19, -178.98 120.9 M-153.88 104.47 C-160.6 109.38, -166.94 113.85, -178.98 120.9" stroke="#1e1e1e" stroke-width="2" fill="none"></path></g><g transform="translate(1036.6876664564343 388.99739583333326) rotate(0 -88.99673698829702 60.0444891171727)"><path d="M-149.19 124.44 C-155.37 124.37, -160.36 122.36, -178.98 120.9 M-149.19 124.44 C-157.35 123.95, -164.97 122.99, -178.98 120.9" stroke="#1e1e1e" stroke-width="2" fill="none"></path></g></g><mask id="mask-tSf8W25BC4Bdwgh30V0x8"><rect x="0" y="0" fill="#fff" width="1314.6811404330283" height="609.0863740676787"></rect><rect x="945.2601914808483" y="461.96614583333326" fill="#000" width="53.479949951171875" height="25" opacity="1"></rect></mask><g transform="translate(945.2601914808481 461.96614583333326) rotate(0 2.1611921134103795 -12.873138873045207)"><text x="26.739974975585938" y="0" font-family="Virgil, Segoe UI Emoji" font-size="20px" fill="#1e1e1e" text-anchor="middle" style="white-space: pre;" direction="ltr" dominant-baseline="text-before-edge">Check</text></g><g stroke-linecap="round" transform="translate(490.1075522666013 228.92209754884084) rotate(0 59.16015625 59.8515625)"><path d="M0 0 C35.69 -0.99, 70.2 -0.63, 118.32 0 M0 0 C27.92 1.97, 56.07 1.39, 118.32 0 M118.32 0 C118.38 38.67, 118.81 79.2, 118.32 119.7 M118.32 0 C118.76 25.41, 118.77 49.46, 118.32 119.7 M118.32 119.7 C88.88 120, 61.63 121.23, 0 119.7 M118.32 119.7 C75.72 120.87, 32.3 119.2, 0 119.7 M0 119.7 C1.7 87.24, 1.07 58.75, 0 0 M0 119.7 C0.56 84.81, 0.81 49.39, 0 0" stroke="#000000" stroke-width="1" fill="none"></path></g><g stroke-linecap="round" transform="translate(482.7534577296008 219.93206911782613) rotate(0 59.16015625 59.8515625)"><path d="M1.69 0.35 L116.34 1.45 L118.9 118.81 L-0.57 119.32" stroke="none" stroke-width="0" fill="#fff"></path><path d="M0 0 C28.14 -0.28, 58.14 2.24, 118.32 0 M0 0 C25.76 -0.74, 50.01 -1.28, 118.32 0 M118.32 0 C119.25 39.93, 116.64 83.46, 118.32 119.7 M118.32 0 C117.84 38.38, 117.51 76.59, 118.32 119.7 M118.32 119.7 C82.55 121.13, 45.23 117.89, 0 119.7 M118.32 119.7 C78.89 119.79, 39.61 120.52, 0 119.7 M0 119.7 C-0.01 94.95, -0.96 67.94, 0 0 M0 119.7 C0.36 79.18, 0.31 36.96, 0 0" stroke="#000000" stroke-width="1" fill="none"></path></g><g stroke-linecap="round" transform="translate(473.5151764796008 210.22894411782613) rotate(0 59.16015625 59.8515625)"><path d="M-1.98 1.45 L118.9 -0.9 L117.75 119.32 L-0.88 119.13" stroke="none" stroke-width="0" fill="#fff"></path><path d="M0 0 C24.92 2.03, 50.71 1.41, 118.32 0 M0 0 C46.49 -0.59, 92.71 -0.23, 118.32 0 M118.32 0 C116.89 27.75, 119.17 52.82, 118.32 119.7 M118.32 0 C117.52 44.17, 118.2 88.35, 118.32 119.7 M118.32 119.7 C83.32 118.62, 46.45 121.02, 0 119.7 M118.32 119.7 C72.81 118.53, 27.28 119.44, 0 119.7 M0 119.7 C-0.59 93.23, 0.39 69.38, 0 0 M0 119.7 C0.01 75.12, 1.23 30.3, 0 0" stroke="#000000" stroke-width="1" fill="none"></path></g><g transform="translate(488.25537270762817 245.08050661782613) rotate(0 44.419960021972656 25)"><text x="44.419960021972656" y="0" font-family="Virgil, Segoe UI Emoji" font-size="20px" fill="#1e1e1e" text-anchor="middle" style="white-space: pre;" direction="ltr" dominant-baseline="text-before-edge">Deletion </text><text x="44.419960021972656" y="25" font-family="Virgil, Segoe UI Emoji" font-size="20px" fill="#1e1e1e" text-anchor="middle" style="white-space: pre;" direction="ltr" dominant-baseline="text-before-edge">Service</text></g><g mask="url(#mask-ABl-kB9T6dTcwkoGrzEqM)" stroke-linecap="round"><g transform="translate(700.2380136786567 150.46440972222217) rotate(0 -30.41449652777783 48.60243055555554)"><path d="M-0.28 -0.77 C2.16 7.1, 26.83 29.94, 14.4 46.41 C1.97 62.88, -59.89 89.48, -74.87 98.06 M1.77 1.45 C4.15 9.49, 26.85 31.63, 13.9 47.41 C0.96 63.2, -60.94 88.11, -75.9 96.16" stroke="#1e1e1e" stroke-width="2" fill="none"></path></g><g transform="translate(700.2380136786567 150.46440972222217) rotate(0 -30.41449652777783 48.60243055555554)"><path d="M-54.77 74.86 C-62.05 82.15, -68.32 85.8, -75.9 96.16 M-54.77 74.86 C-62.87 82.38, -71.12 90.83, -75.9 96.16" stroke="#1e1e1e" stroke-width="2" fill="none"></path></g><g transform="translate(700.2380136786567 150.46440972222217) rotate(0 -30.41449652777783 48.60243055555554)"><path d="M-46.03 93.43 C-55.61 95.55, -64.31 94.04, -75.9 96.16 M-46.03 93.43 C-57.19 94.11, -68.68 95.67, -75.9 96.16" stroke="#1e1e1e" stroke-width="2" fill="none"></path></g></g><mask id="mask-ABl-kB9T6dTcwkoGrzEqM"><rect x="0" y="0" fill="#fff" width="888.1503400675456" height="347.66927083333326"></rect><rect x="656.379716966417" y="185.38628472222217" fill="#000" width="114.7999267578125" height="25" opacity="1"></rect></mask><g transform="translate(656.379716966417 185.38628472222217) rotate(0 14.848283745530296 13.72328644875023)"><text x="57.39996337890625" y="0" font-family="Virgil, Segoe UI Emoji" font-size="20px" fill="#1e1e1e" text-anchor="middle" style="white-space: pre;" direction="ltr" dominant-baseline="text-before-edge">Delete URL</text></g><g mask="url(#mask-OdNBQFGeZGsXWHyPBe2Ex)" stroke-linecap="round"><g transform="translate(506.96170611422025 357.56104694450005) rotate(0 14.42658163446913 52.06330075852429)"><path d="M-1.12 -0.75 C-3.36 8.26, -20.78 36.91, -13.46 54.46 C-6.13 72, 33.26 96.18, 42.81 104.53 M0.49 1.47 C-1.8 10.62, -20.67 39.05, -13.8 55.88 C-6.93 72.7, 32.02 94.07, 41.7 102.4" stroke="#1e1e1e" stroke-width="2" fill="none"></path></g><g transform="translate(506.96170611422025 357.56104694450005) rotate(0 14.42658163446913 52.06330075852429)"><path d="M12.75 94.54 C20.12 99.06, 29.6 98.4, 41.7 102.4 M12.75 94.54 C23.3 97.44, 31.73 100.11, 41.7 102.4" stroke="#1e1e1e" stroke-width="2" fill="none"></path></g><g transform="translate(506.96170611422025 357.56104694450005) rotate(0 14.42658163446913 52.06330075852429)"><path d="M24.57 77.77 C28.49 87.16, 34.46 91.47, 41.7 102.4 M24.57 77.77 C31.24 86.3, 35.72 94.57, 41.7 102.4" stroke="#1e1e1e" stroke-width="2" fill="none"></path></g></g><mask id="mask-OdNBQFGeZGsXWHyPBe2Ex"><rect x="0" y="0" fill="#fff" width="665.0265716249348" height="561.6876484615486"></rect><rect x="465.6158800177461" y="399.7394761645719" fill="#000" width="53.479949951171875" height="25" opacity="1"></rect></mask><g transform="translate(465.61588001774624 399.7394761645719) rotate(0 55.102800127848354 9.710024685136602)"><text x="26.739974975585938" y="0" font-family="Virgil, Segoe UI Emoji" font-size="20px" fill="#1e1e1e" text-anchor="middle" style="white-space: pre;" direction="ltr" dominant-baseline="text-before-edge">Check</text></g><g mask="url(#mask-U9Mq65cVMBjBawH98AwnO)" stroke-linecap="round"><g transform="translate(618.8621456231012 304.8394097222222) rotate(0 77.46961805555554 66.35850694444446)"><path d="M-0.93 0.1 C18.78 4.47, 92.06 5.17, 118.17 27.07 C144.27 48.98, 149.46 113.91, 155.72 131.54 M0.78 -0.89 C20.4 3.6, 91.82 6.36, 117.58 28.55 C143.34 50.74, 148.9 114.65, 155.36 132.24" stroke="#1e1e1e" stroke-width="2" fill="none"></path></g><g transform="translate(618.8621456231012 304.8394097222222) rotate(0 77.46961805555554 66.35850694444446)"><path d="M138.89 107.17 C144.05 115.78, 148.51 123.27, 155.36 132.24 M138.89 107.17 C142.9 111.62, 145.33 117.31, 155.36 132.24" stroke="#1e1e1e" stroke-width="2" fill="none"></path></g><g transform="translate(618.8621456231012 304.8394097222222) rotate(0 77.46961805555554 66.35850694444446)"><path d="M158.86 102.45 C158.21 112.29, 156.82 121.16, 155.36 132.24 M158.86 102.45 C158.86 107.87, 157.26 114.52, 155.36 132.24" stroke="#1e1e1e" stroke-width="2" fill="none"></path></g></g><mask id="mask-U9Mq65cVMBjBawH98AwnO"><rect x="0" y="0" fill="#fff" width="873.8013817342123" height="537.5564236111111"></rect><rect x="703.8504768880209" y="319.53125" fill="#000" width="64.97993469238281" height="25" opacity="1"></rect></mask><g transform="translate(703.8504768880209 319.53125) rotate(0 -7.594024215969796 50.98276832362319)"><text x="32.489967346191406" y="0" font-family="Virgil, Segoe UI Emoji" font-size="20px" fill="#1e1e1e" text-anchor="middle" style="white-space: pre;" direction="ltr" dominant-baseline="text-before-edge">Delete</text></g></svg>