<svg xmlns="http://www.w3.org/2000/svg" xmlns:xlink="http://www.w3.org/1999/xlink" xmlns:lucid="lucid" width="1421" height="712.17"><g transform="translate(-239.5 -259.5)" lucid:page-tab-id="0_0"><path d="M0 0h2000v1000H0z" fill="#fff"/><path d="M336.8 408.2c9.84 6.12 15.96 17.28 15.96 29.04 0 1.56-1.2 2.76-2.76 2.76h-60c-1.56 0-2.76-1.2-2.76-2.76 0-14.64 9-27 21.6-31.8-5.4-3.6-8.88-9.6-8.88-16.44 0-11.04 9-19.92 20.04-19.92 11.16 0 20.16 8.88 20.16 19.92 0 6.84-3.48 12.84-8.88 16.44 1.92.72 3.72 1.68 5.52 2.76zm27.24-49.08c9.84 6.12 15.96 17.16 15.96 29.04 0 1.56-1.2 2.76-2.76 2.76h-30v-5.52h27.12c-.72-8.88-5.64-17.04-13.2-21.72-4.2-2.52-9-3.96-13.92-3.96-6.24 0-12.36 2.28-17.28 6.48l-3.6-4.08c3-2.52 6.24-4.44 9.72-5.76-5.4-3.6-8.88-9.6-8.88-16.44 0-11.04 9-19.92 20.16-19.92 11.04 0 20.04 8.88 20.04 19.92 0 6.84-3.48 12.84-8.88 16.44 1.92.72 3.84 1.68 5.52 2.76zm-71.28 26.28v5.52h-30c-1.56 0-2.76-1.2-2.76-2.76 0-14.64 9-27 21.6-31.8-5.4-3.6-9-9.6-9-16.44 0-11.04 9.12-19.92 20.16-19.92 11.16 0 20.16 8.88 20.16 19.92 0 6.84-3.6 12.84-8.88 16.44 1.92.72 3.72 1.68 5.52 2.76 1.44.84 2.76 1.8 4.08 3l-3.6 4.08c-1.08-.96-2.16-1.68-3.36-2.52-4.2-2.52-9-3.96-13.92-3.96-14.16 0-25.8 11.28-27.12 25.68zm.12 49.2h54.24c-.84-9-5.76-17.16-13.2-21.84-4.2-2.52-9-3.96-13.92-3.96-14.16 0-25.8 11.28-27.12 25.8zm-14.76-94.68c0 7.92 6.6 14.4 14.64 14.4 8.16 0 14.64-6.48 14.64-14.4 0-8.04-6.48-14.52-14.64-14.52-8.04 0-14.64 6.48-14.64 14.52zm54.48 0c0 7.92 6.6 14.4 14.76 14.4 8.04 0 14.64-6.48 14.64-14.4 0-8.04-6.6-14.52-14.64-14.52-8.16 0-14.76 6.48-14.76 14.52zM305.36 389c0 7.92 6.6 14.4 14.64 14.4 8.16 0 14.76-6.48 14.76-14.4 0-8.04-6.6-14.4-14.76-14.4-8.04 0-14.64 6.36-14.64 14.4z" stroke="#000" stroke-opacity="0" fill="#242f3e"/><path d="M287.64 433.13l.35-2.65.1-.92 4.64-38.75-31.1-2.53 7.3-21.56 17.2-10.95-11.03-14.3 5.1-14.18 11.6-5.07 15.33 7.03 3.6 12.57-9.86 15 12.76 5.18 12.88.12 12.66-6-9.05-12.8 4.07-15.92 15.2-4.6 13.46 8.76 1.86 13.6-9.4 10.96 17.05 13.38 5.33 18.8-30.28 2.53 4.87 40.72-1.62 6h-62.2z" stroke="#000" stroke-opacity="0" fill-opacity="0"/><use xlink:href="#a" transform="matrix(1,0,0,1,230,449) translate(61.04938271604939 17.77777777777778)"/><path d="M580 320c33.12 0 60 26.88 60 60 0 33.12-26.88 60-60 60-33.12 0-60-26.88-60-60 0-33.12 26.88-60 60-60zm0 114.6c30.12 0 54.6-24.48 54.6-54.6s-24.48-54.6-54.6-54.6-54.6 24.48-54.6 54.6 24.48 54.6 54.6 54.6zm35.52-38.28c1.56 0 2.76 1.32 2.76 2.76v12c0 1.44-1.2 2.64-2.76 2.64h-11.88c-1.44 0-2.64-1.2-2.64-2.64v-12c0-1.44 1.2-2.76 2.64-2.76h2.28v-6.48h-11.28v6.48h2.04c1.56 0 2.76 1.32 2.76 2.76v12c0 1.44-1.2 2.64-2.76 2.64H584.8c-1.56 0-2.76-1.2-2.76-2.64v-12c0-1.44 1.2-2.76 2.76-2.76h4.44v-9.12c0-1.56 1.2-2.76 2.64-2.76h4.44v-6.48h-32.64v6.48h4.44c1.44 0 2.64 1.2 2.64 2.76v9.12h4.44c1.56 0 2.76 1.32 2.76 2.76v12c0 1.44-1.2 2.64-2.76 2.64h-11.88c-1.56 0-2.76-1.2-2.76-2.64v-12c0-1.44 1.2-2.76 2.76-2.76h2.04v-6.48h-11.28v6.48h2.04c1.56 0 2.76 1.32 2.76 2.76v12c0 1.44-1.2 2.64-2.76 2.64h-11.64c-1.56 0-2.76-1.2-2.76-2.64v-12c0-1.44 1.2-2.76 2.76-2.76h4.2v-9.12c0-1.56 1.2-2.76 2.64-2.76h6.84v-9.24c0-1.44 1.2-2.64 2.76-2.64h16.32v-6.48h-16.32c-1.56 0-2.76-1.32-2.76-2.76v-21.48c0-1.56 1.2-2.76 2.76-2.76h38.16c1.56 0 2.76 1.2 2.76 2.76v21.48c0 1.44-1.2 2.76-2.76 2.76h-16.32v6.48h16.32c1.56 0 2.76 1.2 2.76 2.64v9.24h6.84c1.44 0 2.64 1.2 2.64 2.76v9.12zm-51.84-35.76h32.64V344.6h-32.64zm2.4 47.76h6.48v-6.48h-6.48zm21.48 0h6.36v-6.48h-6.36zm18.84 0h6.48v-6.48h-6.48zm-59.28 0h6.24v-6.48h-6.24z" stroke="#000" stroke-opacity="0" fill="#4d27aa"/><use xlink:href="#b" transform="matrix(1,0,0,1,490,449) translate(13.518518518518505 17.77777777777778)"/><use xlink:href="#c" transform="matrix(1,0,0,1,490,449) translate(69.07407407407406 17.77777777777778)"/><use xlink:href="#d" transform="matrix(1,0,0,1,490,449) translate(7.993827160493822 44.44444444444444)"/><use xlink:href="#e" transform="matrix(1,0,0,1,490,449) translate(122.62345679012346 44.44444444444444)"/><use xlink:href="#f" transform="matrix(1,0,0,1,490,449) translate(46.23456790123456 71.11111111111111)"/><path d="M780 320h120v120H780V320z" stroke="#000" stroke-opacity="0" fill="url(#g)"/><path d="M824.97 357.43h3.8v3.8h-3.8v18.63c0-.42.25-.9.58-1.24l5.62-5.6 2.64 2.63-4.28 4.3 4.3 4.28-2.65 2.63-5.62-5.6c-.33-.33-.58-.82-.58-1.32v18.7h3.8v3.8h-3.8v16.82c0 .66-.33 1.24-.9 1.65-.25.18-.58.26-1 .26-.24 0-.5-.08-.82-.17l-22.46-11.3c-.67-.33-1.08-.9-1.08-1.65v-54.33c0-.66.33-1.32.9-1.65l22.55-13.1c.58-.33 1.32-.33 1.9 0 .57.33.9 1 .9 1.65zm56.3-3.7v54.32c0 .74-.4 1.32-1.06 1.65L857.76 421c-.33.08-.58.16-.83.16-.4 0-.74-.08-1-.25-.56-.4-.9-.98-.9-1.64v-16.8h-3.8v-3.8h3.8v-18.72c0 .5-.24 1-.57 1.32l-5.62 5.6-2.64-2.63 4.28-4.3-4.3-4.28 2.65-2.63 5.62 5.6c.33.33.58.82.58 1.24v-18.63h-3.8v-3.8h3.8v-16.8c0-.67.33-1.33.9-1.66.58-.33 1.33-.33 1.9 0l22.54 13.1c.58.33.9 1 .9 1.65zm-60-9.9l-18.84 10.97v52.1l18.83 9.3zm56.3 10.97l-18.83-10.97v72.38l18.83-9.3zm-32.04 16.4l-7.5 20.6-3.56-1.23 7.5-20.6zm-13.04-9.97v-3.8h5.6v3.8zm9.4 0v-3.8h5.6v3.8zm-9.4 41.22v-3.8h5.6v3.8zm9.4 0v-3.8h5.6v3.8z" stroke="#000" stroke-opacity="0" fill="#fff"/><path d="M390 380h109.38" stroke="#3a414a" stroke-width="3" fill="none"/><path d="M381.84 380l12.9-7.64v15.28zM515.15 380l-14.27 4.63v-9.26z" stroke="#3a414a" stroke-width="3" fill="#3a414a"/><path d="M651.1 380H759.4" stroke="#3a414a" stroke-width="3" fill="none"/><path d="M642.95 380l12.9-7.64v15.28zM775.15 380l-14.27 4.63v-9.26z" stroke="#3a414a" stroke-width="3" fill="#3a414a"/><path d="M705.94 600c2.24 0 4.06 1.8 4.06 3.96v112.08c0 2.16-1.82 3.96-4.06 3.96h-61.88c-2.24 0-4.06-1.8-4.06-3.96V603.96c0-2.16 1.82-3.96 4.06-3.96zm-60.48 114.6h59.08V605.4h-59.08zm6.72-96.84v-5.52h45.64v5.52zm0 11.64v-5.52h45.64v5.52zm0 23.88v-5.52h45.64v5.52zm0-11.88V636h45.64v5.4z" stroke="#000" stroke-opacity="0" fill="#232f3d"/><use xlink:href="#h" transform="matrix(1,0,0,1,610,729) translate(6.666666666666671 17.77777777777778)"/><use xlink:href="#i" transform="matrix(1,0,0,1,610,729) translate(58.0246913580247 17.77777777777778)"/><path d="M1343.23 451.16c-23.82 0-43.06-7.1-43.06-15.68l-.17 82.96c0 8.48 18.9 15.48 42.36 15.68h.6c23.82.1 43.06-6.9 43.06-15.5l.26-82.94c0 8.68-19.33 15.58-43.05 15.48z" stroke="#000" stroke-opacity="0" fill="url(#j)"/><path d="M1386.25 435.73c0 8.6-19.27 15.53-43.02 15.47-23.75-.06-43.02-7.08-43.02-15.72 0-8.62 19.28-15.54 43.03-15.48 23.75.06 43.02 7.05 43.02 15.73" stroke="#000" stroke-opacity="0" fill="#e6e6e6"/><path d="M1376.25 434.4c0 5.46-14.8 9.88-33 9.82-18.22-.06-33-4.52-33-9.98 0-5.47 14.78-9.86 33-9.82 18.2.06 33 4.5 33 9.97" stroke="#000" stroke-opacity="0" fill="#50e6ff"/><path d="M1343.14 436.6c-9.3-.25-17.23.88-26.1 3.7 8.82 2.95 16.76 4.14 26.1 3.93 9.3.26 17.23-.88 26.1-3.77-8.87-2.88-16.76-4.05-26.1-3.87z" stroke="#000" stroke-opacity="0" fill="#198ab3"/><path d="M1390.84 483.8c-16.13 0-29.16-4.82-29.1-10.64l-.18 56.2c0 5.76 12.8 10.5 28.75 10.64h.36c16.13.07 29.16-4.68 29.22-10.5l.12-56.2c0 5.8-13.1 10.55-29.16 10.5z" stroke="#000" stroke-opacity="0" fill="url(#k)"/><path d="M1420 473.24c0 5.83-13.06 10.52-29.16 10.48-16.15-.04-29.16-4.8-29.16-10.64 0-5.83 13.06-10.52 29.16-10.48 16.15.04 29.16 4.8 29.16 10.64" stroke="#000" stroke-opacity="0" fill="#e6e6e6"/><path d="M1413.28 472.37c0 3.7-10.03 6.7-22.38 6.67-12.4-.03-22.38-3.06-22.38-6.77 0-3.7 10.03-6.7 22.38-6.67 12.35.04 22.38 3.06 22.38 6.77" stroke="#000" stroke-opacity="0" fill="#50e6ff"/><path d="M1390.82 473.9c-6.34-.16-11.72.6-17.74 2.5 5.98 2 11.36 2.82 17.66 2.67 6.34.2 11.72-.6 17.74-2.57-6.02-1.94-11.36-2.72-17.66-2.6z" stroke="#000" stroke-opacity="0" fill="#198ab3"/><path d="M1395.75 491.24c-.12-.04-.24-.08-.36-.08-.3.04-.52.16-.7.36l-15.93 23.12c-.2.23-.22.55-.1.83.15.28.4.44.75.48h9.55l-4.27 13.9c-.14.36.03.8.4.95.1.08.2.08.35.08.26-.04.48-.16.65-.36l16.43-23.4c.1-.2.2-.27.2-.47 0-.44-.37-.83-.83-.83h-9.87l4.1-13.63s0-.05.03-.05c.12-.35-.05-.75-.4-.9z" stroke="#000" stroke-opacity="0" fill="#f2f2f2"/><path d="M770 286a6 6 0 0 1 6-6h128a6 6 0 0 1 6 6v28a6 6 0 0 1-6 6H776a6 6 0 0 1-6-6z" stroke="#000" stroke-opacity="0" fill="#fff" fill-opacity="0"/><use xlink:href="#l" transform="matrix(1,0,0,1,775,285) translate(5.2777777777777715 19.65277777777778)"/><use xlink:href="#m" transform="matrix(1,0,0,1,775,285) translate(58.30246913580246 19.65277777777778)"/><path d="M840 451.1V514a6 6 0 0 1-6 6H681a6 6 0 0 0-6 6v53.38" stroke="#3a414a" stroke-width="3" fill="none"/><path d="M840 442.95l7.64 12.9h-15.28zM675 595.15l-4.63-14.27h9.26z" stroke="#3a414a" stroke-width="3" fill="#3a414a"/><path d="M1180 856.72v-13.44l-2.16-.72-14.76-5.04-3.6-9.12 7.8-15.72-9.84-9.84-2.16.6-13.44 7.2-9.12-3.6-6.36-17.04h-13.44l-.72 2.16-4.92 14.16-9.12 4.32-15.6-7.8-9.84 9.84.72 2.16 7.08 13.56-3.6 9.12L1060 844v13.44l2.16.72 14.76 4.92 3.6 9.24-7.8 15.72 9.84 9.84 2.16-.72 13.44-7.08 9.12 3.6 6.36 16.32h13.44l.72-2.16 4.92-14.88 9.12-3.6 15.6 7.8 9.84-9.84-.72-1.44-7.08-13.56 3.6-9.24z" stroke="#000" stroke-opacity="0" fill="url(#n)"/><path d="M1143.28 832.62l-5.63 5c7.6 8.44 7.02 21.5-1.4 29.2-.28.2-.45.36-.74.58-8.34 7.7-21.32 7.1-28.9-1.35-.3-.26-.48-.48-.7-.75-7.08-7.95-7.08-19.78 0-27.68h.7l4.22 3.54h.7v-.75l-1.4-14.18c0-.7-.7-.7-1.4-.7l-13.38 2.15c-.4 0-.75.32-.75.7l4.22 3.55v.7l-.52.64c-9.74 12.1-7.88 29.9 4.12 39.73 12.05 9.77 29.73 7.95 39.47-4.15 10.24-9.68 10.88-25.8 1.38-36.23z" stroke="#000" stroke-opacity="0" fill="#fff"/><path d="M1420 666.72v-13.44l-2.16-.72-14.76-5.04-3.6-9.12 7.8-15.72-9.84-9.84-2.16.6-13.44 7.2-9.12-3.6-6.36-17.04h-13.44l-.72 2.16-4.92 14.16-9.12 4.32-15.6-7.8-9.84 9.84.72 2.16 7.08 13.56-3.6 9.12L1300 654v13.44l2.16.72 14.76 4.92 3.6 9.24-7.8 15.72 9.84 9.84 2.16-.72 13.44-7.08 9.12 3.6 6.36 16.32h13.44l.72-2.16 4.92-14.88 9.12-3.6 15.6 7.8 9.84-9.84-.72-1.44-7.08-13.56 3.6-9.24z" stroke="#000" stroke-opacity="0" fill="url(#o)"/><path d="M1383.28 642.62l-5.63 5c7.6 8.44 7.02 21.5-1.4 29.2-.28.2-.45.36-.74.58-8.34 7.7-21.32 7.1-28.9-1.35-.3-.26-.48-.48-.7-.75-7.08-7.95-7.08-19.78 0-27.68h.7l4.22 3.54h.7v-.75l-1.4-14.18c0-.7-.7-.7-1.4-.7l-13.38 2.15c-.4 0-.75.32-.75.7l4.22 3.55v.7l-.52.64c-9.74 12.1-7.88 29.9 4.12 39.73 12.05 9.77 29.73 7.95 39.47-4.15 10.24-9.68 10.88-25.8 1.38-36.23z" stroke="#000" stroke-opacity="0" fill="#fff"/><path d="M1180 486.72v-13.44l-2.16-.72-14.76-5.04-3.6-9.12 7.8-15.72-9.84-9.84-2.16.6-13.44 7.2-9.12-3.6-6.36-17.04h-13.44l-.72 2.16-4.92 14.16-9.12 4.32-15.6-7.8-9.84 9.84.72 2.16 7.08 13.56-3.6 9.12L1060 474v13.44l2.16.72 14.76 4.92 3.6 9.24-7.8 15.72 9.84 9.84 2.16-.72 13.44-7.08 9.12 3.6 6.36 16.32h13.44l.72-2.16 4.92-14.88 9.12-3.6 15.6 7.8 9.84-9.84-.72-1.44-7.08-13.56 3.6-9.24z" stroke="#000" stroke-opacity="0" fill="url(#p)"/><path d="M1143.28 462.62l-5.63 5c7.6 8.44 7.02 21.5-1.4 29.2-.28.2-.45.36-.74.58-8.34 7.7-21.32 7.1-28.9-1.34-.3-.27-.48-.5-.7-.76-7.08-7.95-7.08-19.78 0-27.68h.7l4.22 3.54h.7v-.75l-1.4-14.18c0-.7-.7-.7-1.4-.7l-13.38 2.15c-.4 0-.75.32-.75.7l4.22 3.55v.7l-.52.64c-9.74 12.1-7.88 29.9 4.12 39.73 12.05 9.77 29.73 7.95 39.47-4.15 10.24-9.68 10.88-25.8 1.38-36.23z" stroke="#000" stroke-opacity="0" fill="#fff"/><path d="M1197.62 661.5h-226.5v-3h226.5zm81.76 0h-28.53v-3h28.53z" stroke="#3a414a" stroke-width=".05" fill="#3a414a"/><path d="M975.86 667.64l-12.9-7.64 12.9-7.64z" fill="#3a414a"/><path d="M977.36 670.26L960 660l17.36-10.26zM965.9 660l8.46 5v-10z" stroke="#3a414a" stroke-width=".05" fill="#3a414a"/><path d="M1295.15 660l-14.27 4.63v-9.26z" fill="#3a414a"/><path d="M1300 660l-20.62 6.7v-13.4zm-17.62 2.57l7.9-2.57-7.9-2.57z" stroke="#3a414a" stroke-width=".05" fill="#3a414a"/><use xlink:href="#q" transform="matrix(1,0,0,1,1197.6202821623422,649.3333333333334) translate(0 14.222222222222223)"/><path d="M1121.5 654.06l-.1 1.1-.26 1.16-.45 1.1-.63 1-.76.9-.9.75-1 .62-1.08.44-1.15.27-1.1.1H980.6v-3h133.32l.76-.06.7-.17.64-.26.6-.36.54-.46.46-.54.37-.6.28-.65.16-.7.06-.76v-63.52h3zm0-84.97h-3v-18h3z" stroke="#3a414a" stroke-width=".05" fill="#3a414a"/><path d="M1127.64 555.86h-15.28l7.64-12.9z" fill="#3a414a"/><path d="M1130.27 557.36h-20.54L1120 540zm-15.28-3h10l-5-8.47z" stroke="#3a414a" stroke-width=".05" fill="#3a414a"/><path d="M979.12 664.63L964.85 660l14.27-4.63z" fill="#3a414a"/><path d="M980.62 666.7L960 660l20.62-6.7zm-10.9-6.7l7.9 2.57v-5.14z" stroke="#3a414a" stroke-width=".05" fill="#3a414a"/><use xlink:href="#r" transform="matrix(1,0,0,1,1084.5185185185185,569.0908478029781) translate(0 14.222222222222223)"/><path d="M1121.5 778.9h-3v-37.5h3zm-6.33-120.3l1.15.26 1.1.45 1 .63.9.76.75.9.62 1 .44 1.08.27 1.15.1 1.1v54.15h-3v-54.02l-.06-.76-.16-.7-.27-.64-.36-.6-.46-.54-.54-.46-.6-.37-.65-.27-.7-.17-.76-.06H980.62v-3h133.44z" stroke="#3a414a" stroke-width=".05" fill="#3a414a"/><path d="M1120 787.05l-7.64-12.9h15.28z" fill="#3a414a"/><path d="M1120 790l-10.27-17.36h20.54zm-5-14.36l5 8.47 5-8.46z" stroke="#3a414a" stroke-width=".05" fill="#3a414a"/><path d="M979.12 664.63L964.85 660l14.27-4.63z" fill="#3a414a"/><path d="M980.62 666.7L960 660l20.62-6.7zm-10.9-6.7l7.9 2.57v-5.14z" stroke="#3a414a" stroke-width=".05" fill="#3a414a"/><use xlink:href="#s" transform="matrix(1,0,0,1,1092.3950617283951,720.0780134225649) translate(0 14.222222222222223)"/><path d="M1412.97 819.1v-12.6l-13.3-14.6-21.8 48.1 21.8 48.08 13.3-14.62v-12.7l-4.42 3.08v-6.15l4.42-2.32v-12.7l-4.42.1v-5.68l4.42.2v-12.4l-4.42-2.32v-4.33l4.42.86z" fill="#2e73b8"/><path d="M1375.9 900l23.76-11.88v-96.24L1375.9 780l-26.88 60.96 26.9 59.04z" fill="#5294cf"/><path d="M1342.66 900h33.26V780h-33.26l-17.22 60.96 17.22 59.04z" fill="#2e73b8"/><path d="M1342.64 900l-23.96-11.88-7.53-47.16 7.53-49.08 23.9-11.88.06 120z" fill="#205b99"/><path d="M1408.55 857.76l-8.9 4.33-23.75 5.1h-33.28l-23.22-5.1-.42-.1-.32-.1v-18.1l23.96 1.74h33.27l23.74-1.73 13.36-1.14h-4.45v-5.4h4.34l-13.26-.95-23.74-.76h-33.07l-24.17.58v-18.28h.32l23.85-5.68h33.06l23.74 5.68 8.9 4.7v-2.97l4.46-.38-13.36-9.34-23.74-7.7h-33.07l-24.17 7.98v-18.27L1307 806.5v12.7l3.4.37v3.08l-3.4 1.92v12.7h3.4v5.4l-3.4.08v12.6l3.4 1.93v3.17l-3.4.4v12.6l11.66 14.6V869.8l23.96 7.4h33.27l23.74-7.4 13.36-8.94-4.45-.4v-2.68z" fill="#19486f"/><use xlink:href="#t" transform="matrix(1,0,0,1,1307,900) translate(12.29012345679012 17.77777777777778)"/><use xlink:href="#u" transform="matrix(1,0,0,1,1307,900) translate(-3.6975308641975317 44.44444444444444)"/><path d="M945.94 790c2.24 0 4.06 1.8 4.06 3.96v112.08c0 2.16-1.82 3.96-4.06 3.96h-61.88c-2.24 0-4.06-1.8-4.06-3.96V793.96c0-2.16 1.82-3.96 4.06-3.96zm-60.48 114.6h59.08V795.4h-59.08zm6.72-96.84v-5.52h45.64v5.52zm0 11.64v-5.52h45.64v5.52zm0 23.88v-5.52h45.64v5.52zm0-11.88V826h45.64v5.4z" stroke="#000" stroke-opacity="0" fill="#232f3d"/><use xlink:href="#v" transform="matrix(1,0,0,1,850,919) translate(16.29629629629629 17.77777777777778)"/><path d="M1181.5 480h97.96" stroke="#3a414a" stroke-width="3" fill="none"/><path d="M1181.54 481.5H1180v-3h1.54z" stroke="#3a414a" stroke-width=".05" fill="#3a414a"/><path d="M1295.23 480l-14.27 4.63v-9.26z" stroke="#3a414a" stroke-width="3" fill="#3a414a"/><path d="M1181.5 850h104.88" stroke="#3a414a" stroke-width="3" fill="none"/><path d="M1181.54 851.5H1180v-3h1.54z" stroke="#3a414a" stroke-width=".05" fill="#3a414a"/><path d="M1302.15 850l-14.27 4.63v-9.26z" stroke="#3a414a" stroke-width="3" fill="#3a414a"/><path d="M1455.1 503.94l1.15.27 1.1.46 1 .62.9.76.75.9.62 1 .45 1.1.27 1.14.1 1.1v432.78l-.1 1.1-.27 1.16-.45 1.1-.62 1-.76.9-.9.75-1 .62-1.1.44-1.13.27-1.1.1h-328.06l-1.1-.1-1.16-.26-1.1-.45-1-.63-.9-.76-.75-.9-.62-1-.44-1.08-.27-1.15-.1-1.1V911.5h3v32.44l.06.76.16.7.27.64.36.6.46.54.54.46.6.37.65.27.7.17.76.06h327.8l.78-.06.68-.17.65-.26.6-.36.54-.46.47-.54.37-.6.27-.65.17-.7.06-.76V511.4l-.06-.75-.16-.7-.26-.64-.37-.6-.46-.53-.52-.46-.6-.35-.66-.28-.68-.16-.77-.05h-13.32v-3H1454z" stroke="#3a414a" stroke-width=".05" fill="#3a414a"/><path d="M1121.5 911.54h-3V910h3z" fill="#3a414a"/><path d="M1121.53 911.56h-3.06v-1.58h3.06zm-3-1.53v1.48h2.94v-1.48z" stroke="#3a414a" stroke-width=".05" fill="#3a414a"/><path d="M1439.05 510l-14.26-4.65 14.25-4.64z" fill="#3a414a"/><path d="M1440.55 512.05l-20.62-6.7 20.62-6.7zm-10.9-6.7l7.9 2.57v-5.14z" stroke="#3a414a" stroke-width=".05" fill="#3a414a"/><path d="M840 590h120v140H840V590z" stroke="#000" stroke-opacity="0" fill="url(#w)"/><path d="M884.97 633.67h3.8v4.43h-3.8v21.73c0-.48.25-1.05.58-1.44l5.62-6.55 2.64 3.08-4.28 5 4.3 5-2.65 3.08-5.62-6.53c-.33-.4-.58-.96-.58-1.54v21.83h3.8v4.43h-3.8v19.6c0 .78-.33 1.45-.9 1.93-.25.2-.58.3-1 .3-.24 0-.5-.1-.82-.2l-22.46-13.18c-.67-.38-1.08-1.06-1.08-1.92v-63.38c0-.77.33-1.54.9-1.93l22.55-15.3c.58-.38 1.32-.38 1.9 0 .57.4.9 1.16.9 1.93zm56.3-4.32v63.38c0 .86-.4 1.54-1.06 1.92l-22.45 13.18c-.33.1-.58.2-.83.2-.4 0-.74-.1-1-.3-.56-.48-.9-1.15-.9-1.92v-19.6h-3.8v-4.44h3.8v-21.83c0 .58-.24 1.15-.57 1.54l-5.62 6.54-2.64-3.07 4.28-5-4.3-5 2.65-3.08 5.62 6.54c.33.38.58.95.58 1.43V638.1h-3.8v-4.43h3.8v-19.62c0-.77.33-1.54.9-1.92.58-.4 1.33-.4 1.9 0l22.54 15.3c.58.38.9 1.15.9 1.92zm-60-11.55l-18.84 12.8v60.78l18.83 10.87zm56.3 12.8l-18.83-12.8v84.45l18.83-10.87zm-32.04 19.13l-7.5 24.05-3.56-1.44 7.5-24.05zM892.5 638.1v-4.43h5.6v4.43zm9.4 0v-4.43h5.6v4.43zm-9.4 48.1v-4.44h5.6v4.43zm9.4 0v-4.44h5.6v4.43z" stroke="#000" stroke-opacity="0" fill="#fff"/><use xlink:href="#x" transform="matrix(1,0,0,1,810,739) translate(25.21604938271605 17.77777777777778)"/><use xlink:href="#y" transform="matrix(1,0,0,1,810,739) translate(67.19135802469137 17.77777777777778)"/><path d="M721.1 660h98.28" stroke="#3a414a" stroke-width="3" fill="none"/><path d="M712.95 660l12.9-7.64v15.28zM835.15 660l-14.27 4.63v-9.26z" stroke="#3a414a" stroke-width="3" fill="#3a414a"/><path d="M1520 420h120v120h-120V420z" stroke="#000" stroke-opacity="0" fill="url(#z)"/><path d="M1621.28 470.6c0 4.12-2.3 6.84-6.03 7.42L1604.2 507c2.47 1.15 3.95 3.55 3.95 6.77 0 4.54-2.97 7.5-7.5 7.5-3.9 0-6.62-2.14-7.28-5.6h-26.66c-.65 3.55-3.3 5.6-7.34 5.6-4.62 0-7.5-2.88-7.5-7.5 0-2.8.98-4.87 2.8-6.2l-8.84-29.47c-4.46-.16-7.1-2.9-7.1-7.5 0-4.64 2.9-7.53 7.5-7.53 1.66 0 3.15.42 4.3 1.16l22.13-15.2c-.25-.82-.33-1.64-.33-2.63 0-4.63 2.97-7.68 7.68-7.68 4.7 0 7.68 3.05 7.68 7.68 0 1-.08 1.8-.33 2.64l22.12 15.2c1.16-.75 2.65-1.17 4.3-1.17 4.62 0 7.5 2.9 7.5 7.52zm-28 41.27c.42-1.74 1.25-3.14 2.5-4.05l-3.97-3.96 2.65-2.64 5.2 5.12c.25 0 .5-.1.82-.1l10.82-28.47c-1.25-.33-2.32-.9-3.15-1.73l-6.6 3.7-1.82-3.3 6.77-3.7c-.16-.67-.25-1.4-.25-2.15 0-1.33.25-2.5.75-3.56l-21.63-14.78c-.9.82-2.07 1.4-3.47 1.65v7.36h-3.8v-7.35c-1.32-.24-2.56-.8-3.47-1.64L1553 467.04c.5 1.07.75 2.23.75 3.55 0 .8-.1 1.56-.25 2.22l6.77 3.63-1.82 3.3-6.7-3.63c-.65.58-1.3 1.07-2.2 1.4l8.65 28.82c.42 0 .75-.1 1.16-.1.33 0 .66.1 1 .1l5.2-5.12 2.63 2.64-3.97 3.88c1.24 1 2.15 2.4 2.48 4.13zm-12.04-11.73c-3.55 0-7.18-1.15-10.24-3.38-4.46-3.38-6.85-7.84-6.93-12.96l3.8-.1c0 3.98 1.8 7.36 5.36 10 5.94 4.46 14.37 3.23 18.82-2.72 4.38-5.94 3.22-14.37-2.72-18.82-5.45-3.97-13.38-2.98-18.16 2.23h3.22v3.7h-7.53c-.5 0-1-.16-1.32-.5-.33-.4-.58-.82-.58-1.3v-7.53h3.8v2.73c6.03-6.2 15.94-7.43 22.8-2.3 7.58 5.6 9.15 16.4 3.46 24-3.3 4.55-8.5 6.94-13.8 6.94zm-1.24-57.7c-2.64 0-3.96 1.4-3.96 3.96 0 2.64 1.4 3.96 3.96 3.96 2.64 0 3.96-1.32 3.96-3.96 0-2.56-1.32-3.96-3.96-3.96zm-37.57 28.15c0 2.7 1.16 3.8 3.8 3.8 2.64 0 3.72-1.17 3.72-3.8 0-2.57-1.16-3.73-3.72-3.73-2.64 0-3.8 1.16-3.8 3.72zm75.13 0c0-2.57-1.15-3.73-3.8-3.73-2.55 0-3.7 1.16-3.7 3.72 0 2.7 1.07 3.8 3.7 3.8 2.65 0 3.8-1.17 3.8-3.8zm-58.2 46.97c2.56 0 3.72-1.16 3.72-3.8 0-2.64-1.08-3.72-3.72-3.72-2.56 0-3.7 1.16-3.7 3.72-.02 2.56 1.14 3.8 3.7 3.8zm41.28 0c2.48 0 3.7-1.33 3.7-3.8.02-2.48-1.22-3.72-3.7-3.72-2.56 0-3.72 1.16-3.72 3.72 0 2.47 1.24 3.8 3.72 3.8z" stroke="#000" stroke-opacity="0" fill="#fff"/><use xlink:href="#A" transform="matrix(1,0,0,1,1490,549) translate(52.96296296296296 17.77777777777778)"/><path d="M1520 780h120v120h-120V780z" stroke="#000" stroke-opacity="0" fill="url(#B)"/><path d="M1621.28 830.6c0 4.12-2.3 6.84-6.03 7.42L1604.2 867c2.47 1.15 3.95 3.55 3.95 6.77 0 4.54-2.97 7.5-7.5 7.5-3.9 0-6.62-2.14-7.28-5.6h-26.66c-.65 3.55-3.3 5.6-7.34 5.6-4.62 0-7.5-2.88-7.5-7.5 0-2.8.98-4.87 2.8-6.2l-8.84-29.47c-4.46-.16-7.1-2.9-7.1-7.5 0-4.63 2.9-7.52 7.5-7.52 1.66 0 3.15.4 4.3 1.15l22.13-15.2c-.25-.82-.33-1.64-.33-2.63 0-4.63 2.97-7.68 7.68-7.68 4.7 0 7.68 3.05 7.68 7.68 0 1-.08 1.8-.33 2.64l22.12 15.2c1.16-.75 2.65-1.16 4.3-1.16 4.62 0 7.5 2.88 7.5 7.5zm-28 41.27c.42-1.74 1.25-3.14 2.5-4.05l-3.97-3.96 2.65-2.64 5.2 5.12c.25 0 .5-.1.82-.1l10.82-28.47c-1.25-.33-2.32-.9-3.15-1.73l-6.6 3.7-1.82-3.3 6.77-3.7c-.16-.67-.25-1.4-.25-2.15 0-1.33.25-2.5.75-3.56l-21.63-14.78c-.9.83-2.07 1.4-3.47 1.65v7.36h-3.8v-7.35c-1.32-.24-2.56-.8-3.47-1.64L1553 827.04c.5 1.07.75 2.23.75 3.55 0 .8-.1 1.56-.25 2.22l6.77 3.63-1.82 3.3-6.7-3.63c-.65.58-1.3 1.07-2.2 1.4l8.65 28.82c.42 0 .75-.1 1.16-.1.33 0 .66.1 1 .1l5.2-5.12 2.63 2.64-3.97 3.88c1.24 1 2.15 2.4 2.48 4.13zm-12.04-11.73c-3.55 0-7.18-1.15-10.24-3.38-4.46-3.38-6.85-7.84-6.93-12.96l3.8-.08c0 3.96 1.8 7.34 5.36 10 5.94 4.44 14.37 3.2 18.82-2.74 4.38-5.94 3.22-14.37-2.72-18.82-5.45-3.97-13.38-2.98-18.16 2.23h3.22v3.7h-7.53c-.5 0-1-.16-1.32-.5-.33-.4-.58-.82-.58-1.32v-7.5h3.8v2.72c6.03-6.2 15.94-7.43 22.8-2.32 7.58 5.62 9.15 16.43 3.46 24.03-3.3 4.55-8.5 6.94-13.8 6.94zm-1.24-57.7c-2.64 0-3.96 1.4-3.96 3.96 0 2.64 1.4 3.96 3.96 3.96 2.64 0 3.96-1.32 3.96-3.96 0-2.56-1.32-3.97-3.96-3.97zm-37.57 28.15c0 2.7 1.16 3.8 3.8 3.8 2.64 0 3.72-1.17 3.72-3.8 0-2.57-1.16-3.73-3.72-3.73-2.64 0-3.8 1.16-3.8 3.72zm75.13 0c0-2.57-1.15-3.73-3.8-3.73-2.55 0-3.7 1.16-3.7 3.72 0 2.7 1.07 3.8 3.7 3.8 2.65 0 3.8-1.17 3.8-3.8zm-58.2 46.97c2.56 0 3.72-1.16 3.72-3.8 0-2.64-1.08-3.72-3.72-3.72-2.56 0-3.7 1.16-3.7 3.72-.02 2.56 1.14 3.8 3.7 3.8zm41.28 0c2.48 0 3.7-1.33 3.7-3.8.02-2.48-1.22-3.72-3.7-3.72-2.56 0-3.72 1.16-3.72 3.72 0 2.47 1.24 3.8 3.72 3.8z" stroke="#000" stroke-opacity="0" fill="#fff"/><use xlink:href="#A" transform="matrix(1,0,0,1,1490,909) translate(52.96296296296296 17.77777777777778)"/><path d="M1421.5 480h77.88" stroke="#3a414a" stroke-width="3" fill="none"/><path d="M1421.52 481.5h-1.54v-3h1.54z" stroke="#3a414a" stroke-width=".05" fill="#3a414a"/><path d="M1515.15 480l-14.27 4.63v-9.26z" stroke="#3a414a" stroke-width="3" fill="#3a414a"/><path d="M1414.47 850h84.9" stroke="#3a414a" stroke-width="3" fill="none"/><path d="M1414.5 851.5h-1.53v-3h1.54z" stroke="#3a414a" stroke-width=".05" fill="#3a414a"/><path d="M1515.15 850l-14.27 4.63v-9.26z" stroke="#3a414a" stroke-width="3" fill="#3a414a"/><path d="M1048.9 850H970.6" stroke="#3a414a" stroke-width="3" fill="none"/><path d="M1057.05 850l-12.9 7.64v-15.28zM954.85 850l14.27-4.63v9.26z" stroke="#3a414a" stroke-width="3" fill="#3a414a"/><path d="M1360 721.5v37.88" stroke="#3a414a" stroke-width="3" fill="none"/><path d="M1361.5 721.54h-3V720h3z" stroke="#3a414a" stroke-width=".05" fill="#3a414a"/><path d="M1360 775.15l-4.63-14.27h9.27z" stroke="#3a414a" stroke-width="3" fill="#3a414a"/><path d="M1360 598.5v-45.1" stroke="#3a414a" stroke-width="3" fill="none"/><path d="M1361.5 600h-3v-1.54h3z" stroke="#3a414a" stroke-width=".05" fill="#3a414a"/><path d="M1360 537.62l4.63 14.27h-9.27z" stroke="#3a414a" stroke-width="3" fill="#3a414a"/><defs><path fill="#3a414a" d="M232-93c-1 65-40 97-104 97C67 4 28-28 28-90v-158h33c8 89-33 224 67 224 102 0 64-133 71-224h33v155" id="C"/><path fill="#3a414a" d="M135-143c-3-34-86-38-87 0 15 53 115 12 119 90S17 21 10-45l28-5c4 36 97 45 98 0-10-56-113-15-118-90-4-57 82-63 122-42 12 7 21 19 24 35" id="D"/><path fill="#3a414a" d="M100-194c63 0 86 42 84 106H49c0 40 14 67 53 68 26 1 43-12 49-29l28 8c-11 28-37 45-77 45C44 4 14-33 15-96c1-61 26-98 85-98zm52 81c6-60-76-77-97-28-3 7-6 17-6 28h103" id="E"/><path fill="#3a414a" d="M114-163C36-179 61-72 57 0H25l-1-190h30c1 12-1 29 2 39 6-27 23-49 58-41v29" id="F"/><g id="a"><use transform="matrix(0.06172839506172839,0,0,0.06172839506172839,0,0)" xlink:href="#C"/><use transform="matrix(0.06172839506172839,0,0,0.06172839506172839,15.987654320987653,0)" xlink:href="#D"/><use transform="matrix(0.06172839506172839,0,0,0.06172839506172839,27.098765432098766,0)" xlink:href="#E"/><use transform="matrix(0.06172839506172839,0,0,0.06172839506172839,39.44444444444444,0)" xlink:href="#F"/><use transform="matrix(0.06172839506172839,0,0,0.06172839506172839,46.79012345679012,0)" xlink:href="#D"/></g><path fill="#3a414a" d="M30 0v-248h33v221h125V0H30" id="G"/><path fill="#3a414a" d="M100-194c62-1 85 37 85 99 1 63-27 99-86 99S16-35 15-95c0-66 28-99 85-99zM99-20c44 1 53-31 53-75 0-43-8-75-51-75s-53 32-53 75 10 74 51 75" id="H"/><path fill="#3a414a" d="M141-36C126-15 110 5 73 4 37 3 15-17 15-53c-1-64 63-63 125-63 3-35-9-54-41-54-24 1-41 7-42 31l-33-3c5-37 33-52 76-52 45 0 72 20 72 64v82c-1 20 7 32 28 27v20c-31 9-61-2-59-35zM48-53c0 20 12 33 32 33 41-3 63-29 60-74-43 2-92-5-92 41" id="I"/><path fill="#3a414a" d="M85-194c31 0 48 13 60 33l-1-100h32l1 261h-30c-2-10 0-23-3-31C134-8 116 4 85 4 32 4 16-35 15-94c0-66 23-100 70-100zm9 24c-40 0-46 34-46 75 0 40 6 74 45 74 42 0 51-32 51-76 0-42-9-74-50-73" id="J"/><g id="b"><use transform="matrix(0.06172839506172839,0,0,0.06172839506172839,0,0)" xlink:href="#G"/><use transform="matrix(0.06172839506172839,0,0,0.06172839506172839,12.345679012345679,0)" xlink:href="#H"/><use transform="matrix(0.06172839506172839,0,0,0.06172839506172839,24.691358024691358,0)" xlink:href="#I"/><use transform="matrix(0.06172839506172839,0,0,0.06172839506172839,37.03703703703704,0)" xlink:href="#J"/></g><path fill="#3a414a" d="M160-131c35 5 61 23 61 61C221 17 115-2 30 0v-248c76 3 177-17 177 60 0 33-19 50-47 57zm-97-11c50-1 110 9 110-42 0-47-63-36-110-37v79zm0 115c55-2 124 14 124-45 0-56-70-42-124-44v89" id="K"/><path fill="#3a414a" d="M24 0v-261h32V0H24" id="L"/><path fill="#3a414a" d="M117-194c89-4 53 116 60 194h-32v-121c0-31-8-49-39-48C34-167 62-67 57 0H25l-1-190h30c1 10-1 24 2 32 11-22 29-35 61-36" id="M"/><path fill="#3a414a" d="M96-169c-40 0-48 33-48 73s9 75 48 75c24 0 41-14 43-38l32 2c-6 37-31 61-74 61-59 0-76-41-82-99-10-93 101-131 147-64 4 7 5 14 7 22l-32 3c-4-21-16-35-41-35" id="N"/><path fill="#3a414a" d="M24-231v-30h32v30H24zM24 0v-190h32V0H24" id="O"/><path fill="#3a414a" d="M177-190C167-65 218 103 67 71c-23-6-38-20-44-43l32-5c15 47 100 32 89-28v-30C133-14 115 1 83 1 29 1 15-40 15-95c0-56 16-97 71-98 29-1 48 16 59 35 1-10 0-23 2-32h30zM94-22c36 0 50-32 50-73 0-42-14-75-50-75-39 0-46 34-46 75s6 73 46 73" id="P"/><g id="c"><use transform="matrix(0.06172839506172839,0,0,0.06172839506172839,0,0)" xlink:href="#K"/><use transform="matrix(0.06172839506172839,0,0,0.06172839506172839,14.814814814814813,0)" xlink:href="#I"/><use transform="matrix(0.06172839506172839,0,0,0.06172839506172839,27.160493827160494,0)" xlink:href="#L"/><use transform="matrix(0.06172839506172839,0,0,0.06172839506172839,32.03703703703704,0)" xlink:href="#I"/><use transform="matrix(0.06172839506172839,0,0,0.06172839506172839,44.382716049382715,0)" xlink:href="#M"/><use transform="matrix(0.06172839506172839,0,0,0.06172839506172839,56.72839506172839,0)" xlink:href="#N"/><use transform="matrix(0.06172839506172839,0,0,0.06172839506172839,67.8395061728395,0)" xlink:href="#O"/><use transform="matrix(0.06172839506172839,0,0,0.06172839506172839,72.71604938271605,0)" xlink:href="#M"/><use transform="matrix(0.06172839506172839,0,0,0.06172839506172839,85.06172839506173,0)" xlink:href="#P"/></g><path fill="#3a414a" d="M205 0l-28-72H64L36 0H1l101-248h38L239 0h-34zm-38-99l-47-123c-12 45-31 82-46 123h93" id="Q"/><path fill="#3a414a" d="M115-194c55 1 70 41 70 98S169 2 115 4C84 4 66-9 55-30l1 105H24l-1-265h31l2 30c10-21 28-34 59-34zm-8 174c40 0 45-34 45-75s-6-73-45-74c-42 0-51 32-51 76 0 43 10 73 51 73" id="R"/><path fill="#3a414a" d="M59-47c-2 24 18 29 38 22v24C64 9 27 4 27-40v-127H5v-23h24l9-43h21v43h35v23H59v120" id="S"/><g id="d"><use transform="matrix(0.06172839506172839,0,0,0.06172839506172839,0,0)" xlink:href="#Q"/><use transform="matrix(0.06172839506172839,0,0,0.06172839506172839,14.814814814814813,0)" xlink:href="#R"/><use transform="matrix(0.06172839506172839,0,0,0.06172839506172839,27.160493827160494,0)" xlink:href="#R"/><use transform="matrix(0.06172839506172839,0,0,0.06172839506172839,39.50617283950617,0)" xlink:href="#L"/><use transform="matrix(0.06172839506172839,0,0,0.06172839506172839,44.382716049382715,0)" xlink:href="#O"/><use transform="matrix(0.06172839506172839,0,0,0.06172839506172839,49.25925925925926,0)" xlink:href="#N"/><use transform="matrix(0.06172839506172839,0,0,0.06172839506172839,60.37037037037037,0)" xlink:href="#I"/><use transform="matrix(0.06172839506172839,0,0,0.06172839506172839,72.71604938271605,0)" xlink:href="#S"/><use transform="matrix(0.06172839506172839,0,0,0.06172839506172839,78.88888888888889,0)" xlink:href="#O"/><use transform="matrix(0.06172839506172839,0,0,0.06172839506172839,83.76543209876543,0)" xlink:href="#H"/><use transform="matrix(0.06172839506172839,0,0,0.06172839506172839,96.11111111111111,0)" xlink:href="#M"/></g><g id="e"><use transform="matrix(0.06172839506172839,0,0,0.06172839506172839,0,0)" xlink:href="#G"/><use transform="matrix(0.06172839506172839,0,0,0.06172839506172839,12.345679012345679,0)" xlink:href="#H"/><use transform="matrix(0.06172839506172839,0,0,0.06172839506172839,24.691358024691358,0)" xlink:href="#I"/><use transform="matrix(0.06172839506172839,0,0,0.06172839506172839,37.03703703703704,0)" xlink:href="#J"/></g><g id="f"><use transform="matrix(0.06172839506172839,0,0,0.06172839506172839,0,0)" xlink:href="#K"/><use transform="matrix(0.06172839506172839,0,0,0.06172839506172839,14.814814814814813,0)" xlink:href="#I"/><use transform="matrix(0.06172839506172839,0,0,0.06172839506172839,27.160493827160494,0)" xlink:href="#L"/><use transform="matrix(0.06172839506172839,0,0,0.06172839506172839,32.03703703703704,0)" xlink:href="#I"/><use transform="matrix(0.06172839506172839,0,0,0.06172839506172839,44.382716049382715,0)" xlink:href="#M"/><use transform="matrix(0.06172839506172839,0,0,0.06172839506172839,56.72839506172839,0)" xlink:href="#N"/><use transform="matrix(0.06172839506172839,0,0,0.06172839506172839,67.8395061728395,0)" xlink:href="#E"/><use transform="matrix(0.06172839506172839,0,0,0.06172839506172839,80.18518518518519,0)" xlink:href="#F"/></g><linearGradient gradientUnits="userSpaceOnUse" id="g" x1="780" y1="440" x2="900" y2="320"><stop offset="0%" stop-color="#b0084d"/><stop offset="100%" stop-color="#ff4f8b"/></linearGradient><path fill="#3a414a" d="M266 0h-40l-56-210L115 0H75L2-248h35L96-30l15-64 43-154h32l59 218 59-218h35" id="T"/><path fill="#3a414a" d="M115-194c53 0 69 39 70 98 0 66-23 100-70 100C84 3 66-7 56-30L54 0H23l1-261h32v101c10-23 28-34 59-34zm-8 174c40 0 45-34 45-75 0-40-5-75-45-74-42 0-51 32-51 76 0 43 10 73 51 73" id="U"/><g id="h"><use transform="matrix(0.06172839506172839,0,0,0.06172839506172839,0,0)" xlink:href="#T"/><use transform="matrix(0.06172839506172839,0,0,0.06172839506172839,20.493827160493826,0)" xlink:href="#E"/><use transform="matrix(0.06172839506172839,0,0,0.06172839506172839,32.839506172839506,0)" xlink:href="#U"/></g><path fill="#3a414a" d="M185-189c-5-48-123-54-124 2 14 75 158 14 163 119 3 78-121 87-175 55-17-10-28-26-33-46l33-7c5 56 141 63 141-1 0-78-155-14-162-118-5-82 145-84 179-34 5 7 8 16 11 25" id="V"/><path fill="#3a414a" d="M108 0H70L1-190h34L89-25l56-165h34" id="W"/><g id="i"><use transform="matrix(0.06172839506172839,0,0,0.06172839506172839,0,0)" xlink:href="#V"/><use transform="matrix(0.06172839506172839,0,0,0.06172839506172839,14.814814814814813,0)" xlink:href="#E"/><use transform="matrix(0.06172839506172839,0,0,0.06172839506172839,27.160493827160494,0)" xlink:href="#F"/><use transform="matrix(0.06172839506172839,0,0,0.06172839506172839,34.50617283950617,0)" xlink:href="#W"/><use transform="matrix(0.06172839506172839,0,0,0.06172839506172839,45.61728395061728,0)" xlink:href="#E"/><use transform="matrix(0.06172839506172839,0,0,0.06172839506172839,57.962962962962955,0)" xlink:href="#F"/></g><linearGradient gradientUnits="userSpaceOnUse" id="j" x1="1300.12" y1="479.94" x2="1419.79" y2="480.21"><stop offset="0%" stop-color="#005ba1"/><stop offset="6.8%" stop-color="#0060a9"/><stop offset="35.6%" stop-color="#0071c8"/><stop offset="51.7%" stop-color="#0078d4"/><stop offset="64.2%" stop-color="#0074cd"/><stop offset="82%" stop-color="#006abb"/><stop offset="100%" stop-color="#005ba1"/></linearGradient><linearGradient gradientUnits="userSpaceOnUse" id="k" x1="1300.11" y1="479.94" x2="1419.82" y2="480.21"><stop offset="0%" stop-color="#32bedd"/><stop offset="32.2%" stop-color="#47daf5"/><stop offset="51.7%" stop-color="#50e6ff"/><stop offset="66.4%" stop-color="#4bdff9"/><stop offset="87.2%" stop-color="#3dcdea"/><stop offset="100%" stop-color="#32bedd"/></linearGradient><path fill="#3a414a" d="M233-177c-1 41-23 64-60 70L243 0h-38l-65-103H63V0H30v-248c88 3 205-21 203 71zM63-129c60-2 137 13 137-47 0-61-80-42-137-45v92" id="X"/><g id="l"><use transform="matrix(0.06172839506172839,0,0,0.06172839506172839,0,0)" xlink:href="#X"/><use transform="matrix(0.06172839506172839,0,0,0.06172839506172839,15.987654320987653,0)" xlink:href="#I"/><use transform="matrix(0.06172839506172839,0,0,0.06172839506172839,28.333333333333332,0)" xlink:href="#S"/><use transform="matrix(0.06172839506172839,0,0,0.06172839506172839,34.50617283950617,0)" xlink:href="#E"/></g><path fill="#3a414a" d="M210-169c-67 3-38 105-44 169h-31v-121c0-29-5-50-35-48C34-165 62-65 56 0H25l-1-190h30c1 10-1 24 2 32 10-44 99-50 107 0 11-21 27-35 58-36 85-2 47 119 55 194h-31v-121c0-29-5-49-35-48" id="Y"/><g id="m"><use transform="matrix(0.06172839506172839,0,0,0.06172839506172839,0,0)" xlink:href="#G"/><use transform="matrix(0.06172839506172839,0,0,0.06172839506172839,12.345679012345679,0)" xlink:href="#O"/><use transform="matrix(0.06172839506172839,0,0,0.06172839506172839,17.22222222222222,0)" xlink:href="#Y"/><use transform="matrix(0.06172839506172839,0,0,0.06172839506172839,35.67901234567901,0)" xlink:href="#O"/><use transform="matrix(0.06172839506172839,0,0,0.06172839506172839,40.55555555555556,0)" xlink:href="#S"/><use transform="matrix(0.06172839506172839,0,0,0.06172839506172839,46.7283950617284,0)" xlink:href="#E"/><use transform="matrix(0.06172839506172839,0,0,0.06172839506172839,59.074074074074076,0)" xlink:href="#F"/></g><linearGradient gradientUnits="userSpaceOnUse" id="n" x1="1120" y1="910.71" x2="1120" y2="790"><stop offset="0%" stop-color="#32bedd"/><stop offset="100%" stop-color="#32d4f5"/></linearGradient><linearGradient gradientUnits="userSpaceOnUse" id="o" x1="1360" y1="720.71" x2="1360" y2="600"><stop offset="0%" stop-color="#32bedd"/><stop offset="100%" stop-color="#32d4f5"/></linearGradient><linearGradient gradientUnits="userSpaceOnUse" id="p" x1="1120" y1="540.71" x2="1120" y2="420"><stop offset="0%" stop-color="#32bedd"/><stop offset="100%" stop-color="#32d4f5"/></linearGradient><path fill="#333" d="M24-248c120-7 223 5 221 122C244-46 201 0 124 0H24v-248zM76-40c74 7 117-18 117-86 0-67-45-88-117-82v168" id="Z"/><path fill="#333" d="M185-48c-13 30-37 53-82 52C43 2 14-33 14-96s30-98 90-98c62 0 83 45 84 108H66c0 31 8 55 39 56 18 0 30-7 34-22zm-45-69c5-46-57-63-70-21-2 6-4 13-4 21h74" id="aa"/><path fill="#333" d="M25 0v-261h50V0H25" id="ab"/><path fill="#333" d="M115-3C79 11 28 4 28-45v-112H4v-33h27l15-45h31v45h36v33H77v99c-1 23 16 31 38 25v30" id="ac"/><g id="q"><use transform="matrix(0.04938271604938272,0,0,0.04938271604938272,0,0)" xlink:href="#Z"/><use transform="matrix(0.04938271604938272,0,0,0.04938271604938272,12.790123456790125,0)" xlink:href="#aa"/><use transform="matrix(0.04938271604938272,0,0,0.04938271604938272,22.66666666666667,0)" xlink:href="#ab"/><use transform="matrix(0.04938271604938272,0,0,0.04938271604938272,27.604938271604947,0)" xlink:href="#aa"/><use transform="matrix(0.04938271604938272,0,0,0.04938271604938272,37.48148148148149,0)" xlink:href="#ac"/><use transform="matrix(0.04938271604938272,0,0,0.04938271604938272,43.35802469135803,0)" xlink:href="#aa"/></g><path fill="#333" d="M240-174c0 40-23 61-54 70L253 0h-59l-57-94H76V0H24v-248c93 4 217-23 216 74zM76-134c48-2 112 12 112-38 0-48-66-32-112-35v73" id="ad"/><path fill="#333" d="M88-194c31-1 46 15 58 34l-1-101h50l1 261h-48c-2-10 0-23-3-31C134-8 116 4 84 4 32 4 16-41 15-95c0-56 19-97 73-99zm17 164c33 0 40-30 41-66 1-37-9-64-41-64s-38 30-39 65c0 43 13 65 39 65" id="ae"/><path fill="#333" d="M25-224v-37h50v37H25zM25 0v-190h50V0H25" id="af"/><path fill="#333" d="M135-150c-39-12-60 13-60 57V0H25l-1-190h47c2 13-1 29 3 40 6-28 27-53 61-41v41" id="ag"/><path fill="#333" d="M190-63c-7 42-38 67-86 67-59 0-84-38-90-98-12-110 154-137 174-36l-49 2c-2-19-15-32-35-32-30 0-35 28-38 64-6 74 65 87 74 30" id="ah"/><g id="r"><use transform="matrix(0.04938271604938272,0,0,0.04938271604938272,0,0)" xlink:href="#ad"/><use transform="matrix(0.04938271604938272,0,0,0.04938271604938272,12.790123456790125,0)" xlink:href="#aa"/><use transform="matrix(0.04938271604938272,0,0,0.04938271604938272,22.66666666666667,0)" xlink:href="#ae"/><use transform="matrix(0.04938271604938272,0,0,0.04938271604938272,33.48148148148149,0)" xlink:href="#af"/><use transform="matrix(0.04938271604938272,0,0,0.04938271604938272,38.41975308641976,0)" xlink:href="#ag"/><use transform="matrix(0.04938271604938272,0,0,0.04938271604938272,45.33333333333334,0)" xlink:href="#aa"/><use transform="matrix(0.04938271604938272,0,0,0.04938271604938272,55.209876543209894,0)" xlink:href="#ah"/><use transform="matrix(0.04938271604938272,0,0,0.04938271604938272,65.08641975308643,0)" xlink:href="#ac"/></g><path fill="#333" d="M67-125c0 53 21 87 73 88 37 1 54-22 65-47l45 17C233-25 199 4 140 4 58 4 20-42 15-125 8-235 124-281 211-232c18 10 29 29 36 50l-46 12c-8-25-30-41-62-41-52 0-71 34-72 86" id="ai"/><path fill="#333" d="M133-34C117-15 103 5 69 4 32 3 11-16 11-54c-1-60 55-63 116-61 1-26-3-47-28-47-18 1-26 9-28 27l-52-2c7-38 36-58 82-57s74 22 75 68l1 82c-1 14 12 18 25 15v27c-30 8-71 5-69-32zm-48 3c29 0 43-24 42-57-32 0-66-3-65 30 0 17 8 27 23 27" id="aj"/><g id="s"><use transform="matrix(0.04938271604938272,0,0,0.04938271604938272,0,0)" xlink:href="#ai"/><use transform="matrix(0.04938271604938272,0,0,0.04938271604938272,12.790123456790125,0)" xlink:href="#ag"/><use transform="matrix(0.04938271604938272,0,0,0.04938271604938272,19.703703703703706,0)" xlink:href="#aa"/><use transform="matrix(0.04938271604938272,0,0,0.04938271604938272,29.58024691358025,0)" xlink:href="#aj"/><use transform="matrix(0.04938271604938272,0,0,0.04938271604938272,39.4567901234568,0)" xlink:href="#ac"/><use transform="matrix(0.04938271604938272,0,0,0.04938271604938272,45.33333333333334,0)" xlink:href="#aa"/></g><path fill="#3a414a" d="M9 0v-24l116-142H16v-24h144v24L44-24h123V0H9" id="ak"/><g id="t"><use transform="matrix(0.06172839506172839,0,0,0.06172839506172839,0,0)" xlink:href="#Q"/><use transform="matrix(0.06172839506172839,0,0,0.06172839506172839,14.814814814814813,0)" xlink:href="#Y"/><use transform="matrix(0.06172839506172839,0,0,0.06172839506172839,33.2716049382716,0)" xlink:href="#I"/><use transform="matrix(0.06172839506172839,0,0,0.06172839506172839,45.61728395061728,0)" xlink:href="#ak"/><use transform="matrix(0.06172839506172839,0,0,0.06172839506172839,56.72839506172839,0)" xlink:href="#H"/><use transform="matrix(0.06172839506172839,0,0,0.06172839506172839,69.07407407407408,0)" xlink:href="#M"/></g><path fill="#3a414a" d="M30-248c118-7 216 8 213 122C240-48 200 0 122 0H30v-248zM63-27c89 8 146-16 146-99s-60-101-146-95v194" id="al"/><path fill="#3a414a" d="M179-190L93 31C79 59 56 82 12 73V49c39 6 53-20 64-50L1-190h34L92-34l54-156h33" id="am"/><g id="u"><use transform="matrix(0.06172839506172839,0,0,0.06172839506172839,0,0)" xlink:href="#al"/><use transform="matrix(0.06172839506172839,0,0,0.06172839506172839,15.987654320987653,0)" xlink:href="#am"/><use transform="matrix(0.06172839506172839,0,0,0.06172839506172839,27.098765432098766,0)" xlink:href="#M"/><use transform="matrix(0.06172839506172839,0,0,0.06172839506172839,39.44444444444444,0)" xlink:href="#I"/><use transform="matrix(0.06172839506172839,0,0,0.06172839506172839,51.79012345679012,0)" xlink:href="#Y"/><use transform="matrix(0.06172839506172839,0,0,0.06172839506172839,70.24691358024691,0)" xlink:href="#H"/><use transform="matrix(0.06172839506172839,0,0,0.06172839506172839,82.5925925925926,0)" xlink:href="#al"/><use transform="matrix(0.06172839506172839,0,0,0.06172839506172839,98.58024691358025,0)" xlink:href="#K"/></g><path fill="#3a414a" d="M106-169C34-169 62-67 57 0H25v-261h32l-1 103c12-21 28-36 61-36 89 0 53 116 60 194h-32v-121c2-32-8-49-39-48" id="an"/><g id="v"><use transform="matrix(0.06172839506172839,0,0,0.06172839506172839,0,0)" xlink:href="#V"/><use transform="matrix(0.06172839506172839,0,0,0.06172839506172839,14.814814814814813,0)" xlink:href="#an"/><use transform="matrix(0.06172839506172839,0,0,0.06172839506172839,27.160493827160494,0)" xlink:href="#H"/><use transform="matrix(0.06172839506172839,0,0,0.06172839506172839,39.50617283950617,0)" xlink:href="#F"/><use transform="matrix(0.06172839506172839,0,0,0.06172839506172839,46.85185185185185,0)" xlink:href="#S"/><use transform="matrix(0.06172839506172839,0,0,0.06172839506172839,53.02469135802469,0)" xlink:href="#E"/><use transform="matrix(0.06172839506172839,0,0,0.06172839506172839,65.37037037037037,0)" xlink:href="#M"/><use transform="matrix(0.06172839506172839,0,0,0.06172839506172839,77.71604938271605,0)" xlink:href="#E"/><use transform="matrix(0.06172839506172839,0,0,0.06172839506172839,90.06172839506173,0)" xlink:href="#F"/></g><linearGradient gradientUnits="userSpaceOnUse" id="w" x1="840" y1="730" x2="960" y2="590"><stop offset="0%" stop-color="#b0084d"/><stop offset="100%" stop-color="#ff4f8b"/></linearGradient><path fill="#3a414a" d="M30-248c87 1 191-15 191 75 0 78-77 80-158 76V0H30v-248zm33 125c57 0 124 11 124-50 0-59-68-47-124-48v98" id="ao"/><path fill="#3a414a" d="M33 0v-248h34V0H33" id="ap"/><g id="x"><use transform="matrix(0.06172839506172839,0,0,0.06172839506172839,0,0)" xlink:href="#Q"/><use transform="matrix(0.06172839506172839,0,0,0.06172839506172839,14.814814814814813,0)" xlink:href="#ao"/><use transform="matrix(0.06172839506172839,0,0,0.06172839506172839,29.629629629629626,0)" xlink:href="#ap"/></g><path fill="#3a414a" d="M143 4C61 4 22-44 18-125c-5-107 100-154 193-111 17 8 29 25 37 43l-32 9c-13-25-37-40-76-40-61 0-88 39-88 99 0 61 29 100 91 101 35 0 62-11 79-27v-45h-74v-28h105v86C228-13 192 4 143 4" id="aq"/><path fill="#3a414a" d="M206 0h-36l-40-164L89 0H53L-1-190h32L70-26l43-164h34l41 164 42-164h31" id="ar"/><g id="y"><use transform="matrix(0.06172839506172839,0,0,0.06172839506172839,0,0)" xlink:href="#aq"/><use transform="matrix(0.06172839506172839,0,0,0.06172839506172839,17.28395061728395,0)" xlink:href="#I"/><use transform="matrix(0.06172839506172839,0,0,0.06172839506172839,29.629629629629626,0)" xlink:href="#S"/><use transform="matrix(0.06172839506172839,0,0,0.06172839506172839,35.80246913580247,0)" xlink:href="#E"/><use transform="matrix(0.06172839506172839,0,0,0.06172839506172839,48.148148148148145,0)" xlink:href="#ar"/><use transform="matrix(0.06172839506172839,0,0,0.06172839506172839,64.1358024691358,0)" xlink:href="#I"/><use transform="matrix(0.06172839506172839,0,0,0.06172839506172839,76.48148148148148,0)" xlink:href="#am"/></g><linearGradient gradientUnits="userSpaceOnUse" id="z" x1="1520" y1="540" x2="1640" y2="420"><stop offset="0%" stop-color="#1b660f"/><stop offset="100%" stop-color="#6cae3e"/></linearGradient><path fill="#3a414a" d="M143 0L79-87 56-68V0H24v-261h32v163l83-92h37l-77 82L181 0h-38" id="as"/><path fill="#3a414a" d="M84 4C-5 8 30-112 23-190h32v120c0 31 7 50 39 49 72-2 45-101 50-169h31l1 190h-30c-1-10 1-25-2-33-11 22-28 36-60 37" id="at"/><g id="A"><use transform="matrix(0.06172839506172839,0,0,0.06172839506172839,0,0)" xlink:href="#K"/><use transform="matrix(0.06172839506172839,0,0,0.06172839506172839,14.814814814814813,0)" xlink:href="#I"/><use transform="matrix(0.06172839506172839,0,0,0.06172839506172839,27.160493827160494,0)" xlink:href="#N"/><use transform="matrix(0.06172839506172839,0,0,0.06172839506172839,38.27160493827161,0)" xlink:href="#as"/><use transform="matrix(0.06172839506172839,0,0,0.06172839506172839,49.38271604938272,0)" xlink:href="#at"/><use transform="matrix(0.06172839506172839,0,0,0.06172839506172839,61.7283950617284,0)" xlink:href="#R"/></g><linearGradient gradientUnits="userSpaceOnUse" id="B" x1="1520" y1="900" x2="1640" y2="780"><stop offset="0%" stop-color="#1b660f"/><stop offset="100%" stop-color="#6cae3e"/></linearGradient></defs></g></svg>